<svg width="72" height="41" viewBox="0 0 203 116" fill="none" xmlns="http://www.w3.org/2000/svg">
<g clip-path="url(#clip0_172_9)">
<path d="M203 29V87C203 90.8099 202.249 94.5824 200.791 98.102C199.332 101.622 197.195 104.819 194.5 107.512C191.805 110.206 188.606 112.341 185.086 113.798C181.565 115.254 177.793 116.002 173.983 116H171.659L109.958 54.2854L146.609 17.6276H56.3909L95.8591 57.103V99.3959H107.159V67.187L155.922 116H28.9991C21.3081 116 13.932 112.945 8.49365 107.506C3.05526 102.068 0 94.6913 0 87L0 29C0 21.3087 3.05526 13.9325 8.49365 8.49391C13.932 3.05535 21.3081 2.49959e-06 28.9991 2.49959e-06H173.983C177.792 -0.001579 181.565 0.747317 185.085 2.20392C188.605 3.66053 191.804 5.7963 194.498 8.48928C197.193 11.1823 199.33 14.3797 200.789 17.8989C202.248 21.4182 202.999 25.1904 203 29Z" fill="#CD072D"/>
<path d="M124.051 26.0862L107.135 43.0094V26.0862H124.051Z" fill="#CD072D"/>
<path d="M95.859 26.0862V43.0033L78.9424 26.0862H95.859Z" fill="#CD072D"/>
</g>
<defs>
<clipPath id="clip0_172_9">
<rect width="203" height="116" fill="white"/>
</clipPath>
</defs>
</svg>
