<svg width="320" height="264" viewBox="0 0 320 264" fill="none" xmlns="http://www.w3.org/2000/svg">
<mask id="mask0_240_2391" style="mask-type:alpha" maskUnits="userSpaceOnUse" x="0" y="0" width="320" height="264">
<path d="M320 244C320 255.046 311.046 264 300 264L20 264C8.95432 264 7.8281e-07 255.046 1.74846e-06 244L2.30796e-05 2.54229e-06L320 3.05176e-05L320 244Z" fill="#CD072D"/>
</mask>
<g mask="url(#mask0_240_2391)">
<g opacity="0.14">
<path d="M54.4709 51.9792L109.765 88.7135L0 143.891L54.4709 51.9792Z" fill="url(#paint0_linear_240_2391)"/>
<path d="M109.765 88.7136L123.648 86.9751L124.471 41.9265L109.765 88.7136Z" fill="url(#paint1_linear_240_2391)"/>
<path d="M54.4707 51.9793L109.765 88.7136L124.471 41.9265L54.4707 51.9793Z" fill="url(#paint2_linear_240_2391)"/>
<path d="M190.001 114.261L202.942 139.129L223.178 120.762L190.001 114.261Z" fill="url(#paint3_linear_240_2391)"/>
<path d="M190.001 114.261L226.942 117.814L223.178 120.762L190.001 114.261Z" fill="url(#paint4_linear_240_2391)"/>
<path d="M123.648 86.9752L124.471 41.9266L156.824 43.1359L123.648 86.9752Z" fill="url(#paint5_linear_240_2391)"/>
<path d="M123.648 86.9752L190.001 114.261L156.824 43.1359L123.648 86.9752Z" fill="url(#paint6_linear_240_2391)"/>
<path d="M124.471 41.9265L160.472 39.5834L156.825 43.1359L124.471 41.9265Z" fill="url(#paint7_linear_240_2391)"/>
<path d="M398.473 37.7694L428.003 18.1929L314.472 -5.4652L398.473 37.7694Z" fill="url(#paint8_linear_240_2391)"/>
<path d="M54.4707 51.9792L131.883 -78.934L117.177 -99.1152L54.4707 51.9792Z" fill="url(#paint9_linear_240_2391)"/>
<path d="M54.4707 51.9792L131.883 -78.9339L144.824 -54.6712L54.4707 51.9792Z" fill="url(#paint10_linear_240_2391)"/>
<path d="M314.472 -5.46535L428.003 18.1927L478.709 -36.9087L314.472 -5.46535Z" fill="url(#paint11_linear_240_2391)"/>
<path d="M299.767 -6.06993L314.473 -5.46526L313.649 122.5L299.767 -6.06993Z" fill="url(#paint12_linear_240_2391)"/>
<path d="M314.472 -5.46526L398.473 37.7693L313.649 122.5L314.472 -5.46526Z" fill="url(#paint13_linear_240_2391)"/>
<path d="M392.002 99.9758L397.532 93.4755L313.649 122.5L392.002 99.9758Z" fill="url(#paint14_linear_240_2391)"/>
<path d="M397.532 93.4755L398.473 37.7694L313.649 122.5L397.532 93.4755Z" fill="url(#paint15_linear_240_2391)"/>
<path d="M156.824 43.1359L160.472 39.5834L193.648 34.2168L156.824 43.1359Z" fill="url(#paint16_linear_240_2391)"/>
<path d="M156.824 43.1359L190.001 114.261L193.648 34.2169L156.824 43.1359Z" fill="url(#paint17_linear_240_2391)"/>
<path d="M190.001 114.261L226.942 117.814L193.648 34.2169L190.001 114.261Z" fill="url(#paint18_linear_240_2391)"/>
<path d="M226.943 117.814L313.649 122.5L193.648 34.2169L226.943 117.814Z" fill="url(#paint19_linear_240_2391)"/>
<path d="M299.767 -6.06993L313.649 122.5L193.648 34.2169L299.767 -6.06993Z" fill="url(#paint20_linear_240_2391)"/>
<path d="M124.471 41.9265L160.472 39.5834L157.766 16.4544L124.471 41.9265Z" fill="url(#paint21_linear_240_2391)"/>
<path d="M144.824 -54.6712L299.767 -6.07004L157.766 16.4543L144.824 -54.6712Z" fill="url(#paint22_linear_240_2391)"/>
<path d="M160.472 39.5834L193.648 34.2168L157.766 16.4544L160.472 39.5834Z" fill="url(#paint23_linear_240_2391)"/>
<path d="M193.648 34.2168L299.767 -6.07L157.766 16.4543L193.648 34.2168Z" fill="url(#paint24_linear_240_2391)"/>
<path d="M54.4707 51.9792L124.471 41.9264L157.765 16.4543L54.4707 51.9792Z" fill="url(#paint25_linear_240_2391)"/>
<path d="M54.4707 51.9792L144.824 -54.6712L157.765 16.4543L54.4707 51.9792Z" fill="url(#paint26_linear_240_2391)"/>
<path d="M0 143.891L54.4709 51.9792L1.88237 -176.741L0 143.891Z" fill="url(#paint27_linear_240_2391)"/>
<path d="M54.4709 51.9792L117.177 -99.1151L1.88232 -176.741L54.4709 51.9792Z" fill="url(#paint28_linear_240_2391)"/>
<path d="M109.765 88.7137L123.648 86.9752L155.883 120.157L109.765 88.7137Z" fill="url(#paint29_linear_240_2391)"/>
<path d="M123.648 86.9752L190.001 114.261L155.883 120.157L123.648 86.9752Z" fill="url(#paint30_linear_240_2391)"/>
<path d="M153.06 216.15L202.942 139.129L155.883 120.157L153.06 216.15Z" fill="url(#paint31_linear_240_2391)"/>
<path d="M190.001 114.261L202.942 139.129L155.883 120.157L190.001 114.261Z" fill="url(#paint32_linear_240_2391)"/>
<path d="M0 143.891L109.765 88.7135L155.883 120.157L0 143.891Z" fill="url(#paint33_linear_240_2391)"/>
<path d="M0 143.89L153.06 216.15L155.883 120.157L0 143.89Z" fill="url(#paint34_linear_240_2391)"/>
<path d="M313.649 122.5L344.943 127.262L379.061 111.238L313.649 122.5Z" fill="url(#paint35_linear_240_2391)"/>
<path d="M313.649 122.5L392.002 99.9758L379.061 111.238L313.649 122.5Z" fill="url(#paint36_linear_240_2391)"/>
<path d="M202.942 139.129L223.178 120.762L319.178 137.315L202.942 139.129Z" fill="url(#paint37_linear_240_2391)"/>
<path d="M223.178 120.762L226.942 117.814L319.178 137.315L223.178 120.762Z" fill="url(#paint38_linear_240_2391)"/>
<path d="M226.943 117.814L313.649 122.5L319.178 137.315L226.943 117.814Z" fill="url(#paint39_linear_240_2391)"/>
<path d="M313.649 122.5L344.943 127.262L319.178 137.315L313.649 122.5Z" fill="url(#paint40_linear_240_2391)"/>
</g>
</g>
<defs>
<linearGradient id="paint0_linear_240_2391" x1="-9.76477" y1="139.658" x2="82.493" y2="29.4109" gradientUnits="userSpaceOnUse">
<stop stop-color="#FEFEFE"/>
<stop offset="1" stop-color="#A6CCE4"/>
</linearGradient>
<linearGradient id="paint1_linear_240_2391" x1="112.589" y1="100.958" x2="139.984" y2="92.3222" gradientUnits="userSpaceOnUse">
<stop stop-color="#0072BB"/>
<stop offset="1" stop-color="#0086CC"/>
</linearGradient>
<linearGradient id="paint2_linear_240_2391" x1="56.3531" y1="89.0159" x2="100.478" y2="22.9442" gradientUnits="userSpaceOnUse">
<stop stop-color="#7FD5F6"/>
<stop offset="1" stop-color="#0099DD"/>
</linearGradient>
<linearGradient id="paint3_linear_240_2391" x1="183.648" y1="133.762" x2="208.968" y2="104.205" gradientUnits="userSpaceOnUse">
<stop stop-color="#0071BA"/>
<stop offset="1" stop-color="#54A0D1"/>
</linearGradient>
<linearGradient id="paint4_linear_240_2391" x1="188.942" y1="120.61" x2="191.221" y2="107.71" gradientUnits="userSpaceOnUse">
<stop stop-color="#0072BB"/>
<stop offset="1" stop-color="#0071BB"/>
</linearGradient>
<linearGradient id="paint5_linear_240_2391" x1="115.883" y1="74.806" x2="159.784" y2="42.4384" gradientUnits="userSpaceOnUse">
<stop stop-color="#008FD5"/>
<stop offset="1" stop-color="#00ADEE"/>
</linearGradient>
<linearGradient id="paint6_linear_240_2391" x1="129.648" y1="122.198" x2="202.04" y2="54.5909" gradientUnits="userSpaceOnUse">
<stop stop-color="#008DD2"/>
<stop offset="1" stop-color="#0097DB"/>
</linearGradient>
<linearGradient id="paint7_linear_240_2391" x1="128.471" y1="43.8161" x2="129.182" y2="36.6302" gradientUnits="userSpaceOnUse">
<stop stop-color="#00ADEF"/>
<stop offset="1" stop-color="#00ABED"/>
</linearGradient>
<linearGradient id="paint8_linear_240_2391" x1="305.061" y1="33.4611" x2="334.45" y2="-43.6159" gradientUnits="userSpaceOnUse">
<stop stop-color="#0072BB"/>
<stop offset="1" stop-color="#4FA9D8"/>
</linearGradient>
<linearGradient id="paint9_linear_240_2391" x1="50.9413" y1="46.1592" x2="176.145" y2="-18.0363" gradientUnits="userSpaceOnUse">
<stop stop-color="#7FC8EB"/>
<stop offset="1" stop-color="#52A8D8"/>
</linearGradient>
<linearGradient id="paint10_linear_240_2391" x1="59.5296" y1="55.4562" x2="174.26" y2="-35.0448" gradientUnits="userSpaceOnUse">
<stop stop-color="#7FC9EC"/>
<stop offset="1" stop-color="#007DC5"/>
</linearGradient>
<linearGradient id="paint11_linear_240_2391" x1="334.708" y1="23.3325" x2="361.555" y2="-68.0725" gradientUnits="userSpaceOnUse">
<stop stop-color="#B0D4E6"/>
<stop offset="1" stop-color="#268FC7"/>
</linearGradient>
<linearGradient id="paint12_linear_240_2391" x1="299.884" y1="120.006" x2="329.611" y2="116.594" gradientUnits="userSpaceOnUse">
<stop stop-color="#76AFD3"/>
<stop offset="1" stop-color="#A4C9E2"/>
</linearGradient>
<linearGradient id="paint13_linear_240_2391" x1="301.884" y1="103.755" x2="422.188" y2="23.9995" gradientUnits="userSpaceOnUse">
<stop stop-color="#77B3D7"/>
<stop offset="1" stop-color="#55A3D4"/>
</linearGradient>
<linearGradient id="paint14_linear_240_2391" x1="314.825" y1="123.105" x2="333.134" y2="70.1801" gradientUnits="userSpaceOnUse">
<stop stop-color="#00A0E4"/>
<stop offset="1" stop-color="#55C0ED"/>
</linearGradient>
<linearGradient id="paint15_linear_240_2391" x1="323.531" y1="137.088" x2="410" y2="50.4993" gradientUnits="userSpaceOnUse">
<stop stop-color="#00A0E4"/>
<stop offset="1" stop-color="#55ACDC"/>
</linearGradient>
<linearGradient id="paint16_linear_240_2391" x1="156.001" y1="42.6068" x2="159.233" y2="27.2736" gradientUnits="userSpaceOnUse">
<stop stop-color="#00A0E4"/>
<stop offset="1" stop-color="#2EAEE6"/>
</linearGradient>
<linearGradient id="paint17_linear_240_2391" x1="156.001" y1="112.976" x2="218.09" y2="84.3421" gradientUnits="userSpaceOnUse">
<stop stop-color="#00A0E4"/>
<stop offset="1" stop-color="#2D9CD6"/>
</linearGradient>
<linearGradient id="paint18_linear_240_2391" x1="188.942" y1="119.25" x2="251.952" y2="91.4275" gradientUnits="userSpaceOnUse">
<stop stop-color="#0083CA"/>
<stop offset="1" stop-color="#2D9CD6"/>
</linearGradient>
<linearGradient id="paint19_linear_240_2391" x1="199.648" y1="125.75" x2="272.077" y2="13.3395" gradientUnits="userSpaceOnUse">
<stop stop-color="#0077BE"/>
<stop offset="1" stop-color="#82C3E4"/>
</linearGradient>
<linearGradient id="paint20_linear_240_2391" x1="199.648" y1="136.408" x2="330.544" y2="14.3525" gradientUnits="userSpaceOnUse">
<stop stop-color="#76C0E3"/>
<stop offset="1" stop-color="#82CBEC"/>
</linearGradient>
<linearGradient id="paint21_linear_240_2391" x1="133.06" y1="46.0837" x2="158.718" y2="14.389" gradientUnits="userSpaceOnUse">
<stop stop-color="#09AEED"/>
<stop offset="1" stop-color="#0FA6E4"/>
</linearGradient>
<linearGradient id="paint22_linear_240_2391" x1="128.942" y1="8.8202" x2="183.955" y2="-111.057" gradientUnits="userSpaceOnUse">
<stop stop-color="#7FB8DD"/>
<stop offset="1" stop-color="#ACD7EC"/>
</linearGradient>
<linearGradient id="paint23_linear_240_2391" x1="157.413" y1="37.8449" x2="175.199" y2="6.20576" gradientUnits="userSpaceOnUse">
<stop stop-color="#009EE2"/>
<stop offset="1" stop-color="#36AAE0"/>
</linearGradient>
<linearGradient id="paint24_linear_240_2391" x1="146.707" y1="34.368" x2="168.298" y2="-41.7432" gradientUnits="userSpaceOnUse">
<stop stop-color="#44BEEE"/>
<stop offset="1" stop-color="#57BCE6"/>
</linearGradient>
<linearGradient id="paint25_linear_240_2391" x1="68.1178" y1="54.7003" x2="90.447" y2="-10.1761" gradientUnits="userSpaceOnUse">
<stop stop-color="#7FD5F6"/>
<stop offset="1" stop-color="#08A7E7"/>
</linearGradient>
<linearGradient id="paint26_linear_240_2391" x1="68.1178" y1="67.2474" x2="176.904" y2="-38.111" gradientUnits="userSpaceOnUse">
<stop stop-color="#8DCDEB"/>
<stop offset="1" stop-color="#128DCE"/>
</linearGradient>
<linearGradient id="paint27_linear_240_2391" x1="-3.29414" y1="119.401" x2="104.655" y2="101.077" gradientUnits="userSpaceOnUse">
<stop stop-color="#7AD0F0"/>
<stop offset="1" stop-color="#5CAED8"/>
</linearGradient>
<linearGradient id="paint28_linear_240_2391" x1="-12.8237" y1="23.1814" x2="174.803" y2="-71.3913" gradientUnits="userSpaceOnUse">
<stop stop-color="#7FD5F6"/>
<stop offset="1" stop-color="#59ACD6"/>
</linearGradient>
<linearGradient id="paint29_linear_240_2391" x1="111.648" y1="120.308" x2="143.755" y2="75.6875" gradientUnits="userSpaceOnUse">
<stop stop-color="#0072BB"/>
<stop offset="1" stop-color="#0072BB"/>
</linearGradient>
<linearGradient id="paint30_linear_240_2391" x1="121.177" y1="120.308" x2="148.257" y2="66.1158" gradientUnits="userSpaceOnUse">
<stop stop-color="#0071BA"/>
<stop offset="1" stop-color="#0071BA"/>
</linearGradient>
<linearGradient id="paint31_linear_240_2391" x1="143.53" y1="192.416" x2="217.932" y2="158.639" gradientUnits="userSpaceOnUse">
<stop stop-color="white"/>
<stop offset="1" stop-color="#A9CFE8"/>
</linearGradient>
<linearGradient id="paint32_linear_240_2391" x1="158.589" y1="140.111" x2="179.586" y2="100.427" gradientUnits="userSpaceOnUse">
<stop stop-color="#0072BB"/>
<stop offset="1" stop-color="#54A0D1"/>
</linearGradient>
<linearGradient id="paint33_linear_240_2391" x1="10.5883" y1="149.559" x2="45.9339" y2="49.5853" gradientUnits="userSpaceOnUse">
<stop stop-color="#81B5D8"/>
<stop offset="1" stop-color="#0573BB"/>
</linearGradient>
<linearGradient id="paint34_linear_240_2391" x1="10.5883" y1="216.906" x2="103.624" y2="84.722" gradientUnits="userSpaceOnUse">
<stop stop-color="#E2E3E4"/>
<stop offset="1" stop-color="#9AC1DA"/>
</linearGradient>
<linearGradient id="paint35_linear_240_2391" x1="313.531" y1="127.186" x2="322.065" y2="96.6249" gradientUnits="userSpaceOnUse">
<stop stop-color="#FEFEFE"/>
<stop offset="1" stop-color="#A9E0F6"/>
</linearGradient>
<linearGradient id="paint36_linear_240_2391" x1="317.296" y1="123.634" x2="329.49" y2="81.1805" gradientUnits="userSpaceOnUse">
<stop stop-color="#7FC9EC"/>
<stop offset="1" stop-color="#00A1E5"/>
</linearGradient>
<linearGradient id="paint37_linear_240_2391" x1="206.942" y1="138.826" x2="212.724" y2="102.25" gradientUnits="userSpaceOnUse">
<stop stop-color="#FEFEFE"/>
<stop offset="1" stop-color="#AAD0E8"/>
</linearGradient>
<linearGradient id="paint38_linear_240_2391" x1="223.648" y1="137.466" x2="231.46" y2="99.1494" gradientUnits="userSpaceOnUse">
<stop stop-color="#7FB8DD"/>
<stop offset="1" stop-color="#AACFE8"/>
</linearGradient>
<linearGradient id="paint39_linear_240_2391" x1="230.59" y1="137.466" x2="238.687" y2="99.2737" gradientUnits="userSpaceOnUse">
<stop stop-color="#7FB8DD"/>
<stop offset="1" stop-color="white"/>
</linearGradient>
<linearGradient id="paint40_linear_240_2391" x1="307.884" y1="134.367" x2="319.561" y2="109.649" gradientUnits="userSpaceOnUse">
<stop stop-color="#FEFEFE"/>
<stop offset="1" stop-color="#FEFEFE"/>
</linearGradient>
</defs>
</svg>
