<svg width="72" height="41" viewBox="0 0 72 41" fill="none" xmlns="http://www.w3.org/2000/svg">
<g clip-path="url(#clip0_133_7258)">
<path d="M72.0001 6.97696V34.023C72.0001 35.8734 71.2624 37.6481 69.9494 38.9565C68.6364 40.2649 66.8556 41 64.9987 41H59.3403L49.3239 31.0165C51.8899 27.8606 53.192 23.8696 52.9792 19.8134C52.7663 15.7572 51.0535 11.9233 48.1712 9.05132C45.2889 6.17937 41.4414 4.4729 37.371 4.26116C33.3005 4.04941 29.2956 5.34739 26.1289 7.90467L18.1965 0H64.9987C66.8556 0 68.6364 0.73507 69.9494 2.0435C71.2624 3.35194 72.0001 5.12655 72.0001 6.97696Z" fill="#CD072D"/>
<path d="M53.763 41H7.00142C5.14453 41 3.36369 40.2649 2.05067 38.9565C0.737648 37.6481 0 35.8734 0 34.023L0 6.97696C-8.63351e-08 5.12692 0.737355 3.35263 2.04991 2.04426C3.36247 0.735884 5.14277 0.000564207 6.99929 0L12.6192 0L23.3808 10.724C20.9607 13.8874 19.7743 17.8182 20.0416 21.7871C20.3089 25.756 22.0119 29.4936 24.8345 32.3063C27.6571 35.1191 31.4078 36.8161 35.3906 37.0825C39.3734 37.3489 43.318 36.1666 46.4925 33.7549L53.763 41Z" fill="#CD072D"/>
<path d="M36.4995 8.22382C34.0267 8.2234 31.6093 8.95375 29.5531 10.3225C27.4969 11.6912 25.8942 13.6369 24.9477 15.9134C24.0012 18.1899 23.7534 20.695 24.2357 23.1118C24.718 25.5287 25.9088 27.7487 27.6573 29.4911C29.4058 31.2335 31.6336 32.4201 34.0589 32.9007C36.4842 33.3814 38.9981 33.1345 41.2826 32.1913C43.5671 31.2481 45.5196 29.651 46.8931 27.6019C48.2667 25.5529 48.9996 23.1439 48.9992 20.6798C48.9992 17.3763 47.6822 14.208 45.3381 11.8721C42.994 9.53614 39.8146 8.22382 36.4995 8.22382ZM41.0582 26.5226C41.0075 26.5799 40.9451 26.6257 40.8751 26.6569C40.8051 26.6882 40.7292 26.704 40.6525 26.7035H32.5771C32.5001 26.7041 32.4239 26.6882 32.3536 26.657C32.2832 26.6258 32.2204 26.58 32.1693 26.5226C32.0612 26.405 32.0013 26.2513 32.0013 26.0918C32.0013 25.9323 32.0612 25.7786 32.1693 25.6609L36.2091 21.3671C36.2602 21.3102 36.3227 21.2647 36.3926 21.2336C36.4625 21.2024 36.5383 21.1863 36.6148 21.1863C36.6914 21.1863 36.7671 21.2024 36.837 21.2336C36.9069 21.2647 36.9695 21.3102 37.0205 21.3671L41.0582 25.6609C41.1663 25.7786 41.2262 25.9323 41.2262 26.0918C41.2262 26.2513 41.1663 26.405 41.0582 26.5226ZM41.0582 15.2455L37.0205 19.5414C36.9695 19.5983 36.9069 19.6438 36.837 19.6749C36.7671 19.706 36.6914 19.7221 36.6148 19.7221C36.5383 19.7221 36.4625 19.706 36.3926 19.6749C36.3227 19.6438 36.2602 19.5983 36.2091 19.5414L32.1714 15.2476C32.0664 15.1306 32.0083 14.979 32.0083 14.822C32.0083 14.665 32.0664 14.5135 32.1714 14.3965C32.222 14.3389 32.2844 14.2928 32.3544 14.2612C32.4243 14.2296 32.5003 14.2134 32.5771 14.2135H40.6525C40.7294 14.2134 40.8053 14.2296 40.8753 14.2612C40.9453 14.2928 41.0076 14.3389 41.0582 14.3965C41.166 14.5122 41.2259 14.6642 41.2259 14.822C41.2259 14.9799 41.166 15.1319 41.0582 15.2476V15.2455Z" fill="#CD072D"/>
</g>
<defs>
<clipPath id="clip0_133_7258">
<rect width="72" height="41" fill="white"/>
</clipPath>
</defs>
</svg>
