<svg width="320" height="264" viewBox="0 0 320 264" fill="none" xmlns="http://www.w3.org/2000/svg">
<mask id="mask0_240_809" style="mask-type:alpha" maskUnits="userSpaceOnUse" x="0" y="0" width="320" height="264">
<path d="M0 20C0 8.9543 8.95431 0 20 0H300C311.046 0 320 8.95431 320 20V264H0V20Z" fill="#CD072D"/>
</mask>
<g mask="url(#mask0_240_809)">
<g opacity="0.14">
<path d="M114.175 97.8421L41.351 141.681L100.41 165.415L114.175 97.8421Z" fill="url(#paint0_linear_240_809)"/>
<path d="M-79.473 301.695L-109.003 282.118L4.52758 258.46L-79.473 301.695Z" fill="url(#paint1_linear_240_809)"/>
<path d="M187.117 184.991L100.41 165.415L201.823 164.81L187.117 184.991Z" fill="url(#paint2_linear_240_809)"/>
<path d="M114.175 97.8421L100.41 165.415L201.823 164.81L114.175 97.8421Z" fill="url(#paint3_linear_240_809)"/>
<path d="M264.529 315.905L187.117 184.991L201.823 164.81L264.529 315.905Z" fill="url(#paint4_linear_240_809)"/>
<path d="M187.117 184.991L100.41 165.415L174.176 209.254L187.117 184.991Z" fill="url(#paint5_linear_240_809)"/>
<path d="M100.41 165.415L19.2334 257.855L174.176 209.254L100.41 165.415Z" fill="url(#paint6_linear_240_809)"/>
<path d="M264.529 315.905L187.117 184.991L174.176 209.254L264.529 315.905Z" fill="url(#paint7_linear_240_809)"/>
<path d="M100.41 165.415L41.3512 141.681L3.58624 182.573L100.41 165.415Z" fill="url(#paint8_linear_240_809)"/>
<path d="M100.41 165.415L19.2334 257.855L3.58624 182.573L100.41 165.415Z" fill="url(#paint9_linear_240_809)"/>
<path d="M41.3511 141.681L-57.3555 135.181L3.58613 182.573L41.3511 141.681Z" fill="url(#paint10_linear_240_809)"/>
<path d="M19.2334 257.856L4.52742 258.46L3.58623 182.573L19.2334 257.856Z" fill="url(#paint11_linear_240_809)"/>
<path d="M4.52734 258.46L-60.0613 171.915L3.58616 182.573L4.52734 258.46Z" fill="url(#paint12_linear_240_809)"/>
<path d="M-57.3554 135.181L-60.0613 171.915L3.58618 182.573L-57.3554 135.181Z" fill="url(#paint13_linear_240_809)"/>
<path d="M4.52734 258.46L-60.0613 171.915L-159.709 227.017L4.52734 258.46Z" fill="url(#paint14_linear_240_809)"/>
<path d="M4.52759 258.46L-109.003 282.118L-159.709 227.017L4.52759 258.46Z" fill="url(#paint15_linear_240_809)"/>
<path d="M19.2334 257.855L4.52741 258.46L5.35095 386.425L19.2334 257.855Z" fill="url(#paint16_linear_240_809)"/>
<path d="M4.52729 258.46L-79.4733 301.695L5.35083 386.425L4.52729 258.46Z" fill="url(#paint17_linear_240_809)"/>
<path d="M19.2332 257.855L5.35076 386.425L125.352 298.142L19.2332 257.855Z" fill="url(#paint18_linear_240_809)"/>
<path d="M41.3511 141.681L-57.3554 135.181L-55.4731 107.366L41.3511 141.681Z" fill="url(#paint19_linear_240_809)"/>
<path d="M174.176 209.254L19.2334 257.855L161.234 280.38L174.176 209.254Z" fill="url(#paint20_linear_240_809)"/>
<path d="M125.352 298.142L19.2334 257.855L161.234 280.38L125.352 298.142Z" fill="url(#paint21_linear_240_809)"/>
<path d="M264.529 315.905L174.176 209.254L161.235 280.38L264.529 315.905Z" fill="url(#paint22_linear_240_809)"/>
<path d="M319 407.816L264.529 315.905L317.118 87.1844L319 407.816Z" fill="url(#paint23_linear_240_809)"/>
<path d="M264.529 315.905L201.823 164.81L317.118 87.1844L264.529 315.905Z" fill="url(#paint24_linear_240_809)"/>
<path d="M114.175 97.8418L41.351 141.681L72.763 75.3175L114.175 97.8418Z" fill="url(#paint25_linear_240_809)"/>
<path d="M41.3512 141.681L-55.4729 107.366L72.7632 75.3175L41.3512 141.681Z" fill="url(#paint26_linear_240_809)"/>
<path d="M-55.473 107.366L-98.885 69.4219L72.7632 75.3176L-55.473 107.366Z" fill="url(#paint27_linear_240_809)"/>
</g>
</g>
<defs>
<linearGradient id="paint0_linear_240_809" x1="122.41" y1="158.31" x2="53.6739" y2="84.1691" gradientUnits="userSpaceOnUse">
<stop stop-color="#CED0D4"/>
<stop offset="1" stop-color="#5EABD1"/>
</linearGradient>
<linearGradient id="paint1_linear_240_809" x1="13.9394" y1="297.386" x2="-15.4502" y2="220.309" gradientUnits="userSpaceOnUse">
<stop stop-color="#0072BB"/>
<stop offset="1" stop-color="#4FA9D8"/>
</linearGradient>
<linearGradient id="paint2_linear_240_809" x1="217.47" y1="180.985" x2="211.347" y2="145.75" gradientUnits="userSpaceOnUse">
<stop stop-color="#0071BA"/>
<stop offset="1" stop-color="#6CADD2"/>
</linearGradient>
<linearGradient id="paint3_linear_240_809" x1="178.646" y1="184.16" x2="115.046" y2="88.6401" gradientUnits="userSpaceOnUse">
<stop stop-color="#E3E4E5"/>
<stop offset="1" stop-color="#BED9E6"/>
</linearGradient>
<linearGradient id="paint4_linear_240_809" x1="268.059" y1="310.085" x2="142.855" y2="245.889" gradientUnits="userSpaceOnUse">
<stop stop-color="#7FC8EB"/>
<stop offset="1" stop-color="#52A8D8"/>
</linearGradient>
<linearGradient id="paint5_linear_240_809" x1="192.293" y1="205.551" x2="156.251" y2="134.287" gradientUnits="userSpaceOnUse">
<stop stop-color="#0070B9"/>
<stop offset="1" stop-color="#1A80BD"/>
</linearGradient>
<linearGradient id="paint6_linear_240_809" x1="150.528" y1="269.949" x2="67.5207" y2="130.809" gradientUnits="userSpaceOnUse">
<stop stop-color="#A0C9DC"/>
<stop offset="1" stop-color="#9FC5DE"/>
</linearGradient>
<linearGradient id="paint7_linear_240_809" x1="259.47" y1="319.382" x2="144.74" y2="228.881" gradientUnits="userSpaceOnUse">
<stop stop-color="#7FC9EC"/>
<stop offset="1" stop-color="#007DC5"/>
</linearGradient>
<linearGradient id="paint8_linear_240_809" x1="90.528" y1="190.207" x2="60.6274" y2="119.385" gradientUnits="userSpaceOnUse">
<stop stop-color="#279AD0"/>
<stop offset="1" stop-color="#199DDC"/>
</linearGradient>
<linearGradient id="paint9_linear_240_809" x1="102.881" y1="258.158" x2="8.653" y2="159.44" gradientUnits="userSpaceOnUse">
<stop stop-color="#90B9CD"/>
<stop offset="1" stop-color="#ADCFE0"/>
</linearGradient>
<linearGradient id="paint10_linear_240_809" x1="49.7041" y1="177.811" x2="11.9435" y2="99.2004" gradientUnits="userSpaceOnUse">
<stop stop-color="#0094DA"/>
<stop offset="1" stop-color="#1991D1"/>
</linearGradient>
<linearGradient id="paint11_linear_240_809" x1="16.0569" y1="277.81" x2="-14.6318" y2="271.466" gradientUnits="userSpaceOnUse">
<stop stop-color="#EFEFEF"/>
<stop offset="1" stop-color="#B8DAEA"/>
</linearGradient>
<linearGradient id="paint12_linear_240_809" x1="20.998" y1="236.087" x2="-63.6346" y2="172.929" gradientUnits="userSpaceOnUse">
<stop stop-color="#EDEDED"/>
<stop offset="1" stop-color="#68BFE6"/>
</linearGradient>
<linearGradient id="paint13_linear_240_809" x1="-5.82565" y1="189.904" x2="-52.1753" y2="127.681" gradientUnits="userSpaceOnUse">
<stop stop-color="#0083CA"/>
<stop offset="1" stop-color="#19A2E0"/>
</linearGradient>
<linearGradient id="paint14_linear_240_809" x1="5.23323" y1="258.158" x2="-67.5893" y2="119.966" gradientUnits="userSpaceOnUse">
<stop stop-color="#76C0E3"/>
<stop offset="1" stop-color="#0084C7"/>
</linearGradient>
<linearGradient id="paint15_linear_240_809" x1="-15.7078" y1="287.258" x2="-42.5547" y2="195.853" gradientUnits="userSpaceOnUse">
<stop stop-color="#B0D4E6"/>
<stop offset="1" stop-color="#268FC7"/>
</linearGradient>
<linearGradient id="paint16_linear_240_809" x1="19.1158" y1="383.931" x2="-10.6106" y2="380.52" gradientUnits="userSpaceOnUse">
<stop stop-color="#76AFD3"/>
<stop offset="1" stop-color="#A4C9E2"/>
</linearGradient>
<linearGradient id="paint17_linear_240_809" x1="17.1156" y1="367.68" x2="-103.188" y2="287.925" gradientUnits="userSpaceOnUse">
<stop stop-color="#77B3D7"/>
<stop offset="1" stop-color="#55A3D4"/>
</linearGradient>
<linearGradient id="paint18_linear_240_809" x1="119.352" y1="400.333" x2="-11.5439" y2="278.278" gradientUnits="userSpaceOnUse">
<stop stop-color="#76C0E3"/>
<stop offset="1" stop-color="#82CBEC"/>
</linearGradient>
<linearGradient id="paint19_linear_240_809" x1="24.5274" y1="147.199" x2="2.74204" y2="84.6428" gradientUnits="userSpaceOnUse">
<stop stop-color="#0082CA"/>
<stop offset="1" stop-color="#0071BA"/>
</linearGradient>
<linearGradient id="paint20_linear_240_809" x1="190.058" y1="272.746" x2="135.045" y2="152.868" gradientUnits="userSpaceOnUse">
<stop stop-color="#7FB8DD"/>
<stop offset="1" stop-color="#ACD7EC"/>
</linearGradient>
<linearGradient id="paint21_linear_240_809" x1="172.293" y1="298.293" x2="150.701" y2="222.182" gradientUnits="userSpaceOnUse">
<stop stop-color="#44BEEE"/>
<stop offset="1" stop-color="#57BCE6"/>
</linearGradient>
<linearGradient id="paint22_linear_240_809" x1="250.882" y1="331.173" x2="142.096" y2="225.814" gradientUnits="userSpaceOnUse">
<stop stop-color="#8DCDEB"/>
<stop offset="1" stop-color="#128DCE"/>
</linearGradient>
<linearGradient id="paint23_linear_240_809" x1="322.294" y1="383.326" x2="214.345" y2="365.002" gradientUnits="userSpaceOnUse">
<stop stop-color="#7AD0F0"/>
<stop offset="1" stop-color="#5CAED8"/>
</linearGradient>
<linearGradient id="paint24_linear_240_809" x1="331.824" y1="287.107" x2="144.197" y2="192.534" gradientUnits="userSpaceOnUse">
<stop stop-color="#7FD5F6"/>
<stop offset="1" stop-color="#59ACD6"/>
</linearGradient>
<linearGradient id="paint25_linear_240_809" x1="103.822" y1="149.466" x2="45.5413" y2="76.3398" gradientUnits="userSpaceOnUse">
<stop stop-color="#D1D2D4"/>
<stop offset="1" stop-color="#9ACCE4"/>
</linearGradient>
<linearGradient id="paint26_linear_240_809" x1="88.9986" y1="132.535" x2="33.6999" y2="25.7136" gradientUnits="userSpaceOnUse">
<stop stop-color="#75C0E2"/>
<stop offset="1" stop-color="#A3C9E1"/>
</linearGradient>
<linearGradient id="paint27_linear_240_809" x1="76.2926" y1="106.912" x2="59.9796" y2="33.1193" gradientUnits="userSpaceOnUse">
<stop stop-color="#75AED2"/>
<stop offset="1" stop-color="#F8F8F8"/>
</linearGradient>
</defs>
</svg>
