<svg width="320" height="264" viewBox="0 0 320 264" fill="none" xmlns="http://www.w3.org/2000/svg">
<mask id="mask0_240_2191" style="mask-type:alpha" maskUnits="userSpaceOnUse" x="0" y="0" width="320" height="264">
<path d="M320 244C320 255.046 311.046 264 300 264L20 264C8.95432 264 7.8281e-07 255.046 1.74846e-06 244L2.30796e-05 2.54229e-06L320 3.05176e-05L320 244Z" fill="#CD072D"/>
</mask>
<g mask="url(#mask0_240_2191)">
<g opacity="0.14">
<path d="M242.592 159.234L354.24 101.185L303.533 51.3747L242.592 159.234Z" fill="url(#paint0_linear_240_2191)"/>
<path d="M242.592 159.234L354.24 101.185L360.71 124.919L242.592 159.234Z" fill="url(#paint1_linear_240_2191)"/>
<path d="M78.4731 37.7694L108.003 18.1929L208.474 57.9506L78.4731 37.7694Z" fill="url(#paint2_linear_240_2191)"/>
<path d="M242.592 159.234L303.534 51.3747L208.474 57.9506L242.592 159.234Z" fill="url(#paint3_linear_240_2191)"/>
<path d="M303.533 51.3746L330.239 -4.25599L246.356 -16.1228L303.533 51.3746Z" fill="url(#paint4_linear_240_2191)"/>
<path d="M72.0024 99.9758L242.592 159.234L200.239 183.573L72.0024 99.9758Z" fill="url(#paint5_linear_240_2191)"/>
<path d="M200.239 183.573L242.592 159.234L287.886 195.969L200.239 183.573Z" fill="url(#paint6_linear_240_2191)"/>
<path d="M242.592 159.234L360.71 124.919L287.886 195.969L242.592 159.234Z" fill="url(#paint7_linear_240_2191)"/>
<path d="M78.473 37.7694L108.003 18.1929L-5.52759 -5.4652L78.473 37.7694Z" fill="url(#paint8_linear_240_2191)"/>
<path d="M108.003 18.1929L208.474 57.9506L151.297 13.5066L108.003 18.1929Z" fill="url(#paint9_linear_240_2191)"/>
<path d="M72.0024 99.9758L242.592 159.234L77.5319 93.4755L72.0024 99.9758Z" fill="url(#paint10_linear_240_2191)"/>
<path d="M78.4731 37.7693L208.474 57.9505L77.532 93.4754L78.4731 37.7693Z" fill="url(#paint11_linear_240_2191)"/>
<path d="M208.474 57.9506L242.592 159.234L77.532 93.4755L208.474 57.9506Z" fill="url(#paint12_linear_240_2191)"/>
<path d="M-5.52759 -5.46535L108.003 18.1927L158.709 -36.9087L-5.52759 -5.46535Z" fill="url(#paint13_linear_240_2191)"/>
<path d="M108.003 18.1927L151.297 13.5065L158.709 -36.9087L108.003 18.1927Z" fill="url(#paint14_linear_240_2191)"/>
<path d="M151.297 13.5067L246.357 -16.1227L158.709 -36.9085L151.297 13.5067Z" fill="url(#paint15_linear_240_2191)"/>
<path d="M-5.52754 -5.46526L78.473 37.7693L-6.35107 122.5L-5.52754 -5.46526Z" fill="url(#paint16_linear_240_2191)"/>
<path d="M72.0024 99.9758L77.5318 93.4755L-6.35107 122.5L72.0024 99.9758Z" fill="url(#paint17_linear_240_2191)"/>
<path d="M77.5318 93.4755L78.473 37.7694L-6.35107 122.5L77.5318 93.4755Z" fill="url(#paint18_linear_240_2191)"/>
<path d="M303.534 51.3746L330.24 -4.25599L336.71 35.4261L303.534 51.3746Z" fill="url(#paint19_linear_240_2191)"/>
<path d="M303.534 51.3746L354.24 101.185L336.71 35.4262L303.534 51.3746Z" fill="url(#paint20_linear_240_2191)"/>
<path d="M151.297 13.5065L208.474 57.9505L205.768 34.8215L151.297 13.5065Z" fill="url(#paint21_linear_240_2191)"/>
<path d="M151.297 13.5066L246.357 -16.1227L205.768 34.8215L151.297 13.5066Z" fill="url(#paint22_linear_240_2191)"/>
<path d="M208.474 57.9505L303.533 51.3746L205.768 34.8215L208.474 57.9505Z" fill="url(#paint23_linear_240_2191)"/>
<path d="M246.357 -16.1228L303.533 51.3746L205.768 34.8215L246.357 -16.1228Z" fill="url(#paint24_linear_240_2191)"/>
<path d="M-6.35107 122.5L24.9432 127.262L59.0611 111.238L-6.35107 122.5Z" fill="url(#paint25_linear_240_2191)"/>
<path d="M-6.35107 122.5L72.0024 99.9758L59.0611 111.238L-6.35107 122.5Z" fill="url(#paint26_linear_240_2191)"/>
<path d="M24.9434 127.262L200.239 183.573L59.0612 111.238L24.9434 127.262Z" fill="url(#paint27_linear_240_2191)"/>
<path d="M72.0025 99.9758L200.239 183.573L59.0613 111.238L72.0025 99.9758Z" fill="url(#paint28_linear_240_2191)"/>
<path d="M-6.35107 122.5L24.9433 127.262L-0.821633 137.315L-6.35107 122.5Z" fill="url(#paint29_linear_240_2191)"/>
</g>
</g>
<defs>
<linearGradient id="paint0_linear_240_2191" x1="238.474" y1="165.13" x2="348.461" y2="51.3136" gradientUnits="userSpaceOnUse">
<stop stop-color="#FAFAFA"/>
<stop offset="1" stop-color="#A6D8EF"/>
</linearGradient>
<linearGradient id="paint1_linear_240_2191" x1="260.121" y1="161.653" x2="301.194" y2="78.1537" gradientUnits="userSpaceOnUse">
<stop stop-color="#F4F4F4"/>
<stop offset="1" stop-color="#F2F2F2"/>
</linearGradient>
<linearGradient id="paint2_linear_240_2191" x1="89.4144" y1="58.3285" x2="114.842" y2="-14.5505" gradientUnits="userSpaceOnUse">
<stop stop-color="#0089CF"/>
<stop offset="1" stop-color="#07A3E4"/>
</linearGradient>
<linearGradient id="paint3_linear_240_2191" x1="197.298" y1="137.617" x2="304.672" y2="54.8568" gradientUnits="userSpaceOnUse">
<stop stop-color="#7FB7DC"/>
<stop offset="1" stop-color="#0790D3"/>
</linearGradient>
<linearGradient id="paint4_linear_240_2191" x1="242.121" y1="48.8803" x2="309.461" y2="-34.7879" gradientUnits="userSpaceOnUse">
<stop stop-color="#00A0E4"/>
<stop offset="1" stop-color="#0099DD"/>
</linearGradient>
<linearGradient id="paint5_linear_240_2191" x1="69.4142" y1="180.247" x2="123.909" y2="53.0588" gradientUnits="userSpaceOnUse">
<stop stop-color="#00ADEF"/>
<stop offset="1" stop-color="#AAE3F9"/>
</linearGradient>
<linearGradient id="paint6_linear_240_2191" x1="210.474" y1="198.765" x2="239.955" y2="137.243" gradientUnits="userSpaceOnUse">
<stop stop-color="white"/>
<stop offset="1" stop-color="#FEFEFE"/>
</linearGradient>
<linearGradient id="paint7_linear_240_2191" x1="245.062" y1="194.759" x2="297.906" y2="94.4925" gradientUnits="userSpaceOnUse">
<stop stop-color="#FEFEFE"/>
<stop offset="1" stop-color="#F8F8F8"/>
</linearGradient>
<linearGradient id="paint8_linear_240_2191" x1="-14.9394" y1="33.4611" x2="14.4502" y2="-43.6159" gradientUnits="userSpaceOnUse">
<stop stop-color="#0072BB"/>
<stop offset="1" stop-color="#4FA9D8"/>
</linearGradient>
<linearGradient id="paint9_linear_240_2191" x1="116.003" y1="56.4389" x2="145.352" y2="-9.95129" gradientUnits="userSpaceOnUse">
<stop stop-color="#00A5E7"/>
<stop offset="1" stop-color="#07ADEC"/>
</linearGradient>
<linearGradient id="paint10_linear_240_2191" x1="69.4142" y1="161.351" x2="114.466" y2="44.4786" gradientUnits="userSpaceOnUse">
<stop stop-color="#00A0E4"/>
<stop offset="1" stop-color="#55BFED"/>
</linearGradient>
<linearGradient id="paint11_linear_240_2191" x1="55.2966" y1="86.8995" x2="96.2387" y2="-9.36781" gradientUnits="userSpaceOnUse">
<stop stop-color="#0071BA"/>
<stop offset="1" stop-color="#0799DB"/>
</linearGradient>
<linearGradient id="paint12_linear_240_2191" x1="92.7086" y1="166.037" x2="184.904" y2="15.8218" gradientUnits="userSpaceOnUse">
<stop stop-color="#0A90D1"/>
<stop offset="1" stop-color="#55B4E3"/>
</linearGradient>
<linearGradient id="paint13_linear_240_2191" x1="14.7078" y1="23.3325" x2="41.5547" y2="-68.0725" gradientUnits="userSpaceOnUse">
<stop stop-color="#B0D4E6"/>
<stop offset="1" stop-color="#268FC7"/>
</linearGradient>
<linearGradient id="paint14_linear_240_2191" x1="114.709" y1="30.3619" x2="170.751" y2="-21.226" gradientUnits="userSpaceOnUse">
<stop stop-color="#0099DD"/>
<stop offset="1" stop-color="#0087CA"/>
</linearGradient>
<linearGradient id="paint15_linear_240_2191" x1="134.356" y1="6.09932" x2="176.898" y2="-74.1405" gradientUnits="userSpaceOnUse">
<stop stop-color="#0080C2"/>
<stop offset="1" stop-color="#005EA2"/>
</linearGradient>
<linearGradient id="paint16_linear_240_2191" x1="-18.1159" y1="103.755" x2="102.188" y2="23.9995" gradientUnits="userSpaceOnUse">
<stop stop-color="#77B3D7"/>
<stop offset="1" stop-color="#55A3D4"/>
</linearGradient>
<linearGradient id="paint17_linear_240_2191" x1="-5.1746" y1="123.105" x2="13.1344" y2="70.1801" gradientUnits="userSpaceOnUse">
<stop stop-color="#00A0E4"/>
<stop offset="1" stop-color="#55C0ED"/>
</linearGradient>
<linearGradient id="paint18_linear_240_2191" x1="3.53134" y1="137.088" x2="90.0005" y2="50.4993" gradientUnits="userSpaceOnUse">
<stop stop-color="#00A0E4"/>
<stop offset="1" stop-color="#55ACDC"/>
</linearGradient>
<linearGradient id="paint19_linear_240_2191" x1="306.475" y1="61.8053" x2="356.473" y2="32.0009" gradientUnits="userSpaceOnUse">
<stop stop-color="#01A0E4"/>
<stop offset="1" stop-color="#46B9E6"/>
</linearGradient>
<linearGradient id="paint20_linear_240_2191" x1="305.298" y1="108.592" x2="370.215" y2="58.526" gradientUnits="userSpaceOnUse">
<stop stop-color="#76C0E3"/>
<stop offset="1" stop-color="#E9EAEA"/>
</linearGradient>
<linearGradient id="paint21_linear_240_2191" x1="149.297" y1="56.4388" x2="193.244" y2="-0.108278" gradientUnits="userSpaceOnUse">
<stop stop-color="#00ADEF"/>
<stop offset="1" stop-color="#07ADEC"/>
</linearGradient>
<linearGradient id="paint22_linear_240_2191" x1="158.591" y1="39.5078" x2="201.916" y2="-41.2566" gradientUnits="userSpaceOnUse">
<stop stop-color="#00ADEF"/>
<stop offset="1" stop-color="#0099DD"/>
</linearGradient>
<linearGradient id="paint23_linear_240_2191" x1="199.768" y1="56.9679" x2="210.327" y2="12.2988" gradientUnits="userSpaceOnUse">
<stop stop-color="#0AA0E0"/>
<stop offset="1" stop-color="#009BE0"/>
</linearGradient>
<linearGradient id="paint24_linear_240_2191" x1="212.239" y1="57.497" x2="276.716" y2="-35.8191" gradientUnits="userSpaceOnUse">
<stop stop-color="#0083CA"/>
<stop offset="1" stop-color="#009CE1"/>
</linearGradient>
<linearGradient id="paint25_linear_240_2191" x1="-6.46872" y1="127.186" x2="2.06472" y2="96.6249" gradientUnits="userSpaceOnUse">
<stop stop-color="#FEFEFE"/>
<stop offset="1" stop-color="#A9E0F6"/>
</linearGradient>
<linearGradient id="paint26_linear_240_2191" x1="-2.70399" y1="123.634" x2="9.48952" y2="81.1805" gradientUnits="userSpaceOnUse">
<stop stop-color="#7FC9EC"/>
<stop offset="1" stop-color="#00A1E5"/>
</linearGradient>
<linearGradient id="paint27_linear_240_2191" x1="34.3552" y1="187.276" x2="86.3691" y2="61.192" gradientUnits="userSpaceOnUse">
<stop stop-color="#89D7F6"/>
<stop offset="1" stop-color="#5BC6F1"/>
</linearGradient>
<linearGradient id="paint28_linear_240_2191" x1="60.4731" y1="180.247" x2="140.325" y2="62.2378" gradientUnits="userSpaceOnUse">
<stop stop-color="#00ADEF"/>
<stop offset="1" stop-color="#55C5F1"/>
</linearGradient>
<linearGradient id="paint29_linear_240_2191" x1="-12.1158" y1="134.367" x2="-0.439033" y2="109.649" gradientUnits="userSpaceOnUse">
<stop stop-color="#FEFEFE"/>
<stop offset="1" stop-color="#FEFEFE"/>
</linearGradient>
</defs>
</svg>
