<svg width="72" height="41" viewBox="0 0 72 41" fill="none" xmlns="http://www.w3.org/2000/svg">
<g clip-path="url(#clip0_170_3)">
<path d="M72 6.97519V34.0248C71.9994 35.8749 71.2615 37.6491 69.9486 38.9571C68.6356 40.2652 66.8551 41 64.9986 41H59.889L48.9993 30.1478V5.23459H24V35.1313H48.4228L54.3117 41H6.99929C5.14296 41 3.36266 40.2651 2.05004 38.957C0.737423 37.6489 0 35.8747 0 34.0248L0 6.97519C0 5.12526 0.737423 3.35109 2.05004 2.04299C3.36266 0.734884 5.14296 0 6.99929 0L64.9986 0C66.8551 -8.60379e-08 68.6356 0.734816 69.9486 2.04286C71.2615 3.3509 71.9994 5.12506 72 6.97519Z" fill="#CD072D"/>
<path d="M42.0002 19.185V22.1746H45.0002V31.1436H27.9995V22.1746H32.6351L33.1219 22.6598L39.4849 16.3166L37.3646 14.2036L32.3639 19.185H27.9995V9.22009H45.0002V19.185H42.0002Z" fill="#CD072D"/>
</g>
<defs>
<clipPath id="clip0_170_3">
<rect width="72" height="41" fill="white"/>
</clipPath>
</defs>
</svg>
