<svg width="72" height="41" viewBox="0 0 72 41" fill="none" xmlns="http://www.w3.org/2000/svg">
<g clip-path="url(#clip0_170_6)">
<path d="M71.9998 6.97519V34.0248C71.9998 34.941 71.8187 35.8482 71.4669 36.6946C71.115 37.541 70.5992 38.31 69.949 38.9578C69.2989 39.6055 68.527 40.1192 67.6776 40.4697C66.8281 40.8201 65.9178 41.0003 64.9984 41H59.3379L48.7579 30.4564C51.1021 27.291 52.2291 23.3927 51.9341 19.4696C51.6391 15.5465 49.9417 11.8591 47.1503 9.07727C44.3589 6.29546 40.6587 4.60389 36.7221 4.30992C32.7854 4.01594 28.8736 5.13908 25.6974 7.47524L18.1963 0H64.9984C66.8549 -8.60379e-08 68.6355 0.734816 69.9484 2.04286C71.2614 3.3509 71.9993 5.12506 71.9998 6.97519Z" fill="#CD072D"/>
<path d="M53.7609 41H6.99929C5.14296 41 3.36267 40.2651 2.05004 38.957C0.737423 37.6489 0 35.8747 0 34.0248L0 6.97519C0 5.12526 0.737423 3.35109 2.05004 2.04299C3.36267 0.734884 5.14296 0 6.99929 0L12.6192 0L22.8235 10.1691C20.1897 13.3196 18.8329 17.3375 19.0196 21.4338C19.2063 25.5302 20.923 29.409 23.8325 32.3085C26.7421 35.2081 30.6343 36.9188 34.7448 37.1049C38.8553 37.2909 42.8871 35.9388 46.0484 33.3141L53.7609 41Z" fill="#CD072D"/>
<path d="M35.5001 8.22424C33.0279 8.22424 30.6113 8.95481 28.5557 10.3236C26.5002 11.6923 24.898 13.6378 23.952 15.9139C23.0059 18.1901 22.7584 20.6947 23.2407 23.111C23.723 25.5274 24.9134 27.7469 26.6616 29.489C28.4097 31.2311 30.6369 32.4175 33.0616 32.8981C35.4863 33.3788 37.9995 33.1321 40.2835 32.1893C42.5676 31.2465 44.5197 29.6499 45.8932 27.6014C47.2667 25.5529 47.9998 23.1445 47.9998 20.6809C48.0001 19.045 47.6769 17.425 47.0489 15.9136C46.4208 14.4022 45.5001 13.0288 44.3393 11.8721C43.1786 10.7153 41.8005 9.79778 40.2839 9.17188C38.7672 8.54597 37.1417 8.22396 35.5001 8.22424ZM38.9998 29.1519H31.9984V26.1729H38.9998V29.1519ZM41.9891 25.1664H28.9984V22.1874H41.9998L41.9891 25.1664ZM25.9984 21.1788V18.1997H33.9991V11.2139H36.9991V18.1891H44.9998V21.1681L25.9984 21.1788Z" fill="#CD072D"/>
</g>
<defs>
<clipPath id="clip0_170_6">
<rect width="72" height="41" fill="white"/>
</clipPath>
</defs>
</svg>
