<svg width="320" height="264" viewBox="0 0 320 264" fill="none" xmlns="http://www.w3.org/2000/svg">
<mask id="mask0_240_206" style="mask-type:alpha" maskUnits="userSpaceOnUse" x="0" y="0" width="320" height="264">
<path d="M0 20C0 8.9543 8.95431 0 20 0H300C311.046 0 320 8.95431 320 20V264H0V20Z" fill="#CD072D"/>
</mask>
<g mask="url(#mask0_240_206)">
<g opacity="0.14">
<path d="M70.6521 227.622L18.0635 220.517L71.5933 247.803L70.6521 227.622Z" fill="url(#paint0_linear_240_206)"/>
<path d="M18.0635 220.517L-12.2896 259.67L71.5933 247.803L18.0635 220.517Z" fill="url(#paint1_linear_240_206)"/>
<path d="M14.4164 315.3L-12.2896 259.669L71.5933 247.803L14.4164 315.3Z" fill="url(#paint2_linear_240_206)"/>
<path d="M239.477 301.695L209.947 282.118L323.478 258.46L239.477 301.695Z" fill="url(#paint3_linear_240_206)"/>
<path d="M220.065 69.422L214.535 101.999L180.417 97.842L220.065 69.422Z" fill="url(#paint4_linear_240_206)"/>
<path d="M70.6521 227.621L18.0636 220.516L98.417 180.834L70.6521 227.621Z" fill="url(#paint5_linear_240_206)"/>
<path d="M18.0637 220.517L-12.2894 259.67L-169.114 247.803L18.0637 220.517Z" fill="url(#paint6_linear_240_206)"/>
<path d="M18.0637 220.517L-142.408 99.6561L-169.114 247.803L18.0637 220.517Z" fill="url(#paint7_linear_240_206)"/>
<path d="M98.417 180.834L18.0636 220.516L30.0636 60.5029L98.417 180.834Z" fill="url(#paint8_linear_240_206)"/>
<path d="M18.0636 220.516L-142.408 99.6559L30.0637 60.5029L18.0636 220.516Z" fill="url(#paint9_linear_240_206)"/>
<path d="M360.301 141.681L261.595 135.181L322.536 182.573L360.301 141.681Z" fill="url(#paint10_linear_240_206)"/>
<path d="M323.477 258.46L258.889 171.915L322.536 182.573L323.477 258.46Z" fill="url(#paint11_linear_240_206)"/>
<path d="M261.595 135.181L258.889 171.915L322.536 182.573L261.595 135.181Z" fill="url(#paint12_linear_240_206)"/>
<path d="M323.477 258.46L258.889 171.915L159.241 227.017L323.477 258.46Z" fill="url(#paint13_linear_240_206)"/>
<path d="M323.478 258.46L209.947 282.118L159.241 227.017L323.478 258.46Z" fill="url(#paint14_linear_240_206)"/>
<path d="M209.947 282.118L166.653 277.432L159.241 227.017L209.947 282.118Z" fill="url(#paint15_linear_240_206)"/>
<path d="M166.653 277.432L71.5934 247.803L159.241 227.017L166.653 277.432Z" fill="url(#paint16_linear_240_206)"/>
<path d="M98.417 180.834L70.6521 227.621L159.241 227.017L98.417 180.834Z" fill="url(#paint17_linear_240_206)"/>
<path d="M71.5933 247.803L70.6521 227.621L159.241 227.017L71.5933 247.803Z" fill="url(#paint18_linear_240_206)"/>
<path d="M323.477 258.46L239.477 301.695L324.301 386.425L323.477 258.46Z" fill="url(#paint19_linear_240_206)"/>
<path d="M14.4163 315.3L-12.2898 259.669L-18.7604 299.352L14.4163 315.3Z" fill="url(#paint20_linear_240_206)"/>
<path d="M360.301 141.681L261.595 135.181L263.477 107.366L360.301 141.681Z" fill="url(#paint21_linear_240_206)"/>
<path d="M261.595 135.181L214.536 101.999L263.477 107.366L261.595 135.181Z" fill="url(#paint22_linear_240_206)"/>
<path d="M220.065 69.4222L214.536 101.999L263.477 107.366L220.065 69.4222Z" fill="url(#paint23_linear_240_206)"/>
<path d="M261.595 135.181L258.889 171.915L157.359 156.496L261.595 135.181Z" fill="url(#paint24_linear_240_206)"/>
<path d="M261.595 135.181L214.536 101.999L157.359 156.496L261.595 135.181Z" fill="url(#paint25_linear_240_206)"/>
<path d="M258.889 171.915L159.241 227.017L157.359 156.496L258.889 171.915Z" fill="url(#paint26_linear_240_206)"/>
<path d="M214.535 101.999L180.418 97.8423L157.359 156.496L214.535 101.999Z" fill="url(#paint27_linear_240_206)"/>
<path d="M159.241 227.017L98.417 180.834L157.359 156.496L159.241 227.017Z" fill="url(#paint28_linear_240_206)"/>
<path d="M360.301 141.681L263.477 107.366L391.713 75.3175L360.301 141.681Z" fill="url(#paint29_linear_240_206)"/>
<path d="M263.477 107.366L220.065 69.4219L391.713 75.3176L263.477 107.366Z" fill="url(#paint30_linear_240_206)"/>
<path d="M166.653 277.432L71.5934 247.803L112.182 298.747L166.653 277.432Z" fill="url(#paint31_linear_240_206)"/>
<path d="M71.5934 247.803L14.4165 315.3L112.182 298.747L71.5934 247.803Z" fill="url(#paint32_linear_240_206)"/>
<path d="M180.417 97.8423L157.359 156.496L127.829 151.205L180.417 97.8423Z" fill="url(#paint33_linear_240_206)"/>
<path d="M180.417 97.8419L71.5932 59.8982L127.829 151.205L180.417 97.8419Z" fill="url(#paint34_linear_240_206)"/>
<path d="M157.359 156.496L98.4171 180.834L127.829 151.205L157.359 156.496Z" fill="url(#paint35_linear_240_206)"/>
<path d="M98.4171 180.834L30.0638 60.5032L127.829 151.205L98.4171 180.834Z" fill="url(#paint36_linear_240_206)"/>
<path d="M71.5934 59.8982L30.0638 60.5029L127.829 151.205L71.5934 59.8982Z" fill="url(#paint37_linear_240_206)"/>
</g>
</g>
<defs>
<linearGradient id="paint0_linear_240_206" x1="82.8874" y1="242.965" x2="60.3839" y2="198.801" gradientUnits="userSpaceOnUse">
<stop stop-color="#0072BB"/>
<stop offset="1" stop-color="#0085CC"/>
</linearGradient>
<linearGradient id="paint1_linear_240_206" x1="54.4167" y1="265.792" x2="29.7822" y2="205.372" gradientUnits="userSpaceOnUse">
<stop stop-color="#0095DA"/>
<stop offset="1" stop-color="#0089CF"/>
</linearGradient>
<linearGradient id="paint2_linear_240_206" x1="75.8286" y1="312.806" x2="8.48825" y2="229.138" gradientUnits="userSpaceOnUse">
<stop stop-color="#00A0E4"/>
<stop offset="1" stop-color="#0099DD"/>
</linearGradient>
<linearGradient id="paint3_linear_240_206" x1="332.889" y1="297.386" x2="303.5" y2="220.309" gradientUnits="userSpaceOnUse">
<stop stop-color="#0072BB"/>
<stop offset="1" stop-color="#4FA9D8"/>
</linearGradient>
<linearGradient id="paint4_linear_240_206" x1="221.829" y1="99.4293" x2="188.341" y2="63.7714" gradientUnits="userSpaceOnUse">
<stop stop-color="#FDFDFD"/>
<stop offset="1" stop-color="#AACEE6"/>
</linearGradient>
<linearGradient id="paint5_linear_240_206" x1="99.1229" y1="227.017" x2="57.5389" y2="155.737" gradientUnits="userSpaceOnUse">
<stop stop-color="#008FD5"/>
<stop offset="1" stop-color="#00A4E8"/>
</linearGradient>
<linearGradient id="paint6_linear_240_206" x1="31.005" y1="255.815" x2="15.0296" y2="179.334" gradientUnits="userSpaceOnUse">
<stop stop-color="#0096D4"/>
<stop offset="1" stop-color="#009DDD"/>
</linearGradient>
<linearGradient id="paint7_linear_240_206" x1="-16.76" y1="275.316" x2="-163.878" y2="89.3775" gradientUnits="userSpaceOnUse">
<stop stop-color="#68BFE1"/>
<stop offset="1" stop-color="#94CEE5"/>
</linearGradient>
<linearGradient id="paint8_linear_240_206" x1="78.6522" y1="242.663" x2="-35.8428" y2="185.239" gradientUnits="userSpaceOnUse">
<stop stop-color="#00A0E4"/>
<stop offset="1" stop-color="#55C8F4"/>
</linearGradient>
<linearGradient id="paint9_linear_240_206" x1="58.8874" y1="181.439" x2="-105.553" y2="26.3275" gradientUnits="userSpaceOnUse">
<stop stop-color="#76CDEE"/>
<stop offset="1" stop-color="#F3F3F3"/>
</linearGradient>
<linearGradient id="paint10_linear_240_206" x1="368.654" y1="177.811" x2="330.893" y2="99.2004" gradientUnits="userSpaceOnUse">
<stop stop-color="#0094DA"/>
<stop offset="1" stop-color="#1991D1"/>
</linearGradient>
<linearGradient id="paint11_linear_240_206" x1="339.948" y1="236.087" x2="255.315" y2="172.929" gradientUnits="userSpaceOnUse">
<stop stop-color="#EDEDED"/>
<stop offset="1" stop-color="#68BFE6"/>
</linearGradient>
<linearGradient id="paint12_linear_240_206" x1="313.124" y1="189.904" x2="266.775" y2="127.681" gradientUnits="userSpaceOnUse">
<stop stop-color="#0083CA"/>
<stop offset="1" stop-color="#19A2E0"/>
</linearGradient>
<linearGradient id="paint13_linear_240_206" x1="324.183" y1="258.158" x2="251.361" y2="119.966" gradientUnits="userSpaceOnUse">
<stop stop-color="#76C0E3"/>
<stop offset="1" stop-color="#0084C7"/>
</linearGradient>
<linearGradient id="paint14_linear_240_206" x1="303.242" y1="287.258" x2="276.395" y2="195.853" gradientUnits="userSpaceOnUse">
<stop stop-color="#B0D4E6"/>
<stop offset="1" stop-color="#268FC7"/>
</linearGradient>
<linearGradient id="paint15_linear_240_206" x1="203.241" y1="294.287" x2="147.198" y2="242.699" gradientUnits="userSpaceOnUse">
<stop stop-color="#0099DD"/>
<stop offset="1" stop-color="#0087CA"/>
</linearGradient>
<linearGradient id="paint16_linear_240_206" x1="183.594" y1="270.025" x2="141.052" y2="189.785" gradientUnits="userSpaceOnUse">
<stop stop-color="#0080C2"/>
<stop offset="1" stop-color="#005EA2"/>
</linearGradient>
<linearGradient id="paint17_linear_240_206" x1="143.006" y1="232.988" x2="100.34" y2="162.375" gradientUnits="userSpaceOnUse">
<stop stop-color="#0074B8"/>
<stop offset="1" stop-color="#005EA2"/>
</linearGradient>
<linearGradient id="paint18_linear_240_206" x1="154.3" y1="247.047" x2="146.95" y2="211.186" gradientUnits="userSpaceOnUse">
<stop stop-color="#0063A8"/>
<stop offset="1" stop-color="#005EA2"/>
</linearGradient>
<linearGradient id="paint19_linear_240_206" x1="336.066" y1="367.68" x2="215.762" y2="287.925" gradientUnits="userSpaceOnUse">
<stop stop-color="#77B3D7"/>
<stop offset="1" stop-color="#55A3D4"/>
</linearGradient>
<linearGradient id="paint20_linear_240_206" x1="11.4751" y1="325.731" x2="-38.5235" y2="295.926" gradientUnits="userSpaceOnUse">
<stop stop-color="#01A0E4"/>
<stop offset="1" stop-color="#46B9E6"/>
</linearGradient>
<linearGradient id="paint21_linear_240_206" x1="343.477" y1="147.199" x2="321.692" y2="84.6428" gradientUnits="userSpaceOnUse">
<stop stop-color="#0082CA"/>
<stop offset="1" stop-color="#0071BA"/>
</linearGradient>
<linearGradient id="paint22_linear_240_206" x1="272.065" y1="130.268" x2="240.594" y2="83.9075" gradientUnits="userSpaceOnUse">
<stop stop-color="#0072BB"/>
<stop offset="1" stop-color="#0373BB"/>
</linearGradient>
<linearGradient id="paint23_linear_240_206" x1="253.359" y1="116.587" x2="215.874" y2="68.2697" gradientUnits="userSpaceOnUse">
<stop stop-color="#B8D5E9"/>
<stop offset="1" stop-color="#2986C3"/>
</linearGradient>
<linearGradient id="paint24_linear_240_206" x1="271.359" y1="168.06" x2="247.85" y2="101.367" gradientUnits="userSpaceOnUse">
<stop stop-color="#0064A9"/>
<stop offset="1" stop-color="#0089CB"/>
</linearGradient>
<linearGradient id="paint25_linear_240_206" x1="244.771" y1="159.898" x2="204.788" y2="83.4582" gradientUnits="userSpaceOnUse">
<stop stop-color="#0063A8"/>
<stop offset="1" stop-color="#0379BD"/>
</linearGradient>
<linearGradient id="paint26_linear_240_206" x1="249.359" y1="229.889" x2="181.915" y2="132.851" gradientUnits="userSpaceOnUse">
<stop stop-color="#008AD0"/>
<stop offset="1" stop-color="#0078BC"/>
</linearGradient>
<linearGradient id="paint27_linear_240_206" x1="211.477" y1="155.06" x2="151.633" y2="96.7259" gradientUnits="userSpaceOnUse">
<stop stop-color="#0967AA"/>
<stop offset="1" stop-color="#56A8D3"/>
</linearGradient>
<linearGradient id="paint28_linear_240_206" x1="170.653" y1="211.9" x2="100.82" y2="159.151" gradientUnits="userSpaceOnUse">
<stop stop-color="#0076B8"/>
<stop offset="1" stop-color="#009ADE"/>
</linearGradient>
<linearGradient id="paint29_linear_240_206" x1="407.949" y1="132.535" x2="352.65" y2="25.7136" gradientUnits="userSpaceOnUse">
<stop stop-color="#75C0E2"/>
<stop offset="1" stop-color="#A3C9E1"/>
</linearGradient>
<linearGradient id="paint30_linear_240_206" x1="395.243" y1="106.912" x2="378.93" y2="33.1193" gradientUnits="userSpaceOnUse">
<stop stop-color="#75AED2"/>
<stop offset="1" stop-color="#F8F8F8"/>
</linearGradient>
<linearGradient id="paint31_linear_240_206" x1="159.359" y1="303.433" x2="116.034" y2="222.669" gradientUnits="userSpaceOnUse">
<stop stop-color="#00ADEF"/>
<stop offset="1" stop-color="#0099DD"/>
</linearGradient>
<linearGradient id="paint32_linear_240_206" x1="105.711" y1="321.422" x2="41.2339" y2="228.106" gradientUnits="userSpaceOnUse">
<stop stop-color="#0083CA"/>
<stop offset="1" stop-color="#009CE1"/>
</linearGradient>
<linearGradient id="paint33_linear_240_206" x1="182.065" y1="155.06" x2="122.559" y2="101.733" gradientUnits="userSpaceOnUse">
<stop stop-color="#7DC7EA"/>
<stop offset="1" stop-color="#0099DE"/>
</linearGradient>
<linearGradient id="paint34_linear_240_206" x1="183.712" y1="147.274" x2="92.0175" y2="37.9163" gradientUnits="userSpaceOnUse">
<stop stop-color="#7DD4F5"/>
<stop offset="1" stop-color="#55C0ED"/>
</linearGradient>
<linearGradient id="paint35_linear_240_206" x1="157.947" y1="182.649" x2="133.704" y2="134.349" gradientUnits="userSpaceOnUse">
<stop stop-color="#009BE0"/>
<stop offset="1" stop-color="#0094DA"/>
</linearGradient>
<linearGradient id="paint36_linear_240_206" x1="131.123" y1="186.655" x2="10.965" y2="88.9957" gradientUnits="userSpaceOnUse">
<stop stop-color="#0083CA"/>
<stop offset="1" stop-color="#55ACDC"/>
</linearGradient>
<linearGradient id="paint37_linear_240_206" x1="143.594" y1="147.274" x2="50.6939" y2="47.7456" gradientUnits="userSpaceOnUse">
<stop stop-color="#86BBDE"/>
<stop offset="1" stop-color="#59AEDD"/>
</linearGradient>
</defs>
</svg>
