<svg width="320" height="264" viewBox="0 0 320 264" fill="none" xmlns="http://www.w3.org/2000/svg">
<mask id="mask0_240_1991" style="mask-type:alpha" maskUnits="userSpaceOnUse" x="0" y="0" width="320" height="264">
<path d="M320 244C320 255.046 311.046 264 300 264L20 264C8.95432 264 7.8281e-07 255.046 1.74846e-06 244L2.30796e-05 2.54229e-06L320 3.05176e-05L320 244Z" fill="#CD072D"/>
</mask>
<g mask="url(#mask0_240_1991)">
<g opacity="0.14">
<path d="M-77.4082 159.234L34.2396 101.185L-16.4666 51.3747L-77.4082 159.234Z" fill="url(#paint0_linear_240_1991)"/>
<path d="M-77.4082 159.234L34.2396 101.185L40.7102 124.919L-77.4082 159.234Z" fill="url(#paint1_linear_240_1991)"/>
<path d="M34.2397 101.185L104.358 49.0315L40.7104 124.919L34.2397 101.185Z" fill="url(#paint2_linear_240_1991)"/>
<path d="M-16.4667 51.3746L10.2393 -4.25599L-73.6436 -16.1228L-16.4667 51.3746Z" fill="url(#paint3_linear_240_1991)"/>
<path d="M40.7104 124.919L104.358 49.0315L215.065 109.5L40.7104 124.919Z" fill="url(#paint4_linear_240_1991)"/>
<path d="M-77.4082 159.234L40.7102 124.919L-32.1138 195.969L-77.4082 159.234Z" fill="url(#paint5_linear_240_1991)"/>
<path d="M34.2397 101.185L104.358 49.0315L37.0633 29.455L34.2397 101.185Z" fill="url(#paint6_linear_240_1991)"/>
<path d="M215.064 109.5L332.124 48.4268L326.594 115.395L215.064 109.5Z" fill="url(#paint7_linear_240_1991)"/>
<path d="M10.2393 -4.25588L37.063 29.455L74.8279 17.0591L10.2393 -4.25588Z" fill="url(#paint8_linear_240_1991)"/>
<path d="M37.063 29.455L104.358 49.0315L74.8279 17.059L37.063 29.455Z" fill="url(#paint9_linear_240_1991)"/>
<path d="M10.2393 -4.25582L74.8279 17.0591L167.064 -16.1227L10.2393 -4.25582Z" fill="url(#paint10_linear_240_1991)"/>
<path d="M74.8281 17.059L104.358 49.0315L144.005 15.245L74.8281 17.059Z" fill="url(#paint11_linear_240_1991)"/>
<path d="M74.8281 17.0591L167.064 -16.1227L144.005 15.245L74.8281 17.0591Z" fill="url(#paint12_linear_240_1991)"/>
<path d="M304.477 -81.3527L392.125 -35.0947L223.3 31.8736L304.477 -81.3527Z" fill="url(#paint13_linear_240_1991)"/>
<path d="M332.124 48.4266L392.125 -35.0948L223.3 31.8735L332.124 48.4266Z" fill="url(#paint14_linear_240_1991)"/>
<path d="M104.358 49.0316L144.005 15.2451L223.3 31.8738L104.358 49.0316Z" fill="url(#paint15_linear_240_1991)"/>
<path d="M104.358 49.0314L215.065 109.499L223.3 31.8737L104.358 49.0314Z" fill="url(#paint16_linear_240_1991)"/>
<path d="M144.005 15.245L167.064 -16.1228L223.299 31.8737L144.005 15.245Z" fill="url(#paint17_linear_240_1991)"/>
<path d="M167.064 -16.1228L304.477 -81.3527L223.3 31.8737L167.064 -16.1228Z" fill="url(#paint18_linear_240_1991)"/>
<path d="M215.064 109.499L332.124 48.4268L223.3 31.8737L215.064 109.499Z" fill="url(#paint19_linear_240_1991)"/>
<path d="M215.064 109.5L326.594 115.395H218.711L215.064 109.5Z" fill="url(#paint20_linear_240_1991)"/>
<path d="M-16.4663 51.3746L10.2398 -4.25599L16.7104 35.4261L-16.4663 51.3746Z" fill="url(#paint21_linear_240_1991)"/>
<path d="M-16.4663 51.3746L34.2399 101.185L16.7104 35.4262L-16.4663 51.3746Z" fill="url(#paint22_linear_240_1991)"/>
<path d="M10.2393 -4.25597L37.0629 29.4549L16.7099 35.4261L10.2393 -4.25597Z" fill="url(#paint23_linear_240_1991)"/>
<path d="M34.2398 101.185L37.0633 29.455L16.7102 35.4262L34.2398 101.185Z" fill="url(#paint24_linear_240_1991)"/>
<path d="M40.7102 124.919L83.1811 201.335L139.417 171.101L40.7102 124.919Z" fill="url(#paint25_linear_240_1991)"/>
<path d="M40.7102 124.919L215.064 109.499L139.417 171.101L40.7102 124.919Z" fill="url(#paint26_linear_240_1991)"/>
<path d="M127.417 209.65H167.064L139.417 171.101L127.417 209.65Z" fill="url(#paint27_linear_240_1991)"/>
<path d="M167.064 209.65L218.712 115.395L139.417 171.101L167.064 209.65Z" fill="url(#paint28_linear_240_1991)"/>
<path d="M215.064 109.499L218.711 115.395L139.417 171.101L215.064 109.499Z" fill="url(#paint29_linear_240_1991)"/>
<path d="M167.064 209.65L218.711 115.395L341.418 163.996L167.064 209.65Z" fill="url(#paint30_linear_240_1991)"/>
<path d="M218.711 115.395H326.595L341.418 163.996L218.711 115.395Z" fill="url(#paint31_linear_240_1991)"/>
<path d="M83.1812 201.335L139.417 171.101L114.475 209.045L83.1812 201.335Z" fill="url(#paint32_linear_240_1991)"/>
<path d="M127.417 209.65L139.417 171.101L114.476 209.045L127.417 209.65Z" fill="url(#paint33_linear_240_1991)"/>
</g>
</g>
<defs>
<linearGradient id="paint0_linear_240_1991" x1="-81.5259" y1="165.13" x2="28.4614" y2="51.3136" gradientUnits="userSpaceOnUse">
<stop stop-color="#FAFAFA"/>
<stop offset="1" stop-color="#A6D8EF"/>
</linearGradient>
<linearGradient id="paint1_linear_240_1991" x1="-59.8787" y1="161.653" x2="-18.8062" y2="78.1537" gradientUnits="userSpaceOnUse">
<stop stop-color="#F4F4F4"/>
<stop offset="1" stop-color="#F2F2F2"/>
</linearGradient>
<linearGradient id="paint2_linear_240_1991" x1="26.2397" y1="119.099" x2="103.399" y2="47.7908" gradientUnits="userSpaceOnUse">
<stop stop-color="white"/>
<stop offset="1" stop-color="#F3F3F3"/>
</linearGradient>
<linearGradient id="paint3_linear_240_1991" x1="-77.8789" y1="48.8803" x2="-10.5385" y2="-34.7879" gradientUnits="userSpaceOnUse">
<stop stop-color="#00A0E4"/>
<stop offset="1" stop-color="#0099DD"/>
</linearGradient>
<linearGradient id="paint4_linear_240_1991" x1="52.0046" y1="128.774" x2="108.637" y2="-1.38292" gradientUnits="userSpaceOnUse">
<stop stop-color="#F6F6F6"/>
<stop offset="1" stop-color="#F9F9F9"/>
</linearGradient>
<linearGradient id="paint5_linear_240_1991" x1="-74.9376" y1="194.759" x2="-22.0945" y2="94.4925" gradientUnits="userSpaceOnUse">
<stop stop-color="#FEFEFE"/>
<stop offset="1" stop-color="#F8F8F8"/>
</linearGradient>
<linearGradient id="paint6_linear_240_1991" x1="26.2397" y1="84.7076" x2="90.2438" y2="22.135" gradientUnits="userSpaceOnUse">
<stop stop-color="#EAEBEB"/>
<stop offset="1" stop-color="#DCDCDD"/>
</linearGradient>
<linearGradient id="paint7_linear_240_1991" x1="242.829" y1="132.099" x2="301.708" y2="29.0998" gradientUnits="userSpaceOnUse">
<stop stop-color="white"/>
<stop offset="1" stop-color="white"/>
</linearGradient>
<linearGradient id="paint8_linear_240_1991" x1="3.88628" y1="28.2457" x2="32.1999" y2="-25.8755" gradientUnits="userSpaceOnUse">
<stop stop-color="#04ADEE"/>
<stop offset="1" stop-color="#96CEE4"/>
</linearGradient>
<linearGradient id="paint9_linear_240_1991" x1="39.6512" y1="53.6422" x2="64.9693" y2="0.369151" gradientUnits="userSpaceOnUse">
<stop stop-color="#D7D8DA"/>
<stop offset="1" stop-color="#E7E8E8"/>
</linearGradient>
<linearGradient id="paint10_linear_240_1991" x1="-6.23143" y1="15.6986" x2="7.48703" y2="-49.1222" gradientUnits="userSpaceOnUse">
<stop stop-color="#009FE3"/>
<stop offset="1" stop-color="#4EB9E6"/>
</linearGradient>
<linearGradient id="paint11_linear_240_1991" x1="63.4163" y1="45.0255" x2="90.5951" y2="-10.6373" gradientUnits="userSpaceOnUse">
<stop stop-color="#ECECEC"/>
<stop offset="1" stop-color="#9ECFE6"/>
</linearGradient>
<linearGradient id="paint12_linear_240_1991" x1="96.4753" y1="24.1641" x2="113.6" y2="-30.2327" gradientUnits="userSpaceOnUse">
<stop stop-color="#75C0E2"/>
<stop offset="1" stop-color="#009CE1"/>
</linearGradient>
<linearGradient id="paint13_linear_240_1991" x1="218.476" y1="34.0656" x2="325.323" y2="-125.276" gradientUnits="userSpaceOnUse">
<stop stop-color="#0076BA"/>
<stop offset="1" stop-color="#55A8D4"/>
</linearGradient>
<linearGradient id="paint14_linear_240_1991" x1="240.006" y1="55.5316" x2="307.803" y2="-81.4275" gradientUnits="userSpaceOnUse">
<stop stop-color="#7FC9EC"/>
<stop offset="1" stop-color="#55C0ED"/>
</linearGradient>
<linearGradient id="paint15_linear_240_1991" x1="93.4167" y1="49.334" x2="111.526" y2="-14.4586" gradientUnits="userSpaceOnUse">
<stop stop-color="#77CAEB"/>
<stop offset="1" stop-color="#55BEEB"/>
</linearGradient>
<linearGradient id="paint16_linear_240_1991" x1="108.593" y1="109.499" x2="181.094" y2="-1.62503" gradientUnits="userSpaceOnUse">
<stop stop-color="#F5F5F5"/>
<stop offset="1" stop-color="#FEFEFE"/>
</linearGradient>
<linearGradient id="paint17_linear_240_1991" x1="147.887" y1="34.2168" x2="191.276" y2="-37.4862" gradientUnits="userSpaceOnUse">
<stop stop-color="#00A0E4"/>
<stop offset="1" stop-color="#55C8F4"/>
</linearGradient>
<linearGradient id="paint18_linear_240_1991" x1="174.829" y1="34.0656" x2="271.55" y2="-100.154" gradientUnits="userSpaceOnUse">
<stop stop-color="#0081C2"/>
<stop offset="1" stop-color="#55A7D3"/>
</linearGradient>
<linearGradient id="paint19_linear_240_1991" x1="198.005" y1="99.5978" x2="270.956" y2="-10.4833" gradientUnits="userSpaceOnUse">
<stop stop-color="white"/>
<stop offset="1" stop-color="white"/>
</linearGradient>
<linearGradient id="paint20_linear_240_1991" x1="217.182" y1="115.622" x2="217.822" y2="103.562" gradientUnits="userSpaceOnUse">
<stop stop-color="#FBFBFB"/>
<stop offset="1" stop-color="#FCFCFC"/>
</linearGradient>
<linearGradient id="paint21_linear_240_1991" x1="-13.5251" y1="61.8053" x2="36.4735" y2="32.0009" gradientUnits="userSpaceOnUse">
<stop stop-color="#01A0E4"/>
<stop offset="1" stop-color="#46B9E6"/>
</linearGradient>
<linearGradient id="paint22_linear_240_1991" x1="-14.7016" y1="108.592" x2="50.2154" y2="58.526" gradientUnits="userSpaceOnUse">
<stop stop-color="#76C0E3"/>
<stop offset="1" stop-color="#E9EAEA"/>
</linearGradient>
<linearGradient id="paint23_linear_240_1991" x1="9.18043" y1="34.4435" x2="46.7272" y2="9.14801" gradientUnits="userSpaceOnUse">
<stop stop-color="#00ADEF"/>
<stop offset="1" stop-color="#8BC5DD"/>
</linearGradient>
<linearGradient id="paint24_linear_240_1991" x1="15.769" y1="102.999" x2="54.1103" y2="92.1486" gradientUnits="userSpaceOnUse">
<stop stop-color="#F6F6F6"/>
<stop offset="1" stop-color="#DADBDC"/>
</linearGradient>
<linearGradient id="paint25_linear_240_1991" x1="24.7101" y1="196.725" x2="100.236" y2="99.2168" gradientUnits="userSpaceOnUse">
<stop stop-color="#F6F6F6"/>
<stop offset="1" stop-color="white"/>
</linearGradient>
<linearGradient id="paint26_linear_240_1991" x1="29.769" y1="167.7" x2="69.2935" y2="55.8993" gradientUnits="userSpaceOnUse">
<stop stop-color="#F6F6F6"/>
<stop offset="1" stop-color="white"/>
</linearGradient>
<linearGradient id="paint27_linear_240_1991" x1="132.24" y1="212.219" x2="166.484" y2="171.922" gradientUnits="userSpaceOnUse">
<stop stop-color="white"/>
<stop offset="1" stop-color="white"/>
</linearGradient>
<linearGradient id="paint28_linear_240_1991" x1="139.652" y1="202.469" x2="232.294" y2="134.225" gradientUnits="userSpaceOnUse">
<stop stop-color="white"/>
<stop offset="1" stop-color="white"/>
</linearGradient>
<linearGradient id="paint29_linear_240_1991" x1="139.652" y1="175.561" x2="200.587" y2="97.1303" gradientUnits="userSpaceOnUse">
<stop stop-color="white"/>
<stop offset="1" stop-color="white"/>
</linearGradient>
<linearGradient id="paint30_linear_240_1991" x1="151.77" y1="202.469" x2="232.203" y2="53.6539" gradientUnits="userSpaceOnUse">
<stop stop-color="white"/>
<stop offset="1" stop-color="#FEFDFE"/>
</linearGradient>
<linearGradient id="paint31_linear_240_1991" x1="216.947" y1="164.676" x2="250.9" y2="78.9583" gradientUnits="userSpaceOnUse">
<stop stop-color="#F5F5F5"/>
<stop offset="1" stop-color="#F7F7F7"/>
</linearGradient>
<linearGradient id="paint32_linear_240_1991" x1="84.5929" y1="210.935" x2="120.466" y2="157.716" gradientUnits="userSpaceOnUse">
<stop stop-color="#FEFEFE"/>
<stop offset="1" stop-color="#FEFEFE"/>
</linearGradient>
<linearGradient id="paint33_linear_240_1991" x1="118.358" y1="212.219" x2="152.348" y2="192.991" gradientUnits="userSpaceOnUse">
<stop stop-color="#FEFEFE"/>
<stop offset="1" stop-color="#FEFEFE"/>
</linearGradient>
</defs>
</svg>
