<svg width="320" height="264" viewBox="0 0 320 264" fill="none" xmlns="http://www.w3.org/2000/svg">
<mask id="mask0_240_409" style="mask-type:alpha" maskUnits="userSpaceOnUse" x="0" y="0" width="320" height="264">
<path d="M0 20C0 8.9543 8.95431 0 20 0H300C311.046 0 320 8.95431 320 20V264H0V20Z" fill="#CD072D"/>
</mask>
<g mask="url(#mask0_240_409)">
<g opacity="0.14">
<path d="M-8.64471 109.104L-22.5271 174.863L22.6497 130.419L-8.64471 109.104Z" fill="url(#paint0_linear_240_409)"/>
<path d="M177.592 99.6562L30.0616 139.943L22.6499 130.419L177.592 99.6562Z" fill="url(#paint1_linear_240_409)"/>
<path d="M338.064 220.517L307.71 259.67L391.593 247.803L338.064 220.517Z" fill="url(#paint2_linear_240_409)"/>
<path d="M334.416 315.3L307.71 259.669L391.593 247.803L334.416 315.3Z" fill="url(#paint3_linear_240_409)"/>
<path d="M-22.5271 174.863L-64.0568 199.806L13.4731 182.573L-22.5271 174.863Z" fill="url(#paint4_linear_240_409)"/>
<path d="M177.592 99.6562L30.0616 139.943L72.4149 163.072L177.592 99.6562Z" fill="url(#paint5_linear_240_409)"/>
<path d="M307.71 259.67L280.887 293.38L243.122 280.985L307.71 259.67Z" fill="url(#paint6_linear_240_409)"/>
<path d="M13.4731 182.573L-64.0568 199.806L-74.1745 228.831L13.4731 182.573Z" fill="url(#paint7_linear_240_409)"/>
<path d="M338.064 220.517L307.711 259.67L150.886 247.803L338.064 220.517Z" fill="url(#paint8_linear_240_409)"/>
<path d="M338.064 220.517L177.592 99.6561L150.886 247.803L338.064 220.517Z" fill="url(#paint9_linear_240_409)"/>
<path d="M307.71 259.67L243.122 280.985L150.886 247.803L307.71 259.67Z" fill="url(#paint10_linear_240_409)"/>
<path d="M177.592 99.656L72.4149 163.072L150.886 247.803L177.592 99.656Z" fill="url(#paint11_linear_240_409)"/>
<path d="M72.4149 163.072L13.4733 182.573L150.886 247.803L72.4149 163.072Z" fill="url(#paint12_linear_240_409)"/>
<path d="M243.122 280.984L150.886 247.803L173.945 279.17L243.122 280.984Z" fill="url(#paint13_linear_240_409)"/>
<path d="M13.4731 182.573L-74.1746 228.831L94.6501 295.799L13.4731 182.573Z" fill="url(#paint14_linear_240_409)"/>
<path d="M-14.1741 312.352L-74.1746 228.831L94.6501 295.799L-14.1741 312.352Z" fill="url(#paint15_linear_240_409)"/>
<path d="M173.945 279.17L150.886 247.803L94.6505 295.799L173.945 279.17Z" fill="url(#paint16_linear_240_409)"/>
<path d="M150.886 247.803L13.4733 182.573L94.6503 295.799L150.886 247.803Z" fill="url(#paint17_linear_240_409)"/>
<path d="M338.064 220.516L177.592 99.6559L350.064 60.5029L338.064 220.516Z" fill="url(#paint18_linear_240_409)"/>
<path d="M334.416 315.3L307.71 259.669L301.24 299.352L334.416 315.3Z" fill="url(#paint19_linear_240_409)"/>
<path d="M307.71 259.669L280.887 293.38L301.24 299.352L307.71 259.669Z" fill="url(#paint20_linear_240_409)"/>
<path d="M30.0618 139.943L22.65 130.419L18.0617 167.153L30.0618 139.943Z" fill="url(#paint21_linear_240_409)"/>
<path d="M22.6497 130.419L-22.5271 174.863L18.0614 167.153L22.6497 130.419Z" fill="url(#paint22_linear_240_409)"/>
<path d="M13.4733 182.573L-22.5269 174.863L18.0615 167.153L13.4733 182.573Z" fill="url(#paint23_linear_240_409)"/>
<path d="M72.4148 163.072L30.0615 139.943L18.0615 167.153L72.4148 163.072Z" fill="url(#paint24_linear_240_409)"/>
<path d="M72.4148 163.072L13.4732 182.573L18.0615 167.153L72.4148 163.072Z" fill="url(#paint25_linear_240_409)"/>
<path d="M22.6497 130.419L-8.64467 109.104L49.4734 14.9255L22.6497 130.419Z" fill="url(#paint26_linear_240_409)"/>
<path d="M177.592 99.6563L22.6499 130.419L49.4735 14.9255L177.592 99.6563Z" fill="url(#paint27_linear_240_409)"/>
</g>
</g>
<defs>
<linearGradient id="paint0_linear_240_409" x1="17.9437" y1="177.962" x2="-44.7118" y2="134.911" gradientUnits="userSpaceOnUse">
<stop stop-color="#8ACAE9"/>
<stop offset="1" stop-color="#50ACD8"/>
</linearGradient>
<linearGradient id="paint1_linear_240_409" x1="174.416" y1="140.774" x2="154.385" y2="63.7469" gradientUnits="userSpaceOnUse">
<stop stop-color="#76AFD4"/>
<stop offset="1" stop-color="#0088CF"/>
</linearGradient>
<linearGradient id="paint2_linear_240_409" x1="374.417" y1="265.792" x2="349.782" y2="205.372" gradientUnits="userSpaceOnUse">
<stop stop-color="#0095DA"/>
<stop offset="1" stop-color="#0089CF"/>
</linearGradient>
<linearGradient id="paint3_linear_240_409" x1="395.829" y1="312.806" x2="328.488" y2="229.138" gradientUnits="userSpaceOnUse">
<stop stop-color="#00A0E4"/>
<stop offset="1" stop-color="#0099DD"/>
</linearGradient>
<linearGradient id="paint4_linear_240_409" x1="9.59077" y1="201.922" x2="-5.19948" y2="155.88" gradientUnits="userSpaceOnUse">
<stop stop-color="#69B3D6"/>
<stop offset="1" stop-color="#099ADC"/>
</linearGradient>
<linearGradient id="paint5_linear_240_409" x1="186.769" y1="155.967" x2="139.835" y2="46.7305" gradientUnits="userSpaceOnUse">
<stop stop-color="#76AFD3"/>
<stop offset="1" stop-color="#0090D6"/>
</linearGradient>
<linearGradient id="paint6_linear_240_409" x1="314.063" y1="292.171" x2="285.75" y2="238.05" gradientUnits="userSpaceOnUse">
<stop stop-color="#04ADEE"/>
<stop offset="1" stop-color="#96CEE4"/>
</linearGradient>
<linearGradient id="paint7_linear_240_409" x1="11.5908" y1="230.493" x2="-27.3366" y2="156.698" gradientUnits="userSpaceOnUse">
<stop stop-color="#009ADF"/>
<stop offset="1" stop-color="#099EE0"/>
</linearGradient>
<linearGradient id="paint8_linear_240_409" x1="351.005" y1="255.815" x2="335.03" y2="179.334" gradientUnits="userSpaceOnUse">
<stop stop-color="#0096D4"/>
<stop offset="1" stop-color="#009DDD"/>
</linearGradient>
<linearGradient id="paint9_linear_240_409" x1="303.24" y1="275.316" x2="156.122" y2="89.3775" gradientUnits="userSpaceOnUse">
<stop stop-color="#68BFE1"/>
<stop offset="1" stop-color="#94CEE5"/>
</linearGradient>
<linearGradient id="paint10_linear_240_409" x1="324.181" y1="279.624" x2="310.463" y2="214.803" gradientUnits="userSpaceOnUse">
<stop stop-color="#009FE3"/>
<stop offset="1" stop-color="#4EB9E6"/>
</linearGradient>
<linearGradient id="paint11_linear_240_409" x1="198.416" y1="218.627" x2="61.7027" y2="133.722" gradientUnits="userSpaceOnUse">
<stop stop-color="#76CDED"/>
<stop offset="1" stop-color="#00ADEE"/>
</linearGradient>
<linearGradient id="paint12_linear_240_409" x1="160.651" y1="242.814" x2="83.391" y2="117.514" gradientUnits="userSpaceOnUse">
<stop stop-color="#00ADEF"/>
<stop offset="1" stop-color="#00A9EB"/>
</linearGradient>
<linearGradient id="paint13_linear_240_409" x1="221.474" y1="288.089" x2="204.35" y2="233.693" gradientUnits="userSpaceOnUse">
<stop stop-color="#75C0E2"/>
<stop offset="1" stop-color="#009CE1"/>
</linearGradient>
<linearGradient id="paint14_linear_240_409" x1="99.4737" y1="297.991" x2="-7.37316" y2="138.65" gradientUnits="userSpaceOnUse">
<stop stop-color="#0076BA"/>
<stop offset="1" stop-color="#55A8D4"/>
</linearGradient>
<linearGradient id="paint15_linear_240_409" x1="77.9441" y1="319.457" x2="10.1471" y2="182.498" gradientUnits="userSpaceOnUse">
<stop stop-color="#7FC9EC"/>
<stop offset="1" stop-color="#55C0ED"/>
</linearGradient>
<linearGradient id="paint16_linear_240_409" x1="170.063" y1="298.142" x2="126.674" y2="226.439" gradientUnits="userSpaceOnUse">
<stop stop-color="#00A0E4"/>
<stop offset="1" stop-color="#55C8F4"/>
</linearGradient>
<linearGradient id="paint17_linear_240_409" x1="143.121" y1="297.991" x2="46.3999" y2="163.772" gradientUnits="userSpaceOnUse">
<stop stop-color="#0081C2"/>
<stop offset="1" stop-color="#55A7D3"/>
</linearGradient>
<linearGradient id="paint18_linear_240_409" x1="378.887" y1="181.439" x2="214.447" y2="26.3275" gradientUnits="userSpaceOnUse">
<stop stop-color="#76CDEE"/>
<stop offset="1" stop-color="#F3F3F3"/>
</linearGradient>
<linearGradient id="paint19_linear_240_409" x1="331.475" y1="325.731" x2="281.476" y2="295.926" gradientUnits="userSpaceOnUse">
<stop stop-color="#01A0E4"/>
<stop offset="1" stop-color="#46B9E6"/>
</linearGradient>
<linearGradient id="paint20_linear_240_409" x1="308.769" y1="298.369" x2="271.223" y2="273.073" gradientUnits="userSpaceOnUse">
<stop stop-color="#00ADEF"/>
<stop offset="1" stop-color="#8BC5DD"/>
</linearGradient>
<linearGradient id="paint21_linear_240_409" x1="28.7676" y1="168.514" x2="6.6525" y2="161.296" gradientUnits="userSpaceOnUse">
<stop stop-color="#0094DA"/>
<stop offset="1" stop-color="#0097DC"/>
</linearGradient>
<linearGradient id="paint22_linear_240_409" x1="23.7085" y1="174.863" x2="-21.6361" y2="128.752" gradientUnits="userSpaceOnUse">
<stop stop-color="#0094DA"/>
<stop offset="1" stop-color="#46ACDA"/>
</linearGradient>
<linearGradient id="paint23_linear_240_409" x1="23.4733" y1="179.852" x2="11.8896" y2="153.153" gradientUnits="userSpaceOnUse">
<stop stop-color="#00A6E8"/>
<stop offset="1" stop-color="#46B4E0"/>
</linearGradient>
<linearGradient id="paint24_linear_240_409" x1="65.003" y1="171.159" x2="40.8029" y2="128.886" gradientUnits="userSpaceOnUse">
<stop stop-color="#00A1E4"/>
<stop offset="1" stop-color="#0097DC"/>
</linearGradient>
<linearGradient id="paint25_linear_240_409" x1="71.8266" y1="181.439" x2="58.4934" y2="146.222" gradientUnits="userSpaceOnUse">
<stop stop-color="#00ADEF"/>
<stop offset="1" stop-color="#00A4E6"/>
</linearGradient>
<linearGradient id="paint26_linear_240_409" x1="53.944" y1="127.32" x2="-40.7094" y2="79.7222" gradientUnits="userSpaceOnUse">
<stop stop-color="#7BC5E8"/>
<stop offset="1" stop-color="#F8F8F8"/>
</linearGradient>
<linearGradient id="paint27_linear_240_409" x1="154.651" y1="156.799" x2="41.6375" y2="5.24983" gradientUnits="userSpaceOnUse">
<stop stop-color="#F3F3F2"/>
<stop offset="1" stop-color="#A7D8EF"/>
</linearGradient>
</defs>
</svg>
