<svg width="72" height="41" viewBox="0 0 72 41" fill="none" xmlns="http://www.w3.org/2000/svg">
<g clip-path="url(#clip0_170_2)">
<path d="M71.9998 6.97519V34.0248C71.9993 35.8749 71.2614 37.6491 69.9484 38.9571C68.6355 40.2652 66.8549 41 64.9984 41H59.3379L45.9393 27.6475C49.7208 22.6428 51.9458 16.1825 51.9991 9.32863C52.001 9.28559 51.9908 9.24289 51.9697 9.20531C51.9486 9.16772 51.9174 9.13674 51.8796 9.11584C47.9162 6.88929 43.5009 5.58016 38.9607 5.28548C34.4206 4.9908 29.8722 5.71812 25.6525 7.41354L18.1963 0H64.9984C66.8549 -8.60379e-08 68.6355 0.734816 69.9484 2.04286C71.2614 3.3509 71.9993 5.12506 71.9998 6.97519Z" fill="#CD072D"/>
<path d="M53.7609 41H6.99929C5.14296 41 3.36267 40.2651 2.05004 38.957C0.737423 37.6489 0 35.8747 0 34.0248L0 6.97519C0 5.12526 0.737423 3.35109 2.05004 2.04299C3.36267 0.734884 5.14296 0 6.99929 0L12.6192 0L21.9929 9.34778C22.0868 20.5064 27.931 30.6138 36.8883 35.0951C36.9216 35.1111 36.958 35.1195 36.995 35.1195C37.032 35.1195 37.0685 35.1111 37.1018 35.0951C39.4063 33.9376 41.5133 32.4253 43.3452 30.6138L53.7609 41Z" fill="#CD072D"/>
<path d="M46.9238 11.814C43.8952 10.1135 40.4777 9.22009 37.0014 9.22009C33.5252 9.22009 30.1076 10.1135 27.079 11.814C27.055 11.8278 27.0351 11.8476 27.0212 11.8715C27.0073 11.8954 27 11.9226 27 11.9502C27.0577 19.3977 30.9566 26.141 36.931 29.1349C36.9529 29.1458 36.9769 29.1516 37.0014 29.152C37.0259 29.1514 37.0499 29.1456 37.0719 29.1349C43.0505 26.1431 46.9431 19.3977 47.0028 11.9502C47.0028 11.9226 46.9955 11.8954 46.9816 11.8715C46.9678 11.8476 46.9478 11.8278 46.9238 11.814Z" fill="#CD072D"/>
</g>
<defs>
<clipPath id="clip0_170_2">
<rect width="72" height="41" fill="white"/>
</clipPath>
</defs>
</svg>
