<svg width="320" height="264" viewBox="0 0 320 264" fill="none" xmlns="http://www.w3.org/2000/svg">
<mask id="mask0_240_609" style="mask-type:alpha" maskUnits="userSpaceOnUse" x="0" y="0" width="320" height="264">
<path d="M0 20C0 8.9543 8.95431 0 20 0H300C311.046 0 320 8.95431 320 20V264H0V20Z" fill="#CD072D"/>
</mask>
<g mask="url(#mask0_240_609)">
<g opacity="0.14">
<path d="M255.943 199.806L192.296 147.652L297.473 174.863L255.943 199.806Z" fill="url(#paint0_linear_240_609)"/>
<path d="M311.355 109.104L297.473 174.863L342.65 130.419L311.355 109.104Z" fill="url(#paint1_linear_240_609)"/>
<path d="M3.2356 292.851L-65.0002 324.219L5.11791 222.331L3.2356 292.851Z" fill="url(#paint2_linear_240_609)"/>
<path d="M297.473 174.863L255.943 199.806L333.473 182.573L297.473 174.863Z" fill="url(#paint3_linear_240_609)"/>
<path d="M333.473 182.573L255.943 199.806L245.825 228.831L333.473 182.573Z" fill="url(#paint4_linear_240_609)"/>
<path d="M305.826 312.352L229.237 249.541L245.826 228.831L305.826 312.352Z" fill="url(#paint5_linear_240_609)"/>
<path d="M229.237 249.541L209.825 233.517L245.826 228.831L229.237 249.541Z" fill="url(#paint6_linear_240_609)"/>
<path d="M255.943 199.806L192.296 147.653L185.825 206.911L255.943 199.806Z" fill="url(#paint7_linear_240_609)"/>
<path d="M333.473 182.573L245.825 228.831L414.65 295.799L333.473 182.573Z" fill="url(#paint8_linear_240_609)"/>
<path d="M305.826 312.352L245.825 228.831L414.65 295.799L305.826 312.352Z" fill="url(#paint9_linear_240_609)"/>
<path d="M29.9416 196.783L5.11795 222.331L7.82389 222.331L29.9416 196.783Z" fill="url(#paint10_linear_240_609)"/>
<path d="M5.11803 222.33L3.23572 292.851L7.82397 222.33L5.11803 222.33Z" fill="url(#paint11_linear_240_609)"/>
<path d="M192.296 147.652L180.296 126.337L57.7067 161.862L192.296 147.652Z" fill="url(#paint12_linear_240_609)"/>
<path d="M180.295 126.337L71.4712 121.576L57.7064 161.862L180.295 126.337Z" fill="url(#paint13_linear_240_609)"/>
<path d="M71.4712 121.576L57.7064 161.863L6.88255 172.52L71.4712 121.576Z" fill="url(#paint14_linear_240_609)"/>
<path d="M57.7068 161.863L29.9419 196.783L6.88293 172.52L57.7068 161.863Z" fill="url(#paint15_linear_240_609)"/>
<path d="M29.9416 196.783L5.11795 222.331L6.88268 172.52L29.9416 196.783Z" fill="url(#paint16_linear_240_609)"/>
<path d="M5.11807 222.331L-65 324.219L6.8828 172.52L5.11807 222.331Z" fill="url(#paint17_linear_240_609)"/>
<path d="M305.826 312.352L229.237 249.541L119.472 436.236L305.826 312.352Z" fill="url(#paint18_linear_240_609)"/>
<path d="M192.296 147.653L185.825 206.911L113.942 217.569L192.296 147.653Z" fill="url(#paint19_linear_240_609)"/>
<path d="M192.296 147.653L57.7067 161.863L113.942 217.569L192.296 147.653Z" fill="url(#paint20_linear_240_609)"/>
<path d="M57.7067 161.863L29.9418 196.783L113.942 217.569L57.7067 161.863Z" fill="url(#paint21_linear_240_609)"/>
<path d="M29.9418 196.783L7.82409 222.331L113.942 217.569L29.9418 196.783Z" fill="url(#paint22_linear_240_609)"/>
<path d="M7.82407 222.331L3.23582 292.851L113.942 217.569L7.82407 222.331Z" fill="url(#paint23_linear_240_609)"/>
<path d="M311.355 109.104L297.473 174.863L251.355 114.471L311.355 109.104Z" fill="url(#paint24_linear_240_609)"/>
<path d="M297.473 174.863L192.296 147.652L251.355 114.471L297.473 174.863Z" fill="url(#paint25_linear_240_609)"/>
<path d="M192.296 147.652L180.296 126.338L251.355 114.471L192.296 147.652Z" fill="url(#paint26_linear_240_609)"/>
<path d="M255.943 199.806L245.825 228.831L219.943 223.464L255.943 199.806Z" fill="url(#paint27_linear_240_609)"/>
<path d="M255.943 199.806L185.825 206.911L219.943 223.464L255.943 199.806Z" fill="url(#paint28_linear_240_609)"/>
<path d="M245.826 228.831L209.825 233.517L219.943 223.464L245.826 228.831Z" fill="url(#paint29_linear_240_609)"/>
<path d="M342.65 130.419L297.473 174.863L338.061 167.153L342.65 130.419Z" fill="url(#paint30_linear_240_609)"/>
<path d="M333.473 182.573L297.473 174.863L338.062 167.153L333.473 182.573Z" fill="url(#paint31_linear_240_609)"/>
<path d="M229.237 249.541L209.825 233.517L198.766 239.488L229.237 249.541Z" fill="url(#paint32_linear_240_609)"/>
<path d="M342.65 130.419L311.355 109.104L369.473 14.9255L342.65 130.419Z" fill="url(#paint33_linear_240_609)"/>
<path d="M229.237 249.541L198.766 239.488L139.707 234.726L229.237 249.541Z" fill="url(#paint34_linear_240_609)"/>
<path d="M229.237 249.541L119.472 436.236L139.707 234.727L229.237 249.541Z" fill="url(#paint35_linear_240_609)"/>
<path d="M185.825 206.911L113.942 217.569L139.707 234.726L185.825 206.911Z" fill="url(#paint36_linear_240_609)"/>
<path d="M119.472 436.236L3.23554 292.851L139.707 234.727L119.472 436.236Z" fill="url(#paint37_linear_240_609)"/>
<path d="M113.942 217.569L3.23555 292.851L139.707 234.726L113.942 217.569Z" fill="url(#paint38_linear_240_609)"/>
<path d="M219.943 223.464L209.825 233.517L203.355 232.383L219.943 223.464Z" fill="url(#paint39_linear_240_609)"/>
<path d="M219.943 223.465L185.825 206.911L203.355 232.384L219.943 223.465Z" fill="url(#paint40_linear_240_609)"/>
<path d="M209.825 233.517L198.767 239.488L203.355 232.383L209.825 233.517Z" fill="url(#paint41_linear_240_609)"/>
<path d="M198.766 239.488L139.707 234.726L203.355 232.383L198.766 239.488Z" fill="url(#paint42_linear_240_609)"/>
<path d="M185.825 206.911L139.707 234.726L203.355 232.383L185.825 206.911Z" fill="url(#paint43_linear_240_609)"/>
</g>
</g>
<defs>
<linearGradient id="paint0_linear_240_609" x1="299.12" y1="195.573" x2="253.059" y2="114.306" gradientUnits="userSpaceOnUse">
<stop stop-color="#76B6D6"/>
<stop offset="1" stop-color="#DADBDC"/>
</linearGradient>
<linearGradient id="paint1_linear_240_609" x1="337.944" y1="177.962" x2="275.288" y2="134.911" gradientUnits="userSpaceOnUse">
<stop stop-color="#8ACAE9"/>
<stop offset="1" stop-color="#50ACD8"/>
</linearGradient>
<linearGradient id="paint2_linear_240_609" x1="4.17674" y1="322.178" x2="-92.9442" y2="255.383" gradientUnits="userSpaceOnUse">
<stop stop-color="#A1D4E7"/>
<stop offset="1" stop-color="#82B1CE"/>
</linearGradient>
<linearGradient id="paint3_linear_240_609" x1="329.591" y1="201.922" x2="314.801" y2="155.88" gradientUnits="userSpaceOnUse">
<stop stop-color="#69B3D6"/>
<stop offset="1" stop-color="#099ADC"/>
</linearGradient>
<linearGradient id="paint4_linear_240_609" x1="331.591" y1="230.493" x2="292.663" y2="156.698" gradientUnits="userSpaceOnUse">
<stop stop-color="#009ADF"/>
<stop offset="1" stop-color="#099EE0"/>
</linearGradient>
<linearGradient id="paint5_linear_240_609" x1="302.179" y1="308.8" x2="218.217" y2="241.487" gradientUnits="userSpaceOnUse">
<stop stop-color="#7FB8DD"/>
<stop offset="1" stop-color="#0099DD"/>
</linearGradient>
<linearGradient id="paint6_linear_240_609" x1="249.826" y1="245.913" x2="231.51" y2="214.146" gradientUnits="userSpaceOnUse">
<stop stop-color="#00ADEF"/>
<stop offset="1" stop-color="#00ADEF"/>
</linearGradient>
<linearGradient id="paint7_linear_240_609" x1="244.649" y1="219.987" x2="185.025" y2="149.455" gradientUnits="userSpaceOnUse">
<stop stop-color="#0DA4E4"/>
<stop offset="1" stop-color="#4FC2EE"/>
</linearGradient>
<linearGradient id="paint8_linear_240_609" x1="419.474" y1="297.991" x2="312.627" y2="138.65" gradientUnits="userSpaceOnUse">
<stop stop-color="#0076BA"/>
<stop offset="1" stop-color="#55A8D4"/>
</linearGradient>
<linearGradient id="paint9_linear_240_609" x1="397.944" y1="319.457" x2="330.147" y2="182.498" gradientUnits="userSpaceOnUse">
<stop stop-color="#7FC9EC"/>
<stop offset="1" stop-color="#55C0ED"/>
</linearGradient>
<linearGradient id="paint10_linear_240_609" x1="28.8828" y1="222.557" x2="6.06829" y2="197.074" gradientUnits="userSpaceOnUse">
<stop stop-color="#FCFCFC"/>
<stop offset="1" stop-color="#F9F9F9"/>
</linearGradient>
<linearGradient id="paint11_linear_240_609" x1="7.58868" y1="295.346" x2="-1.85442" y2="294.64" gradientUnits="userSpaceOnUse">
<stop stop-color="#CDECF7"/>
<stop offset="1" stop-color="#C5EAF6"/>
</linearGradient>
<linearGradient id="paint12_linear_240_609" x1="185.355" y1="162.921" x2="167.445" y2="95.0877" gradientUnits="userSpaceOnUse">
<stop stop-color="#DFE0E1"/>
<stop offset="1" stop-color="#EAEBEC"/>
</linearGradient>
<linearGradient id="paint13_linear_240_609" x1="174.766" y1="163.45" x2="150.384" y2="89.2223" gradientUnits="userSpaceOnUse">
<stop stop-color="#DEDFE0"/>
<stop offset="1" stop-color="#EDEEEE"/>
</linearGradient>
<linearGradient id="paint14_linear_240_609" x1="70.53" y1="175.543" x2="19.9497" y2="111.462" gradientUnits="userSpaceOnUse">
<stop stop-color="#FDFDFD"/>
<stop offset="1" stop-color="white"/>
</linearGradient>
<linearGradient id="paint15_linear_240_609" x1="61.4715" y1="194.969" x2="28.1319" y2="146.594" gradientUnits="userSpaceOnUse">
<stop stop-color="white"/>
<stop offset="1" stop-color="white"/>
</linearGradient>
<linearGradient id="paint16_linear_240_609" x1="25.7063" y1="225.278" x2="-9.86177" y2="207.484" gradientUnits="userSpaceOnUse">
<stop stop-color="white"/>
<stop offset="1" stop-color="#FCFCFC"/>
</linearGradient>
<linearGradient id="paint17_linear_240_609" x1="5.1181" y1="322.329" x2="-114.748" y2="265.484" gradientUnits="userSpaceOnUse">
<stop stop-color="#C1E1EE"/>
<stop offset="1" stop-color="#83B5D3"/>
</linearGradient>
<linearGradient id="paint18_linear_240_609" x1="283.591" y1="462.993" x2="93.1169" y2="272.875" gradientUnits="userSpaceOnUse">
<stop stop-color="#FAFAFA"/>
<stop offset="1" stop-color="#A4DDF3"/>
</linearGradient>
<linearGradient id="paint19_linear_240_609" x1="193.59" y1="218.173" x2="122.702" y2="138.694" gradientUnits="userSpaceOnUse">
<stop stop-color="#76CDEE"/>
<stop offset="1" stop-color="#00ADEF"/>
</linearGradient>
<linearGradient id="paint20_linear_240_609" x1="202.531" y1="209.254" x2="144.168" y2="96.8555" gradientUnits="userSpaceOnUse">
<stop stop-color="#F6F6F6"/>
<stop offset="1" stop-color="#AAE3F9"/>
</linearGradient>
<linearGradient id="paint21_linear_240_609" x1="104.648" y1="222.482" x2="52.2725" y2="143.561" gradientUnits="userSpaceOnUse">
<stop stop-color="#FCFCFC"/>
<stop offset="1" stop-color="#A8E1F7"/>
</linearGradient>
<linearGradient id="paint22_linear_240_609" x1="88.6481" y1="225.807" x2="75.2532" y2="177.018" gradientUnits="userSpaceOnUse">
<stop stop-color="#FCFCFC"/>
<stop offset="1" stop-color="#A6E0F6"/>
</linearGradient>
<linearGradient id="paint23_linear_240_609" x1="107.942" y1="291.642" x2="48.3622" y2="191.499" gradientUnits="userSpaceOnUse">
<stop stop-color="#FCFCFC"/>
<stop offset="1" stop-color="#91DAF5"/>
</linearGradient>
<linearGradient id="paint24_linear_240_609" x1="321.238" y1="161.182" x2="254.406" y2="100.267" gradientUnits="userSpaceOnUse">
<stop stop-color="#F6F6F6"/>
<stop offset="1" stop-color="#ECEDED"/>
</linearGradient>
<linearGradient id="paint25_linear_240_609" x1="299.12" y1="177.811" x2="245.822" y2="85.0936" gradientUnits="userSpaceOnUse">
<stop stop-color="#E3E3E5"/>
<stop offset="1" stop-color="#F6F5F6"/>
</linearGradient>
<linearGradient id="paint26_linear_240_609" x1="251.237" y1="145.083" x2="230.294" y2="93.8573" gradientUnits="userSpaceOnUse">
<stop stop-color="#F1F1F1"/>
<stop offset="1" stop-color="#F6F7F6"/>
</linearGradient>
<linearGradient id="paint27_linear_240_609" x1="255.355" y1="228.301" x2="230.703" y2="193.399" gradientUnits="userSpaceOnUse">
<stop stop-color="#0DA3E2"/>
<stop offset="1" stop-color="#00ACED"/>
</linearGradient>
<linearGradient id="paint28_linear_240_609" x1="262.532" y1="222.028" x2="247.853" y2="178.617" gradientUnits="userSpaceOnUse">
<stop stop-color="#0DA3E3"/>
<stop offset="1" stop-color="#00ACEE"/>
</linearGradient>
<linearGradient id="paint29_linear_240_609" x1="240.649" y1="234.273" x2="234.627" y2="215.458" gradientUnits="userSpaceOnUse">
<stop stop-color="#00ADEF"/>
<stop offset="1" stop-color="#00ADEF"/>
</linearGradient>
<linearGradient id="paint30_linear_240_609" x1="343.708" y1="174.863" x2="298.364" y2="128.752" gradientUnits="userSpaceOnUse">
<stop stop-color="#0094DA"/>
<stop offset="1" stop-color="#46ACDA"/>
</linearGradient>
<linearGradient id="paint31_linear_240_609" x1="343.473" y1="179.852" x2="331.89" y2="153.153" gradientUnits="userSpaceOnUse">
<stop stop-color="#00A6E8"/>
<stop offset="1" stop-color="#46B4E0"/>
</linearGradient>
<linearGradient id="paint32_linear_240_609" x1="230.178" y1="249.919" x2="216.73" y2="224.335" gradientUnits="userSpaceOnUse">
<stop stop-color="#00ADEF"/>
<stop offset="1" stop-color="#00ADEF"/>
</linearGradient>
<linearGradient id="paint33_linear_240_609" x1="373.944" y1="127.32" x2="279.291" y2="79.7222" gradientUnits="userSpaceOnUse">
<stop stop-color="#7BC5E8"/>
<stop offset="1" stop-color="#F8F8F8"/>
</linearGradient>
<linearGradient id="paint34_linear_240_609" x1="242.178" y1="249.012" x2="237.306" y2="219.585" gradientUnits="userSpaceOnUse">
<stop stop-color="#00ADEF"/>
<stop offset="1" stop-color="#2EBAF0"/>
</linearGradient>
<linearGradient id="paint35_linear_240_609" x1="231.237" y1="443.114" x2="58.5002" y2="349.012" gradientUnits="userSpaceOnUse">
<stop stop-color="#79D0F1"/>
<stop offset="1" stop-color="#D1EAF4"/>
</linearGradient>
<linearGradient id="paint36_linear_240_609" x1="195.237" y1="232.459" x2="176.101" y2="183.027" gradientUnits="userSpaceOnUse">
<stop stop-color="#00ADEF"/>
<stop offset="1" stop-color="#2EBAF0"/>
</linearGradient>
<linearGradient id="paint37_linear_240_609" x1="156.06" y1="391.717" x2="-19.6596" y2="255.652" gradientUnits="userSpaceOnUse">
<stop stop-color="#F3F3F3"/>
<stop offset="1" stop-color="#BAE3F2"/>
</linearGradient>
<linearGradient id="paint38_linear_240_609" x1="138.648" y1="291.642" x2="68.7583" y2="180.717" gradientUnits="userSpaceOnUse">
<stop stop-color="#7BD1F2"/>
<stop offset="1" stop-color="#BCE5F4"/>
</linearGradient>
<linearGradient id="paint39_linear_240_609" x1="220.649" y1="232.988" x2="211.531" y2="217.961" gradientUnits="userSpaceOnUse">
<stop stop-color="#00ADEF"/>
<stop offset="1" stop-color="#00ADEF"/>
</linearGradient>
<linearGradient id="paint40_linear_240_609" x1="220.649" y1="234.046" x2="195.719" y2="200.658" gradientUnits="userSpaceOnUse">
<stop stop-color="#00ADEF"/>
<stop offset="1" stop-color="#00ADEF"/>
</linearGradient>
<linearGradient id="paint41_linear_240_609" x1="209.237" y1="240.093" x2="202.638" y2="229.821" gradientUnits="userSpaceOnUse">
<stop stop-color="#00ADEF"/>
<stop offset="1" stop-color="#00ADEF"/>
</linearGradient>
<linearGradient id="paint42_linear_240_609" x1="216.414" y1="238.279" x2="214.812" y2="223.945" gradientUnits="userSpaceOnUse">
<stop stop-color="#00ADEF"/>
<stop offset="1" stop-color="#2EBAF0"/>
</linearGradient>
<linearGradient id="paint43_linear_240_609" x1="200.178" y1="236.011" x2="179.302" y2="188.307" gradientUnits="userSpaceOnUse">
<stop stop-color="#00ADEF"/>
<stop offset="1" stop-color="#2EBAF0"/>
</linearGradient>
</defs>
</svg>
