<svg width="72" height="41" viewBox="0 0 72 41" fill="none" xmlns="http://www.w3.org/2000/svg">
<g clip-path="url(#clip0_170_4)">
<path d="M72 6.97519V34.0248C72 34.941 71.8189 35.8482 71.467 36.6946C71.1151 37.541 70.5994 38.31 69.9492 38.9578C69.299 39.6055 68.5272 40.1192 67.6777 40.4697C66.8283 40.8201 65.9179 41.0003 64.9986 41H59.889L48.9993 30.1478V9.75633C48.9993 9.03157 48.856 8.31391 48.5776 7.64435C48.2992 6.97478 47.8912 6.36644 47.3769 5.85405C46.8625 5.34167 46.2519 4.93529 45.5799 4.65813C44.9079 4.38097 44.1877 4.23846 43.4605 4.23874H22.9986L18.7473 0H64.9986C66.8551 -8.60379e-08 68.6356 0.734816 69.9486 2.04286C71.2615 3.3509 71.9994 5.12506 72 6.97519Z" fill="#CD072D"/>
<path d="M54.3117 41H6.99929C5.14296 41 3.36266 40.2651 2.05004 38.957C0.737423 37.6489 0 35.8747 0 34.0248L0 6.97519C0 5.12526 0.737423 3.35109 2.05004 2.04299C3.36266 0.734884 5.14296 0 6.99929 0L13.168 0L22.99 9.78825V29.6031C22.9934 31.066 23.5781 32.468 24.616 33.5024C25.654 34.5368 27.0609 35.1194 28.5288 35.1228H48.4142L54.3117 41Z" fill="#CD072D"/>
<path d="M41.8356 8.22424H27V27.9901C26.9997 28.4043 27.0814 28.8145 27.2403 29.1973C27.3992 29.58 27.6323 29.9277 27.9262 30.2206C28.2201 30.5135 28.5691 30.7458 28.9531 30.9042C29.3372 31.0625 29.7488 31.1439 30.1644 31.1436H45V11.3778C44.9994 10.5416 44.6659 9.73979 44.0725 9.14851C43.4792 8.55723 42.6747 8.22481 41.8356 8.22424ZM33.758 29.1732V21.6171H30.0662L37.4498 11.0394V18.5955H41.1416L33.758 29.1732Z" fill="#CD072D"/>
</g>
<defs>
<clipPath id="clip0_170_4">
<rect width="72" height="41" fill="white"/>
</clipPath>
</defs>
</svg>
