<svg width="320" height="250" viewBox="0 0 320 250" fill="none" xmlns="http://www.w3.org/2000/svg">
<g opacity="0.14">
<path d="M255.943 185.806L192.295 133.652L297.473 160.863L255.943 185.806Z" fill="url(#paint0_linear_340_1780)"/>
<path d="M311.354 95.1043L297.472 160.863L342.648 116.419L311.354 95.1043Z" fill="url(#paint1_linear_340_1780)"/>
<path d="M3.23487 278.851L-65.0009 310.219L5.11718 208.33L3.23487 278.851Z" fill="url(#paint2_linear_340_1780)"/>
<path d="M297.472 160.863L255.943 185.806L333.473 168.572L297.472 160.863Z" fill="url(#paint3_linear_340_1780)"/>
<path d="M333.473 168.572L255.943 185.805L245.825 214.83L333.473 168.572Z" fill="url(#paint4_linear_340_1780)"/>
<path d="M305.826 298.352L229.237 235.54L245.826 214.83L305.826 298.352Z" fill="url(#paint5_linear_340_1780)"/>
<path d="M229.236 235.541L209.824 219.517L245.824 214.831L229.236 235.541Z" fill="url(#paint6_linear_340_1780)"/>
<path d="M255.943 185.806L192.296 133.653L185.825 192.911L255.943 185.806Z" fill="url(#paint7_linear_340_1780)"/>
<path d="M333.473 168.573L245.826 214.831L414.65 281.799L333.473 168.573Z" fill="url(#paint8_linear_340_1780)"/>
<path d="M305.826 298.352L245.826 214.83L414.65 281.798L305.826 298.352Z" fill="url(#paint9_linear_340_1780)"/>
<path d="M29.9414 182.782L5.1177 208.33L7.82364 208.33L29.9414 182.782Z" fill="url(#paint10_linear_340_1780)"/>
<path d="M5.11632 208.331L3.23401 278.852L7.82226 208.331L5.11632 208.331Z" fill="url(#paint11_linear_340_1780)"/>
<path d="M192.295 133.652L180.295 112.337L57.7058 147.862L192.295 133.652Z" fill="url(#paint12_linear_340_1780)"/>
<path d="M180.295 112.337L71.4707 107.575L57.7059 147.862L180.295 112.337Z" fill="url(#paint13_linear_340_1780)"/>
<path d="M71.4707 107.575L57.7059 147.862L6.88206 158.52L71.4707 107.575Z" fill="url(#paint14_linear_340_1780)"/>
<path d="M57.7051 147.862L29.9402 182.782L6.88122 158.519L57.7051 147.862Z" fill="url(#paint15_linear_340_1780)"/>
<path d="M29.9414 182.782L5.1177 208.33L6.88244 158.52L29.9414 182.782Z" fill="url(#paint16_linear_340_1780)"/>
<path d="M5.11807 208.33L-65 310.219L6.8828 158.52L5.11807 208.33Z" fill="url(#paint17_linear_340_1780)"/>
<path d="M305.826 298.353L229.237 235.541L119.472 422.236L305.826 298.353Z" fill="url(#paint18_linear_340_1780)"/>
<path d="M192.295 133.652L185.824 192.911L113.941 203.568L192.295 133.652Z" fill="url(#paint19_linear_340_1780)"/>
<path d="M192.295 133.652L57.7058 147.862L113.941 203.568L192.295 133.652Z" fill="url(#paint20_linear_340_1780)"/>
<path d="M57.7058 147.862L29.9409 182.782L113.941 203.568L57.7058 147.862Z" fill="url(#paint21_linear_340_1780)"/>
<path d="M29.9409 182.782L7.82311 208.33L113.941 203.568L29.9409 182.782Z" fill="url(#paint22_linear_340_1780)"/>
<path d="M7.82309 208.331L3.23484 278.852L113.941 203.569L7.82309 208.331Z" fill="url(#paint23_linear_340_1780)"/>
<path d="M311.355 95.1043L297.473 160.863L251.355 100.471L311.355 95.1043Z" fill="url(#paint24_linear_340_1780)"/>
<path d="M297.473 160.863L192.295 133.653L251.355 100.471L297.473 160.863Z" fill="url(#paint25_linear_340_1780)"/>
<path d="M192.294 133.652L180.294 112.337L251.354 100.471L192.294 133.652Z" fill="url(#paint26_linear_340_1780)"/>
<path d="M255.941 185.805L245.824 214.83L219.941 209.464L255.941 185.805Z" fill="url(#paint27_linear_340_1780)"/>
<path d="M255.943 185.806L185.825 192.911L219.943 209.464L255.943 185.806Z" fill="url(#paint28_linear_340_1780)"/>
<path d="M245.824 214.83L209.824 219.517L219.942 209.464L245.824 214.83Z" fill="url(#paint29_linear_340_1780)"/>
<path d="M342.648 116.419L297.472 160.863L338.06 153.154L342.648 116.419Z" fill="url(#paint30_linear_340_1780)"/>
<path d="M333.472 168.572L297.472 160.863L338.061 153.153L333.472 168.572Z" fill="url(#paint31_linear_340_1780)"/>
<path d="M229.236 235.541L209.824 219.517L198.765 225.488L229.236 235.541Z" fill="url(#paint32_linear_340_1780)"/>
<path d="M342.649 116.419L311.355 95.104L369.473 0.925056L342.649 116.419Z" fill="url(#paint33_linear_340_1780)"/>
<path d="M229.236 235.541L198.765 225.488L139.706 220.726L229.236 235.541Z" fill="url(#paint34_linear_340_1780)"/>
<path d="M229.236 235.541L119.471 422.236L139.706 220.727L229.236 235.541Z" fill="url(#paint35_linear_340_1780)"/>
<path d="M185.824 192.911L113.941 203.569L139.706 220.727L185.824 192.911Z" fill="url(#paint36_linear_340_1780)"/>
<path d="M119.472 422.236L3.23554 278.852L139.707 220.727L119.472 422.236Z" fill="url(#paint37_linear_340_1780)"/>
<path d="M113.942 203.569L3.23555 278.852L139.707 220.727L113.942 203.569Z" fill="url(#paint38_linear_340_1780)"/>
<path d="M219.941 209.464L209.824 219.517L203.353 218.383L219.941 209.464Z" fill="url(#paint39_linear_340_1780)"/>
<path d="M219.941 209.465L185.824 192.912L203.353 218.384L219.941 209.465Z" fill="url(#paint40_linear_340_1780)"/>
<path d="M209.824 219.517L198.765 225.488L203.354 218.383L209.824 219.517Z" fill="url(#paint41_linear_340_1780)"/>
<path d="M198.765 225.488L139.706 220.726L203.354 218.383L198.765 225.488Z" fill="url(#paint42_linear_340_1780)"/>
<path d="M185.824 192.911L139.706 220.727L203.354 218.383L185.824 192.911Z" fill="url(#paint43_linear_340_1780)"/>
</g>
<defs>
<linearGradient id="paint0_linear_340_1780" x1="299.12" y1="181.573" x2="253.059" y2="100.306" gradientUnits="userSpaceOnUse">
<stop stop-color="#76B6D6"/>
<stop offset="1" stop-color="#DADBDC"/>
</linearGradient>
<linearGradient id="paint1_linear_340_1780" x1="337.943" y1="163.962" x2="275.287" y2="120.912" gradientUnits="userSpaceOnUse">
<stop stop-color="#8ACAE9"/>
<stop offset="1" stop-color="#50ACD8"/>
</linearGradient>
<linearGradient id="paint2_linear_340_1780" x1="4.17601" y1="308.178" x2="-92.9449" y2="241.383" gradientUnits="userSpaceOnUse">
<stop stop-color="#A1D4E7"/>
<stop offset="1" stop-color="#82B1CE"/>
</linearGradient>
<linearGradient id="paint3_linear_340_1780" x1="329.59" y1="187.922" x2="314.8" y2="141.88" gradientUnits="userSpaceOnUse">
<stop stop-color="#69B3D6"/>
<stop offset="1" stop-color="#099ADC"/>
</linearGradient>
<linearGradient id="paint4_linear_340_1780" x1="331.59" y1="216.493" x2="292.663" y2="142.697" gradientUnits="userSpaceOnUse">
<stop stop-color="#009ADF"/>
<stop offset="1" stop-color="#099EE0"/>
</linearGradient>
<linearGradient id="paint5_linear_340_1780" x1="302.179" y1="294.799" x2="218.217" y2="227.486" gradientUnits="userSpaceOnUse">
<stop stop-color="#7FB8DD"/>
<stop offset="1" stop-color="#0099DD"/>
</linearGradient>
<linearGradient id="paint6_linear_340_1780" x1="249.824" y1="231.913" x2="231.508" y2="200.146" gradientUnits="userSpaceOnUse">
<stop stop-color="#00ADEF"/>
<stop offset="1" stop-color="#00ADEF"/>
</linearGradient>
<linearGradient id="paint7_linear_340_1780" x1="244.649" y1="205.987" x2="185.025" y2="135.455" gradientUnits="userSpaceOnUse">
<stop stop-color="#0DA4E4"/>
<stop offset="1" stop-color="#4FC2EE"/>
</linearGradient>
<linearGradient id="paint8_linear_340_1780" x1="419.474" y1="283.991" x2="312.627" y2="124.65" gradientUnits="userSpaceOnUse">
<stop stop-color="#0076BA"/>
<stop offset="1" stop-color="#55A8D4"/>
</linearGradient>
<linearGradient id="paint9_linear_340_1780" x1="397.944" y1="305.457" x2="330.147" y2="168.497" gradientUnits="userSpaceOnUse">
<stop stop-color="#7FC9EC"/>
<stop offset="1" stop-color="#55C0ED"/>
</linearGradient>
<linearGradient id="paint10_linear_340_1780" x1="28.8826" y1="208.557" x2="6.06805" y2="183.074" gradientUnits="userSpaceOnUse">
<stop stop-color="#FCFCFC"/>
<stop offset="1" stop-color="#F9F9F9"/>
</linearGradient>
<linearGradient id="paint11_linear_340_1780" x1="7.58697" y1="281.346" x2="-1.85612" y2="280.64" gradientUnits="userSpaceOnUse">
<stop stop-color="#CDECF7"/>
<stop offset="1" stop-color="#C5EAF6"/>
</linearGradient>
<linearGradient id="paint12_linear_340_1780" x1="185.354" y1="148.92" x2="167.444" y2="81.0876" gradientUnits="userSpaceOnUse">
<stop stop-color="#DFE0E1"/>
<stop offset="1" stop-color="#EAEBEC"/>
</linearGradient>
<linearGradient id="paint13_linear_340_1780" x1="174.765" y1="149.45" x2="150.383" y2="75.2222" gradientUnits="userSpaceOnUse">
<stop stop-color="#DEDFE0"/>
<stop offset="1" stop-color="#EDEEEE"/>
</linearGradient>
<linearGradient id="paint14_linear_340_1780" x1="70.5295" y1="161.543" x2="19.9492" y2="97.4619" gradientUnits="userSpaceOnUse">
<stop stop-color="#FDFDFD"/>
<stop offset="1" stop-color="white"/>
</linearGradient>
<linearGradient id="paint15_linear_340_1780" x1="61.4698" y1="180.968" x2="28.1302" y2="132.593" gradientUnits="userSpaceOnUse">
<stop stop-color="white"/>
<stop offset="1" stop-color="white"/>
</linearGradient>
<linearGradient id="paint16_linear_340_1780" x1="25.7061" y1="211.278" x2="-9.86201" y2="193.483" gradientUnits="userSpaceOnUse">
<stop stop-color="white"/>
<stop offset="1" stop-color="#FCFCFC"/>
</linearGradient>
<linearGradient id="paint17_linear_340_1780" x1="5.1181" y1="308.329" x2="-114.748" y2="251.483" gradientUnits="userSpaceOnUse">
<stop stop-color="#C1E1EE"/>
<stop offset="1" stop-color="#83B5D3"/>
</linearGradient>
<linearGradient id="paint18_linear_340_1780" x1="283.591" y1="448.993" x2="93.1169" y2="258.875" gradientUnits="userSpaceOnUse">
<stop stop-color="#FAFAFA"/>
<stop offset="1" stop-color="#A4DDF3"/>
</linearGradient>
<linearGradient id="paint19_linear_340_1780" x1="193.589" y1="204.173" x2="122.701" y2="124.693" gradientUnits="userSpaceOnUse">
<stop stop-color="#76CDEE"/>
<stop offset="1" stop-color="#00ADEF"/>
</linearGradient>
<linearGradient id="paint20_linear_340_1780" x1="202.53" y1="195.254" x2="144.167" y2="82.8552" gradientUnits="userSpaceOnUse">
<stop stop-color="#F6F6F6"/>
<stop offset="1" stop-color="#AAE3F9"/>
</linearGradient>
<linearGradient id="paint21_linear_340_1780" x1="104.647" y1="208.481" x2="52.2716" y2="129.561" gradientUnits="userSpaceOnUse">
<stop stop-color="#FCFCFC"/>
<stop offset="1" stop-color="#A8E1F7"/>
</linearGradient>
<linearGradient id="paint22_linear_340_1780" x1="88.6471" y1="211.807" x2="75.2522" y2="163.018" gradientUnits="userSpaceOnUse">
<stop stop-color="#FCFCFC"/>
<stop offset="1" stop-color="#A6E0F6"/>
</linearGradient>
<linearGradient id="paint23_linear_340_1780" x1="107.941" y1="277.642" x2="48.3612" y2="177.5" gradientUnits="userSpaceOnUse">
<stop stop-color="#FCFCFC"/>
<stop offset="1" stop-color="#91DAF5"/>
</linearGradient>
<linearGradient id="paint24_linear_340_1780" x1="321.238" y1="147.182" x2="254.406" y2="86.2675" gradientUnits="userSpaceOnUse">
<stop stop-color="#F6F6F6"/>
<stop offset="1" stop-color="#ECEDED"/>
</linearGradient>
<linearGradient id="paint25_linear_340_1780" x1="299.12" y1="163.811" x2="245.822" y2="71.0939" gradientUnits="userSpaceOnUse">
<stop stop-color="#E3E3E5"/>
<stop offset="1" stop-color="#F6F5F6"/>
</linearGradient>
<linearGradient id="paint26_linear_340_1780" x1="251.236" y1="131.082" x2="230.293" y2="79.8572" gradientUnits="userSpaceOnUse">
<stop stop-color="#F1F1F1"/>
<stop offset="1" stop-color="#F6F7F6"/>
</linearGradient>
<linearGradient id="paint27_linear_340_1780" x1="255.353" y1="214.301" x2="230.701" y2="179.398" gradientUnits="userSpaceOnUse">
<stop stop-color="#0DA3E2"/>
<stop offset="1" stop-color="#00ACED"/>
</linearGradient>
<linearGradient id="paint28_linear_340_1780" x1="262.532" y1="208.028" x2="247.853" y2="164.617" gradientUnits="userSpaceOnUse">
<stop stop-color="#0DA3E3"/>
<stop offset="1" stop-color="#00ACEE"/>
</linearGradient>
<linearGradient id="paint29_linear_340_1780" x1="240.648" y1="220.272" x2="234.626" y2="201.457" gradientUnits="userSpaceOnUse">
<stop stop-color="#00ADEF"/>
<stop offset="1" stop-color="#00ADEF"/>
</linearGradient>
<linearGradient id="paint30_linear_340_1780" x1="343.707" y1="160.863" x2="298.363" y2="114.752" gradientUnits="userSpaceOnUse">
<stop stop-color="#0094DA"/>
<stop offset="1" stop-color="#46ACDA"/>
</linearGradient>
<linearGradient id="paint31_linear_340_1780" x1="343.472" y1="165.851" x2="331.889" y2="139.153" gradientUnits="userSpaceOnUse">
<stop stop-color="#00A6E8"/>
<stop offset="1" stop-color="#46B4E0"/>
</linearGradient>
<linearGradient id="paint32_linear_340_1780" x1="230.178" y1="235.919" x2="216.729" y2="210.335" gradientUnits="userSpaceOnUse">
<stop stop-color="#00ADEF"/>
<stop offset="1" stop-color="#00ADEF"/>
</linearGradient>
<linearGradient id="paint33_linear_340_1780" x1="373.943" y1="113.32" x2="279.29" y2="65.7217" gradientUnits="userSpaceOnUse">
<stop stop-color="#7BC5E8"/>
<stop offset="1" stop-color="#F8F8F8"/>
</linearGradient>
<linearGradient id="paint34_linear_340_1780" x1="242.178" y1="235.012" x2="237.305" y2="205.585" gradientUnits="userSpaceOnUse">
<stop stop-color="#00ADEF"/>
<stop offset="1" stop-color="#2EBAF0"/>
</linearGradient>
<linearGradient id="paint35_linear_340_1780" x1="231.236" y1="429.115" x2="58.4995" y2="335.012" gradientUnits="userSpaceOnUse">
<stop stop-color="#79D0F1"/>
<stop offset="1" stop-color="#D1EAF4"/>
</linearGradient>
<linearGradient id="paint36_linear_340_1780" x1="195.236" y1="218.459" x2="176.1" y2="169.027" gradientUnits="userSpaceOnUse">
<stop stop-color="#00ADEF"/>
<stop offset="1" stop-color="#2EBAF0"/>
</linearGradient>
<linearGradient id="paint37_linear_340_1780" x1="156.06" y1="377.717" x2="-19.6596" y2="241.653" gradientUnits="userSpaceOnUse">
<stop stop-color="#F3F3F3"/>
<stop offset="1" stop-color="#BAE3F2"/>
</linearGradient>
<linearGradient id="paint38_linear_340_1780" x1="138.648" y1="277.642" x2="68.7583" y2="166.717" gradientUnits="userSpaceOnUse">
<stop stop-color="#7BD1F2"/>
<stop offset="1" stop-color="#BCE5F4"/>
</linearGradient>
<linearGradient id="paint39_linear_340_1780" x1="220.647" y1="218.988" x2="211.529" y2="203.961" gradientUnits="userSpaceOnUse">
<stop stop-color="#00ADEF"/>
<stop offset="1" stop-color="#00ADEF"/>
</linearGradient>
<linearGradient id="paint40_linear_340_1780" x1="220.647" y1="220.047" x2="195.718" y2="186.658" gradientUnits="userSpaceOnUse">
<stop stop-color="#00ADEF"/>
<stop offset="1" stop-color="#00ADEF"/>
</linearGradient>
<linearGradient id="paint41_linear_340_1780" x1="209.236" y1="226.093" x2="202.636" y2="215.821" gradientUnits="userSpaceOnUse">
<stop stop-color="#00ADEF"/>
<stop offset="1" stop-color="#00ADEF"/>
</linearGradient>
<linearGradient id="paint42_linear_340_1780" x1="216.412" y1="224.279" x2="214.811" y2="209.946" gradientUnits="userSpaceOnUse">
<stop stop-color="#00ADEF"/>
<stop offset="1" stop-color="#2EBAF0"/>
</linearGradient>
<linearGradient id="paint43_linear_340_1780" x1="200.177" y1="222.012" x2="179.301" y2="174.308" gradientUnits="userSpaceOnUse">
<stop stop-color="#00ADEF"/>
<stop offset="1" stop-color="#2EBAF0"/>
</linearGradient>
</defs>
</svg>
