<svg width="320" height="250" viewBox="0 0 320 250" fill="none" xmlns="http://www.w3.org/2000/svg">
<g opacity="0.14">
<path d="M-8.64593 95.1043L-22.5283 160.863L22.6484 116.419L-8.64593 95.1043Z" fill="url(#paint0_linear_340_1581)"/>
<path d="M177.592 85.6565L30.0614 125.943L22.6496 116.42L177.592 85.6565Z" fill="url(#paint1_linear_340_1581)"/>
<path d="M338.062 206.517L307.709 245.67L391.592 233.803L338.062 206.517Z" fill="url(#paint2_linear_340_1581)"/>
<path d="M334.415 301.3L307.709 245.669L391.592 233.802L334.415 301.3Z" fill="url(#paint3_linear_340_1581)"/>
<path d="M-22.5276 160.863L-64.0573 185.806L13.4727 168.572L-22.5276 160.863Z" fill="url(#paint4_linear_340_1581)"/>
<path d="M177.592 85.6564L30.0614 125.943L72.4147 149.072L177.592 85.6564Z" fill="url(#paint5_linear_340_1581)"/>
<path d="M307.709 245.669L280.885 279.38L243.12 266.984L307.709 245.669Z" fill="url(#paint6_linear_340_1581)"/>
<path d="M13.4727 168.572L-64.0573 185.805L-74.175 214.83L13.4727 168.572Z" fill="url(#paint7_linear_340_1581)"/>
<path d="M338.062 206.517L307.709 245.67L150.885 233.803L338.062 206.517Z" fill="url(#paint8_linear_340_1581)"/>
<path d="M338.062 206.517L177.591 85.6561L150.885 233.803L338.062 206.517Z" fill="url(#paint9_linear_340_1581)"/>
<path d="M307.709 245.669L243.12 266.984L150.884 233.803L307.709 245.669Z" fill="url(#paint10_linear_340_1581)"/>
<path d="M177.592 85.6561L72.4147 149.072L150.886 233.803L177.592 85.6561Z" fill="url(#paint11_linear_340_1581)"/>
<path d="M72.4137 149.072L13.4721 168.573L150.885 233.803L72.4137 149.072Z" fill="url(#paint12_linear_340_1581)"/>
<path d="M243.121 266.984L150.885 233.803L173.944 265.17L243.121 266.984Z" fill="url(#paint13_linear_340_1581)"/>
<path d="M13.4734 168.573L-74.1743 214.831L94.6504 281.799L13.4734 168.573Z" fill="url(#paint14_linear_340_1581)"/>
<path d="M-14.1739 298.352L-74.1743 214.83L94.6504 281.798L-14.1739 298.352Z" fill="url(#paint15_linear_340_1581)"/>
<path d="M173.943 265.17L150.884 233.802L94.6487 281.799L173.943 265.17Z" fill="url(#paint16_linear_340_1581)"/>
<path d="M150.885 233.802L13.4721 168.573L94.6491 281.799L150.885 233.802Z" fill="url(#paint17_linear_340_1581)"/>
<path d="M338.062 206.517L177.591 85.6562L350.062 46.5032L338.062 206.517Z" fill="url(#paint18_linear_340_1581)"/>
<path d="M334.416 301.3L307.71 245.669L301.239 285.351L334.416 301.3Z" fill="url(#paint19_linear_340_1581)"/>
<path d="M307.709 245.669L280.885 279.38L301.238 285.352L307.709 245.669Z" fill="url(#paint20_linear_340_1581)"/>
<path d="M30.0605 125.943L22.6488 116.419L18.0605 153.153L30.0605 125.943Z" fill="url(#paint21_linear_340_1581)"/>
<path d="M22.6484 116.419L-22.5283 160.863L18.0602 153.154L22.6484 116.419Z" fill="url(#paint22_linear_340_1581)"/>
<path d="M13.4723 168.572L-22.5279 160.863L18.0605 153.153L13.4723 168.572Z" fill="url(#paint23_linear_340_1581)"/>
<path d="M72.4141 149.072L30.0608 125.943L18.0607 153.153L72.4141 149.072Z" fill="url(#paint24_linear_340_1581)"/>
<path d="M72.4141 149.071L13.4725 168.572L18.0607 153.153L72.4141 149.071Z" fill="url(#paint25_linear_340_1581)"/>
<path d="M22.649 116.419L-8.6454 95.104L49.4726 0.925056L22.649 116.419Z" fill="url(#paint26_linear_340_1581)"/>
<path d="M177.592 85.6558L22.6496 116.419L49.4733 0.925068L177.592 85.6558Z" fill="url(#paint27_linear_340_1581)"/>
</g>
<defs>
<linearGradient id="paint0_linear_340_1581" x1="17.9425" y1="163.962" x2="-44.713" y2="120.912" gradientUnits="userSpaceOnUse">
<stop stop-color="#8ACAE9"/>
<stop offset="1" stop-color="#50ACD8"/>
</linearGradient>
<linearGradient id="paint1_linear_340_1581" x1="174.415" y1="126.775" x2="154.385" y2="49.7472" gradientUnits="userSpaceOnUse">
<stop stop-color="#76AFD4"/>
<stop offset="1" stop-color="#0088CF"/>
</linearGradient>
<linearGradient id="paint2_linear_340_1581" x1="374.415" y1="251.792" x2="349.781" y2="191.372" gradientUnits="userSpaceOnUse">
<stop stop-color="#0095DA"/>
<stop offset="1" stop-color="#0089CF"/>
</linearGradient>
<linearGradient id="paint3_linear_340_1581" x1="395.827" y1="298.806" x2="328.487" y2="215.137" gradientUnits="userSpaceOnUse">
<stop stop-color="#00A0E4"/>
<stop offset="1" stop-color="#0099DD"/>
</linearGradient>
<linearGradient id="paint4_linear_340_1581" x1="9.59028" y1="187.922" x2="-5.19997" y2="141.88" gradientUnits="userSpaceOnUse">
<stop stop-color="#69B3D6"/>
<stop offset="1" stop-color="#099ADC"/>
</linearGradient>
<linearGradient id="paint5_linear_340_1581" x1="186.768" y1="141.967" x2="139.835" y2="32.7308" gradientUnits="userSpaceOnUse">
<stop stop-color="#76AFD3"/>
<stop offset="1" stop-color="#0090D6"/>
</linearGradient>
<linearGradient id="paint6_linear_340_1581" x1="314.062" y1="278.171" x2="285.748" y2="224.049" gradientUnits="userSpaceOnUse">
<stop stop-color="#04ADEE"/>
<stop offset="1" stop-color="#96CEE4"/>
</linearGradient>
<linearGradient id="paint7_linear_340_1581" x1="11.5903" y1="216.493" x2="-27.337" y2="142.697" gradientUnits="userSpaceOnUse">
<stop stop-color="#009ADF"/>
<stop offset="1" stop-color="#099EE0"/>
</linearGradient>
<linearGradient id="paint8_linear_340_1581" x1="351.004" y1="241.815" x2="335.028" y2="165.334" gradientUnits="userSpaceOnUse">
<stop stop-color="#0096D4"/>
<stop offset="1" stop-color="#009DDD"/>
</linearGradient>
<linearGradient id="paint9_linear_340_1581" x1="303.239" y1="261.316" x2="156.121" y2="75.3775" gradientUnits="userSpaceOnUse">
<stop stop-color="#68BFE1"/>
<stop offset="1" stop-color="#94CEE5"/>
</linearGradient>
<linearGradient id="paint10_linear_340_1581" x1="324.18" y1="265.624" x2="310.461" y2="200.803" gradientUnits="userSpaceOnUse">
<stop stop-color="#009FE3"/>
<stop offset="1" stop-color="#4EB9E6"/>
</linearGradient>
<linearGradient id="paint11_linear_340_1581" x1="198.415" y1="204.627" x2="61.7024" y2="119.722" gradientUnits="userSpaceOnUse">
<stop stop-color="#76CDED"/>
<stop offset="1" stop-color="#00ADEE"/>
</linearGradient>
<linearGradient id="paint12_linear_340_1581" x1="160.65" y1="228.814" x2="83.3897" y2="103.514" gradientUnits="userSpaceOnUse">
<stop stop-color="#00ADEF"/>
<stop offset="1" stop-color="#00A9EB"/>
</linearGradient>
<linearGradient id="paint13_linear_340_1581" x1="221.474" y1="274.089" x2="204.349" y2="219.693" gradientUnits="userSpaceOnUse">
<stop stop-color="#75C0E2"/>
<stop offset="1" stop-color="#009CE1"/>
</linearGradient>
<linearGradient id="paint14_linear_340_1581" x1="99.474" y1="283.991" x2="-7.37292" y2="124.65" gradientUnits="userSpaceOnUse">
<stop stop-color="#0076BA"/>
<stop offset="1" stop-color="#55A8D4"/>
</linearGradient>
<linearGradient id="paint15_linear_340_1581" x1="77.9444" y1="305.457" x2="10.1474" y2="168.497" gradientUnits="userSpaceOnUse">
<stop stop-color="#7FC9EC"/>
<stop offset="1" stop-color="#55C0ED"/>
</linearGradient>
<linearGradient id="paint16_linear_340_1581" x1="170.061" y1="284.142" x2="126.672" y2="212.439" gradientUnits="userSpaceOnUse">
<stop stop-color="#00A0E4"/>
<stop offset="1" stop-color="#55C8F4"/>
</linearGradient>
<linearGradient id="paint17_linear_340_1581" x1="143.12" y1="283.991" x2="46.3987" y2="149.771" gradientUnits="userSpaceOnUse">
<stop stop-color="#0081C2"/>
<stop offset="1" stop-color="#55A7D3"/>
</linearGradient>
<linearGradient id="paint18_linear_340_1581" x1="378.886" y1="167.439" x2="214.445" y2="12.3278" gradientUnits="userSpaceOnUse">
<stop stop-color="#76CDEE"/>
<stop offset="1" stop-color="#F3F3F3"/>
</linearGradient>
<linearGradient id="paint19_linear_340_1581" x1="331.475" y1="311.731" x2="281.476" y2="281.926" gradientUnits="userSpaceOnUse">
<stop stop-color="#01A0E4"/>
<stop offset="1" stop-color="#46B9E6"/>
</linearGradient>
<linearGradient id="paint20_linear_340_1581" x1="308.768" y1="284.369" x2="271.221" y2="259.073" gradientUnits="userSpaceOnUse">
<stop stop-color="#00ADEF"/>
<stop offset="1" stop-color="#8BC5DD"/>
</linearGradient>
<linearGradient id="paint21_linear_340_1581" x1="28.7664" y1="154.514" x2="6.65128" y2="147.296" gradientUnits="userSpaceOnUse">
<stop stop-color="#0094DA"/>
<stop offset="1" stop-color="#0097DC"/>
</linearGradient>
<linearGradient id="paint22_linear_340_1581" x1="23.7073" y1="160.863" x2="-21.6373" y2="114.752" gradientUnits="userSpaceOnUse">
<stop stop-color="#0094DA"/>
<stop offset="1" stop-color="#46ACDA"/>
</linearGradient>
<linearGradient id="paint23_linear_340_1581" x1="23.4723" y1="165.851" x2="11.8886" y2="139.153" gradientUnits="userSpaceOnUse">
<stop stop-color="#00A6E8"/>
<stop offset="1" stop-color="#46B4E0"/>
</linearGradient>
<linearGradient id="paint24_linear_340_1581" x1="65.0022" y1="157.159" x2="40.8021" y2="114.886" gradientUnits="userSpaceOnUse">
<stop stop-color="#00A1E4"/>
<stop offset="1" stop-color="#0097DC"/>
</linearGradient>
<linearGradient id="paint25_linear_340_1581" x1="71.8258" y1="167.438" x2="58.4927" y2="132.221" gradientUnits="userSpaceOnUse">
<stop stop-color="#00ADEF"/>
<stop offset="1" stop-color="#00A4E6"/>
</linearGradient>
<linearGradient id="paint26_linear_340_1581" x1="53.9433" y1="113.32" x2="-40.7102" y2="65.7217" gradientUnits="userSpaceOnUse">
<stop stop-color="#7BC5E8"/>
<stop offset="1" stop-color="#F8F8F8"/>
</linearGradient>
<linearGradient id="paint27_linear_340_1581" x1="154.65" y1="142.798" x2="41.6372" y2="-8.7506" gradientUnits="userSpaceOnUse">
<stop stop-color="#F3F3F2"/>
<stop offset="1" stop-color="#A7D8EF"/>
</linearGradient>
</defs>
</svg>
