<svg width="320" height="250" viewBox="0 0 320 250" fill="none" xmlns="http://www.w3.org/2000/svg">
<g opacity="0.14">
<path d="M70.6506 213.622L18.062 206.517L71.5918 233.803L70.6506 213.622Z" fill="url(#paint0_linear_340_586)"/>
<path d="M18.0621 206.517L-12.2911 245.67L71.5918 233.803L18.0621 206.517Z" fill="url(#paint1_linear_340_586)"/>
<path d="M14.415 301.3L-12.2911 245.669L71.5918 233.802L14.415 301.3Z" fill="url(#paint2_linear_340_586)"/>
<path d="M239.476 287.694L209.946 268.118L323.477 244.46L239.476 287.694Z" fill="url(#paint3_linear_340_586)"/>
<path d="M220.064 55.4219L214.535 87.999L180.417 83.8419L220.064 55.4219Z" fill="url(#paint4_linear_340_586)"/>
<path d="M70.6511 213.621L18.0626 206.516L98.416 166.834L70.6511 213.621Z" fill="url(#paint5_linear_340_586)"/>
<path d="M18.0625 206.517L-12.2907 245.67L-169.115 233.803L18.0625 206.517Z" fill="url(#paint6_linear_340_586)"/>
<path d="M18.0625 206.517L-142.409 85.6561L-169.115 233.803L18.0625 206.517Z" fill="url(#paint7_linear_340_586)"/>
<path d="M98.416 166.834L18.0626 206.517L30.0626 46.5032L98.416 166.834Z" fill="url(#paint8_linear_340_586)"/>
<path d="M18.0624 206.517L-142.409 85.6562L30.0625 46.5032L18.0624 206.517Z" fill="url(#paint9_linear_340_586)"/>
<path d="M360.301 127.681L261.594 121.18L322.536 168.572L360.301 127.681Z" fill="url(#paint10_linear_340_586)"/>
<path d="M323.477 244.46L258.888 157.915L322.535 168.573L323.477 244.46Z" fill="url(#paint11_linear_340_586)"/>
<path d="M261.594 121.18L258.888 157.915L322.535 168.572L261.594 121.18Z" fill="url(#paint12_linear_340_586)"/>
<path d="M323.477 244.46L258.888 157.915L159.24 213.017L323.477 244.46Z" fill="url(#paint13_linear_340_586)"/>
<path d="M323.477 244.46L209.946 268.118L159.24 213.017L323.477 244.46Z" fill="url(#paint14_linear_340_586)"/>
<path d="M209.947 268.118L166.653 263.432L159.241 213.017L209.947 268.118Z" fill="url(#paint15_linear_340_586)"/>
<path d="M166.652 263.432L71.5929 233.802L159.241 213.016L166.652 263.432Z" fill="url(#paint16_linear_340_586)"/>
<path d="M98.4163 166.834L70.6514 213.621L159.24 213.016L98.4163 166.834Z" fill="url(#paint17_linear_340_586)"/>
<path d="M71.5926 233.803L70.6514 213.622L159.24 213.017L71.5926 233.803Z" fill="url(#paint18_linear_340_586)"/>
<path d="M323.477 244.46L239.477 287.695L324.301 372.426L323.477 244.46Z" fill="url(#paint19_linear_340_586)"/>
<path d="M14.416 301.3L-12.2901 245.669L-18.7607 285.351L14.416 301.3Z" fill="url(#paint20_linear_340_586)"/>
<path d="M360.301 127.681L261.594 121.18L263.477 93.3651L360.301 127.681Z" fill="url(#paint21_linear_340_586)"/>
<path d="M261.594 121.181L214.535 87.9989L263.477 93.3654L261.594 121.181Z" fill="url(#paint22_linear_340_586)"/>
<path d="M220.065 55.4225L214.535 87.9997L263.477 93.3662L220.065 55.4225Z" fill="url(#paint23_linear_340_586)"/>
<path d="M261.594 121.181L258.888 157.915L157.358 142.496L261.594 121.181Z" fill="url(#paint24_linear_340_586)"/>
<path d="M261.594 121.181L214.535 87.9993L157.358 142.496L261.594 121.181Z" fill="url(#paint25_linear_340_586)"/>
<path d="M258.889 157.915L159.241 213.017L157.359 142.496L258.889 157.915Z" fill="url(#paint26_linear_340_586)"/>
<path d="M214.535 87.9993L180.417 83.8422L157.358 142.496L214.535 87.9993Z" fill="url(#paint27_linear_340_586)"/>
<path d="M159.24 213.017L98.4163 166.834L157.358 142.496L159.24 213.017Z" fill="url(#paint28_linear_340_586)"/>
<path d="M360.301 127.681L263.477 93.3651L391.713 61.317L360.301 127.681Z" fill="url(#paint29_linear_340_586)"/>
<path d="M263.477 93.3652L220.065 55.4216L391.713 61.3172L263.477 93.3652Z" fill="url(#paint30_linear_340_586)"/>
<path d="M166.652 263.432L71.5929 233.803L112.181 284.747L166.652 263.432Z" fill="url(#paint31_linear_340_586)"/>
<path d="M71.5931 233.802L14.4163 301.3L112.182 284.747L71.5931 233.802Z" fill="url(#paint32_linear_340_586)"/>
<path d="M180.416 83.8422L157.357 142.496L127.827 137.205L180.416 83.8422Z" fill="url(#paint33_linear_340_586)"/>
<path d="M180.416 83.8421L71.5918 45.8984L127.827 137.205L180.416 83.8421Z" fill="url(#paint34_linear_340_586)"/>
<path d="M157.357 142.496L98.4158 166.834L127.828 137.205L157.357 142.496Z" fill="url(#paint35_linear_340_586)"/>
<path d="M98.4162 166.834L30.0628 46.5027L127.828 137.205L98.4162 166.834Z" fill="url(#paint36_linear_340_586)"/>
<path d="M71.5925 45.8984L30.0628 46.5031L127.828 137.205L71.5925 45.8984Z" fill="url(#paint37_linear_340_586)"/>
</g>
<defs>
<linearGradient id="paint0_linear_340_586" x1="82.886" y1="228.965" x2="60.3825" y2="184.801" gradientUnits="userSpaceOnUse">
<stop stop-color="#0072BB"/>
<stop offset="1" stop-color="#0085CC"/>
</linearGradient>
<linearGradient id="paint1_linear_340_586" x1="54.4152" y1="251.792" x2="29.7807" y2="191.372" gradientUnits="userSpaceOnUse">
<stop stop-color="#0095DA"/>
<stop offset="1" stop-color="#0089CF"/>
</linearGradient>
<linearGradient id="paint2_linear_340_586" x1="75.8271" y1="298.806" x2="8.48678" y2="215.137" gradientUnits="userSpaceOnUse">
<stop stop-color="#00A0E4"/>
<stop offset="1" stop-color="#0099DD"/>
</linearGradient>
<linearGradient id="paint3_linear_340_586" x1="332.888" y1="283.386" x2="303.499" y2="206.309" gradientUnits="userSpaceOnUse">
<stop stop-color="#0072BB"/>
<stop offset="1" stop-color="#4FA9D8"/>
</linearGradient>
<linearGradient id="paint4_linear_340_586" x1="221.829" y1="85.4291" x2="188.341" y2="49.7712" gradientUnits="userSpaceOnUse">
<stop stop-color="#FDFDFD"/>
<stop offset="1" stop-color="#AACEE6"/>
</linearGradient>
<linearGradient id="paint5_linear_340_586" x1="99.1219" y1="213.016" x2="57.538" y2="141.737" gradientUnits="userSpaceOnUse">
<stop stop-color="#008FD5"/>
<stop offset="1" stop-color="#00A4E8"/>
</linearGradient>
<linearGradient id="paint6_linear_340_586" x1="31.0038" y1="241.815" x2="15.0283" y2="165.334" gradientUnits="userSpaceOnUse">
<stop stop-color="#0096D4"/>
<stop offset="1" stop-color="#009DDD"/>
</linearGradient>
<linearGradient id="paint7_linear_340_586" x1="-16.7613" y1="261.316" x2="-163.879" y2="75.3775" gradientUnits="userSpaceOnUse">
<stop stop-color="#68BFE1"/>
<stop offset="1" stop-color="#94CEE5"/>
</linearGradient>
<linearGradient id="paint8_linear_340_586" x1="78.6512" y1="228.663" x2="-35.8437" y2="171.239" gradientUnits="userSpaceOnUse">
<stop stop-color="#00A0E4"/>
<stop offset="1" stop-color="#55C8F4"/>
</linearGradient>
<linearGradient id="paint9_linear_340_586" x1="58.8862" y1="167.439" x2="-105.555" y2="12.3278" gradientUnits="userSpaceOnUse">
<stop stop-color="#76CDEE"/>
<stop offset="1" stop-color="#F3F3F3"/>
</linearGradient>
<linearGradient id="paint10_linear_340_586" x1="368.654" y1="163.81" x2="330.893" y2="85.1999" gradientUnits="userSpaceOnUse">
<stop stop-color="#0094DA"/>
<stop offset="1" stop-color="#1991D1"/>
</linearGradient>
<linearGradient id="paint11_linear_340_586" x1="339.947" y1="222.087" x2="255.315" y2="158.928" gradientUnits="userSpaceOnUse">
<stop stop-color="#EDEDED"/>
<stop offset="1" stop-color="#68BFE6"/>
</linearGradient>
<linearGradient id="paint12_linear_340_586" x1="313.123" y1="175.904" x2="266.774" y2="113.681" gradientUnits="userSpaceOnUse">
<stop stop-color="#0083CA"/>
<stop offset="1" stop-color="#19A2E0"/>
</linearGradient>
<linearGradient id="paint13_linear_340_586" x1="324.182" y1="244.158" x2="251.36" y2="105.966" gradientUnits="userSpaceOnUse">
<stop stop-color="#76C0E3"/>
<stop offset="1" stop-color="#0084C7"/>
</linearGradient>
<linearGradient id="paint14_linear_340_586" x1="303.241" y1="273.258" x2="276.394" y2="181.853" gradientUnits="userSpaceOnUse">
<stop stop-color="#B0D4E6"/>
<stop offset="1" stop-color="#268FC7"/>
</linearGradient>
<linearGradient id="paint15_linear_340_586" x1="203.241" y1="280.287" x2="147.198" y2="228.699" gradientUnits="userSpaceOnUse">
<stop stop-color="#0099DD"/>
<stop offset="1" stop-color="#0087CA"/>
</linearGradient>
<linearGradient id="paint16_linear_340_586" x1="183.594" y1="256.024" x2="141.051" y2="175.784" gradientUnits="userSpaceOnUse">
<stop stop-color="#0080C2"/>
<stop offset="1" stop-color="#005EA2"/>
</linearGradient>
<linearGradient id="paint17_linear_340_586" x1="143.005" y1="218.988" x2="100.339" y2="148.375" gradientUnits="userSpaceOnUse">
<stop stop-color="#0074B8"/>
<stop offset="1" stop-color="#005EA2"/>
</linearGradient>
<linearGradient id="paint18_linear_340_586" x1="154.299" y1="233.047" x2="146.949" y2="197.186" gradientUnits="userSpaceOnUse">
<stop stop-color="#0063A8"/>
<stop offset="1" stop-color="#005EA2"/>
</linearGradient>
<linearGradient id="paint19_linear_340_586" x1="336.066" y1="353.681" x2="215.762" y2="273.925" gradientUnits="userSpaceOnUse">
<stop stop-color="#77B3D7"/>
<stop offset="1" stop-color="#55A3D4"/>
</linearGradient>
<linearGradient id="paint20_linear_340_586" x1="11.4748" y1="311.731" x2="-38.5238" y2="281.926" gradientUnits="userSpaceOnUse">
<stop stop-color="#01A0E4"/>
<stop offset="1" stop-color="#46B9E6"/>
</linearGradient>
<linearGradient id="paint21_linear_340_586" x1="343.477" y1="133.198" x2="321.692" y2="70.6423" gradientUnits="userSpaceOnUse">
<stop stop-color="#0082CA"/>
<stop offset="1" stop-color="#0071BA"/>
</linearGradient>
<linearGradient id="paint22_linear_340_586" x1="272.065" y1="116.268" x2="240.594" y2="69.9071" gradientUnits="userSpaceOnUse">
<stop stop-color="#0072BB"/>
<stop offset="1" stop-color="#0373BB"/>
</linearGradient>
<linearGradient id="paint23_linear_340_586" x1="253.359" y1="102.588" x2="215.874" y2="54.27" gradientUnits="userSpaceOnUse">
<stop stop-color="#B8D5E9"/>
<stop offset="1" stop-color="#2986C3"/>
</linearGradient>
<linearGradient id="paint24_linear_340_586" x1="271.359" y1="154.06" x2="247.849" y2="87.3671" gradientUnits="userSpaceOnUse">
<stop stop-color="#0064A9"/>
<stop offset="1" stop-color="#0089CB"/>
</linearGradient>
<linearGradient id="paint25_linear_340_586" x1="244.77" y1="145.897" x2="204.787" y2="69.4581" gradientUnits="userSpaceOnUse">
<stop stop-color="#0063A8"/>
<stop offset="1" stop-color="#0379BD"/>
</linearGradient>
<linearGradient id="paint26_linear_340_586" x1="249.359" y1="215.889" x2="181.915" y2="118.851" gradientUnits="userSpaceOnUse">
<stop stop-color="#008AD0"/>
<stop offset="1" stop-color="#0078BC"/>
</linearGradient>
<linearGradient id="paint27_linear_340_586" x1="211.476" y1="141.06" x2="151.633" y2="82.7257" gradientUnits="userSpaceOnUse">
<stop stop-color="#0967AA"/>
<stop offset="1" stop-color="#56A8D3"/>
</linearGradient>
<linearGradient id="paint28_linear_340_586" x1="170.652" y1="197.9" x2="100.819" y2="145.151" gradientUnits="userSpaceOnUse">
<stop stop-color="#0076B8"/>
<stop offset="1" stop-color="#009ADE"/>
</linearGradient>
<linearGradient id="paint29_linear_340_586" x1="407.948" y1="118.535" x2="352.65" y2="11.7132" gradientUnits="userSpaceOnUse">
<stop stop-color="#75C0E2"/>
<stop offset="1" stop-color="#A3C9E1"/>
</linearGradient>
<linearGradient id="paint30_linear_340_586" x1="395.242" y1="92.9117" x2="378.929" y2="19.1189" gradientUnits="userSpaceOnUse">
<stop stop-color="#75AED2"/>
<stop offset="1" stop-color="#F8F8F8"/>
</linearGradient>
<linearGradient id="paint31_linear_340_586" x1="159.358" y1="289.433" x2="116.034" y2="208.669" gradientUnits="userSpaceOnUse">
<stop stop-color="#00ADEF"/>
<stop offset="1" stop-color="#0099DD"/>
</linearGradient>
<linearGradient id="paint32_linear_340_586" x1="105.711" y1="307.422" x2="41.2337" y2="214.106" gradientUnits="userSpaceOnUse">
<stop stop-color="#0083CA"/>
<stop offset="1" stop-color="#009CE1"/>
</linearGradient>
<linearGradient id="paint33_linear_340_586" x1="182.063" y1="141.06" x2="122.558" y2="87.7333" gradientUnits="userSpaceOnUse">
<stop stop-color="#7DC7EA"/>
<stop offset="1" stop-color="#0099DE"/>
</linearGradient>
<linearGradient id="paint34_linear_340_586" x1="183.71" y1="133.275" x2="92.016" y2="23.9165" gradientUnits="userSpaceOnUse">
<stop stop-color="#7DD4F5"/>
<stop offset="1" stop-color="#55C0ED"/>
</linearGradient>
<linearGradient id="paint35_linear_340_586" x1="157.946" y1="168.648" x2="133.703" y2="120.348" gradientUnits="userSpaceOnUse">
<stop stop-color="#009BE0"/>
<stop offset="1" stop-color="#0094DA"/>
</linearGradient>
<linearGradient id="paint36_linear_340_586" x1="131.122" y1="172.654" x2="10.964" y2="74.9952" gradientUnits="userSpaceOnUse">
<stop stop-color="#0083CA"/>
<stop offset="1" stop-color="#55ACDC"/>
</linearGradient>
<linearGradient id="paint37_linear_340_586" x1="143.593" y1="133.275" x2="50.693" y2="33.7458" gradientUnits="userSpaceOnUse">
<stop stop-color="#86BBDE"/>
<stop offset="1" stop-color="#59AEDD"/>
</linearGradient>
</defs>
</svg>
