<svg width="319" height="250" viewBox="0 0 319 250" fill="none" xmlns="http://www.w3.org/2000/svg">
<g opacity="0.14">
<path d="M114.176 83.8421L41.3518 127.681L100.411 151.415L114.176 83.8421Z" fill="url(#paint0_linear_340_785)"/>
<path d="M-79.4732 287.694L-109.003 268.118L4.52734 244.46L-79.4732 287.694Z" fill="url(#paint1_linear_340_785)"/>
<path d="M187.116 170.991L100.41 151.415L201.822 150.81L187.116 170.991Z" fill="url(#paint2_linear_340_785)"/>
<path d="M114.175 83.8421L100.41 151.415L201.822 150.81L114.175 83.8421Z" fill="url(#paint3_linear_340_785)"/>
<path d="M264.529 301.904L187.117 170.991L201.823 150.81L264.529 301.904Z" fill="url(#paint4_linear_340_785)"/>
<path d="M187.117 170.991L100.411 151.415L174.176 195.254L187.117 170.991Z" fill="url(#paint5_linear_340_785)"/>
<path d="M100.411 151.415L19.2336 243.855L174.176 195.254L100.411 151.415Z" fill="url(#paint6_linear_340_785)"/>
<path d="M264.529 301.904L187.117 170.991L174.176 195.254L264.529 301.904Z" fill="url(#paint7_linear_340_785)"/>
<path d="M100.41 151.414L41.3509 127.681L3.586 168.572L100.41 151.414Z" fill="url(#paint8_linear_340_785)"/>
<path d="M100.41 151.415L19.2332 243.855L3.58599 168.573L100.41 151.415Z" fill="url(#paint9_linear_340_785)"/>
<path d="M41.3516 127.681L-57.355 121.18L3.58662 168.572L41.3516 127.681Z" fill="url(#paint10_linear_340_785)"/>
<path d="M19.2344 243.855L4.52839 244.46L3.58721 168.573L19.2344 243.855Z" fill="url(#paint11_linear_340_785)"/>
<path d="M4.52734 244.46L-60.0613 157.915L3.58616 168.573L4.52734 244.46Z" fill="url(#paint12_linear_340_785)"/>
<path d="M-57.3556 121.18L-60.0616 157.915L3.58594 168.572L-57.3556 121.18Z" fill="url(#paint13_linear_340_785)"/>
<path d="M4.52734 244.46L-60.0613 157.915L-159.709 213.017L4.52734 244.46Z" fill="url(#paint14_linear_340_785)"/>
<path d="M4.52734 244.46L-109.003 268.118L-159.709 213.017L4.52734 244.46Z" fill="url(#paint15_linear_340_785)"/>
<path d="M19.2344 243.856L4.52838 244.46L5.35193 372.426L19.2344 243.856Z" fill="url(#paint16_linear_340_785)"/>
<path d="M4.52802 244.46L-79.4725 287.695L5.35156 372.426L4.52802 244.46Z" fill="url(#paint17_linear_340_785)"/>
<path d="M19.2332 243.856L5.35076 372.426L125.352 284.143L19.2332 243.856Z" fill="url(#paint18_linear_340_785)"/>
<path d="M41.3516 127.681L-57.355 121.18L-55.4726 93.3651L41.3516 127.681Z" fill="url(#paint19_linear_340_785)"/>
<path d="M174.176 195.254L19.2336 243.856L161.235 266.38L174.176 195.254Z" fill="url(#paint20_linear_340_785)"/>
<path d="M125.352 284.142L19.2334 243.855L161.234 266.379L125.352 284.142Z" fill="url(#paint21_linear_340_785)"/>
<path d="M264.529 301.904L174.176 195.254L161.235 266.379L264.529 301.904Z" fill="url(#paint22_linear_340_785)"/>
<path d="M319 393.815L264.529 301.904L317.118 73.1839L319 393.815Z" fill="url(#paint23_linear_340_785)"/>
<path d="M264.529 301.904L201.822 150.81L317.117 73.1841L264.529 301.904Z" fill="url(#paint24_linear_340_785)"/>
<path d="M114.176 83.8414L41.3518 127.681L72.7637 61.3171L114.176 83.8414Z" fill="url(#paint25_linear_340_785)"/>
<path d="M41.3517 127.681L-55.4725 93.3651L72.7637 61.317L41.3517 127.681Z" fill="url(#paint26_linear_340_785)"/>
<path d="M-55.4725 93.3652L-98.8845 55.4216L72.7637 61.3172L-55.4725 93.3652Z" fill="url(#paint27_linear_340_785)"/>
</g>
<defs>
<linearGradient id="paint0_linear_340_785" x1="122.411" y1="144.31" x2="53.6746" y2="70.1691" gradientUnits="userSpaceOnUse">
<stop stop-color="#CED0D4"/>
<stop offset="1" stop-color="#5EABD1"/>
</linearGradient>
<linearGradient id="paint1_linear_340_785" x1="13.9392" y1="283.386" x2="-15.4504" y2="206.309" gradientUnits="userSpaceOnUse">
<stop stop-color="#0072BB"/>
<stop offset="1" stop-color="#4FA9D8"/>
</linearGradient>
<linearGradient id="paint2_linear_340_785" x1="217.469" y1="166.985" x2="211.347" y2="131.749" gradientUnits="userSpaceOnUse">
<stop stop-color="#0071BA"/>
<stop offset="1" stop-color="#6CADD2"/>
</linearGradient>
<linearGradient id="paint3_linear_340_785" x1="178.646" y1="170.16" x2="115.045" y2="74.6401" gradientUnits="userSpaceOnUse">
<stop stop-color="#E3E4E5"/>
<stop offset="1" stop-color="#BED9E6"/>
</linearGradient>
<linearGradient id="paint4_linear_340_785" x1="268.059" y1="296.084" x2="142.855" y2="231.889" gradientUnits="userSpaceOnUse">
<stop stop-color="#7FC8EB"/>
<stop offset="1" stop-color="#52A8D8"/>
</linearGradient>
<linearGradient id="paint5_linear_340_785" x1="192.294" y1="191.55" x2="156.251" y2="120.287" gradientUnits="userSpaceOnUse">
<stop stop-color="#0070B9"/>
<stop offset="1" stop-color="#1A80BD"/>
</linearGradient>
<linearGradient id="paint6_linear_340_785" x1="150.529" y1="255.949" x2="67.5209" y2="116.809" gradientUnits="userSpaceOnUse">
<stop stop-color="#A0C9DC"/>
<stop offset="1" stop-color="#9FC5DE"/>
</linearGradient>
<linearGradient id="paint7_linear_340_785" x1="259.47" y1="305.381" x2="144.74" y2="214.88" gradientUnits="userSpaceOnUse">
<stop stop-color="#7FC9EC"/>
<stop offset="1" stop-color="#007DC5"/>
</linearGradient>
<linearGradient id="paint8_linear_340_785" x1="90.5277" y1="176.206" x2="60.6271" y2="105.384" gradientUnits="userSpaceOnUse">
<stop stop-color="#279AD0"/>
<stop offset="1" stop-color="#199DDC"/>
</linearGradient>
<linearGradient id="paint9_linear_340_785" x1="102.881" y1="244.158" x2="8.65276" y2="145.441" gradientUnits="userSpaceOnUse">
<stop stop-color="#90B9CD"/>
<stop offset="1" stop-color="#ADCFE0"/>
</linearGradient>
<linearGradient id="paint10_linear_340_785" x1="49.7046" y1="163.81" x2="11.944" y2="85.1999" gradientUnits="userSpaceOnUse">
<stop stop-color="#0094DA"/>
<stop offset="1" stop-color="#1991D1"/>
</linearGradient>
<linearGradient id="paint11_linear_340_785" x1="16.0579" y1="263.81" x2="-14.6309" y2="257.466" gradientUnits="userSpaceOnUse">
<stop stop-color="#EFEFEF"/>
<stop offset="1" stop-color="#B8DAEA"/>
</linearGradient>
<linearGradient id="paint12_linear_340_785" x1="20.998" y1="222.087" x2="-63.6346" y2="158.928" gradientUnits="userSpaceOnUse">
<stop stop-color="#EDEDED"/>
<stop offset="1" stop-color="#68BFE6"/>
</linearGradient>
<linearGradient id="paint13_linear_340_785" x1="-5.82589" y1="175.904" x2="-52.1755" y2="113.681" gradientUnits="userSpaceOnUse">
<stop stop-color="#0083CA"/>
<stop offset="1" stop-color="#19A2E0"/>
</linearGradient>
<linearGradient id="paint14_linear_340_785" x1="5.23323" y1="244.158" x2="-67.5893" y2="105.966" gradientUnits="userSpaceOnUse">
<stop stop-color="#76C0E3"/>
<stop offset="1" stop-color="#0084C7"/>
</linearGradient>
<linearGradient id="paint15_linear_340_785" x1="-15.7081" y1="273.258" x2="-42.5549" y2="181.853" gradientUnits="userSpaceOnUse">
<stop stop-color="#B0D4E6"/>
<stop offset="1" stop-color="#268FC7"/>
</linearGradient>
<linearGradient id="paint16_linear_340_785" x1="19.1167" y1="369.931" x2="-10.6096" y2="366.52" gradientUnits="userSpaceOnUse">
<stop stop-color="#76AFD3"/>
<stop offset="1" stop-color="#A4C9E2"/>
</linearGradient>
<linearGradient id="paint17_linear_340_785" x1="17.1163" y1="353.681" x2="-103.187" y2="273.925" gradientUnits="userSpaceOnUse">
<stop stop-color="#77B3D7"/>
<stop offset="1" stop-color="#55A3D4"/>
</linearGradient>
<linearGradient id="paint18_linear_340_785" x1="119.352" y1="386.333" x2="-11.5439" y2="264.278" gradientUnits="userSpaceOnUse">
<stop stop-color="#76C0E3"/>
<stop offset="1" stop-color="#82CBEC"/>
</linearGradient>
<linearGradient id="paint19_linear_340_785" x1="24.5279" y1="133.198" x2="2.74253" y2="70.6423" gradientUnits="userSpaceOnUse">
<stop stop-color="#0082CA"/>
<stop offset="1" stop-color="#0071BA"/>
</linearGradient>
<linearGradient id="paint20_linear_340_785" x1="190.058" y1="258.746" x2="135.046" y2="138.868" gradientUnits="userSpaceOnUse">
<stop stop-color="#7FB8DD"/>
<stop offset="1" stop-color="#ACD7EC"/>
</linearGradient>
<linearGradient id="paint21_linear_340_785" x1="172.293" y1="284.293" x2="150.701" y2="208.182" gradientUnits="userSpaceOnUse">
<stop stop-color="#44BEEE"/>
<stop offset="1" stop-color="#57BCE6"/>
</linearGradient>
<linearGradient id="paint22_linear_340_785" x1="250.882" y1="317.172" x2="142.096" y2="211.814" gradientUnits="userSpaceOnUse">
<stop stop-color="#8DCDEB"/>
<stop offset="1" stop-color="#128DCE"/>
</linearGradient>
<linearGradient id="paint23_linear_340_785" x1="322.294" y1="369.326" x2="214.345" y2="351.002" gradientUnits="userSpaceOnUse">
<stop stop-color="#7AD0F0"/>
<stop offset="1" stop-color="#5CAED8"/>
</linearGradient>
<linearGradient id="paint24_linear_340_785" x1="331.823" y1="273.106" x2="144.197" y2="178.534" gradientUnits="userSpaceOnUse">
<stop stop-color="#7FD5F6"/>
<stop offset="1" stop-color="#59ACD6"/>
</linearGradient>
<linearGradient id="paint25_linear_340_785" x1="103.823" y1="135.466" x2="45.542" y2="62.3394" gradientUnits="userSpaceOnUse">
<stop stop-color="#D1D2D4"/>
<stop offset="1" stop-color="#9ACCE4"/>
</linearGradient>
<linearGradient id="paint26_linear_340_785" x1="88.9991" y1="118.535" x2="33.7004" y2="11.7132" gradientUnits="userSpaceOnUse">
<stop stop-color="#75C0E2"/>
<stop offset="1" stop-color="#A3C9E1"/>
</linearGradient>
<linearGradient id="paint27_linear_340_785" x1="76.2931" y1="92.9117" x2="59.9801" y2="19.1189" gradientUnits="userSpaceOnUse">
<stop stop-color="#75AED2"/>
<stop offset="1" stop-color="#F8F8F8"/>
</linearGradient>
</defs>
</svg>
