<svg width="320" height="217" viewBox="0 0 320 217" fill="none" xmlns="http://www.w3.org/2000/svg">
<g opacity="0.14">
<path d="M54.4709 51.9783L109.765 88.7126L0 143.89L54.4709 51.9783Z" fill="url(#paint0_linear_340_1382)"/>
<path d="M109.766 88.7129L123.648 86.9744L124.472 41.9258L109.766 88.7129Z" fill="url(#paint1_linear_340_1382)"/>
<path d="M54.4707 51.9786L109.765 88.7129L124.471 41.9258L54.4707 51.9786Z" fill="url(#paint2_linear_340_1382)"/>
<path d="M190.002 114.26L202.943 139.128L223.179 120.761L190.002 114.26Z" fill="url(#paint3_linear_340_1382)"/>
<path d="M190.002 114.26L226.943 117.813L223.179 120.761L190.002 114.26Z" fill="url(#paint4_linear_340_1382)"/>
<path d="M123.648 86.9746L124.472 41.926L156.825 43.1353L123.648 86.9746Z" fill="url(#paint5_linear_340_1382)"/>
<path d="M123.648 86.9746L190.002 114.261L156.825 43.1353L123.648 86.9746Z" fill="url(#paint6_linear_340_1382)"/>
<path d="M124.471 41.9264L160.471 39.5832L156.824 43.1357L124.471 41.9264Z" fill="url(#paint7_linear_340_1382)"/>
<path d="M398.473 37.7686L428.003 18.192L314.473 -5.46605L398.473 37.7686Z" fill="url(#paint8_linear_340_1382)"/>
<path d="M54.4707 51.9785L131.883 -78.9347L117.177 -99.1159L54.4707 51.9785Z" fill="url(#paint9_linear_340_1382)"/>
<path d="M54.4707 51.9785L131.883 -78.9347L144.824 -54.6719L54.4707 51.9785Z" fill="url(#paint10_linear_340_1382)"/>
<path d="M314.473 -5.46571L428.003 18.1924L478.709 -36.9091L314.473 -5.46571Z" fill="url(#paint11_linear_340_1382)"/>
<path d="M299.766 -6.07005L314.472 -5.46539L313.648 122.5L299.766 -6.07005Z" fill="url(#paint12_linear_340_1382)"/>
<path d="M314.472 -5.46539L398.473 37.7692L313.648 122.5L314.472 -5.46539Z" fill="url(#paint13_linear_340_1382)"/>
<path d="M392.002 99.9757L397.531 93.4754L313.648 122.5L392.002 99.9757Z" fill="url(#paint14_linear_340_1382)"/>
<path d="M397.531 93.4754L398.473 37.7692L313.648 122.5L397.531 93.4754Z" fill="url(#paint15_linear_340_1382)"/>
<path d="M156.824 43.1357L160.471 39.5832L193.648 34.2167L156.824 43.1357Z" fill="url(#paint16_linear_340_1382)"/>
<path d="M156.824 43.1353L190.001 114.261L193.648 34.2162L156.824 43.1353Z" fill="url(#paint17_linear_340_1382)"/>
<path d="M190.002 114.261L226.943 117.813L193.649 34.2165L190.002 114.261Z" fill="url(#paint18_linear_340_1382)"/>
<path d="M226.943 117.814L313.649 122.5L193.648 34.2167L226.943 117.814Z" fill="url(#paint19_linear_340_1382)"/>
<path d="M299.767 -6.07005L313.649 122.5L193.648 34.2167L299.767 -6.07005Z" fill="url(#paint20_linear_340_1382)"/>
<path d="M124.471 41.9258L160.471 39.5826L157.765 16.4536L124.471 41.9258Z" fill="url(#paint21_linear_340_1382)"/>
<path d="M144.824 -54.6714L299.766 -6.07022L157.765 16.4541L144.824 -54.6714Z" fill="url(#paint22_linear_340_1382)"/>
<path d="M160.472 39.583L193.648 34.2165L157.766 16.454L160.472 39.583Z" fill="url(#paint23_linear_340_1382)"/>
<path d="M193.648 34.2158L299.767 -6.07098L157.766 16.4533L193.648 34.2158Z" fill="url(#paint24_linear_340_1382)"/>
<path d="M54.4707 51.9785L124.471 41.9257L157.765 16.4536L54.4707 51.9785Z" fill="url(#paint25_linear_340_1382)"/>
<path d="M54.4707 51.9785L144.824 -54.6719L157.765 16.4536L54.4707 51.9785Z" fill="url(#paint26_linear_340_1382)"/>
<path d="M0 143.89L54.4709 51.9783L1.88237 -176.742L0 143.89Z" fill="url(#paint27_linear_340_1382)"/>
<path d="M54.4714 51.9785L117.178 -99.1159L1.88281 -176.742L54.4714 51.9785Z" fill="url(#paint28_linear_340_1382)"/>
<path d="M109.766 88.7129L123.648 86.9744L155.884 120.156L109.766 88.7129Z" fill="url(#paint29_linear_340_1382)"/>
<path d="M123.648 86.9744L190.002 114.261L155.884 120.156L123.648 86.9744Z" fill="url(#paint30_linear_340_1382)"/>
<path d="M153.061 216.149L202.943 139.128L155.884 120.156L153.061 216.149Z" fill="url(#paint31_linear_340_1382)"/>
<path d="M190.001 114.26L202.942 139.128L155.883 120.156L190.001 114.26Z" fill="url(#paint32_linear_340_1382)"/>
<path d="M0 143.89L109.765 88.7126L155.883 120.156L0 143.89Z" fill="url(#paint33_linear_340_1382)"/>
<path d="M0 143.89L153.06 216.149L155.883 120.156L0 143.89Z" fill="url(#paint34_linear_340_1382)"/>
<path d="M313.648 122.5L344.943 127.262L379.061 111.238L313.648 122.5Z" fill="url(#paint35_linear_340_1382)"/>
<path d="M313.648 122.5L392.002 99.9757L379.061 111.238L313.648 122.5Z" fill="url(#paint36_linear_340_1382)"/>
<path d="M202.943 139.128L223.179 120.761L319.179 137.314L202.943 139.128Z" fill="url(#paint37_linear_340_1382)"/>
<path d="M223.178 120.761L226.942 117.814L319.178 137.314L223.178 120.761Z" fill="url(#paint38_linear_340_1382)"/>
<path d="M226.943 117.814L313.65 122.5L319.179 137.314L226.943 117.814Z" fill="url(#paint39_linear_340_1382)"/>
<path d="M313.648 122.5L344.943 127.262L319.178 137.314L313.648 122.5Z" fill="url(#paint40_linear_340_1382)"/>
</g>
<defs>
<linearGradient id="paint0_linear_340_1382" x1="-9.76477" y1="139.657" x2="82.493" y2="29.41" gradientUnits="userSpaceOnUse">
<stop stop-color="#FEFEFE"/>
<stop offset="1" stop-color="#A6CCE4"/>
</linearGradient>
<linearGradient id="paint1_linear_340_1382" x1="112.589" y1="100.958" x2="139.985" y2="92.3215" gradientUnits="userSpaceOnUse">
<stop stop-color="#0072BB"/>
<stop offset="1" stop-color="#0086CC"/>
</linearGradient>
<linearGradient id="paint2_linear_340_1382" x1="56.3531" y1="89.0152" x2="100.478" y2="22.9435" gradientUnits="userSpaceOnUse">
<stop stop-color="#7FD5F6"/>
<stop offset="1" stop-color="#0099DD"/>
</linearGradient>
<linearGradient id="paint3_linear_340_1382" x1="183.649" y1="133.761" x2="208.968" y2="104.204" gradientUnits="userSpaceOnUse">
<stop stop-color="#0071BA"/>
<stop offset="1" stop-color="#54A0D1"/>
</linearGradient>
<linearGradient id="paint4_linear_340_1382" x1="188.943" y1="120.61" x2="191.222" y2="107.709" gradientUnits="userSpaceOnUse">
<stop stop-color="#0072BB"/>
<stop offset="1" stop-color="#0071BB"/>
</linearGradient>
<linearGradient id="paint5_linear_340_1382" x1="115.884" y1="74.8054" x2="159.785" y2="42.4378" gradientUnits="userSpaceOnUse">
<stop stop-color="#008FD5"/>
<stop offset="1" stop-color="#00ADEE"/>
</linearGradient>
<linearGradient id="paint6_linear_340_1382" x1="129.648" y1="122.197" x2="202.041" y2="54.5902" gradientUnits="userSpaceOnUse">
<stop stop-color="#008DD2"/>
<stop offset="1" stop-color="#0097DB"/>
</linearGradient>
<linearGradient id="paint7_linear_340_1382" x1="128.471" y1="43.816" x2="129.181" y2="36.63" gradientUnits="userSpaceOnUse">
<stop stop-color="#00ADEF"/>
<stop offset="1" stop-color="#00ABED"/>
</linearGradient>
<linearGradient id="paint8_linear_340_1382" x1="305.061" y1="33.4602" x2="334.45" y2="-43.6167" gradientUnits="userSpaceOnUse">
<stop stop-color="#0072BB"/>
<stop offset="1" stop-color="#4FA9D8"/>
</linearGradient>
<linearGradient id="paint9_linear_340_1382" x1="50.9413" y1="46.1585" x2="176.145" y2="-18.0371" gradientUnits="userSpaceOnUse">
<stop stop-color="#7FC8EB"/>
<stop offset="1" stop-color="#52A8D8"/>
</linearGradient>
<linearGradient id="paint10_linear_340_1382" x1="59.5296" y1="55.4554" x2="174.26" y2="-35.0455" gradientUnits="userSpaceOnUse">
<stop stop-color="#7FC9EC"/>
<stop offset="1" stop-color="#007DC5"/>
</linearGradient>
<linearGradient id="paint11_linear_340_1382" x1="334.708" y1="23.3322" x2="361.555" y2="-68.0729" gradientUnits="userSpaceOnUse">
<stop stop-color="#B0D4E6"/>
<stop offset="1" stop-color="#268FC7"/>
</linearGradient>
<linearGradient id="paint12_linear_340_1382" x1="299.883" y1="120.006" x2="329.61" y2="116.594" gradientUnits="userSpaceOnUse">
<stop stop-color="#76AFD3"/>
<stop offset="1" stop-color="#A4C9E2"/>
</linearGradient>
<linearGradient id="paint13_linear_340_1382" x1="301.884" y1="103.755" x2="422.187" y2="23.9994" gradientUnits="userSpaceOnUse">
<stop stop-color="#77B3D7"/>
<stop offset="1" stop-color="#55A3D4"/>
</linearGradient>
<linearGradient id="paint14_linear_340_1382" x1="314.825" y1="123.105" x2="333.134" y2="70.18" gradientUnits="userSpaceOnUse">
<stop stop-color="#00A0E4"/>
<stop offset="1" stop-color="#55C0ED"/>
</linearGradient>
<linearGradient id="paint15_linear_340_1382" x1="323.531" y1="137.088" x2="410" y2="50.4992" gradientUnits="userSpaceOnUse">
<stop stop-color="#00A0E4"/>
<stop offset="1" stop-color="#55ACDC"/>
</linearGradient>
<linearGradient id="paint16_linear_340_1382" x1="156.001" y1="42.6066" x2="159.233" y2="27.2735" gradientUnits="userSpaceOnUse">
<stop stop-color="#00A0E4"/>
<stop offset="1" stop-color="#2EAEE6"/>
</linearGradient>
<linearGradient id="paint17_linear_340_1382" x1="156.001" y1="112.976" x2="218.09" y2="84.3414" gradientUnits="userSpaceOnUse">
<stop stop-color="#00A0E4"/>
<stop offset="1" stop-color="#2D9CD6"/>
</linearGradient>
<linearGradient id="paint18_linear_340_1382" x1="188.943" y1="119.25" x2="251.953" y2="91.4272" gradientUnits="userSpaceOnUse">
<stop stop-color="#0083CA"/>
<stop offset="1" stop-color="#2D9CD6"/>
</linearGradient>
<linearGradient id="paint19_linear_340_1382" x1="199.648" y1="125.75" x2="272.077" y2="13.3394" gradientUnits="userSpaceOnUse">
<stop stop-color="#0077BE"/>
<stop offset="1" stop-color="#82C3E4"/>
</linearGradient>
<linearGradient id="paint20_linear_340_1382" x1="199.648" y1="136.408" x2="330.544" y2="14.3524" gradientUnits="userSpaceOnUse">
<stop stop-color="#76C0E3"/>
<stop offset="1" stop-color="#82CBEC"/>
</linearGradient>
<linearGradient id="paint21_linear_340_1382" x1="133.059" y1="46.083" x2="158.718" y2="14.3883" gradientUnits="userSpaceOnUse">
<stop stop-color="#09AEED"/>
<stop offset="1" stop-color="#0FA6E4"/>
</linearGradient>
<linearGradient id="paint22_linear_340_1382" x1="128.942" y1="8.82002" x2="183.954" y2="-111.058" gradientUnits="userSpaceOnUse">
<stop stop-color="#7FB8DD"/>
<stop offset="1" stop-color="#ACD7EC"/>
</linearGradient>
<linearGradient id="paint23_linear_340_1382" x1="157.413" y1="37.8446" x2="175.199" y2="6.2054" gradientUnits="userSpaceOnUse">
<stop stop-color="#009EE2"/>
<stop offset="1" stop-color="#36AAE0"/>
</linearGradient>
<linearGradient id="paint24_linear_340_1382" x1="146.707" y1="34.367" x2="168.298" y2="-41.7442" gradientUnits="userSpaceOnUse">
<stop stop-color="#44BEEE"/>
<stop offset="1" stop-color="#57BCE6"/>
</linearGradient>
<linearGradient id="paint25_linear_340_1382" x1="68.1178" y1="54.6996" x2="90.447" y2="-10.1768" gradientUnits="userSpaceOnUse">
<stop stop-color="#7FD5F6"/>
<stop offset="1" stop-color="#08A7E7"/>
</linearGradient>
<linearGradient id="paint26_linear_340_1382" x1="68.1178" y1="67.2467" x2="176.904" y2="-38.1117" gradientUnits="userSpaceOnUse">
<stop stop-color="#8DCDEB"/>
<stop offset="1" stop-color="#128DCE"/>
</linearGradient>
<linearGradient id="paint27_linear_340_1382" x1="-3.29414" y1="119.4" x2="104.655" y2="101.076" gradientUnits="userSpaceOnUse">
<stop stop-color="#7AD0F0"/>
<stop offset="1" stop-color="#5CAED8"/>
</linearGradient>
<linearGradient id="paint28_linear_340_1382" x1="-12.8232" y1="23.1806" x2="174.803" y2="-71.392" gradientUnits="userSpaceOnUse">
<stop stop-color="#7FD5F6"/>
<stop offset="1" stop-color="#59ACD6"/>
</linearGradient>
<linearGradient id="paint29_linear_340_1382" x1="111.648" y1="120.307" x2="143.755" y2="75.6867" gradientUnits="userSpaceOnUse">
<stop stop-color="#0072BB"/>
<stop offset="1" stop-color="#0072BB"/>
</linearGradient>
<linearGradient id="paint30_linear_340_1382" x1="121.178" y1="120.307" x2="148.258" y2="66.115" gradientUnits="userSpaceOnUse">
<stop stop-color="#0071BA"/>
<stop offset="1" stop-color="#0071BA"/>
</linearGradient>
<linearGradient id="paint31_linear_340_1382" x1="143.531" y1="192.416" x2="217.933" y2="158.639" gradientUnits="userSpaceOnUse">
<stop stop-color="white"/>
<stop offset="1" stop-color="#A9CFE8"/>
</linearGradient>
<linearGradient id="paint32_linear_340_1382" x1="158.589" y1="140.111" x2="179.585" y2="100.426" gradientUnits="userSpaceOnUse">
<stop stop-color="#0072BB"/>
<stop offset="1" stop-color="#54A0D1"/>
</linearGradient>
<linearGradient id="paint33_linear_340_1382" x1="10.5883" y1="149.559" x2="45.9339" y2="49.5844" gradientUnits="userSpaceOnUse">
<stop stop-color="#81B5D8"/>
<stop offset="1" stop-color="#0573BB"/>
</linearGradient>
<linearGradient id="paint34_linear_340_1382" x1="10.5883" y1="216.905" x2="103.624" y2="84.7216" gradientUnits="userSpaceOnUse">
<stop stop-color="#E2E3E4"/>
<stop offset="1" stop-color="#9AC1DA"/>
</linearGradient>
<linearGradient id="paint35_linear_340_1382" x1="313.531" y1="127.186" x2="322.064" y2="96.6246" gradientUnits="userSpaceOnUse">
<stop stop-color="#FEFEFE"/>
<stop offset="1" stop-color="#A9E0F6"/>
</linearGradient>
<linearGradient id="paint36_linear_340_1382" x1="317.296" y1="123.634" x2="329.489" y2="81.1803" gradientUnits="userSpaceOnUse">
<stop stop-color="#7FC9EC"/>
<stop offset="1" stop-color="#00A1E5"/>
</linearGradient>
<linearGradient id="paint37_linear_340_1382" x1="206.943" y1="138.826" x2="212.725" y2="102.249" gradientUnits="userSpaceOnUse">
<stop stop-color="#FEFEFE"/>
<stop offset="1" stop-color="#AAD0E8"/>
</linearGradient>
<linearGradient id="paint38_linear_340_1382" x1="223.648" y1="137.466" x2="231.46" y2="99.1491" gradientUnits="userSpaceOnUse">
<stop stop-color="#7FB8DD"/>
<stop offset="1" stop-color="#AACFE8"/>
</linearGradient>
<linearGradient id="paint39_linear_340_1382" x1="230.59" y1="137.466" x2="238.688" y2="99.2735" gradientUnits="userSpaceOnUse">
<stop stop-color="#7FB8DD"/>
<stop offset="1" stop-color="white"/>
</linearGradient>
<linearGradient id="paint40_linear_340_1382" x1="307.884" y1="134.367" x2="319.56" y2="109.649" gradientUnits="userSpaceOnUse">
<stop stop-color="#FEFEFE"/>
<stop offset="1" stop-color="#FEFEFE"/>
</linearGradient>
</defs>
</svg>
