<svg width="320" height="217" viewBox="0 0 320 217" fill="none" xmlns="http://www.w3.org/2000/svg">
<g opacity="0.14">
<path d="M242.592 159.235L354.24 101.186L303.533 51.3756L242.592 159.235Z" fill="url(#paint0_linear_340_1183)"/>
<path d="M242.592 159.235L354.24 101.186L360.71 124.92L242.592 159.235Z" fill="url(#paint1_linear_340_1183)"/>
<path d="M78.4727 37.77L108.002 18.1935L208.474 57.9512L78.4727 37.77Z" fill="url(#paint2_linear_340_1183)"/>
<path d="M242.592 159.235L303.534 51.3756L208.475 57.9515L242.592 159.235Z" fill="url(#paint3_linear_340_1183)"/>
<path d="M303.534 51.375L330.24 -4.25556L246.357 -16.1224L303.534 51.375Z" fill="url(#paint4_linear_340_1183)"/>
<path d="M72.002 99.9763L242.591 159.235L200.238 183.573L72.002 99.9763Z" fill="url(#paint5_linear_340_1183)"/>
<path d="M200.238 183.573L242.591 159.234L287.886 195.969L200.238 183.573Z" fill="url(#paint6_linear_340_1183)"/>
<path d="M242.592 159.234L360.71 124.919L287.886 195.969L242.592 159.234Z" fill="url(#paint7_linear_340_1183)"/>
<path d="M78.4732 37.7695L108.003 18.193L-5.52734 -5.46508L78.4732 37.7695Z" fill="url(#paint8_linear_340_1183)"/>
<path d="M108.002 18.1935L208.473 57.9512L151.296 13.5072L108.002 18.1935Z" fill="url(#paint9_linear_340_1183)"/>
<path d="M72.002 99.9767L242.591 159.235L77.5314 93.4764L72.002 99.9767Z" fill="url(#paint10_linear_340_1183)"/>
<path d="M78.4724 37.7694L208.473 57.9506L77.5312 93.4756L78.4724 37.7694Z" fill="url(#paint11_linear_340_1183)"/>
<path d="M208.473 57.9515L242.591 159.235L77.5312 93.4764L208.473 57.9515Z" fill="url(#paint12_linear_340_1183)"/>
<path d="M-5.52734 -5.46474L108.003 18.1934L158.709 -36.9081L-5.52734 -5.46474Z" fill="url(#paint13_linear_340_1183)"/>
<path d="M108.002 18.1934L151.296 13.5071L158.708 -36.9081L108.002 18.1934Z" fill="url(#paint14_linear_340_1183)"/>
<path d="M151.297 13.5068L246.356 -16.1225L158.709 -36.9084L151.297 13.5068Z" fill="url(#paint15_linear_340_1183)"/>
<path d="M-5.52803 -5.46441L78.4725 37.7702L-6.35156 122.501L-5.52803 -5.46441Z" fill="url(#paint16_linear_340_1183)"/>
<path d="M72.0019 99.9767L77.5313 93.4763L-6.35156 122.501L72.0019 99.9767Z" fill="url(#paint17_linear_340_1183)"/>
<path d="M77.5314 93.4764L78.4725 37.7702L-6.35156 122.501L77.5314 93.4764Z" fill="url(#paint18_linear_340_1183)"/>
<path d="M303.533 51.375L330.239 -4.25556L336.71 35.4266L303.533 51.375Z" fill="url(#paint19_linear_340_1183)"/>
<path d="M303.533 51.375L354.239 101.186L336.71 35.4266L303.533 51.375Z" fill="url(#paint20_linear_340_1183)"/>
<path d="M151.297 13.5072L208.474 57.9512L205.768 34.8222L151.297 13.5072Z" fill="url(#paint21_linear_340_1183)"/>
<path d="M151.297 13.5073L246.356 -16.122L205.768 34.8223L151.297 13.5073Z" fill="url(#paint22_linear_340_1183)"/>
<path d="M208.473 57.9512L303.533 51.3753L205.768 34.8222L208.473 57.9512Z" fill="url(#paint23_linear_340_1183)"/>
<path d="M246.356 -16.1224L303.533 51.375L205.768 34.8219L246.356 -16.1224Z" fill="url(#paint24_linear_340_1183)"/>
<path d="M-6.35156 122.501L24.9428 127.263L59.0607 111.239L-6.35156 122.501Z" fill="url(#paint25_linear_340_1183)"/>
<path d="M-6.35156 122.501L72.0019 99.9767L59.0606 111.239L-6.35156 122.501Z" fill="url(#paint26_linear_340_1183)"/>
<path d="M24.9434 127.262L200.239 183.573L59.0612 111.238L24.9434 127.262Z" fill="url(#paint27_linear_340_1183)"/>
<path d="M72.0018 99.9763L200.238 183.573L59.0605 111.238L72.0018 99.9763Z" fill="url(#paint28_linear_340_1183)"/>
<path d="M-6.35156 122.501L24.9428 127.263L-0.822122 137.315L-6.35156 122.501Z" fill="url(#paint29_linear_340_1183)"/>
</g>
<defs>
<linearGradient id="paint0_linear_340_1183" x1="238.474" y1="165.131" x2="348.461" y2="51.3145" gradientUnits="userSpaceOnUse">
<stop stop-color="#FAFAFA"/>
<stop offset="1" stop-color="#A6D8EF"/>
</linearGradient>
<linearGradient id="paint1_linear_340_1183" x1="260.121" y1="161.654" x2="301.194" y2="78.1546" gradientUnits="userSpaceOnUse">
<stop stop-color="#F4F4F4"/>
<stop offset="1" stop-color="#F2F2F2"/>
</linearGradient>
<linearGradient id="paint2_linear_340_1183" x1="89.4139" y1="58.3291" x2="114.841" y2="-14.5499" gradientUnits="userSpaceOnUse">
<stop stop-color="#0089CF"/>
<stop offset="1" stop-color="#07A3E4"/>
</linearGradient>
<linearGradient id="paint3_linear_340_1183" x1="197.298" y1="137.618" x2="304.672" y2="54.8577" gradientUnits="userSpaceOnUse">
<stop stop-color="#7FB7DC"/>
<stop offset="1" stop-color="#0790D3"/>
</linearGradient>
<linearGradient id="paint4_linear_340_1183" x1="242.122" y1="48.8807" x2="309.462" y2="-34.7874" gradientUnits="userSpaceOnUse">
<stop stop-color="#00A0E4"/>
<stop offset="1" stop-color="#0099DD"/>
</linearGradient>
<linearGradient id="paint5_linear_340_1183" x1="69.4137" y1="180.248" x2="123.908" y2="53.0592" gradientUnits="userSpaceOnUse">
<stop stop-color="#00ADEF"/>
<stop offset="1" stop-color="#AAE3F9"/>
</linearGradient>
<linearGradient id="paint6_linear_340_1183" x1="210.474" y1="198.765" x2="239.955" y2="137.243" gradientUnits="userSpaceOnUse">
<stop stop-color="white"/>
<stop offset="1" stop-color="#FEFEFE"/>
</linearGradient>
<linearGradient id="paint7_linear_340_1183" x1="245.062" y1="194.759" x2="297.906" y2="94.4925" gradientUnits="userSpaceOnUse">
<stop stop-color="#FEFEFE"/>
<stop offset="1" stop-color="#F8F8F8"/>
</linearGradient>
<linearGradient id="paint8_linear_340_1183" x1="-14.9392" y1="33.4612" x2="14.4504" y2="-43.6157" gradientUnits="userSpaceOnUse">
<stop stop-color="#0072BB"/>
<stop offset="1" stop-color="#4FA9D8"/>
</linearGradient>
<linearGradient id="paint9_linear_340_1183" x1="116.002" y1="56.4395" x2="145.351" y2="-9.95068" gradientUnits="userSpaceOnUse">
<stop stop-color="#00A5E7"/>
<stop offset="1" stop-color="#07ADEC"/>
</linearGradient>
<linearGradient id="paint10_linear_340_1183" x1="69.4137" y1="161.352" x2="114.466" y2="44.4795" gradientUnits="userSpaceOnUse">
<stop stop-color="#00A0E4"/>
<stop offset="1" stop-color="#55BFED"/>
</linearGradient>
<linearGradient id="paint11_linear_340_1183" x1="55.2958" y1="86.8997" x2="96.2379" y2="-9.36762" gradientUnits="userSpaceOnUse">
<stop stop-color="#0071BA"/>
<stop offset="1" stop-color="#0799DB"/>
</linearGradient>
<linearGradient id="paint12_linear_340_1183" x1="92.7078" y1="166.038" x2="184.903" y2="15.8227" gradientUnits="userSpaceOnUse">
<stop stop-color="#0A90D1"/>
<stop offset="1" stop-color="#55B4E3"/>
</linearGradient>
<linearGradient id="paint13_linear_340_1183" x1="14.7081" y1="23.3331" x2="41.5549" y2="-68.0719" gradientUnits="userSpaceOnUse">
<stop stop-color="#B0D4E6"/>
<stop offset="1" stop-color="#268FC7"/>
</linearGradient>
<linearGradient id="paint14_linear_340_1183" x1="114.708" y1="30.3625" x2="170.751" y2="-21.2254" gradientUnits="userSpaceOnUse">
<stop stop-color="#0099DD"/>
<stop offset="1" stop-color="#0087CA"/>
</linearGradient>
<linearGradient id="paint15_linear_340_1183" x1="134.356" y1="6.09951" x2="176.898" y2="-74.1403" gradientUnits="userSpaceOnUse">
<stop stop-color="#0080C2"/>
<stop offset="1" stop-color="#005EA2"/>
</linearGradient>
<linearGradient id="paint16_linear_340_1183" x1="-18.1163" y1="103.756" x2="102.187" y2="24.0004" gradientUnits="userSpaceOnUse">
<stop stop-color="#77B3D7"/>
<stop offset="1" stop-color="#55A3D4"/>
</linearGradient>
<linearGradient id="paint17_linear_340_1183" x1="-5.17509" y1="123.106" x2="13.1339" y2="70.1809" gradientUnits="userSpaceOnUse">
<stop stop-color="#00A0E4"/>
<stop offset="1" stop-color="#55C0ED"/>
</linearGradient>
<linearGradient id="paint18_linear_340_1183" x1="3.53086" y1="137.089" x2="90" y2="50.5002" gradientUnits="userSpaceOnUse">
<stop stop-color="#00A0E4"/>
<stop offset="1" stop-color="#55ACDC"/>
</linearGradient>
<linearGradient id="paint19_linear_340_1183" x1="306.474" y1="61.8057" x2="356.473" y2="32.0013" gradientUnits="userSpaceOnUse">
<stop stop-color="#01A0E4"/>
<stop offset="1" stop-color="#46B9E6"/>
</linearGradient>
<linearGradient id="paint20_linear_340_1183" x1="305.298" y1="108.593" x2="370.215" y2="58.5264" gradientUnits="userSpaceOnUse">
<stop stop-color="#76C0E3"/>
<stop offset="1" stop-color="#E9EAEA"/>
</linearGradient>
<linearGradient id="paint21_linear_340_1183" x1="149.297" y1="56.4395" x2="193.244" y2="-0.107606" gradientUnits="userSpaceOnUse">
<stop stop-color="#00ADEF"/>
<stop offset="1" stop-color="#07ADEC"/>
</linearGradient>
<linearGradient id="paint22_linear_340_1183" x1="158.591" y1="39.5085" x2="201.915" y2="-41.2559" gradientUnits="userSpaceOnUse">
<stop stop-color="#00ADEF"/>
<stop offset="1" stop-color="#0099DD"/>
</linearGradient>
<linearGradient id="paint23_linear_340_1183" x1="199.768" y1="56.9686" x2="210.326" y2="12.2994" gradientUnits="userSpaceOnUse">
<stop stop-color="#0AA0E0"/>
<stop offset="1" stop-color="#009BE0"/>
</linearGradient>
<linearGradient id="paint24_linear_340_1183" x1="212.238" y1="57.4974" x2="276.716" y2="-35.8186" gradientUnits="userSpaceOnUse">
<stop stop-color="#0083CA"/>
<stop offset="1" stop-color="#009CE1"/>
</linearGradient>
<linearGradient id="paint25_linear_340_1183" x1="-6.46921" y1="127.187" x2="2.06423" y2="96.6256" gradientUnits="userSpaceOnUse">
<stop stop-color="#FEFEFE"/>
<stop offset="1" stop-color="#A9E0F6"/>
</linearGradient>
<linearGradient id="paint26_linear_340_1183" x1="-2.70448" y1="123.635" x2="9.48904" y2="81.1813" gradientUnits="userSpaceOnUse">
<stop stop-color="#7FC9EC"/>
<stop offset="1" stop-color="#00A1E5"/>
</linearGradient>
<linearGradient id="paint27_linear_340_1183" x1="34.3552" y1="187.277" x2="86.3691" y2="61.1924" gradientUnits="userSpaceOnUse">
<stop stop-color="#89D7F6"/>
<stop offset="1" stop-color="#5BC6F1"/>
</linearGradient>
<linearGradient id="paint28_linear_340_1183" x1="60.4723" y1="180.248" x2="140.325" y2="62.2382" gradientUnits="userSpaceOnUse">
<stop stop-color="#00ADEF"/>
<stop offset="1" stop-color="#55C5F1"/>
</linearGradient>
<linearGradient id="paint29_linear_340_1183" x1="-12.1163" y1="134.368" x2="-0.439522" y2="109.65" gradientUnits="userSpaceOnUse">
<stop stop-color="#FEFEFE"/>
<stop offset="1" stop-color="#FEFEFE"/>
</linearGradient>
</defs>
</svg>
