<svg width="320" height="217" viewBox="0 0 320 217" fill="none" xmlns="http://www.w3.org/2000/svg">
<g opacity="0.14">
<path d="M-77.4082 159.234L34.2396 101.185L-16.4666 51.3746L-77.4082 159.234Z" fill="url(#paint0_linear_340_984)"/>
<path d="M-77.4082 159.234L34.2396 101.185L40.7102 124.919L-77.4082 159.234Z" fill="url(#paint1_linear_340_984)"/>
<path d="M34.2402 101.184L104.358 49.0306L40.7109 124.918L34.2402 101.184Z" fill="url(#paint2_linear_340_984)"/>
<path d="M-16.4657 51.374L10.2403 -4.25653L-73.6426 -16.1234L-16.4657 51.374Z" fill="url(#paint3_linear_340_984)"/>
<path d="M40.7109 124.918L104.358 49.0306L215.065 109.499L40.7109 124.918Z" fill="url(#paint4_linear_340_984)"/>
<path d="M-77.4082 159.233L40.7102 124.918L-32.1138 195.968L-77.4082 159.233Z" fill="url(#paint5_linear_340_984)"/>
<path d="M34.2402 101.185L104.358 49.0309L37.0638 29.4544L34.2402 101.185Z" fill="url(#paint6_linear_340_984)"/>
<path d="M215.064 109.499L332.124 48.4262L326.595 115.395L215.064 109.499Z" fill="url(#paint7_linear_340_984)"/>
<path d="M10.2402 -4.25679L37.0639 29.4541L74.8289 17.0582L10.2402 -4.25679Z" fill="url(#paint8_linear_340_984)"/>
<path d="M37.0625 29.4547L104.357 49.0312L74.8274 17.0588L37.0625 29.4547Z" fill="url(#paint9_linear_340_984)"/>
<path d="M10.2402 -4.25637L74.8289 17.0586L167.065 -16.1232L10.2402 -4.25637Z" fill="url(#paint10_linear_340_984)"/>
<path d="M74.8281 17.0588L104.358 49.0312L144.005 15.2448L74.8281 17.0588Z" fill="url(#paint11_linear_340_984)"/>
<path d="M74.8281 17.0586L167.064 -16.1232L144.005 15.2446L74.8281 17.0586Z" fill="url(#paint12_linear_340_984)"/>
<path d="M304.476 -81.3533L392.124 -35.0953L223.299 31.873L304.476 -81.3533Z" fill="url(#paint13_linear_340_984)"/>
<path d="M332.123 48.4258L392.124 -35.0956L223.299 31.8727L332.123 48.4258Z" fill="url(#paint14_linear_340_984)"/>
<path d="M104.357 49.0312L144.005 15.2448L223.299 31.8735L104.357 49.0312Z" fill="url(#paint15_linear_340_984)"/>
<path d="M104.357 49.031L215.064 109.499L223.299 31.8732L104.357 49.031Z" fill="url(#paint16_linear_340_984)"/>
<path d="M144.006 15.2443L167.065 -16.1234L223.3 31.873L144.006 15.2443Z" fill="url(#paint17_linear_340_984)"/>
<path d="M167.064 -16.1234L304.477 -81.3533L223.3 31.873L167.064 -16.1234Z" fill="url(#paint18_linear_340_984)"/>
<path d="M215.064 109.499L332.124 48.4263L223.3 31.8732L215.064 109.499Z" fill="url(#paint19_linear_340_984)"/>
<path d="M215.064 109.499L326.595 115.395H218.712L215.064 109.499Z" fill="url(#paint20_linear_340_984)"/>
<path d="M-16.4668 51.374L10.2393 -4.25653L16.7099 35.4256L-16.4668 51.374Z" fill="url(#paint21_linear_340_984)"/>
<path d="M-16.4668 51.3741L34.2394 101.185L16.7099 35.4256L-16.4668 51.3741Z" fill="url(#paint22_linear_340_984)"/>
<path d="M10.2402 -4.25634L37.0639 29.4546L16.7109 35.4258L10.2402 -4.25634Z" fill="url(#paint23_linear_340_984)"/>
<path d="M34.2405 101.185L37.064 29.4544L16.7109 35.4256L34.2405 101.185Z" fill="url(#paint24_linear_340_984)"/>
<path d="M40.7109 124.919L83.1818 201.335L139.417 171.101L40.7109 124.919Z" fill="url(#paint25_linear_340_984)"/>
<path d="M40.7109 124.918L215.065 109.499L139.417 171.101L40.7109 124.918Z" fill="url(#paint26_linear_340_984)"/>
<path d="M127.416 209.649H167.063L139.416 171.101L127.416 209.649Z" fill="url(#paint27_linear_340_984)"/>
<path d="M167.063 209.649L218.711 115.395L139.416 171.101L167.063 209.649Z" fill="url(#paint28_linear_340_984)"/>
<path d="M215.064 109.499L218.711 115.394L139.416 171.101L215.064 109.499Z" fill="url(#paint29_linear_340_984)"/>
<path d="M167.064 209.649L218.712 115.395L341.419 163.996L167.064 209.649Z" fill="url(#paint30_linear_340_984)"/>
<path d="M218.711 115.395H326.594L341.418 163.996L218.711 115.395Z" fill="url(#paint31_linear_340_984)"/>
<path d="M83.1816 201.334L139.417 171.1L114.476 209.044L83.1816 201.334Z" fill="url(#paint32_linear_340_984)"/>
<path d="M127.416 209.649L139.416 171.101L114.475 209.045L127.416 209.649Z" fill="url(#paint33_linear_340_984)"/>
</g>
<defs>
<linearGradient id="paint0_linear_340_984" x1="-81.5259" y1="165.13" x2="28.4614" y2="51.3135" gradientUnits="userSpaceOnUse">
<stop stop-color="#FAFAFA"/>
<stop offset="1" stop-color="#A6D8EF"/>
</linearGradient>
<linearGradient id="paint1_linear_340_984" x1="-59.8787" y1="161.653" x2="-18.8062" y2="78.1536" gradientUnits="userSpaceOnUse">
<stop stop-color="#F4F4F4"/>
<stop offset="1" stop-color="#F2F2F2"/>
</linearGradient>
<linearGradient id="paint2_linear_340_984" x1="26.2402" y1="119.098" x2="103.399" y2="47.7899" gradientUnits="userSpaceOnUse">
<stop stop-color="white"/>
<stop offset="1" stop-color="#F3F3F3"/>
</linearGradient>
<linearGradient id="paint3_linear_340_984" x1="-77.8779" y1="48.8797" x2="-10.5376" y2="-34.7884" gradientUnits="userSpaceOnUse">
<stop stop-color="#00A0E4"/>
<stop offset="1" stop-color="#0099DD"/>
</linearGradient>
<linearGradient id="paint4_linear_340_984" x1="52.0051" y1="128.773" x2="108.638" y2="-1.38383" gradientUnits="userSpaceOnUse">
<stop stop-color="#F6F6F6"/>
<stop offset="1" stop-color="#F9F9F9"/>
</linearGradient>
<linearGradient id="paint5_linear_340_984" x1="-74.9376" y1="194.758" x2="-22.0945" y2="94.4915" gradientUnits="userSpaceOnUse">
<stop stop-color="#FEFEFE"/>
<stop offset="1" stop-color="#F8F8F8"/>
</linearGradient>
<linearGradient id="paint6_linear_340_984" x1="26.2402" y1="84.707" x2="90.2443" y2="22.1344" gradientUnits="userSpaceOnUse">
<stop stop-color="#EAEBEB"/>
<stop offset="1" stop-color="#DCDCDD"/>
</linearGradient>
<linearGradient id="paint7_linear_340_984" x1="242.829" y1="132.099" x2="301.709" y2="29.0992" gradientUnits="userSpaceOnUse">
<stop stop-color="white"/>
<stop offset="1" stop-color="white"/>
</linearGradient>
<linearGradient id="paint8_linear_340_984" x1="3.88725" y1="28.2447" x2="32.2009" y2="-25.8764" gradientUnits="userSpaceOnUse">
<stop stop-color="#04ADEE"/>
<stop offset="1" stop-color="#96CEE4"/>
</linearGradient>
<linearGradient id="paint9_linear_340_984" x1="39.6508" y1="53.6419" x2="64.9688" y2="0.368907" gradientUnits="userSpaceOnUse">
<stop stop-color="#D7D8DA"/>
<stop offset="1" stop-color="#E7E8E8"/>
</linearGradient>
<linearGradient id="paint10_linear_340_984" x1="-6.23045" y1="15.6981" x2="7.488" y2="-49.1228" gradientUnits="userSpaceOnUse">
<stop stop-color="#009FE3"/>
<stop offset="1" stop-color="#4EB9E6"/>
</linearGradient>
<linearGradient id="paint11_linear_340_984" x1="63.4163" y1="45.0252" x2="90.5951" y2="-10.6375" gradientUnits="userSpaceOnUse">
<stop stop-color="#ECECEC"/>
<stop offset="1" stop-color="#9ECFE6"/>
</linearGradient>
<linearGradient id="paint12_linear_340_984" x1="96.4753" y1="24.1636" x2="113.6" y2="-30.2332" gradientUnits="userSpaceOnUse">
<stop stop-color="#75C0E2"/>
<stop offset="1" stop-color="#009CE1"/>
</linearGradient>
<linearGradient id="paint13_linear_340_984" x1="218.475" y1="34.065" x2="325.322" y2="-125.276" gradientUnits="userSpaceOnUse">
<stop stop-color="#0076BA"/>
<stop offset="1" stop-color="#55A8D4"/>
</linearGradient>
<linearGradient id="paint14_linear_340_984" x1="240.005" y1="55.5308" x2="307.802" y2="-81.4284" gradientUnits="userSpaceOnUse">
<stop stop-color="#7FC9EC"/>
<stop offset="1" stop-color="#55C0ED"/>
</linearGradient>
<linearGradient id="paint15_linear_340_984" x1="93.4162" y1="49.3336" x2="111.526" y2="-14.459" gradientUnits="userSpaceOnUse">
<stop stop-color="#77CAEB"/>
<stop offset="1" stop-color="#55BEEB"/>
</linearGradient>
<linearGradient id="paint16_linear_340_984" x1="108.593" y1="109.499" x2="181.094" y2="-1.62545" gradientUnits="userSpaceOnUse">
<stop stop-color="#F5F5F5"/>
<stop offset="1" stop-color="#FEFEFE"/>
</linearGradient>
<linearGradient id="paint17_linear_340_984" x1="147.888" y1="34.2162" x2="191.277" y2="-37.4868" gradientUnits="userSpaceOnUse">
<stop stop-color="#00A0E4"/>
<stop offset="1" stop-color="#55C8F4"/>
</linearGradient>
<linearGradient id="paint18_linear_340_984" x1="174.829" y1="34.065" x2="271.551" y2="-100.154" gradientUnits="userSpaceOnUse">
<stop stop-color="#0081C2"/>
<stop offset="1" stop-color="#55A7D3"/>
</linearGradient>
<linearGradient id="paint19_linear_340_984" x1="198.006" y1="99.5974" x2="270.957" y2="-10.4838" gradientUnits="userSpaceOnUse">
<stop stop-color="white"/>
<stop offset="1" stop-color="white"/>
</linearGradient>
<linearGradient id="paint20_linear_340_984" x1="217.182" y1="115.621" x2="217.822" y2="103.562" gradientUnits="userSpaceOnUse">
<stop stop-color="#FBFBFB"/>
<stop offset="1" stop-color="#FCFCFC"/>
</linearGradient>
<linearGradient id="paint21_linear_340_984" x1="-13.5256" y1="61.8048" x2="36.473" y2="32.0003" gradientUnits="userSpaceOnUse">
<stop stop-color="#01A0E4"/>
<stop offset="1" stop-color="#46B9E6"/>
</linearGradient>
<linearGradient id="paint22_linear_340_984" x1="-14.7021" y1="108.592" x2="50.2149" y2="58.5255" gradientUnits="userSpaceOnUse">
<stop stop-color="#76C0E3"/>
<stop offset="1" stop-color="#E9EAEA"/>
</linearGradient>
<linearGradient id="paint23_linear_340_984" x1="9.1814" y1="34.4432" x2="46.7282" y2="9.14764" gradientUnits="userSpaceOnUse">
<stop stop-color="#00ADEF"/>
<stop offset="1" stop-color="#8BC5DD"/>
</linearGradient>
<linearGradient id="paint24_linear_340_984" x1="15.7698" y1="102.999" x2="54.1111" y2="92.148" gradientUnits="userSpaceOnUse">
<stop stop-color="#F6F6F6"/>
<stop offset="1" stop-color="#DADBDC"/>
</linearGradient>
<linearGradient id="paint25_linear_340_984" x1="24.7108" y1="196.724" x2="100.237" y2="99.2166" gradientUnits="userSpaceOnUse">
<stop stop-color="#F6F6F6"/>
<stop offset="1" stop-color="white"/>
</linearGradient>
<linearGradient id="paint26_linear_340_984" x1="29.7697" y1="167.699" x2="69.2942" y2="55.8988" gradientUnits="userSpaceOnUse">
<stop stop-color="#F6F6F6"/>
<stop offset="1" stop-color="white"/>
</linearGradient>
<linearGradient id="paint27_linear_340_984" x1="132.24" y1="212.219" x2="166.483" y2="171.922" gradientUnits="userSpaceOnUse">
<stop stop-color="white"/>
<stop offset="1" stop-color="white"/>
</linearGradient>
<linearGradient id="paint28_linear_340_984" x1="139.651" y1="202.469" x2="232.293" y2="134.225" gradientUnits="userSpaceOnUse">
<stop stop-color="white"/>
<stop offset="1" stop-color="white"/>
</linearGradient>
<linearGradient id="paint29_linear_340_984" x1="139.651" y1="175.56" x2="200.587" y2="97.1298" gradientUnits="userSpaceOnUse">
<stop stop-color="white"/>
<stop offset="1" stop-color="white"/>
</linearGradient>
<linearGradient id="paint30_linear_340_984" x1="151.77" y1="202.469" x2="232.203" y2="53.6538" gradientUnits="userSpaceOnUse">
<stop stop-color="white"/>
<stop offset="1" stop-color="#FEFDFE"/>
</linearGradient>
<linearGradient id="paint31_linear_340_984" x1="216.946" y1="164.676" x2="250.9" y2="78.9582" gradientUnits="userSpaceOnUse">
<stop stop-color="#F5F5F5"/>
<stop offset="1" stop-color="#F7F7F7"/>
</linearGradient>
<linearGradient id="paint32_linear_340_984" x1="84.5934" y1="210.934" x2="120.466" y2="157.715" gradientUnits="userSpaceOnUse">
<stop stop-color="#FEFEFE"/>
<stop offset="1" stop-color="#FEFEFE"/>
</linearGradient>
<linearGradient id="paint33_linear_340_984" x1="118.357" y1="212.219" x2="152.347" y2="192.99" gradientUnits="userSpaceOnUse">
<stop stop-color="#FEFEFE"/>
<stop offset="1" stop-color="#FEFEFE"/>
</linearGradient>
</defs>
</svg>
