<svg width="16" height="16" viewBox="0 0 16 16" fill="none" xmlns="http://www.w3.org/2000/svg">
<g clip-path="url(#clip0_245_1090)">
<path d="M13.321 12.2173L8.90681 7.80316L13.3211 3.38891C13.6256 3.08439 13.6256 2.58993 13.321 2.28532C13.0164 1.9808 12.522 1.9808 12.2175 2.28532L7.80322 6.69957L3.38897 2.28532C3.08446 1.9808 2.59 1.9808 2.28548 2.28532C1.98087 2.58993 1.98087 3.08439 2.28538 3.38891L6.69963 7.80316L2.28548 12.2173C1.98087 12.5219 1.98087 13.0164 2.28538 13.3209C2.59 13.6255 3.08446 13.6255 3.38907 13.3209L7.80322 8.90675L12.2174 13.3209C12.522 13.6255 13.0164 13.6255 13.3211 13.3209C13.6256 13.0164 13.6256 12.5219 13.321 12.2173Z" fill="#A2B3D1"/>
</g>
<defs>
<clipPath id="clip0_245_1090">
<rect width="15.6066" height="15.6066" fill="white"/>
</clipPath>
</defs>
</svg>
