<svg width="34" height="34" viewBox="0 0 34 34" fill="none" xmlns="http://www.w3.org/2000/svg">
<g clip-path="url(#clip0_133_5707)">
<mask id="mask0_133_5707" style="mask-type:luminance" maskUnits="userSpaceOnUse" x="0" y="0" width="34" height="34">
<path d="M0 0H34V34H0V0Z" fill="white"/>
</mask>
<g mask="url(#mask0_133_5707)">
<path d="M28.3331 4.25H18.4165C17.6373 4.25 16.9998 4.8875 16.9998 5.66667V18.4167L21.2498 14.1667H28.3331C29.1123 14.1667 29.7498 13.5292 29.7498 12.75V5.66667C29.7498 4.8875 29.1123 4.25 28.3331 4.25ZM27.2423 21.6183L23.644 21.2075C22.7798 21.1083 21.9298 21.4058 21.3206 22.015L18.714 24.6217C14.7048 22.5817 11.4181 19.3092 9.37815 15.2858L11.999 12.665C12.6081 12.0558 12.9056 11.2058 12.8065 10.3417L12.3956 6.77167C12.2256 5.34083 11.0215 4.26417 9.57648 4.26417H7.12565C5.52481 4.26417 4.19315 5.59583 4.29231 7.19667C5.04315 19.295 14.719 28.9567 26.8031 29.7075C28.404 29.8067 29.7356 28.475 29.7356 26.8742V24.4233C29.7498 22.9925 28.6731 21.7883 27.2423 21.6183Z" fill="white"/>
</g>
</g>
<defs>
<clipPath id="clip0_133_5707">
<rect width="34" height="34" fill="white"/>
</clipPath>
</defs>
</svg>
