<svg width="32" height="32" viewBox="0 0 32 32" fill="none" xmlns="http://www.w3.org/2000/svg">
<path d="M6.75439 7.65552V25.9386H25.2456V7.65552H6.75439ZM10.9681 9.58614H21.0319V11.4611H10.9681V9.58614ZM21.97 23.6493H10.03V14.8643H21.97V23.6493Z" fill="white"/>
<path d="M4.03857 27.8137H27.9611V32H4.03857V27.8137Z" fill="white"/>
<path d="M20.0948 17.9299V21.7743H11.9048V17.9299L15.9998 21.6756L20.0948 17.9299Z" fill="white"/>
<path d="M18.6188 16.7393L16.0001 19.1343L13.3813 16.7393H18.6188Z" fill="white"/>
<path d="M21.4336 0.662063C19.6566 0.223625 17.8301 0.0014375 16 0C14.17 0.0014375 12.3435 0.223625 10.5665 0.662063C7.84221 1.33413 5.14708 2.14531 2.44189 2.89L4.03877 5.78062H27.9613L29.5581 2.89C26.853 2.14531 24.1578 1.33413 21.4336 0.662063Z" fill="white"/>
</svg>
