<svg width="30" height="30" viewBox="0 0 30 30" fill="none" xmlns="http://www.w3.org/2000/svg">
<g clip-path="url(#clip0_133_5696)">
<path d="M15 0C6.73008 0 0 6.73008 0 15C0 23.2699 6.73008 30 15 30C23.2699 30 30 23.2699 30 15C30 6.73008 23.2699 0 15 0ZM15 28.0488C7.8041 28.0488 1.95117 22.1959 1.95117 15C1.95117 7.8041 7.8041 1.95117 15 1.95117C22.1959 1.95117 28.0488 7.8041 28.0488 15C28.0488 22.1959 22.1959 28.0488 15 28.0488ZM15 3.94629C8.90566 3.94629 3.94629 8.90566 3.94629 15C3.94629 21.0943 8.90566 26.0537 15 26.0537C21.0943 26.0537 26.0537 21.0943 26.0537 15C26.0537 8.90566 21.0943 3.94629 15 3.94629ZM20.5676 17.5834H14.3982C13.8475 17.5834 13.3986 17.1381 13.3986 16.5873V9.55137C13.3986 9.00059 13.8475 8.55527 14.3982 8.55527C14.949 8.55527 15.3943 9.00059 15.3943 9.55137V15.5912H20.5676C21.1184 15.5912 21.5637 16.0365 21.5637 16.5873C21.5637 17.1381 21.1184 17.5834 20.5676 17.5834Z" fill="white"/>
</g>
<defs>
<clipPath id="clip0_133_5696">
<rect width="30" height="30" fill="white"/>
</clipPath>
</defs>
</svg>
