<svg width="34" height="34" viewBox="0 0 34 34" fill="none" xmlns="http://www.w3.org/2000/svg">
<path d="M-1.11464e-06 8.5L-3.71547e-07 25.5C-2.73006e-07 27.7543 0.895533 29.9163 2.48959 31.5104C4.08365 33.1045 6.24566 34 8.5 34L25.5 34C27.7543 34 29.9163 33.1045 31.5104 31.5104C33.1045 29.9163 34 27.7543 34 25.5L34 8.5C34 6.24566 33.1045 4.08365 31.5104 2.48959C29.9163 0.895533 27.7543 -1.21318e-06 25.5 -1.11464e-06L8.5 -3.71547e-07C6.24566 -2.73006e-07 4.08365 0.895534 2.48959 2.48959C0.895532 4.08365 -1.21318e-06 6.24566 -1.11464e-06 8.5ZM25.5 1.59375C27.331 1.59586 29.0864 2.32416 30.3811 3.61887C31.6758 4.91359 32.4041 6.669 32.4062 8.5L32.4062 25.5C32.4041 27.331 31.6758 29.0864 30.3811 30.3811C29.0864 31.6758 27.331 32.4041 25.5 32.4062L8.5 32.4062C6.669 32.4041 4.91359 31.6758 3.61887 30.3811C2.32416 29.0864 1.59586 27.331 1.59375 25.5L1.59375 8.5C1.59586 6.669 2.32416 4.91359 3.61887 3.61887C4.91359 2.32416 6.66899 1.59586 8.5 1.59375L25.5 1.59375Z" fill="white"/>
<path d="M22.11 10.937L10.9372 22.1098L10.9372 17.6902L9.58984 17.6902L9.58984 24.4102L16.3098 24.4102L16.3098 23.0628L11.8897 23.0628L23.063 11.8895L23.063 16.3096L24.4104 16.3096L24.4104 9.58964L17.6904 9.58964L17.6904 10.937L22.11 10.937Z" fill="white"/>
</svg>
