<svg width="20" height="20" viewBox="0 0 20 20" fill="none" xmlns="http://www.w3.org/2000/svg">
<path d="M15.8327 5.41675C15.3327 5.41675 14.9993 5.75008 14.9993 6.25008V9.58342C14.9993 10.0834 14.666 10.4167 14.166 10.4167H6.16602L7.24935 9.33341C7.58268 9.00008 7.58268 8.50008 7.24935 8.16675C6.91602 7.83342 6.41602 7.83342 6.08268 8.16675L3.58268 10.6667C3.49935 10.7501 3.41602 10.8334 3.41602 10.9167C3.33268 11.0834 3.33268 11.3334 3.41602 11.5834C3.41602 11.6667 3.49935 11.7501 3.58268 11.8334L6.08268 14.3334C6.41602 14.6667 6.91602 14.6667 7.24935 14.3334C7.58268 14.0001 7.58268 13.5001 7.24935 13.1667L6.16602 12.0834H14.166C15.5827 12.0834 16.666 11.0001 16.666 9.58342V6.25008C16.666 5.75008 16.2493 5.41675 15.8327 5.41675Z" fill="white"/>
</svg>
