<svg width="204" height="59" viewBox="0 0 204 59" fill="none" xmlns="http://www.w3.org/2000/svg">
<g clip-path="url(#clip0_133_5714)">
<path d="M70.2151 0H11.9477C8.78105 0.00947469 5.74685 1.29558 3.50811 3.57726C1.26937 5.85895 0.00813278 8.9507 0 12.1769L0 33.8162C0.00813278 37.0424 1.26937 40.1341 3.50811 42.4158C5.74685 44.6975 8.78105 45.9836 11.9477 45.9931H41.1453L18.8793 23.3308V37.2799L10.2698 28.5264V9.25605H18.8793V23.3308L32.4256 9.28745H61.8918C65.318 9.28745 70.1623 11.9795 70.1623 17.8122C70.1623 23.6449 65.7276 25.9241 61.0903 25.9241H58.9589C56.0347 25.9241 55.1275 26.5478 55.1275 27.988V29.8814H68.6342L76.0194 37.1498H47.1653V27.2791C47.1653 21.1144 52.9784 20.392 56.0259 20.392H60.029C62.3542 20.392 62.4467 16.5873 60.0863 16.5873H37.2522L30.6773 23.2052L53.1061 45.9931H70.2151C73.3822 45.9836 76.4168 44.6977 78.6563 42.4161C80.8957 40.1345 82.1579 37.0428 82.1672 33.8162V12.1769C82.1579 8.95028 80.8957 5.85855 78.6563 3.57699C76.4168 1.29543 73.3822 0.00946917 70.2151 0Z" fill="#CD072D"/>
<path d="M95.8457 15.7438H94.0489V20.3516H91.4683V8.91504H94.0489V13.5408H95.9118L98.8623 8.91504H101.602L97.9287 14.4382L101.716 20.3516H98.7655L95.8457 15.7438Z" fill="#13367C"/>
<path d="M113.21 8.91504V20.3516H110.643V11.0731H106.798L106.714 13.4601C106.692 14.7846 106.564 16.105 106.331 17.4083C106.2 18.2638 105.849 19.0688 105.314 19.7414C105.059 20.016 104.749 20.2305 104.404 20.37C104.059 20.5095 103.689 20.5706 103.319 20.549C102.885 20.5368 102.454 20.4766 102.033 20.3696L102.196 18.1262C102.346 18.1727 102.502 18.1954 102.658 18.1935C103.279 18.1935 103.711 17.8166 103.957 17.0718C104.261 15.9292 104.418 14.7514 104.424 13.5677L104.583 8.9285L113.21 8.91504Z" fill="#13367C"/>
<path d="M128.963 9.48935C129.847 9.98193 130.582 10.713 131.085 11.6026C131.605 12.5229 131.872 13.5693 131.856 14.6311C131.873 15.6944 131.606 16.7425 131.085 17.6641C130.582 18.5536 129.847 19.2848 128.963 19.7773C128.031 20.2952 126.985 20.5594 125.924 20.5446C124.972 20.557 124.029 20.3483 123.167 19.9344C122.351 19.5398 121.643 18.9466 121.105 18.2072C120.568 17.4677 120.217 16.6047 120.085 15.6944H118.596V20.3516H116.015V8.91505H118.596V13.4017H120.102C120.264 12.5131 120.63 11.6764 121.172 10.961C121.71 10.2474 122.412 9.67895 123.216 9.30539C124.064 8.9066 124.99 8.7058 125.924 8.71764C126.985 8.70276 128.031 8.96702 128.963 9.48486M127.606 17.8301C128.113 17.5203 128.525 17.0728 128.795 16.5379C129.094 15.9474 129.246 15.2909 129.236 14.6266C129.245 13.9638 129.094 13.3089 128.795 12.7198C128.525 12.1849 128.113 11.7374 127.606 11.4276C127.095 11.1276 126.514 10.9697 125.924 10.9697C125.334 10.9697 124.754 11.1276 124.242 11.4276C123.735 11.7374 123.324 12.1849 123.053 12.7198C122.755 13.3089 122.603 13.9638 122.612 14.6266C122.603 15.2909 122.754 15.9474 123.053 16.5379C123.324 17.0728 123.735 17.5203 124.242 17.8301C124.754 18.1301 125.334 18.288 125.924 18.288C126.514 18.288 127.095 18.1301 127.606 17.8301Z" fill="#13367C"/>
<path d="M142.857 8.91498V20.3516H140.289V16.2328C139.424 16.5708 138.508 16.7529 137.581 16.7712C136.075 16.7712 134.917 16.4033 134.115 15.6719C133.314 14.9406 132.913 13.8773 132.913 12.4954V8.90601H135.48V12.1903C135.457 12.5131 135.5 12.8373 135.606 13.1423C135.712 13.4474 135.879 13.7267 136.097 13.9625C136.593 14.3917 137.235 14.6059 137.885 14.5592C138.712 14.5641 139.532 14.3914 140.289 14.0522V8.91498H142.857Z" fill="#13367C"/>
<path d="M154.333 18.2294V20.3516H145.645V8.91504H154.126V11.0417H148.225V13.5229H153.435V15.5823H148.225V18.2294H154.333Z" fill="#13367C"/>
<path d="M165.783 15.4028C166.156 15.8968 166.349 16.5073 166.329 17.1302C166.348 17.5896 166.254 18.0466 166.057 18.4601C165.859 18.8736 165.564 19.2306 165.198 19.4991C164.446 20.0675 163.368 20.3516 161.965 20.3516H156.434V8.91504H161.661C162.728 8.85301 163.789 9.12041 164.704 9.68226C165.055 9.9214 165.339 10.2484 165.53 10.6319C165.72 11.0154 165.81 11.4424 165.792 11.8718C165.803 12.4006 165.659 12.9208 165.378 13.3658C165.086 13.8089 164.681 14.1625 164.207 14.3888C164.822 14.5504 165.372 14.9052 165.779 15.4028M159.01 13.653H161.432C161.886 13.6866 162.337 13.5633 162.714 13.303C162.863 13.1782 162.98 13.0191 163.057 12.8389C163.133 12.6587 163.167 12.4626 163.154 12.2666C163.165 12.0715 163.13 11.8767 163.054 11.6976C162.977 11.5184 162.861 11.3599 162.714 11.2347C162.34 10.9722 161.89 10.8458 161.437 10.8757H159.014L159.01 13.653ZM163.691 16.9193C163.691 15.9741 163.082 15.5 161.864 15.497H159.01V18.3954H161.864C163.082 18.3954 163.691 17.9049 163.691 16.9238" fill="#13367C"/>
<path d="M170.584 19.7773C169.673 19.2919 168.912 18.5608 168.382 17.664C167.848 16.747 167.573 15.6972 167.589 14.631C167.575 13.5664 167.849 12.5184 168.382 11.6025C168.912 10.7057 169.673 9.97462 170.584 9.48927C171.559 8.98483 172.637 8.72192 173.73 8.72192C174.824 8.72192 175.902 8.98483 176.877 9.48927C177.791 9.98717 178.556 10.7287 179.089 11.6346C179.622 12.5406 179.903 13.577 179.903 14.6333C179.903 15.6895 179.622 16.7259 179.089 17.6319C178.556 18.5378 177.791 19.2794 176.877 19.7773C175.902 20.2817 174.824 20.5446 173.73 20.5446C172.637 20.5446 171.559 20.2817 170.584 19.7773ZM175.529 17.8255C176.06 17.5224 176.497 17.073 176.789 16.5289C177.09 15.9441 177.247 15.2936 177.247 14.6333C177.247 13.9729 177.09 13.3225 176.789 12.7376C176.497 12.1935 176.06 11.7441 175.529 11.441C174.979 11.1347 174.362 10.9741 173.735 10.9741C173.107 10.9741 172.49 11.1347 171.94 11.441C171.409 11.7441 170.973 12.1935 170.681 12.7376C170.38 13.3225 170.222 13.9729 170.222 14.6333C170.222 15.2936 170.38 15.9441 170.681 16.5289C170.973 17.073 171.409 17.5224 171.94 17.8255C172.49 18.1319 173.107 18.2924 173.735 18.2924C174.362 18.2924 174.979 18.1319 175.529 17.8255Z" fill="#13367C"/>
<path d="M181.879 8.91517H184.46V16.3631L189.806 8.91517H192.242V20.3518H189.679V12.9173L184.332 20.3518H181.879V8.91517ZM183.949 5.68027H185.711C185.733 6.4789 186.173 6.87373 187.032 6.87373C187.383 6.89899 187.731 6.79201 188.01 6.57312C188.128 6.45788 188.22 6.31816 188.281 6.16337C188.342 6.00858 188.37 5.84232 188.362 5.67578H190.123C190.145 6.02512 190.088 6.37489 189.957 6.69837C189.826 7.02186 189.623 7.31049 189.366 7.54225C188.684 8.01739 187.864 8.24207 187.041 8.17936C184.986 8.17936 183.949 7.34633 183.932 5.68027" fill="#13367C"/>
<path d="M95.8457 33.0714H94.0489V37.6793H91.4683V26.2427H94.0489V30.8685H95.9118L98.8623 26.2427H101.602L97.9287 31.7658L101.716 37.6793H98.7655L95.8457 33.0714Z" fill="#13367C"/>
<path d="M105.089 37.1049C104.179 36.6195 103.417 35.8885 102.887 34.9917C102.368 34.0692 102.095 33.0243 102.095 31.9609C102.095 30.8975 102.368 29.8526 102.887 28.9301C103.417 28.0333 104.179 27.3023 105.089 26.8169C106.064 26.3125 107.142 26.0496 108.236 26.0496C109.329 26.0496 110.407 26.3125 111.382 26.8169C112.301 27.3081 113.067 28.0492 113.596 28.9578C114.126 29.8663 114.398 30.9067 114.381 31.9631C114.396 33.0304 114.119 34.0808 113.58 34.9961C113.046 35.8899 112.286 36.6201 111.378 37.1094C110.403 37.6138 109.325 37.8767 108.231 37.8767C107.138 37.8767 106.06 37.6138 105.085 37.1094M110.03 35.1577C110.56 34.8532 110.997 34.4041 111.29 33.861C111.591 33.2762 111.748 32.6257 111.748 31.9654C111.748 31.3051 111.591 30.6546 111.29 30.0698C110.997 29.5266 110.56 29.0776 110.03 28.7731C109.48 28.4668 108.863 28.3063 108.236 28.3063C107.609 28.3063 106.992 28.4668 106.441 28.7731C105.913 29.0745 105.478 29.5206 105.186 30.0608C104.885 30.6456 104.728 31.2961 104.728 31.9564C104.728 32.6167 104.885 33.2672 105.186 33.852C105.478 34.3962 105.915 34.8455 106.446 35.1487C106.996 35.455 107.613 35.6155 108.24 35.6155C108.867 35.6155 109.484 35.455 110.035 35.1487" fill="#13367C"/>
<path d="M126.598 37.6793L126.58 30.8326L123.277 36.4678H122.123L118.821 30.9672V37.6793H116.385V26.2427H118.534L122.736 33.3496L126.871 26.2427H129.02L129.033 37.6793H126.598Z" fill="#13367C"/>
<path d="M142.055 26.2427V37.6793H139.47V28.4008H134.406V37.6793H131.825V26.2427H142.055Z" fill="#13367C"/>
<path d="M147.049 37.1049C146.138 36.6209 145.376 35.8895 144.847 34.9917C144.328 34.0692 144.055 33.0243 144.055 31.9609C144.055 30.8975 144.328 29.8526 144.847 28.9301C145.376 28.0323 146.138 27.3009 147.049 26.8169C148.024 26.3125 149.102 26.0496 150.196 26.0496C151.289 26.0496 152.367 26.3125 153.342 26.8169C154.259 27.3096 155.024 28.0511 155.553 28.9594C156.081 29.8677 156.353 30.9073 156.337 31.9631C156.354 33.0307 156.076 34.0816 155.535 34.9961C155.004 35.8914 154.242 36.622 153.334 37.1094C152.359 37.6138 151.28 37.8767 150.187 37.8767C149.093 37.8767 148.015 37.6138 147.04 37.1094M151.986 35.1577C152.52 34.8539 152.96 34.4029 153.254 33.8565C153.556 33.2711 153.714 32.6198 153.714 31.9587C153.714 31.2975 153.556 30.6462 153.254 30.0608C152.963 29.5178 152.528 29.0687 151.999 28.7641C151.448 28.4578 150.83 28.2973 150.202 28.2973C149.575 28.2973 148.957 28.4578 148.406 28.7641C147.875 29.0691 147.437 29.5179 147.142 30.0608C146.844 30.6465 146.688 31.2966 146.688 31.9564C146.688 32.6162 146.844 33.2663 147.142 33.852C147.438 34.3972 147.877 34.8476 148.41 35.1532C148.961 35.4595 149.579 35.62 150.207 35.62C150.835 35.62 151.452 35.4595 152.004 35.1532" fill="#13367C"/>
<path d="M168.637 26.2427V37.6793H166.039V32.9907H160.939V37.6793H158.345V26.2427H160.939V30.7518H166.039V26.2427H168.637Z" fill="#13367C"/>
<path d="M180.131 35.5526V37.6793H171.442V26.2427H179.924V28.3694H174.023V30.8505H179.233V32.9099H174.023V35.5526H180.131Z" fill="#13367C"/>
<path d="M192.524 26.2427V37.6793H189.93V32.9907H184.83V37.6793H182.232V26.2427H184.83V30.7518H189.93V26.2427H192.524Z" fill="#13367C"/>
<path d="M203.908 28.4008H200.318V37.6793H197.751V28.4008H194.175V26.2427H203.908V28.4008Z" fill="#13367C"/>
<path d="M5.02039 54.4325C5.37328 54.6393 5.6641 54.9402 5.86153 55.3029C6.06392 55.6887 6.1698 56.1195 6.1698 56.5569C6.1698 56.9944 6.06392 57.4251 5.86153 57.811C5.66615 58.1822 5.37541 58.4924 5.02039 58.7083C4.6527 58.9204 4.23619 59.0288 3.81373 59.0224C3.45581 59.0276 3.10016 58.9637 2.76561 58.8339C2.46439 58.7129 2.19572 58.5207 1.98173 58.2731L2.42211 57.8244C2.59903 58.0121 2.81292 58.1595 3.04973 58.2569C3.28654 58.3544 3.54091 58.3996 3.79612 58.3898C4.08142 58.3932 4.36302 58.3238 4.61524 58.1879C4.85959 58.0558 5.06715 57.8629 5.21856 57.627C5.37457 57.3781 5.47111 57.0953 5.50041 56.8015H3.2104V56.2406H5.47399C5.4345 55.959 5.33205 55.6904 5.17453 55.4555C5.01993 55.231 4.81448 55.0479 4.5756 54.9215C4.32818 54.7961 4.05482 54.733 3.7785 54.7376C3.52339 54.7286 3.26927 54.7742 3.03258 54.8716C2.7959 54.969 2.58192 55.1159 2.4045 55.3029L1.96411 54.8542C2.18396 54.6022 2.46049 54.4082 2.77002 54.2889C3.10235 54.1563 3.45684 54.0907 3.81373 54.096C4.23657 54.0912 4.65305 54.2011 5.02039 54.4145" fill="#CD072D"/>
<path d="M15.9243 54.1677V58.9461H15.2549V56.8149H12.5642V58.9461H11.8904V54.1677H12.5642V56.2226H15.2549V54.1677H15.9243Z" fill="#CD072D"/>
<path d="M25.4279 58.3538V58.9461H22.0237V54.1677H25.331V54.7645H22.6931V56.2316H25.0447V56.8104H22.6931V58.3538H25.4279Z" fill="#CD072D"/>
<path d="M34.3765 54.6121C34.5415 54.7683 34.6731 54.9575 34.7631 55.1679C34.8531 55.3782 34.8996 55.6052 34.8996 55.8347C34.8996 56.0642 34.8531 56.2912 34.7631 56.5015C34.6731 56.7119 34.5415 56.9011 34.3765 57.0573C33.9671 57.3758 33.4596 57.5349 32.9453 57.506H31.7827V58.9552H31.1133V54.1679H32.9453C33.4596 54.139 33.9671 54.2981 34.3765 54.6166M33.9097 56.6311C34.0216 56.5328 34.1099 56.4097 34.1679 56.2713C34.2259 56.1329 34.2521 55.9828 34.2444 55.8325C34.2528 55.6827 34.2269 55.5331 34.1688 55.3953C34.1107 55.2575 34.022 55.1353 33.9097 55.0383C33.6258 54.8355 33.2825 54.7373 32.9365 54.7601H31.7827V56.9048H32.9233C33.2688 56.9289 33.6121 56.8324 33.8965 56.6311" fill="#CD072D"/>
<path d="M43.5365 54.7645H41.1232L41.132 58.9461H40.467V54.1677H43.5409L43.5365 54.7645Z" fill="#CD072D"/>
<path d="M48.9753 54.1677H49.6403V57.8558L52.4148 54.1677H53.0313V58.9461H52.3707V55.267L49.5919 58.9461H48.9753V54.1677Z" fill="#CD072D"/>
<path d="M62.5657 54.1677V58.9461H61.9095V57.5552H60.6147H60.4342L59.4962 58.955H58.7871L59.8221 57.4385C59.5093 57.3428 59.2377 57.1419 59.0514 56.8687C58.8686 56.5806 58.7765 56.2425 58.7871 55.8996C58.774 55.6625 58.8131 55.4255 58.9015 55.2058C58.9899 54.9861 59.1253 54.7893 59.298 54.6299C59.6897 54.3133 60.1816 54.1537 60.6808 54.1812L62.5657 54.1677ZM59.7648 56.6982C60.0155 56.8973 60.3282 56.9977 60.6456 56.9809H61.8875V54.7645H60.6852C60.3536 54.7424 60.0253 54.8427 59.7604 55.0471C59.6504 55.154 59.5646 55.284 59.5091 55.4282C59.4536 55.5723 59.4296 55.7271 59.4389 55.8816C59.4291 56.032 59.4511 56.1827 59.5036 56.3236C59.556 56.4645 59.6376 56.5923 59.7428 56.6982" fill="#CD072D"/>
<path d="M78.7411 56.8822C78.91 57.0966 78.9976 57.3657 78.9877 57.6405C78.9976 57.8257 78.9626 58.0106 78.8858 58.1788C78.809 58.3471 78.6928 58.4935 78.5473 58.6051C78.1633 58.8585 77.709 58.9782 77.2526 58.9461H75.1079V54.1678H77.1249C77.5485 54.1427 77.9691 54.2542 78.3271 54.4863C78.4682 54.5866 78.5824 54.7212 78.6593 54.8779C78.7363 55.0347 78.7734 55.2085 78.7675 55.3837C78.7749 55.6198 78.7086 55.8523 78.5781 56.0477C78.4415 56.2357 78.2529 56.3778 78.0365 56.456C78.3144 56.5112 78.5676 56.6559 78.7587 56.8687M75.7465 56.272H77.0676C77.3314 56.2891 77.5937 56.2199 77.8163 56.0746C77.9026 56.006 77.9713 55.9171 78.0165 55.8155C78.0618 55.7139 78.0822 55.6027 78.0761 55.4913C78.0825 55.3795 78.0617 55.2677 78.0156 55.166C77.9695 55.0643 77.8996 54.9757 77.8119 54.9081C77.5921 54.7597 77.3307 54.6888 77.0676 54.7062H75.7465V56.272ZM78.2919 57.5866C78.2995 57.4711 78.2784 57.3555 78.2307 57.2505C78.183 57.1454 78.1102 57.0543 78.0189 56.9854C77.776 56.838 77.495 56.7691 77.213 56.788H75.7465V58.4077H77.213C77.9308 58.4077 78.2919 58.134 78.2919 57.5866Z" fill="#CD072D"/>
<path d="M88.1432 58.3538V58.9461H84.739V54.1677H88.0507V54.7645H85.4084V56.2316H87.7601V56.8104H85.4084V58.3538H88.1432Z" fill="#CD072D"/>
<path d="M97.0963 54.6121C97.2601 54.769 97.3907 54.9584 97.4799 55.1687C97.5692 55.3789 97.6152 55.6056 97.6152 55.8347C97.6152 56.0638 97.5692 56.2904 97.4799 56.5007C97.3907 56.711 97.2601 56.9004 97.0963 57.0573C96.6851 57.3757 96.1763 57.5348 95.6606 57.506H94.5024V58.9552H93.833V54.1679H95.6606C96.1763 54.1391 96.6851 54.2981 97.0963 54.6165M96.6118 56.6356C96.7245 56.5379 96.8133 56.4149 96.8714 56.2764C96.9295 56.1378 96.9552 55.9873 96.9465 55.8369C96.9556 55.6871 96.93 55.5372 96.8718 55.3993C96.8137 55.2614 96.7247 55.1393 96.6118 55.0428C96.3299 54.8393 95.9877 54.741 95.643 54.7646H94.5024V56.9092H95.643C95.9872 56.9341 96.3294 56.8375 96.6118 56.6356Z" fill="#CD072D"/>
<path d="M107.221 54.1677V58.9461H106.547V56.8149H103.856V58.9461H103.187V54.1677H103.856V56.2226H106.547V54.1677H107.221Z" fill="#CD072D"/>
<path d="M116.658 56.2181C116.811 56.3596 116.929 56.5345 117.006 56.7296C117.082 56.9247 117.114 57.1349 117.099 57.3443C117.112 57.5672 117.076 57.7904 116.993 57.9971C116.91 58.2038 116.782 58.3886 116.619 58.5378C116.224 58.8346 115.739 58.9793 115.249 58.9461H113.311V54.1677H113.976V55.8323H115.381C115.841 55.8017 116.297 55.9385 116.667 56.2181M116.13 58.1384C116.236 58.0407 116.32 57.9197 116.374 57.7846C116.428 57.6494 116.451 57.5035 116.442 57.3578C116.442 56.7027 116.037 56.3752 115.236 56.3752H113.989V58.4076H115.236C115.551 58.4263 115.863 58.331 116.117 58.1384M117.843 54.1677H118.503V58.9461H117.843V54.1677Z" fill="#CD072D"/>
<path d="M124.876 54.1677L126.1 55.9175L127.324 54.1677H128.108L126.523 56.4604L128.236 58.9461H127.448L126.1 57.0437L124.761 58.9461H123.991L125.699 56.4873L124.105 54.1677H124.876Z" fill="#CD072D"/>
<path d="M143.42 54.6121C143.584 54.769 143.715 54.9584 143.804 55.1687C143.893 55.3789 143.939 55.6056 143.939 55.8347C143.939 56.0638 143.893 56.2904 143.804 56.5007C143.715 56.711 143.584 56.9004 143.42 57.0573C143.009 57.3757 142.5 57.5348 141.985 57.506H140.827V58.9552H140.157V54.1679H141.985C142.5 54.1391 143.009 54.2981 143.42 54.6165M142.936 56.6356C143.049 56.5379 143.138 56.4149 143.196 56.2764C143.254 56.1378 143.279 55.9873 143.271 55.8369C143.28 55.6871 143.254 55.5372 143.196 55.3993C143.138 55.2614 143.049 55.1393 142.936 55.0428C142.654 54.8399 142.312 54.7417 141.967 54.7646H140.827V56.9092H141.967C142.311 56.9334 142.653 56.8368 142.936 56.6356Z" fill="#CD072D"/>
<path d="M152.915 58.3538V58.9461H149.511V54.1677H152.818V54.7645H150.18V56.2316H152.532V56.8104H150.18V58.3538H152.915Z" fill="#CD072D"/>
<path d="M164.475 54.1677V58.9461H158.601V54.1677H159.266V58.3538H161.212V54.1677H161.868V58.3538H163.819V54.1677H164.475Z" fill="#CD072D"/>
<path d="M173.979 58.3538V58.9461H170.575V54.1677H173.882V54.7645H171.244V56.2316H173.596V56.8104H171.244V58.3538H173.979Z" fill="#CD072D"/>
<path d="M183.698 54.1677V58.9461H183.029V56.8149H180.334V58.9461H179.664V54.1677H180.334V56.2226H183.029V54.1677H183.698Z" fill="#CD072D"/>
<path d="M189.798 54.1677H190.458V57.8558L193.233 54.1677H193.849V58.9461H193.193V55.267L190.414 58.9461H189.798V54.1677Z" fill="#CD072D"/>
<path d="M199.935 54.1679H200.596V57.8784L203.37 54.1904H203.987V58.9687H203.331V55.2896L200.547 58.9687H199.935V54.1679ZM201.102 53.5936C201.003 53.5094 200.923 53.4028 200.87 53.2822C200.818 53.1615 200.793 53.0301 200.798 52.8982H201.274C201.272 52.9768 201.288 53.0549 201.32 53.1264C201.352 53.1979 201.399 53.2611 201.459 53.311C201.6 53.4174 201.773 53.4699 201.948 53.459C202.123 53.4676 202.295 53.4154 202.437 53.311C202.498 53.262 202.547 53.1991 202.579 53.1275C202.612 53.0558 202.628 52.9773 202.626 52.8982H203.097C203.102 53.0298 203.076 53.1607 203.023 53.2805C202.969 53.4004 202.889 53.5061 202.789 53.5891C202.544 53.7664 202.248 53.8534 201.948 53.8359C201.647 53.8558 201.349 53.7703 201.102 53.5936Z" fill="#CD072D"/>
</g>
<defs>
<clipPath id="clip0_133_5714">
<rect width="204" height="59" fill="white"/>
</clipPath>
</defs>
</svg>
