<svg width="23" height="23" viewBox="0 0 23 23" fill="none" xmlns="http://www.w3.org/2000/svg">
<g clip-path="url(#clip0_78_6488)">
<circle cx="11.5" cy="11.5" r="9.5" fill="white"/>
<path d="M11.5 0C9.22552 0 7.00211 0.674463 5.11095 1.9381C3.21978 3.20174 1.7458 4.99779 0.875391 7.09914C0.00498281 9.20049 -0.222756 11.5128 0.220974 13.7435C0.664704 15.9743 1.75997 18.0234 3.36828 19.6317C4.97658 21.24 7.02568 22.3353 9.25647 22.779C11.4872 23.2228 13.7995 22.995 15.9009 22.1246C18.0022 21.2542 19.7983 19.7802 21.0619 17.8891C22.3255 15.9979 23 13.7745 23 11.5C23 8.45001 21.7884 5.52494 19.6317 3.36827C17.4751 1.2116 14.55 0 11.5 0ZM18.1282 16.0007C17.7936 16.0477 16.1575 16.0007 16.0726 16.0007C15.6496 16.0062 15.2415 15.8447 14.9369 15.5511C14.5919 15.2179 14.2835 14.852 13.9464 14.5057C13.847 14.3994 13.7391 14.3015 13.6236 14.213C13.3544 14.0065 13.0878 14.0522 12.961 14.3711C12.8621 14.7143 12.793 15.0654 12.7545 15.4205C12.7323 15.7419 12.5285 15.9432 12.1678 15.9654C11.9443 15.9772 11.7209 15.9824 11.5 15.9759C10.695 15.9715 9.90266 15.7757 9.18824 15.4048C8.41502 14.9743 7.74128 14.3857 7.21103 13.6772C6.33938 12.5638 5.64285 11.3406 5.0208 10.0795C4.98813 10.0155 4.3504 8.65898 4.33472 8.59494C4.27722 8.38193 4.33472 8.17676 4.51114 8.10489C4.62353 8.06176 6.72489 8.10489 6.76018 8.10489C6.91651 8.10382 7.06914 8.1525 7.19599 8.24388C7.32284 8.33526 7.41735 8.46461 7.46586 8.61324C7.85465 9.60772 8.38647 10.5402 9.04449 11.3811C9.13667 11.4931 9.2445 11.5912 9.36466 11.6725C9.53586 11.7901 9.6979 11.7496 9.76847 11.551C9.8522 11.2772 9.90137 10.994 9.91483 10.7081C9.9266 10.1409 9.91483 9.76847 9.88347 9.20131C9.86256 8.83801 9.73449 8.52045 9.1987 8.41722C9.03404 8.38716 9.01966 8.25125 9.12552 8.11534C9.34637 7.83437 9.64824 7.78864 9.98671 7.77165C10.4911 7.7429 10.9956 7.7625 11.5 7.77165H11.6098C11.8293 7.77085 12.0483 7.79319 12.2632 7.83829C12.3903 7.86424 12.5056 7.93053 12.5921 8.02731C12.6785 8.12408 12.7313 8.24616 12.7428 8.3754C12.7687 8.51849 12.7797 8.6639 12.7755 8.80926C12.7624 9.42739 12.7323 10.0468 12.7258 10.6649C12.7197 10.9102 12.7421 11.1553 12.7924 11.3955C12.8643 11.7248 13.0904 11.8071 13.3152 11.5693C13.6065 11.2625 13.8734 10.9335 14.1136 10.5852C14.5394 9.95047 14.8902 9.26857 15.1591 8.55312C15.3055 8.18591 15.4205 8.10489 15.8125 8.10489H18.0419C18.1745 8.10256 18.3067 8.12018 18.434 8.15716C18.479 8.169 18.5212 8.19002 18.5577 8.2189C18.5943 8.24778 18.6245 8.2839 18.6465 8.325C18.6684 8.3661 18.6817 8.41129 18.6854 8.45774C18.6891 8.50419 18.6831 8.5509 18.6679 8.59494C18.5581 9.08369 18.2942 9.50057 18.0145 9.90176C17.561 10.5434 17.0827 11.1694 16.6188 11.8032C16.563 11.8851 16.5119 11.9702 16.4659 12.058C16.2908 12.3743 16.3039 12.5507 16.5574 12.812C16.9625 13.2289 17.3951 13.6184 17.7858 14.047C18.0724 14.3589 18.3312 14.6951 18.5594 15.0519C18.8378 15.5015 18.6614 15.9249 18.1282 16.0007Z" fill="#A2B3D1"/>
</g>
<defs>
<clipPath id="clip0_78_6488">
<rect width="23" height="23" fill="white"/>
</clipPath>
</defs>
</svg>
