<svg width="14" height="14" viewBox="0 0 14 14" fill="none" xmlns="http://www.w3.org/2000/svg">
<g clip-path="url(#clip0_78_6468)">
<path d="M13.9694 10.8474C13.9298 10.7281 13.6779 10.5524 13.2138 10.3206C13.088 10.2475 12.9089 10.1482 12.6771 10.0222C12.4451 9.89627 12.2345 9.7802 12.0457 9.67412C11.8565 9.56807 11.6793 9.46533 11.5137 9.36605C11.4872 9.34616 11.4044 9.28825 11.2652 9.19192C11.1258 9.09587 11.0083 9.02458 10.912 8.97808C10.816 8.93187 10.7214 8.90861 10.6286 8.90861C10.4961 8.90861 10.3305 9.00312 10.1317 9.19192C9.93294 9.38095 9.7506 9.58629 9.58496 9.80855C9.4193 10.0307 9.2436 10.236 9.05818 10.425C8.87249 10.614 8.71992 10.7084 8.60075 10.7084C8.54091 10.7084 8.46632 10.6917 8.37692 10.6588C8.28755 10.6257 8.21957 10.5973 8.17291 10.5744C8.12666 10.551 8.04729 10.5048 7.93452 10.435C7.82155 10.3653 7.75872 10.3272 7.74549 10.3206C6.8374 9.81666 6.05858 9.23994 5.4089 8.59054C4.75943 7.94076 4.18264 7.16201 3.67888 6.25382C3.67227 6.24055 3.63406 6.17755 3.56452 6.06492C3.49486 5.95219 3.44844 5.87275 3.42525 5.82622C3.40205 5.77987 3.37388 5.71189 3.34079 5.62242C3.30771 5.53295 3.2911 5.45843 3.2911 5.3987C3.2911 5.27945 3.38558 5.12692 3.57451 4.94129C3.76341 4.75577 3.96895 4.58004 4.19093 4.41444C4.41309 4.24885 4.61842 4.0665 4.80739 3.86771C4.99628 3.66882 5.09073 3.50319 5.09073 3.37064C5.09073 3.2779 5.06754 3.18334 5.02118 3.08726C4.9748 2.99097 4.90354 2.87346 4.80739 2.73419C4.7112 2.59499 4.65321 2.51221 4.63329 2.48557C4.53397 2.31997 4.43134 2.14267 4.32515 1.95374C4.21897 1.76484 4.10307 1.55429 3.97706 1.32231C3.85117 1.09044 3.75181 0.911398 3.67881 0.785467C3.44694 0.321549 3.27131 0.0695476 3.15197 0.0299156C3.10554 0.0100299 3.03589 0 2.94318 0C2.76411 0 2.5305 0.0330847 2.24217 0.0994632C1.95374 0.165737 1.72678 0.23525 1.56104 0.30828C1.2296 0.44741 0.878313 0.851741 0.507067 1.52113C0.169011 2.1441 0 2.7607 0 3.37046C0 3.5493 0.0115971 3.72329 0.0347912 3.89247C0.0579854 4.06148 0.0994283 4.25209 0.159155 4.46425C0.218777 4.67634 0.266872 4.83389 0.30323 4.93649C0.339624 5.03915 0.407569 5.22307 0.507032 5.48831C0.606356 5.75347 0.666083 5.9158 0.685969 5.97545C0.917945 6.6251 1.19304 7.20506 1.51117 7.7155C2.03461 8.56393 2.74892 9.44075 3.6537 10.3456C4.55852 11.2504 5.43516 11.9647 6.28366 12.4883C6.79404 12.8064 7.37421 13.0815 8.02375 13.3136C8.08344 13.3334 8.24576 13.393 8.51082 13.4927C8.77599 13.592 8.95997 13.66 9.06264 13.6965C9.16534 13.733 9.32293 13.7811 9.53485 13.8408C9.74722 13.9005 9.93765 13.942 10.1067 13.9653C10.2758 13.9882 10.4498 14 10.6287 14C11.2384 14 11.855 13.8309 12.4781 13.4929C13.1474 13.1218 13.5517 12.7704 13.6908 12.4387C13.7641 12.2732 13.8334 12.0462 13.8997 11.7577C13.9661 11.4694 13.9992 11.2359 13.9992 11.0568C13.9994 10.9637 13.9894 10.8942 13.9694 10.8474Z" fill="#A2B3D1"/>
</g>
<defs>
<clipPath id="clip0_78_6468">
<rect width="14" height="14" fill="white"/>
</clipPath>
</defs>
</svg>
