<svg width="20" height="20" viewBox="0 0 20 20" fill="none" xmlns="http://www.w3.org/2000/svg">
<path d="M16.6606 7.37896H12.2556L13.2198 4.96896C13.3577 4.62561 13.3917 4.24933 13.3176 3.88683C13.2435 3.52432 13.0646 3.19154 12.8031 2.9298C12.656 2.78286 12.4787 2.66971 12.2835 2.59818C12.0883 2.52666 11.8799 2.49848 11.6727 2.51561C11.4655 2.53274 11.2645 2.59476 11.0837 2.69737C10.9029 2.79997 10.7466 2.94071 10.6256 3.1098L8.04979 6.71396C7.66534 7.25088 7.23782 7.7556 6.77146 8.22313L5.94646 9.04813C5.90889 9.08564 5.8791 9.1302 5.8588 9.17925C5.83849 9.2283 5.82807 9.28088 5.82813 9.33396V15.5348C5.82806 15.6422 5.87062 15.7453 5.94646 15.8215L6.87063 16.7498C7.10605 16.9864 7.38605 17.1741 7.69444 17.3018C8.00284 17.4295 8.33349 17.4948 8.66729 17.494H13.689C14.0854 17.4936 14.4734 17.3785 14.8058 17.1624C15.1382 16.9464 15.401 16.6387 15.5623 16.2765L18.0256 10.734C18.1832 10.3805 18.2642 9.99764 18.2631 9.61063V8.9823C18.2627 8.55735 18.0937 8.14991 17.7933 7.84935C17.4929 7.54879 17.0856 7.37962 16.6606 7.37896Z" fill="#A2B3D1"/>
<path d="M3.12185 8.50586C2.73574 8.50586 2.36544 8.65924 2.09242 8.93226C1.8194 9.20528 1.66602 9.57558 1.66602 9.96169V15.4359C1.66602 15.822 1.8194 16.1923 2.09242 16.4653C2.36544 16.7383 2.73574 16.8917 3.12185 16.8917C3.50796 16.8917 3.87826 16.7383 4.15128 16.4653C4.4243 16.1923 4.57768 15.822 4.57768 15.4359V9.96169C4.57768 9.57558 4.4243 9.20528 4.15128 8.93226C3.87826 8.65924 3.50796 8.50586 3.12185 8.50586Z" fill="#A2B3D1"/>
</svg>
