<svg width="23" height="23" viewBox="0 0 23 23" fill="none" xmlns="http://www.w3.org/2000/svg">
<g clip-path="url(#clip0_78_6485)">
<circle cx="12.5" cy="12" r="9.5" fill="white"/>
<path d="M11.5 23C17.8528 23 23 17.8528 23 11.5C23 5.14721 17.8528 0 11.5 0C5.14721 0 0 5.14721 0 11.5C0 17.8528 5.14721 23 11.5 23ZM5.26221 11.2508L16.3501 6.97571C16.8647 6.78979 17.3142 7.10125 17.1475 7.87942L17.1484 7.87846L15.2605 16.7728C15.1206 17.4033 14.7459 17.5567 14.2217 17.2596L11.3467 15.1407L9.95996 16.4766C9.80662 16.63 9.67725 16.7593 9.38017 16.7593L9.58429 13.8335L14.9126 9.01983C15.1445 8.81571 14.8609 8.70071 14.5552 8.90388L7.97046 13.0496L5.13188 12.1641C4.51567 11.9686 4.50225 11.5479 5.26221 11.2508Z" fill="#A2B3D1"/>
</g>
<defs>
<clipPath id="clip0_78_6485">
<rect width="23" height="23" fill="white"/>
</clipPath>
</defs>
</svg>
