<svg width="10" height="10" viewBox="0 0 10 10" fill="none" xmlns="http://www.w3.org/2000/svg">
<g clip-path="url(#clip0_123_9775)">
<path d="M9.44445 4.44434H0.555547C0.24875 4.44434 0 4.69309 0 4.99988C0 5.30668 0.24875 5.55543 0.555547 5.55543H9.44443C9.75125 5.55543 10 5.30668 10 4.99988C10 4.69309 9.75125 4.44434 9.44445 4.44434Z" fill="white"/>
<path d="M9.44445 0.555664H0.555547C0.24875 0.555664 0 0.804434 0 1.11123C0 1.41803 0.24875 1.66678 0.555547 1.66678H9.44443C9.75123 1.66678 9.99998 1.41803 9.99998 1.11123C9.99998 0.804434 9.75125 0.555664 9.44445 0.555664Z" fill="white"/>
<path d="M9.44445 8.3335H0.555547C0.24875 8.3335 0 8.58225 0 8.88904C0 9.19584 0.24875 9.44459 0.555547 9.44459H9.44443C9.75123 9.44459 9.99998 9.19584 9.99998 8.88904C9.99998 8.58225 9.75125 8.3335 9.44445 8.3335Z" fill="white"/>
</g>
<defs>
<clipPath id="clip0_123_9775">
<rect width="10" height="10" fill="white"/>
</clipPath>
</defs>
</svg>
