<svg width="23" height="23" viewBox="0 0 23 23" fill="none" xmlns="http://www.w3.org/2000/svg">
<path d="M10.7811 19.4064C10.7811 19.8328 10.6547 20.2497 10.4177 20.6043C10.1808 20.9589 9.84403 21.2353 9.45003 21.3985C9.05603 21.5617 8.62248 21.6044 8.20421 21.5212C7.78593 21.438 7.40173 21.2326 7.10017 20.9311C6.79861 20.6295 6.59325 20.2453 6.51005 19.827C6.42685 19.4087 6.46955 18.9752 6.63275 18.5812C6.79596 18.1872 7.07233 17.8504 7.42692 17.6135C7.78152 17.3766 8.1984 17.2501 8.62487 17.2501C9.19674 17.2501 9.74519 17.4773 10.1496 17.8817C10.5539 18.286 10.7811 18.8345 10.7811 19.4064ZM17.2499 17.2501C16.8234 17.2501 16.4065 17.3766 16.0519 17.6135C15.6973 17.8504 15.421 18.1872 15.2578 18.5812C15.0946 18.9752 15.0519 19.4087 15.1351 19.827C15.2183 20.2453 15.4236 20.6295 15.7252 20.9311C16.0267 21.2326 16.4109 21.438 16.8292 21.5212C17.2475 21.6044 17.681 21.5617 18.075 21.3985C18.469 21.2353 18.8058 20.9589 19.0427 20.6043C19.2797 20.2497 19.4061 19.8328 19.4061 19.4064C19.4061 18.8345 19.1789 18.286 18.7746 17.8817C18.3702 17.4773 17.8217 17.2501 17.2499 17.2501ZM21.5408 6.64351L19.3846 15.2685C19.3456 15.4239 19.2559 15.5619 19.1296 15.6605C19.0032 15.7591 18.8476 15.8126 18.6874 15.8126H7.18737C7.02529 15.8127 6.86794 15.758 6.74086 15.6574C6.61378 15.5568 6.52442 15.4162 6.48731 15.2584L3.70431 3.42998L1.929 2.83844C1.7479 2.77821 1.59816 2.6485 1.5127 2.47785C1.42724 2.30721 1.41307 2.1096 1.47331 1.92851C1.53355 1.74741 1.66325 1.59767 1.8339 1.51221C2.00455 1.42675 2.20215 1.41258 2.38325 1.47282L4.5395 2.19157C4.65595 2.23028 4.76055 2.29816 4.84334 2.38875C4.92612 2.47934 4.98434 2.58961 5.01243 2.70907L5.72759 5.7501H20.8436C20.9529 5.7501 21.0607 5.77501 21.1589 5.82294C21.2571 5.87086 21.343 5.94053 21.4102 6.02667C21.4774 6.1128 21.5241 6.21312 21.5468 6.32C21.5694 6.42689 21.5674 6.53753 21.5408 6.64351ZM15.8124 12.2189C15.8124 12.0282 15.7366 11.8454 15.6019 11.7106C15.4671 11.5758 15.2842 11.5001 15.0936 11.5001H10.7811C10.5905 11.5001 10.4077 11.5758 10.2729 11.7106C10.1381 11.8454 10.0624 12.0282 10.0624 12.2189C10.0624 12.4095 10.1381 12.5923 10.2729 12.7271C10.4077 12.8619 10.5905 12.9376 10.7811 12.9376H15.0936C15.2842 12.9376 15.4671 12.8619 15.6019 12.7271C15.7366 12.5923 15.8124 12.4095 15.8124 12.2189ZM16.5311 9.34385C16.5311 9.15323 16.4554 8.97041 16.3206 8.83562C16.1858 8.70083 16.003 8.6251 15.8124 8.6251H10.0624C9.87175 8.6251 9.68893 8.70083 9.55414 8.83562C9.41935 8.97041 9.34362 9.15323 9.34362 9.34385C9.34362 9.53448 9.41935 9.71729 9.55414 9.85208C9.68893 9.98688 9.87175 10.0626 10.0624 10.0626H15.8124C16.003 10.0626 16.1858 9.98688 16.3206 9.85208C16.4554 9.71729 16.5311 9.53448 16.5311 9.34385Z" fill="#A2B3D1"/>
</svg>
