<svg width="18" height="18" viewBox="0 0 18 18" fill="none" xmlns="http://www.w3.org/2000/svg">
<g clip-path="url(#clip0_123_9741)">
<path d="M9 0.000488281C4.02996 0.000488281 0 4.02965 0 9.00009C0 13.9705 4.02956 17.9997 9 17.9997C13.9708 17.9997 18 13.9705 18 9.00009C18 4.02965 13.9708 0.000488281 9 0.000488281ZM9 2.69147C10.6446 2.69147 11.9772 4.02452 11.9772 5.66828C11.9772 7.31244 10.6446 8.64509 9 8.64509C7.35623 8.64509 6.02359 7.31244 6.02359 5.66828C6.02359 4.02452 7.35623 2.69147 9 2.69147ZM8.99802 15.6467C7.35781 15.6467 5.85557 15.0494 4.69687 14.0607C4.41461 13.8199 4.25173 13.4669 4.25173 13.0965C4.25173 11.4294 5.60098 10.0951 7.26847 10.0951H10.7323C12.4002 10.0951 13.7443 11.4294 13.7443 13.0965C13.7443 13.4673 13.5822 13.8195 13.2996 14.0603C12.1413 15.0494 10.6386 15.6467 8.99802 15.6467Z" fill="#CD072D"/>
</g>
<defs>
<clipPath id="clip0_123_9741">
<rect width="18" height="18" fill="white"/>
</clipPath>
</defs>
</svg>
