<svg width="30" height="30" viewBox="0 0 30 30" fill="none" xmlns="http://www.w3.org/2000/svg">
<g clip-path="url(#clip0_228_20618)">
<path d="M24.3516 23.4102H29.1211C29.6065 23.4102 30 23.0166 30 22.5312V17.7617C26.8854 17.7617 24.3516 20.2956 24.3516 23.4102Z" fill="white"/>
<path d="M29.1211 0H24.3516C24.3516 3.11455 26.8854 5.64844 30 5.64844V0.878906C30 0.393516 29.6065 0 29.1211 0Z" fill="white"/>
<path d="M5.64844 0H0.878906C0.393516 0 0 0.393516 0 0.878906V5.64844C3.11455 5.64844 5.64844 3.11455 5.64844 0Z" fill="white"/>
<path d="M0 17.7617V22.5312C0 23.0166 0.393516 23.4102 0.878906 23.4102H5.64844C5.64844 20.2956 3.11455 17.7617 0 17.7617Z" fill="white"/>
<path d="M12.1094 24.3516V29.3147C12.1094 29.5918 12.2763 29.8416 12.5323 29.9477C12.7883 30.0537 13.083 29.9951 13.279 29.7991L14.9961 28.0821L16.7133 29.7992C16.9092 29.9951 17.2039 30.0537 17.4599 29.9477C17.7159 29.8417 17.8829 29.5918 17.8829 29.3147V24.3516C17.0423 24.8689 16.0535 25.1678 14.9961 25.1678C13.9387 25.1678 12.95 24.8689 12.1094 24.3516Z" fill="white"/>
<path d="M22.5938 0H7.40625C7.40625 4.08381 4.08381 7.40625 0 7.40625V16.0039C4.08381 16.0039 7.40625 19.3263 7.40625 23.4101H10.9632C10.0416 22.4228 9.4766 21.0985 9.4766 19.6445C9.47654 16.5989 11.9544 14.1211 15 14.1211C18.0456 14.1211 20.5235 16.5989 20.5235 19.6446C20.5235 21.0986 19.9584 22.4228 19.0368 23.4102H22.5938C22.5938 19.3264 25.9162 16.0039 30 16.0039V7.40625C25.9162 7.40625 22.5938 4.08381 22.5938 0ZM18.7656 12.1133H11.2344C10.749 12.1133 10.3554 11.7197 10.3554 11.2344C10.3554 10.749 10.749 10.3554 11.2344 10.3554H18.7656C19.251 10.3554 19.6445 10.749 19.6445 11.2344C19.6445 11.7197 19.251 12.1133 18.7656 12.1133ZM21.5899 8.34768H8.41014C7.92475 8.34768 7.53123 7.95416 7.53123 7.46877C7.53123 6.98338 7.92475 6.58986 8.41014 6.58986H21.5899C22.0753 6.58986 22.4688 6.98338 22.4688 7.46877C22.4688 7.95416 22.0753 8.34768 21.5899 8.34768Z" fill="white"/>
<path d="M15 23.4102C17.0797 23.4102 18.7657 21.7243 18.7657 19.6446C18.7657 17.5648 17.0797 15.8789 15 15.8789C12.9203 15.8789 11.2344 17.5648 11.2344 19.6446C11.2344 21.7243 12.9203 23.4102 15 23.4102Z" fill="white"/>
</g>
<defs>
<clipPath id="clip0_228_20618">
<rect width="30" height="30" fill="white"/>
</clipPath>
</defs>
</svg>
