<svg width="50" height="50" viewBox="0 0 50 50" fill="none" xmlns="http://www.w3.org/2000/svg">
<rect width="50" height="50" rx="7" fill="#CD072D"/>
<path d="M38.5022 18.9552C38.5022 18.2567 38.2247 17.5867 37.7308 17.0927C37.2368 16.5988 36.5669 16.3213 35.8683 16.3213H35.3415V29.4909C35.3415 30.1895 35.064 30.8594 34.5701 31.3534C34.0761 31.8474 33.4062 32.1249 32.7076 32.1249H16.904C16.2055 32.1249 15.5355 31.8474 15.0415 31.3534C14.5476 30.8594 14.2701 30.1895 14.2701 29.4909V16.3213H13.7433C13.0447 16.3213 12.3748 16.5988 11.8808 17.0927C11.3869 17.5867 11.1094 18.2567 11.1094 18.9552V33.1784H38.5022V18.9552Z" fill="white"/>
<path d="M39.0268 34.2319H29.0179C29.1576 34.2319 29.2916 34.2874 29.3904 34.3862C29.4891 34.485 29.5446 34.619 29.5446 34.7587V35.8123C29.5446 36.2314 29.3781 36.6334 29.0818 36.9298C28.7854 37.2261 28.3834 37.3926 27.9643 37.3926H21.6429C21.2237 37.3926 20.8218 37.2261 20.5254 36.9298C20.229 36.6334 20.0625 36.2314 20.0625 35.8123V34.7587C20.0625 34.619 20.118 34.485 20.2168 34.3862C20.3156 34.2874 20.4496 34.2319 20.5893 34.2319H10.5804C10.1612 34.2319 9.75925 34.3984 9.46288 34.6948C9.1665 34.9912 9 35.3932 9 35.8123V36.8659C9 37.5644 9.2775 38.2344 9.77146 38.7283C10.2654 39.2223 10.9354 39.4998 11.6339 39.4998H37.9732C38.6718 39.4998 39.3417 39.2223 39.8357 38.7283C40.3296 38.2344 40.6071 37.5644 40.6071 36.8659V35.8123C40.6071 35.3932 40.4406 34.9912 40.1443 34.6948C39.8479 34.3984 39.4459 34.2319 39.0268 34.2319Z" fill="white"/>
<path d="M21.644 36.3392H27.9654C28.1051 36.3392 28.2391 36.2837 28.3379 36.1849C28.4367 36.0861 28.4922 35.9521 28.4922 35.8124V35.2856H21.1172V35.8124C21.1172 35.9521 21.1727 36.0861 21.2715 36.1849C21.3703 36.2837 21.5043 36.3392 21.644 36.3392Z" fill="white"/>
<path d="M16.9007 31.0714H32.7042C33.1234 31.0714 33.5253 30.9049 33.8217 30.6086C34.1181 30.3122 34.2846 29.9102 34.2846 29.4911V11.5804C34.2846 11.1612 34.1181 10.7593 33.8217 10.4629C33.5253 10.1665 33.1234 10 32.7042 10H16.9007C16.4815 10 16.0796 10.1665 15.7832 10.4629C15.4868 10.7593 15.3203 11.1612 15.3203 11.5804V29.4911C15.3203 29.9102 15.4868 30.3122 15.7832 30.6086C16.0796 30.9049 16.4815 31.0714 16.9007 31.0714ZM27.4364 15.2679H31.6507C31.7904 15.2679 31.9244 15.3234 32.0232 15.4221C32.122 15.5209 32.1775 15.6549 32.1775 15.7946C32.1775 15.9344 32.122 16.0683 32.0232 16.1671C31.9244 16.2659 31.7904 16.3214 31.6507 16.3214H27.4364C27.2967 16.3214 27.1627 16.2659 27.0639 16.1671C26.9651 16.0683 26.9096 15.9344 26.9096 15.7946C26.9096 15.6549 26.9651 15.5209 27.0639 15.4221C27.1627 15.3234 27.2967 15.2679 27.4364 15.2679ZM27.4364 17.375H31.6507C31.7904 17.375 31.9244 17.4305 32.0232 17.5293C32.122 17.6281 32.1775 17.7621 32.1775 17.9018C32.1775 18.0415 32.122 18.1755 32.0232 18.2743C31.9244 18.3731 31.7904 18.4286 31.6507 18.4286H27.4364C27.2967 18.4286 27.1627 18.3731 27.0639 18.2743C26.9651 18.1755 26.9096 18.0415 26.9096 17.9018C26.9096 17.7621 26.9651 17.6281 27.0639 17.5293C27.1627 17.4305 27.2967 17.375 27.4364 17.375ZM27.4364 22.6429H31.6507C31.7904 22.6429 31.9244 22.6984 32.0232 22.7971C32.122 22.8959 32.1775 23.0299 32.1775 23.1696C32.1775 23.3094 32.122 23.4433 32.0232 23.5421C31.9244 23.6409 31.7904 23.6964 31.6507 23.6964H27.4364C27.2967 23.6964 27.1627 23.6409 27.0639 23.5421C26.9651 23.4433 26.9096 23.3094 26.9096 23.1696C26.9096 23.0299 26.9651 22.8959 27.0639 22.7971C27.1627 22.6984 27.2967 22.6429 27.4364 22.6429ZM27.4364 24.75H31.6507C31.7904 24.75 31.9244 24.8055 32.0232 24.9043C32.122 25.0031 32.1775 25.1371 32.1775 25.2768C32.1775 25.4165 32.122 25.5505 32.0232 25.6493C31.9244 25.7481 31.7904 25.8036 31.6507 25.8036H27.4364C27.2967 25.8036 27.1627 25.7481 27.0639 25.6493C26.9651 25.5505 26.9096 25.4165 26.9096 25.2768C26.9096 25.1371 26.9651 25.0031 27.0639 24.9043C27.1627 24.8055 27.2967 24.75 27.4364 24.75ZM18.481 14.7411C18.481 14.6014 18.5365 14.4674 18.6353 14.3686C18.7341 14.2698 18.8681 14.2143 19.0078 14.2143H22.0316L23.4802 12.9079C23.6348 12.769 23.8152 12.662 24.0111 12.5929C24.207 12.5238 24.4147 12.494 24.6221 12.5053C24.8296 12.5165 25.0328 12.5686 25.2201 12.6585C25.4074 12.7483 25.5752 12.8742 25.7138 13.029C25.9943 13.3396 26.1402 13.7488 26.1194 14.1669C26.1076 14.3743 26.055 14.5774 25.9646 14.7646C25.8742 14.9517 25.7478 15.1191 25.5926 15.2573L23.7489 16.922V18.9554C23.7489 19.0951 23.6934 19.2291 23.5946 19.3279C23.4958 19.4266 23.3618 19.4821 23.2221 19.4821H19.0078C18.8681 19.4821 18.7341 19.4266 18.6353 19.3279C18.5365 19.2291 18.481 19.0951 18.481 18.9554V14.7411ZM18.481 22.1161C18.481 21.9764 18.5365 21.8424 18.6353 21.7436C18.7341 21.6448 18.8681 21.5893 19.0078 21.5893H23.2221C23.3618 21.5893 23.4958 21.6448 23.5946 21.7436C23.6934 21.8424 23.7489 21.9764 23.7489 22.1161V26.3304C23.7489 26.4701 23.6934 26.6041 23.5946 26.7029C23.4958 26.8016 23.3618 26.8571 23.2221 26.8571H19.0078C18.8681 26.8571 18.7341 26.8016 18.6353 26.7029C18.5365 26.6041 18.481 26.4701 18.481 26.3304V22.1161Z" fill="white"/>
<path d="M20.671 17.6332C20.7678 17.7206 20.8936 17.769 21.024 17.769C21.1543 17.769 21.2801 17.7206 21.3769 17.6332L24.8906 14.4725C24.9946 14.3789 25.0573 14.2478 25.0647 14.108C25.0721 13.9682 25.0237 13.8312 24.9301 13.7271C24.8365 13.623 24.7053 13.5604 24.5655 13.553C24.4258 13.5456 24.2888 13.594 24.1847 13.6876L21.024 16.527L20.6763 16.2162C20.626 16.1649 20.5658 16.1245 20.4993 16.0974C20.4328 16.0702 20.3615 16.057 20.2897 16.0584C20.2179 16.0598 20.1472 16.0759 20.0818 16.1057C20.0165 16.1355 19.9579 16.1783 19.9097 16.2315C19.8615 16.2847 19.8247 16.3473 19.8016 16.4152C19.7784 16.4832 19.7694 16.5552 19.7751 16.6268C19.7808 16.6983 19.801 16.768 19.8346 16.8315C19.8682 16.8949 19.9144 16.9509 19.9704 16.9958L20.671 17.6332Z" fill="white"/>
</svg>
