<svg width="30" height="30" viewBox="0 0 30 30" fill="none" xmlns="http://www.w3.org/2000/svg">
<g clip-path="url(#clip0_228_20516)">
<path d="M15 30C6.72857 30 0 23.2714 0 15C0 6.72857 6.72857 0 15 0C23.2714 0 30 6.72857 30 15C30 23.2714 23.2714 30 15 30ZM15 3.79592C8.82245 3.79592 3.79592 8.82245 3.79592 15C3.79592 21.1776 8.82245 26.2041 15 26.2041C21.1776 26.2041 26.2041 21.1776 26.2041 15C26.2041 8.82245 21.1776 3.79592 15 3.79592Z" fill="white"/>
<path d="M14.7738 11.5286C15.7578 11.5286 16.5555 10.7309 16.5555 9.74696C16.5555 8.763 15.7578 7.96533 14.7738 7.96533C13.7899 7.96533 12.9922 8.763 12.9922 9.74696C12.9922 10.7309 13.7899 11.5286 14.7738 11.5286Z" fill="white"/>
<path d="M17.4571 22.0346H16.5571H13.4469H12.5469V19.653H13.4469V15.5999H12.5591V13.2183H13.4469H16.1101H16.5571V19.653H17.4571V22.0346Z" fill="white"/>
</g>
<defs>
<clipPath id="clip0_228_20516">
<rect width="30" height="30" fill="white"/>
</clipPath>
</defs>
</svg>
