<svg width="30" height="30" viewBox="0 0 30 30" fill="none" xmlns="http://www.w3.org/2000/svg">
<g clip-path="url(#clip0_228_20627)">
<path d="M5.64844 20.1413L13.7497 24.052L13.7577 15.7208L5.64844 11.2534V20.1413Z" fill="white"/>
<path d="M16.1595 15.722L16.1562 24.0549L24.3007 20.1402V11.25L16.1595 15.722Z" fill="white"/>
<path d="M7.0625 9.26854L14.9585 13.6151L22.8813 9.26854L14.9584 5.46533L7.0625 9.26854Z" fill="white"/>
<path d="M14.9727 1.93135C17.8528 1.93135 20.633 2.88987 22.8901 4.61539H21.7377V6.66667H25.4324C26.0321 6.66667 26.5164 6.14333 26.4574 5.54603L26.0882 1.82109L24.0383 2.01955L24.1502 3.14795C21.5435 1.12487 18.3167 0 14.9727 0C6.80359 0 0 6.82583 0 14.9907C0 17.2801 0.502372 19.4781 1.49308 21.5237L3.23109 20.6817C2.36853 18.9008 1.93115 16.986 1.93115 14.9907C1.93115 7.78974 7.78154 1.93135 14.9727 1.93135Z" fill="white"/>
<path d="M28.5004 8.47656L26.7624 9.31849C27.625 11.0994 28.0623 13.0142 28.0623 15.0095C28.0623 22.2105 22.2118 28.0689 15.0207 28.0689C12.1407 28.0689 9.36043 27.1103 7.10331 25.3848H8.27248V23.3336H4.56107C3.96133 23.3336 3.47709 23.8548 3.53613 24.4521L3.9053 28.175L5.95524 27.9807L5.84338 26.8523C8.44998 28.8753 11.6768 30.0002 15.0207 30.0002C23.1899 30.0002 29.9934 23.1744 29.9934 15.0095C29.9934 12.7202 29.4911 10.5222 28.5004 8.47656Z" fill="white"/>
</g>
<defs>
<clipPath id="clip0_228_20627">
<rect width="30" height="30" fill="white"/>
</clipPath>
</defs>
</svg>
