<svg width="50" height="50" viewBox="0 0 50 50" fill="none" xmlns="http://www.w3.org/2000/svg">
<rect width="50" height="50" rx="7" fill="#CD072D"/>
<path d="M37.8438 15.5H34.0625V11.7188C34.0625 11.2629 33.8814 10.8257 33.5591 10.5034C33.2368 10.1811 32.7996 10 32.3438 10H11.7188C11.2629 10 10.8257 10.1811 10.5034 10.5034C10.1811 10.8257 10 11.2629 10 11.7188V34.4062C10 35.7738 10.5432 37.0853 11.5102 38.0523C12.4772 39.0193 13.7887 39.5625 15.1562 39.5625H35.7812C36.7841 39.5625 37.7459 39.1641 38.455 38.455C39.1641 37.7459 39.5625 36.7841 39.5625 35.7812V17.2188C39.5625 16.7629 39.3814 16.3257 39.0591 16.0034C38.7368 15.6811 38.2996 15.5 37.8438 15.5ZM23.4062 33.375H15.1562C14.8827 33.375 14.6204 33.2664 14.427 33.073C14.2336 32.8796 14.125 32.6173 14.125 32.3438C14.125 32.0702 14.2336 31.8079 14.427 31.6145C14.6204 31.4211 14.8827 31.3125 15.1562 31.3125H23.4062C23.6798 31.3125 23.9421 31.4211 24.1355 31.6145C24.3288 31.8079 24.4375 32.0702 24.4375 32.3438C24.4375 32.6173 24.3288 32.8796 24.1355 33.073C23.9421 33.2664 23.6798 33.375 23.4062 33.375ZM28.9062 29.25H15.1562C14.8827 29.25 14.6204 29.1413 14.427 28.948C14.2336 28.7546 14.125 28.4923 14.125 28.2188C14.125 27.9452 14.2336 27.6829 14.427 27.4895C14.6204 27.2962 14.8827 27.1875 15.1562 27.1875H28.9062C29.1798 27.1875 29.4421 27.2962 29.6355 27.4895C29.8288 27.6829 29.9375 27.9452 29.9375 28.2188C29.9375 28.4923 29.8288 28.7546 29.6355 28.948C29.4421 29.1413 29.1798 29.25 28.9062 29.25ZM29.9375 23.4062C29.9339 23.6786 29.8241 23.9389 29.6315 24.1315C29.4389 24.3241 29.1786 24.4339 28.9062 24.4375H15.1562C14.8839 24.4339 14.6236 24.3241 14.431 24.1315C14.2384 23.9389 14.1286 23.6786 14.125 23.4062V16.5312C14.1286 16.2589 14.2384 15.9986 14.431 15.806C14.6236 15.6134 14.8839 15.5036 15.1562 15.5H28.9062C29.1786 15.5036 29.4389 15.6134 29.6315 15.806C29.8241 15.9986 29.9339 16.2589 29.9375 16.5312V23.4062ZM37.5 35.7812C37.5 36.2371 37.3189 36.6743 36.9966 36.9966C36.6743 37.3189 36.2371 37.5 35.7812 37.5C35.3254 37.5 34.8882 37.3189 34.5659 36.9966C34.2436 36.6743 34.0625 36.2371 34.0625 35.7812V17.5625H37.5V35.7812Z" fill="white"/>
<path d="M16.1875 17.5625H27.875V22.375H16.1875V17.5625Z" fill="white"/>
</svg>
