<svg width="50" height="50" viewBox="0 0 50 50" fill="none" xmlns="http://www.w3.org/2000/svg">
<rect width="50" height="50" rx="7" fill="#CD072D"/>
<path d="M31.1481 35.4815C31.1488 34.837 31.2997 34.2015 31.5887 33.6255C31.8778 33.0495 32.2971 32.5487 32.8133 32.163C31.7857 31.8634 30.8202 31.3817 29.963 30.7407H21.6667C21.5095 30.7407 21.3588 30.6783 21.2476 30.5672C21.1365 30.456 21.0741 30.3053 21.0741 30.1481C21.0741 29.991 21.1365 29.8403 21.2476 29.7291C21.3588 29.618 21.5095 29.5556 21.6667 29.5556H28.677C28.0455 28.8522 27.5313 28.0519 27.1541 27.1852H21.6667C21.5095 27.1852 21.3588 27.1228 21.2476 27.0116C21.1365 26.9005 21.0741 26.7498 21.0741 26.5926C21.0741 26.4354 21.1365 26.2847 21.2476 26.1736C21.3588 26.0624 21.5095 26 21.6667 26H26.7274C26.6183 25.6116 26.5391 25.2153 26.4904 24.8148H21.6667C21.5095 24.8148 21.3588 24.7524 21.2476 24.6412C21.1365 24.5301 21.0741 24.3794 21.0741 24.2222C21.0741 24.0651 21.1365 23.9143 21.2476 23.8032C21.3588 23.6921 21.5095 23.6296 21.6667 23.6296H26.4074C26.4078 22.8288 26.5154 22.0316 26.7274 21.2593H21.6667C21.5095 21.2593 21.3588 21.1968 21.2476 21.0857C21.1365 20.9746 21.0741 20.8238 21.0741 20.6667C21.0741 20.5095 21.1365 20.3588 21.2476 20.2476C21.3588 20.1365 21.5095 20.0741 21.6667 20.0741H27.1541C27.329 19.6617 27.5392 19.2652 27.7822 18.8889H21.6667C21.5095 18.8889 21.3588 18.8265 21.2476 18.7153C21.1365 18.6042 21.0741 18.4535 21.0741 18.2963C21.0741 18.1391 21.1365 17.9884 21.2476 17.8773C21.3588 17.7661 21.5095 17.7037 21.6667 17.7037H28.677C29.5101 16.7723 30.5302 16.027 31.6708 15.5165C32.8113 15.0059 34.0467 14.7416 35.2963 14.7407H35.8889V12.963C35.8889 12.1771 35.5767 11.4235 35.0211 10.8678C34.4654 10.3122 33.7118 10 32.9259 10H13.963C13.1771 10 12.4235 10.3122 11.8678 10.8678C11.3122 11.4235 11 12.1771 11 12.963V36.6667C11 37.4525 11.3122 38.2061 11.8678 38.7618C12.4235 39.3175 13.1771 39.6296 13.963 39.6296H31.5511C31.2843 39.075 31.1466 38.4673 31.1481 37.8518V35.4815ZM19.8889 33.1111C19.8889 33.2683 19.8265 33.419 19.7153 33.5301C19.6042 33.6413 19.4535 33.7037 19.2963 33.7037H15.7407C15.5836 33.7037 15.4328 33.6413 15.3217 33.5301C15.2106 33.419 15.1481 33.2683 15.1481 33.1111V29.5556C15.1481 29.3984 15.2106 29.2477 15.3217 29.1365C15.4328 29.0254 15.5836 28.963 15.7407 28.963H19.2963C19.4535 28.963 19.6042 29.0254 19.7153 29.1365C19.8265 29.2477 19.8889 29.3984 19.8889 29.5556V33.1111ZM19.8889 27.1852C19.8889 27.3423 19.8265 27.4931 19.7153 27.6042C19.6042 27.7153 19.4535 27.7778 19.2963 27.7778H15.7407C15.5836 27.7778 15.4328 27.7153 15.3217 27.6042C15.2106 27.4931 15.1481 27.3423 15.1481 27.1852V23.6296C15.1481 23.4725 15.2106 23.3217 15.3217 23.2106C15.4328 23.0995 15.5836 23.037 15.7407 23.037H19.2963C19.4535 23.037 19.6042 23.0995 19.7153 23.2106C19.8265 23.3217 19.8889 23.4725 19.8889 23.6296V27.1852ZM19.8889 21.2593C19.8889 21.4164 19.8265 21.5672 19.7153 21.6783C19.6042 21.7894 19.4535 21.8519 19.2963 21.8519H15.7407C15.5836 21.8519 15.4328 21.7894 15.3217 21.6783C15.2106 21.5672 15.1481 21.4164 15.1481 21.2593V17.7037C15.1481 17.5465 15.2106 17.3958 15.3217 17.2847C15.4328 17.1735 15.5836 17.1111 15.7407 17.1111H19.2963C19.4535 17.1111 19.6042 17.1735 19.7153 17.2847C19.8265 17.3958 19.8889 17.5465 19.8889 17.7037V21.2593ZM29.963 33.1111H21.6667C21.5095 33.1111 21.3588 33.0487 21.2476 32.9375C21.1365 32.8264 21.0741 32.6757 21.0741 32.5185C21.0741 32.3614 21.1365 32.2106 21.2476 32.0995C21.3588 31.9884 21.5095 31.9259 21.6667 31.9259H29.963C30.1201 31.9259 30.2709 31.9884 30.382 32.0995C30.4931 32.2106 30.5556 32.3614 30.5556 32.5185C30.5556 32.6757 30.4931 32.8264 30.382 32.9375C30.2709 33.0487 30.1201 33.1111 29.963 33.1111Z" fill="white"/>
<path d="M43.0011 23.6296C42.9967 22.1322 42.5559 20.6685 41.7328 19.4176C40.9096 18.1668 39.7398 17.1829 38.3663 16.5864C36.9928 15.9899 35.4753 15.8066 33.9992 16.0589C32.5232 16.3112 31.1528 16.9883 30.0555 18.0072C28.9582 19.0261 28.1816 20.3428 27.8208 21.7961C27.4599 23.2494 27.5305 24.7763 28.0237 26.1902C28.517 27.604 29.4117 28.8435 30.5982 29.7569C31.7848 30.6703 33.2118 31.2181 34.7048 31.3333V32.5778C34.0356 32.7144 33.4341 33.078 33.0021 33.6071C32.5702 34.1363 32.3343 34.7984 32.3345 35.4815V37.8518C32.3345 38.6377 32.6466 39.3913 33.2023 39.947C33.758 40.5026 34.5116 40.8148 35.2974 40.8148C36.0832 40.8148 36.8369 40.5026 37.3926 39.947C37.9482 39.3913 38.2604 38.6377 38.2604 37.8518V35.4815C38.2605 34.7984 38.0247 34.1363 37.5927 33.6071C37.1608 33.078 36.5593 32.7144 35.89 32.5778V31.3333C37.8288 31.1837 39.6392 30.3065 40.9582 28.8777C42.2771 27.4489 43.0069 25.5741 43.0011 23.6296ZM29.9641 23.6296C29.9641 22.5748 30.2769 21.5436 30.8629 20.6666C31.449 19.7895 32.2819 19.1059 33.2564 18.7023C34.231 18.2986 35.3033 18.193 36.3379 18.3988C37.3725 18.6045 38.3228 19.1125 39.0687 19.8584C39.8145 20.6043 40.3225 21.5546 40.5283 22.5891C40.7341 23.6237 40.6284 24.696 40.2248 25.6706C39.8211 26.6451 39.1375 27.4781 38.2605 28.0641C37.3834 28.6501 36.3523 28.9629 35.2974 28.9629C33.8829 28.9629 32.5264 28.401 31.5262 27.4008C30.526 26.4007 29.9641 25.0441 29.9641 23.6296Z" fill="white"/>
</svg>
