<svg width="30" height="30" viewBox="0 0 30 30" fill="none" xmlns="http://www.w3.org/2000/svg">
<g clip-path="url(#clip0_228_20546)">
<path d="M4.80514 19.2886L1.96792 24.9621C1.83151 25.2347 1.84616 25.5586 2.00615 25.8177C2.16659 26.0765 2.44903 26.2342 2.75367 26.2342H7.02163L9.58236 29.6485C9.74876 29.8712 10.0099 30 10.2848 30C10.6499 30 10.9376 29.7821 11.0712 29.5143L13.7448 24.167C10.1301 23.8214 6.94313 21.9885 4.80514 19.2886Z" fill="white"/>
<path d="M28.0191 24.9621L25.1819 19.2886C23.0439 21.9885 19.8569 23.8214 16.2422 24.167L18.916 29.5143C19.0494 29.7821 19.3371 30 19.7022 30C19.9771 30 20.2385 29.8712 20.4049 29.6485L22.9654 26.2342H27.2333C27.538 26.2342 27.8204 26.0765 27.9809 25.8177C28.1408 25.5586 28.1555 25.2347 28.0191 24.9621Z" fill="white"/>
<path d="M16.4671 8.6512L14.9961 6.30127L13.5255 8.6512C13.4049 8.84392 13.2142 8.98239 12.9938 9.03755L10.3047 9.71024L12.0849 11.8352C12.231 12.0094 12.3037 12.2334 12.2879 12.4603L12.0964 15.2256L14.6674 14.1892C14.7896 14.14 15.0396 14.0743 15.3245 14.1892L17.8958 15.2256L17.7044 12.4603C17.6889 12.2334 17.7617 12.0094 17.9077 11.8352L19.6879 9.71024L16.9988 9.03755C16.7784 8.98239 16.5877 8.84392 16.4671 8.6512Z" fill="white"/>
<path d="M26.2267 11.2344C26.2267 5.03975 21.1869 0 14.9922 0C8.79756 0 3.75781 5.03975 3.75781 11.2344C3.75781 17.4289 8.79756 22.4689 14.9922 22.4689C21.1869 22.4689 26.2267 17.4291 26.2267 11.2344ZM21.9333 9.7625L19.4788 12.6922L19.7425 16.5049C19.7633 16.807 19.6273 17.0986 19.3824 17.2767C19.1373 17.4545 18.818 17.4939 18.5372 17.3808L14.9922 15.9519L11.4473 17.3808C11.3523 17.4191 10.974 17.5468 10.6021 17.2767C10.3572 17.0986 10.2212 16.807 10.242 16.5049L10.5062 12.6922L8.05164 9.76273C7.85709 9.53041 7.79575 9.21455 7.88936 8.92662C7.98297 8.63869 8.21826 8.41896 8.51215 8.34549L12.2196 7.41806L14.2472 4.17824C14.4079 3.92166 14.6894 3.76579 14.9922 3.76579C15.2951 3.76579 15.5766 3.92166 15.7373 4.17824L17.7654 7.41806L21.4728 8.34549C21.7667 8.41896 22.002 8.63869 22.0956 8.92662C22.1892 9.21455 22.1279 9.53041 21.9333 9.7625Z" fill="white"/>
</g>
<defs>
<clipPath id="clip0_228_20546">
<rect width="30" height="30" fill="white"/>
</clipPath>
</defs>
</svg>
