<svg width="30" height="30" viewBox="0 0 30 30" fill="none" xmlns="http://www.w3.org/2000/svg">
<g clip-path="url(#clip0_228_20606)">
<path d="M4.39147 28.0927L1.90533 25.6065C1.64998 25.3512 1.45703 25.0533 1.32789 24.7339L0.967832 25.0939C0.166973 25.8948 0.166973 27.1933 0.967832 27.9942L2.00359 29.0299C2.80445 29.8308 4.10295 29.8308 4.90381 29.0299L5.26387 28.6699C4.94459 28.5409 4.64682 28.348 4.39147 28.0927Z" fill="white"/>
<path d="M29.2902 12.3797L27.228 11.9754C27.0524 11.2609 26.8159 10.5685 26.5207 9.90129L23.0427 13.3793C23.1477 13.9032 23.2031 14.4451 23.2031 15C23.2031 19.5305 19.5305 23.2031 15 23.2031C10.4695 23.2031 6.79688 19.5305 6.79688 15C6.79688 10.4695 10.4695 6.79688 15 6.79688C15.5549 6.79688 16.0968 6.8523 16.6208 6.9573L20.0988 3.4793C19.4316 3.1841 18.7392 2.94756 18.0247 2.77201L17.6204 0.709805C17.5395 0.297422 17.178 0 16.7579 0H13.2422C12.822 0 12.4605 0.297422 12.3797 0.709805L11.9753 2.77201C10.7426 3.07488 9.57504 3.55805 8.49105 4.21389L6.74813 3.04242C6.39932 2.80799 5.9335 2.85322 5.63637 3.15041L3.15047 5.63637C2.85334 5.9335 2.80811 6.39937 3.04248 6.74813L4.21395 8.49105C3.55805 9.57516 3.07488 10.7428 2.77201 11.9754L0.709805 12.3797C0.297422 12.4605 0 12.822 0 13.2422V16.7578C0 17.178 0.297422 17.5395 0.709805 17.6203L2.77201 18.0247C3.07482 19.2573 3.55805 20.425 4.21389 21.509L3.04242 23.2519C2.80805 23.6006 2.85322 24.0664 3.15041 24.3636L5.63637 26.8496C5.9335 27.1468 6.39937 27.192 6.74813 26.9576L8.491 25.7862C9.57498 26.442 10.7428 26.9252 11.9753 27.228L12.3796 29.2903C12.4605 29.7026 12.822 30 13.2422 30H16.7578C17.178 30 17.5395 29.7026 17.6203 29.2902L18.0247 27.228C19.2573 26.9252 20.4249 26.442 21.5089 25.7861L23.2519 26.9575C23.6005 27.1918 24.0664 27.1467 24.3636 26.8495L26.8496 24.3636C27.1467 24.0664 27.192 23.6006 26.9576 23.2518L25.7861 21.5089C26.442 20.4249 26.9252 19.2572 27.228 18.0246L29.2902 17.6203C29.7026 17.5395 30 17.178 30 16.7578V13.2422C30 12.822 29.7026 12.4605 29.2902 12.3797Z" fill="white"/>
<path d="M29.1929 1.99599C29.5993 1.23058 28.7699 0.401244 28.0045 0.807592L22.8984 3.51837L26.4821 7.10208L29.1929 1.99599Z" fill="white"/>
<path d="M10.4451 19.5553C11.119 20.2293 11.9412 20.7547 12.8577 21.0786L25.4154 8.521L21.4793 4.58496L8.92188 17.1425C9.24596 18.0591 9.77131 18.8814 10.4451 19.5553Z" fill="white"/>
</g>
<defs>
<clipPath id="clip0_228_20606">
<rect width="30" height="30" fill="white"/>
</clipPath>
</defs>
</svg>
