<svg width="30" height="30" viewBox="0 0 30 30" fill="none" xmlns="http://www.w3.org/2000/svg">
<g clip-path="url(#clip0_228_20612)">
<path d="M23.3025 5.5834C21.8024 4.08129 19.6469 3.60721 17.7344 4.18453L24.701 11.153C25.2787 9.2448 24.8119 7.09072 23.3025 5.5834Z" fill="white"/>
<path d="M28.6228 17.5653L11.3197 0.257545C11.0946 0.0324273 10.7654 -0.0534711 10.459 0.0331891C10.1526 0.119849 9.91703 0.365416 9.8432 0.675142L7.04688 12.4054L16.4764 21.835L28.2049 19.0417C28.5146 18.9679 28.7603 18.7324 28.8469 18.4261C28.9336 18.1197 28.8479 17.7905 28.6228 17.5653Z" fill="white"/>
<path d="M15.7148 23.5581L11.9844 27.2862L14.4382 29.7426C14.603 29.9076 14.8268 30.0003 15.06 30.0003C16.2523 30.0003 17.3191 29.2888 17.7788 28.185C18.2336 27.0813 17.9823 25.8249 17.1387 24.9836L15.7148 23.5581Z" fill="white"/>
<path d="M6.57208 14.4131C5.80186 15.1837 2.75674 18.2306 2.75674 18.2306C0.573307 20.4112 0.568326 23.9454 2.75586 26.1301C4.93737 28.3151 8.47567 28.3135 10.655 26.1307C10.655 26.1307 13.6996 23.0879 14.4735 22.3145L6.57208 14.4131Z" fill="white"/>
</g>
<defs>
<clipPath id="clip0_228_20612">
<rect width="30" height="30" fill="white"/>
</clipPath>
</defs>
</svg>
