<svg width="319" height="341" viewBox="0 0 319 341" fill="none" xmlns="http://www.w3.org/2000/svg">
<mask id="mask0_240_3670" style="mask-type:alpha" maskUnits="userSpaceOnUse" x="0" y="0" width="319" height="341">
<path d="M0 0H319V321C319 332.046 310.046 341 299 341H20C8.9543 341 0 332.046 0 321V0Z" fill="#CD072D"/>
</mask>
<g mask="url(#mask0_240_3670)">
<g opacity="0.14">
<path d="M406.752 184.804L287.035 110.606L341.406 46.9385L406.752 184.804Z" fill="url(#paint0_linear_240_3670)"/>
<path d="M406.752 184.804L287.035 110.606L280.097 140.942L406.752 184.804Z" fill="url(#paint1_linear_240_3670)"/>
<path d="M287.035 110.605L211.85 43.9432L280.097 140.942L287.035 110.605Z" fill="url(#paint2_linear_240_3670)"/>
<path d="M341.406 46.9375L312.77 -24.1689L402.715 -39.337L341.406 46.9375Z" fill="url(#paint3_linear_240_3670)"/>
<path d="M280.097 140.942L211.85 43.9432L93.1432 121.233L280.097 140.942Z" fill="url(#paint4_linear_240_3670)"/>
<path d="M406.752 184.804L280.097 140.942L358.184 231.757L406.752 184.804Z" fill="url(#paint5_linear_240_3670)"/>
<path d="M287.035 110.605L211.85 43.9432L284.008 18.9207L287.035 110.605Z" fill="url(#paint6_linear_240_3670)"/>
<path d="M93.1431 121.233L-32.376 43.1704L-26.447 128.769L93.1431 121.233Z" fill="url(#paint7_linear_240_3670)"/>
<path d="M312.77 -24.1702L284.008 18.9187L243.514 3.07435L312.77 -24.1702Z" fill="url(#paint8_linear_240_3670)"/>
<path d="M284.008 18.9199L211.85 43.9424L243.514 3.07553L284.008 18.9199Z" fill="url(#paint9_linear_240_3670)"/>
<path d="M312.77 -24.1701L243.514 3.07447L144.612 -39.3382L312.77 -24.1701Z" fill="url(#paint10_linear_240_3670)"/>
<path d="M243.514 3.07552L211.85 43.9424L169.338 0.756846L243.514 3.07552Z" fill="url(#paint11_linear_240_3670)"/>
<path d="M243.514 3.07446L144.612 -39.3382L169.338 0.755785L243.514 3.07446Z" fill="url(#paint12_linear_240_3670)"/>
<path d="M-2.73076 -122.714L-96.7124 -63.5879L84.3126 22.0103L-2.73076 -122.714Z" fill="url(#paint13_linear_240_3670)"/>
<path d="M-32.3759 43.1692L-96.7124 -63.587L84.3126 22.0112L-32.3759 43.1692Z" fill="url(#paint14_linear_240_3670)"/>
<path d="M211.85 43.9424L169.338 0.756843L84.3126 22.0115L211.85 43.9424Z" fill="url(#paint15_linear_240_3670)"/>
<path d="M211.85 43.9431L93.143 121.233L84.3126 22.0122L211.85 43.9431Z" fill="url(#paint16_linear_240_3670)"/>
<path d="M169.338 0.755617L144.612 -39.3383L84.3128 22.0103L169.338 0.755617Z" fill="url(#paint17_linear_240_3670)"/>
<path d="M144.612 -39.3383L-2.73065 -122.714L84.3127 22.0103L144.612 -39.3383Z" fill="url(#paint18_linear_240_3670)"/>
<path d="M93.1431 121.233L-32.376 43.1702L84.3126 22.0122L93.1431 121.233Z" fill="url(#paint19_linear_240_3670)"/>
<path d="M93.1431 121.233L-26.447 128.769L89.2325 128.769L93.1431 121.233Z" fill="url(#paint20_linear_240_3670)"/>
<path d="M341.406 46.9375L312.77 -24.1689L305.832 26.5524L341.406 46.9375Z" fill="url(#paint21_linear_240_3670)"/>
<path d="M341.406 46.9382L287.035 110.605L305.832 26.5531L341.406 46.9382Z" fill="url(#paint22_linear_240_3670)"/>
<path d="M312.77 -24.1703L284.008 18.9187L305.832 26.551L312.77 -24.1703Z" fill="url(#paint23_linear_240_3670)"/>
<path d="M287.035 110.605L284.008 18.9207L305.832 26.5531L287.035 110.605Z" fill="url(#paint24_linear_240_3670)"/>
<path d="M280.097 140.943L234.557 238.618L174.258 199.973L280.097 140.943Z" fill="url(#paint25_linear_240_3670)"/>
<path d="M280.097 140.942L93.1432 121.233L174.258 199.972L280.097 140.942Z" fill="url(#paint26_linear_240_3670)"/>
<path d="M187.125 249.245L144.612 249.245L174.258 199.973L187.125 249.245Z" fill="url(#paint27_linear_240_3670)"/>
<path d="M144.612 249.245L89.2325 128.77L174.257 199.973L144.612 249.245Z" fill="url(#paint28_linear_240_3670)"/>
<path d="M93.1432 121.233L89.2326 128.769L174.258 199.972L93.1432 121.233Z" fill="url(#paint29_linear_240_3670)"/>
<path d="M144.612 249.245L89.2325 128.77L-42.3417 190.892L144.612 249.245Z" fill="url(#paint30_linear_240_3670)"/>
<path d="M89.2325 128.769L-26.4469 128.769L-42.3417 190.89L89.2325 128.769Z" fill="url(#paint31_linear_240_3670)"/>
<path d="M234.557 238.618L174.258 199.973L201.001 248.472L234.557 238.618Z" fill="url(#paint32_linear_240_3670)"/>
<path d="M187.125 249.245L174.258 199.973L201.001 248.472L187.125 249.245Z" fill="url(#paint33_linear_240_3670)"/>
<path d="M487.862 -352.064L353.537 -577.74L103.734 -420.726L-143.845 28.1124L317.224 -400.214L448.428 63.4706L490.551 109.097L549.513 103.946L757.178 250.855L739.986 -145.247L573.914 -263.771" stroke="#CC2F59" stroke-width="0.328385" stroke-miterlimit="10"/>
<path d="M419.591 -38.4528L291.347 132.187L196.335 -8.86595L-143.845 28.1122" stroke="#CC2F59" stroke-width="0.328385" stroke-miterlimit="10"/>
<path d="M196.335 -8.86597L392.084 -135.614" stroke="#CC2F59" stroke-width="0.328385" stroke-miterlimit="10"/>
<path d="M145.791 -411.184L348.069 -578.685L530.683 -346.937L613.255 158.962L322.707 -399.266L43.4707 -6.51783L-11.5222 22.3237L-65.336 -2.31842L-310.262 66.3704L-161.122 -300.985L35.0969 -356.894" stroke="#CC2F59" stroke-width="0.328385" stroke-miterlimit="10"/>
<path d="M43.4708 -6.51796L-48.6464 -304.301L-65.3359 -2.31856" stroke="#CC2F59" stroke-width="0.328385" stroke-miterlimit="10"/>
<path d="M-11.5221 22.323L-48.6463 -304.301" stroke="#CC2F59" stroke-width="0.328385" stroke-miterlimit="10"/>
<path d="M104.843 -92.8504L168.377 110.934L305.219 9.95253L613.255 158.961" stroke="#CC2F59" stroke-width="0.328385" stroke-miterlimit="10"/>
<path d="M305.219 9.95219L163.365 -175.143" stroke="#CC2F59" stroke-width="0.328385" stroke-miterlimit="10"/>
<rect x="313.279" y="18.5811" width="15.1948" height="15.1948" rx="1.61206" transform="rotate(180 313.279 18.5811)" fill="#CC2F59"/>
<rect x="296.396" y="136.764" width="11.8183" height="11.8183" rx="1.25383" transform="rotate(180 296.396 136.764)" fill="#CC2F59"/>
<rect x="53.2767" y="3.38623" width="18.5716" height="18.5716" rx="1.5481" transform="rotate(180 53.2767 3.38623)" fill="#CC2F59"/>
<rect x="178.213" y="119.881" width="18.5716" height="18.5716" rx="1.5481" transform="rotate(180 178.213 119.881)" fill="#CC2F59"/>
</g>
</g>
<defs>
<linearGradient id="paint0_linear_240_3670" x1="411.167" y1="192.339" x2="271.895" y2="71.4379" gradientUnits="userSpaceOnUse">
<stop stop-color="#FAFAFA"/>
<stop offset="1" stop-color="#A6D8EF"/>
</linearGradient>
<linearGradient id="paint1_linear_240_3670" x1="387.955" y1="187.895" x2="330.118" y2="89.2568" gradientUnits="userSpaceOnUse">
<stop stop-color="#F4F4F4"/>
<stop offset="1" stop-color="#F2F2F2"/>
</linearGradient>
<linearGradient id="paint2_linear_240_3670" x1="295.614" y1="133.503" x2="199.803" y2="59.2226" gradientUnits="userSpaceOnUse">
<stop stop-color="white"/>
<stop offset="1" stop-color="#F3F3F3"/>
</linearGradient>
<linearGradient id="paint3_linear_240_3670" x1="407.256" y1="43.7493" x2="319.222" y2="-48.009" gradientUnits="userSpaceOnUse">
<stop stop-color="#00A0E4"/>
<stop offset="1" stop-color="#0099DD"/>
</linearGradient>
<linearGradient id="paint4_linear_240_3670" x1="267.987" y1="145.869" x2="187.117" y2="-10.0477" gradientUnits="userSpaceOnUse">
<stop stop-color="#F6F6F6"/>
<stop offset="1" stop-color="#F9F9F9"/>
</linearGradient>
<linearGradient id="paint5_linear_240_3670" x1="404.102" y1="230.211" x2="330.338" y2="112.796" gradientUnits="userSpaceOnUse">
<stop stop-color="#FEFEFE"/>
<stop offset="1" stop-color="#F8F8F8"/>
</linearGradient>
<linearGradient id="paint6_linear_240_3670" x1="295.614" y1="89.5441" x2="215.366" y2="23.7305" gradientUnits="userSpaceOnUse">
<stop stop-color="#EAEBEB"/>
<stop offset="1" stop-color="#DCDCDD"/>
</linearGradient>
<linearGradient id="paint7_linear_240_3670" x1="95.4301" y1="131.69" x2="14.131" y2="12.4626" gradientUnits="userSpaceOnUse">
<stop stop-color="#79D0F1"/>
<stop offset="1" stop-color="#D1EAF4"/>
</linearGradient>
<linearGradient id="paint8_linear_240_3670" x1="319.582" y1="17.3729" x2="280.02" y2="-46.0657" gradientUnits="userSpaceOnUse">
<stop stop-color="#04ADEE"/>
<stop offset="1" stop-color="#96CEE4"/>
</linearGradient>
<linearGradient id="paint9_linear_240_3670" x1="281.233" y1="49.8357" x2="245.433" y2="-13.356" gradientUnits="userSpaceOnUse">
<stop stop-color="#D7D8DA"/>
<stop offset="1" stop-color="#E7E8E8"/>
</linearGradient>
<linearGradient id="paint10_linear_240_3670" x1="330.431" y1="1.33545" x2="309.899" y2="-80.0491" gradientUnits="userSpaceOnUse">
<stop stop-color="#009FE3"/>
<stop offset="1" stop-color="#4EB9E6"/>
</linearGradient>
<linearGradient id="paint11_linear_240_3670" x1="255.75" y1="38.8219" x2="217.443" y2="-26.9919" gradientUnits="userSpaceOnUse">
<stop stop-color="#ECECEC"/>
<stop offset="1" stop-color="#9ECFE6"/>
</linearGradient>
<linearGradient id="paint12_linear_240_3670" x1="220.302" y1="12.156" x2="195.164" y2="-54.8306" gradientUnits="userSpaceOnUse">
<stop stop-color="#75C0E2"/>
<stop offset="1" stop-color="#009CE1"/>
</linearGradient>
<linearGradient id="paint13_linear_240_3670" x1="89.4848" y1="24.812" x2="-54.5113" y2="-155.334" gradientUnits="userSpaceOnUse">
<stop stop-color="#0076BA"/>
<stop offset="1" stop-color="#55A8D4"/>
</linearGradient>
<linearGradient id="paint14_linear_240_3670" x1="66.3993" y1="52.2507" x2="-28.9964" y2="-109.415" gradientUnits="userSpaceOnUse">
<stop stop-color="#7FC9EC"/>
<stop offset="1" stop-color="#55C0ED"/>
</linearGradient>
<linearGradient id="paint15_linear_240_3670" x1="223.582" y1="44.3288" x2="196.829" y2="-34.7281" gradientUnits="userSpaceOnUse">
<stop stop-color="#77CAEB"/>
<stop offset="1" stop-color="#55BEEB"/>
</linearGradient>
<linearGradient id="paint16_linear_240_3670" x1="216.554" y1="126.656" x2="118.419" y2="0.551154" gradientUnits="userSpaceOnUse">
<stop stop-color="#FAFAFA"/>
<stop offset="1" stop-color="#A6D8EF"/>
</linearGradient>
<linearGradient id="paint17_linear_240_3670" x1="165.175" y1="25.0052" x2="105.768" y2="-57.3524" gradientUnits="userSpaceOnUse">
<stop stop-color="#00A0E4"/>
<stop offset="1" stop-color="#55C8F4"/>
</linearGradient>
<linearGradient id="paint18_linear_240_3670" x1="136.286" y1="24.812" x2="7.45351" y2="-125.166" gradientUnits="userSpaceOnUse">
<stop stop-color="#0081C2"/>
<stop offset="1" stop-color="#55A7D3"/>
</linearGradient>
<linearGradient id="paint19_linear_240_3670" x1="111.435" y1="108.576" x2="12.9355" y2="-16.1104" gradientUnits="userSpaceOnUse">
<stop stop-color="white"/>
<stop offset="1" stop-color="white"/>
</linearGradient>
<linearGradient id="paint20_linear_240_3670" x1="90.8724" y1="129.058" x2="89.8979" y2="113.662" gradientUnits="userSpaceOnUse">
<stop stop-color="#FBFBFB"/>
<stop offset="1" stop-color="#FCFCFC"/>
</linearGradient>
<linearGradient id="paint21_linear_240_3670" x1="338.252" y1="60.27" x2="280.126" y2="31.2026" gradientUnits="userSpaceOnUse">
<stop stop-color="#01A0E4"/>
<stop offset="1" stop-color="#46B9E6"/>
</linearGradient>
<linearGradient id="paint22_linear_240_3670" x1="339.514" y1="120.073" x2="261.259" y2="69.4435" gradientUnits="userSpaceOnUse">
<stop stop-color="#76C0E3"/>
<stop offset="1" stop-color="#E9EAEA"/>
</linearGradient>
<linearGradient id="paint23_linear_240_3670" x1="313.905" y1="25.2951" x2="269.542" y2="0.222387" gradientUnits="userSpaceOnUse">
<stop stop-color="#00ADEF"/>
<stop offset="1" stop-color="#8BC5DD"/>
</linearGradient>
<linearGradient id="paint24_linear_240_3670" x1="306.841" y1="112.924" x2="264.805" y2="102.945" gradientUnits="userSpaceOnUse">
<stop stop-color="#F6F6F6"/>
<stop offset="1" stop-color="#DADBDC"/>
</linearGradient>
<linearGradient id="paint25_linear_240_3670" x1="284.001" y1="243.957" x2="184.659" y2="136.343" gradientUnits="userSpaceOnUse">
<stop stop-color="#FAFAFA"/>
<stop offset="1" stop-color="#A6D8EF"/>
</linearGradient>
<linearGradient id="paint26_linear_240_3670" x1="283.504" y1="202.66" x2="226.035" y2="66.1937" gradientUnits="userSpaceOnUse">
<stop stop-color="#79D0F1"/>
<stop offset="1" stop-color="#D1EAF4"/>
</linearGradient>
<linearGradient id="paint27_linear_240_3670" x1="181.953" y1="252.53" x2="137.605" y2="208.751" gradientUnits="userSpaceOnUse">
<stop stop-color="white"/>
<stop offset="1" stop-color="white"/>
</linearGradient>
<linearGradient id="paint28_linear_240_3670" x1="177.393" y1="255.831" x2="61.5859" y2="174.124" gradientUnits="userSpaceOnUse">
<stop stop-color="#FAFAFA"/>
<stop offset="1" stop-color="#A6D8EF"/>
</linearGradient>
<linearGradient id="paint29_linear_240_3670" x1="177.393" y1="204.276" x2="97.2891" y2="117.802" gradientUnits="userSpaceOnUse">
<stop stop-color="#FAFAFA"/>
<stop offset="1" stop-color="#A6D8EF"/>
</linearGradient>
<linearGradient id="paint30_linear_240_3670" x1="161.012" y1="240.067" x2="49.1096" y2="66.3836" gradientUnits="userSpaceOnUse">
<stop stop-color="white"/>
<stop offset="1" stop-color="#FEFDFE"/>
</linearGradient>
<linearGradient id="paint31_linear_240_3670" x1="110.56" y1="187.142" x2="61.5812" y2="83.4549" gradientUnits="userSpaceOnUse">
<stop stop-color="#F6F6F6"/>
<stop offset="1" stop-color="white"/>
</linearGradient>
<linearGradient id="paint32_linear_240_3670" x1="235.656" y1="250.128" x2="187.326" y2="190.032" gradientUnits="userSpaceOnUse">
<stop stop-color="#79D0F1"/>
<stop offset="1" stop-color="#D1EAF4"/>
</linearGradient>
<linearGradient id="paint33_linear_240_3670" x1="196.838" y1="252.53" x2="157.572" y2="233.895" gradientUnits="userSpaceOnUse">
<stop stop-color="#FEFEFE"/>
<stop offset="1" stop-color="#FEFEFE"/>
</linearGradient>
</defs>
</svg>
