<svg width="319" height="256" viewBox="0 0 319 256" fill="none" xmlns="http://www.w3.org/2000/svg">
<g opacity="0.14">
<path d="M115.751 181.804L-3.96471 107.606L50.4059 43.9385L115.751 181.804Z" fill="url(#paint0_linear_133_4552)"/>
<path d="M115.751 181.804L-3.96472 107.606L-10.903 137.942L115.751 181.804Z" fill="url(#paint1_linear_133_4552)"/>
<path d="M291.731 26.5474L260.067 1.52489L152.335 52.3428L291.731 26.5474Z" fill="url(#paint2_linear_133_4552)"/>
<path d="M115.751 181.804L50.4059 43.9385L152.335 52.3437L115.751 181.804Z" fill="url(#paint3_linear_133_4552)"/>
<path d="M50.406 43.9375L21.77 -27.1689L111.715 -42.337L50.406 43.9375Z" fill="url(#paint4_linear_133_4552)"/>
<path d="M298.669 106.06L115.752 181.804L161.166 212.913L298.669 106.06Z" fill="url(#paint5_linear_133_4552)"/>
<path d="M161.166 212.913L115.752 181.804L67.184 228.757L161.166 212.913Z" fill="url(#paint6_linear_133_4552)"/>
<path d="M115.751 181.804L-10.903 137.942L67.1838 228.757L115.751 181.804Z" fill="url(#paint7_linear_133_4552)"/>
<path d="M291.731 26.5459L260.068 1.52341L381.802 -28.7161L291.731 26.5459Z" fill="url(#paint8_linear_133_4552)"/>
<path d="M21.77 -27.1702L-6.99212 15.9187L-47.4862 0.0743536L21.77 -27.1702Z" fill="url(#paint9_linear_133_4552)"/>
<path d="M21.77 -27.1701L-47.4862 0.0744689L-146.388 -42.3382L21.77 -27.1701Z" fill="url(#paint10_linear_133_4552)"/>
<path d="M260.067 1.52488L152.335 52.3428L213.644 -4.46505L260.067 1.52488Z" fill="url(#paint11_linear_133_4552)"/>
<path d="M298.669 106.06L115.752 181.804L292.74 97.7513L298.669 106.06Z" fill="url(#paint12_linear_133_4552)"/>
<path d="M291.731 26.548L152.336 52.3434L292.74 97.751L291.731 26.548Z" fill="url(#paint13_linear_133_4552)"/>
<path d="M152.336 52.3437L115.752 181.804L292.74 97.7513L152.336 52.3437Z" fill="url(#paint14_linear_133_4552)"/>
<path d="M381.802 -28.7163L260.068 1.5232L205.697 -68.9069L381.802 -28.7163Z" fill="url(#paint15_linear_133_4552)"/>
<path d="M260.067 1.52319L213.644 -4.46673L205.696 -68.9069L260.067 1.52319Z" fill="url(#paint16_linear_133_4552)"/>
<path d="M381.802 -28.7142L291.731 26.5479L382.685 134.85L381.802 -28.7142Z" fill="url(#paint17_linear_133_4552)"/>
<path d="M298.669 106.059L292.74 97.7509L382.685 134.85L298.669 106.059Z" fill="url(#paint18_linear_133_4552)"/>
<path d="M292.74 97.7509L291.731 26.5479L382.685 134.85L292.74 97.7509Z" fill="url(#paint19_linear_133_4552)"/>
<path d="M50.4058 43.9375L21.7697 -27.1689L14.8315 23.5524L50.4058 43.9375Z" fill="url(#paint20_linear_133_4552)"/>
<path d="M50.4058 43.9382L-3.96481 107.605L14.8315 23.5531L50.4058 43.9382Z" fill="url(#paint21_linear_133_4552)"/>
<path d="M21.77 -27.1703L-6.99211 15.9187L14.8318 23.551L21.77 -27.1703Z" fill="url(#paint22_linear_133_4552)"/>
<path d="M-3.9648 107.605L-6.99237 15.9207L14.8315 23.5531L-3.9648 107.605Z" fill="url(#paint23_linear_133_4552)"/>
<path d="M213.644 -4.46505L152.335 52.3428L155.236 22.7795L213.644 -4.46505Z" fill="url(#paint24_linear_133_4552)"/>
<path d="M213.644 -4.46649L111.715 -42.3384L155.236 22.7781L213.644 -4.46649Z" fill="url(#paint25_linear_133_4552)"/>
<path d="M152.335 52.3428L50.4058 43.9376L155.236 22.7795L152.335 52.3428Z" fill="url(#paint26_linear_133_4552)"/>
<path d="M111.715 -42.337L50.4058 43.9375L155.236 22.7795L111.715 -42.337Z" fill="url(#paint27_linear_133_4552)"/>
<path d="M382.685 134.85L349.129 140.937L312.546 120.455L382.685 134.85Z" fill="url(#paint28_linear_133_4552)"/>
<path d="M382.685 134.85L298.669 106.06L312.546 120.455L382.685 134.85Z" fill="url(#paint29_linear_133_4552)"/>
<path d="M349.129 140.937L161.166 212.913L312.546 120.455L349.129 140.937Z" fill="url(#paint30_linear_133_4552)"/>
<path d="M298.669 106.06L161.166 212.913L312.546 120.455L298.669 106.06Z" fill="url(#paint31_linear_133_4552)"/>
<path d="M196.862 -355.064L62.5366 -580.74L-187.266 -423.726L-434.845 25.1124L26.224 -403.214L157.428 60.4706L199.55 106.097L258.513 100.946L466.178 247.855L448.986 -148.247L282.914 -266.771" stroke="#CC2F59" stroke-width="0.328385" stroke-miterlimit="10"/>
<path d="M157.428 60.4702L344.148 -189.122L258.514 100.945" stroke="#CC2F59" stroke-width="0.328385" stroke-miterlimit="10"/>
<path d="M199.551 106.097L344.148 -189.121" stroke="#CC2F59" stroke-width="0.328385" stroke-miterlimit="10"/>
<path d="M128.591 -41.4528L0.346452 129.187L-94.6653 -11.8659L-434.845 25.1122" stroke="#CC2F59" stroke-width="0.328385" stroke-miterlimit="10"/>
<path d="M-94.6655 -11.866L101.084 -138.614" stroke="#CC2F59" stroke-width="0.328385" stroke-miterlimit="10"/>
<path d="M-145.209 -414.184L57.0689 -581.685L239.683 -349.937L322.255 155.962L31.7067 -402.266L-247.529 -9.51783L-302.522 19.3237L-356.336 -5.31842L-601.262 63.3704L-452.122 -303.985L-255.903 -359.894" stroke="#CC2F59" stroke-width="0.328385" stroke-miterlimit="10"/>
<path d="M-186.156 -95.8504L-122.623 107.934L14.2191 6.95253L322.255 155.961" stroke="#CC2F59" stroke-width="0.328385" stroke-miterlimit="10"/>
<path d="M14.219 6.95219L-127.635 -178.143" stroke="#CC2F59" stroke-width="0.328385" stroke-miterlimit="10"/>
<rect x="22.2788" y="15.5811" width="15.1948" height="15.1948" rx="1.61206" transform="rotate(180 22.2788 15.5811)" fill="#CC2F59"/>
<rect x="169.164" y="69.6077" width="18.5716" height="18.5716" rx="1.97031" transform="rotate(180 169.164 69.6077)" fill="#CC2F59"/>
<rect x="5.396" y="133.764" width="11.8183" height="11.8183" rx="1.25383" transform="rotate(180 5.396 133.764)" fill="#CC2F59"/>
<rect x="204.619" y="110.127" width="8.44165" height="8.44165" rx="0.895594" transform="rotate(180 204.619 110.127)" fill="#CC2F59"/>
<rect x="267.087" y="107.595" width="16.8833" height="16.8833" rx="1.79119" transform="rotate(180 267.087 107.595)" fill="#CC2F59"/>
<rect x="326.179" y="159.089" width="8.44165" height="8.44165" rx="0.895594" transform="rotate(180 326.179 159.089)" fill="#CC2F59"/>
</g>
<defs>
<linearGradient id="paint0_linear_133_4552" x1="120.167" y1="189.339" x2="-19.1047" y2="68.4379" gradientUnits="userSpaceOnUse">
<stop stop-color="#FAFAFA"/>
<stop offset="1" stop-color="#A6D8EF"/>
</linearGradient>
<linearGradient id="paint1_linear_133_4552" x1="96.9551" y1="184.895" x2="39.118" y2="86.2568" gradientUnits="userSpaceOnUse">
<stop stop-color="#F4F4F4"/>
<stop offset="1" stop-color="#F2F2F2"/>
</linearGradient>
<linearGradient id="paint2_linear_133_4552" x1="279.999" y1="52.8258" x2="242.949" y2="-36.2577" gradientUnits="userSpaceOnUse">
<stop stop-color="#0089CF"/>
<stop offset="1" stop-color="#07A3E4"/>
</linearGradient>
<linearGradient id="paint3_linear_133_4552" x1="164.319" y1="154.173" x2="34.8961" y2="70.4889" gradientUnits="userSpaceOnUse">
<stop stop-color="#7FB7DC"/>
<stop offset="1" stop-color="#0790D3"/>
</linearGradient>
<linearGradient id="paint4_linear_133_4552" x1="116.256" y1="40.7493" x2="28.2217" y2="-51.009" gradientUnits="userSpaceOnUse">
<stop stop-color="#00A0E4"/>
<stop offset="1" stop-color="#0099DD"/>
</linearGradient>
<linearGradient id="paint5_linear_133_4552" x1="301.445" y1="208.662" x2="223.502" y2="56.0554" gradientUnits="userSpaceOnUse">
<stop stop-color="#00ADEF"/>
<stop offset="1" stop-color="#AAE3F9"/>
</linearGradient>
<linearGradient id="paint6_linear_133_4552" x1="150.191" y1="232.332" x2="108.545" y2="159.426" gradientUnits="userSpaceOnUse">
<stop stop-color="white"/>
<stop offset="1" stop-color="#FEFEFE"/>
</linearGradient>
<linearGradient id="paint7_linear_133_4552" x1="113.102" y1="227.211" x2="39.3375" y2="109.796" gradientUnits="userSpaceOnUse">
<stop stop-color="#FEFEFE"/>
<stop offset="1" stop-color="#F8F8F8"/>
</linearGradient>
<linearGradient id="paint8_linear_133_4552" x1="391.894" y1="21.039" x2="349.386" y2="-72.4825" gradientUnits="userSpaceOnUse">
<stop stop-color="#0072BB"/>
<stop offset="1" stop-color="#4FA9D8"/>
</linearGradient>
<linearGradient id="paint9_linear_133_4552" x1="28.5821" y1="14.3729" x2="-10.9796" y2="-49.0657" gradientUnits="userSpaceOnUse">
<stop stop-color="#04ADEE"/>
<stop offset="1" stop-color="#96CEE4"/>
</linearGradient>
<linearGradient id="paint10_linear_133_4552" x1="39.431" y1="-1.66455" x2="18.8992" y2="-83.0491" gradientUnits="userSpaceOnUse">
<stop stop-color="#009FE3"/>
<stop offset="1" stop-color="#4EB9E6"/>
</linearGradient>
<linearGradient id="paint11_linear_133_4552" x1="251.489" y1="50.4105" x2="209.65" y2="-28.9848" gradientUnits="userSpaceOnUse">
<stop stop-color="#00A5E7"/>
<stop offset="1" stop-color="#07ADEC"/>
</linearGradient>
<linearGradient id="paint12_linear_133_4552" x1="301.445" y1="184.509" x2="236.346" y2="42.8395" gradientUnits="userSpaceOnUse">
<stop stop-color="#00A0E4"/>
<stop offset="1" stop-color="#55BFED"/>
</linearGradient>
<linearGradient id="paint13_linear_133_4552" x1="316.583" y1="89.3457" x2="257.979" y2="-26.2485" gradientUnits="userSpaceOnUse">
<stop stop-color="#0071BA"/>
<stop offset="1" stop-color="#0799DB"/>
</linearGradient>
<linearGradient id="paint14_linear_133_4552" x1="276.467" y1="190.499" x2="150.502" y2="18.3272" gradientUnits="userSpaceOnUse">
<stop stop-color="#0A90D1"/>
<stop offset="1" stop-color="#55B4E3"/>
</linearGradient>
<linearGradient id="paint15_linear_133_4552" x1="360.104" y1="8.09281" x2="320.522" y2="-104.961" gradientUnits="userSpaceOnUse">
<stop stop-color="#B0D4E6"/>
<stop offset="1" stop-color="#268FC7"/>
</linearGradient>
<linearGradient id="paint16_linear_133_4552" x1="252.876" y1="17.0777" x2="183.334" y2="-36.6239" gradientUnits="userSpaceOnUse">
<stop stop-color="#0099DD"/>
<stop offset="1" stop-color="#0087CA"/>
</linearGradient>
<linearGradient id="paint17_linear_133_4552" x1="395.3" y1="110.89" x2="253.474" y2="32.0141" gradientUnits="userSpaceOnUse">
<stop stop-color="#77B3D7"/>
<stop offset="1" stop-color="#55A3D4"/>
</linearGradient>
<linearGradient id="paint18_linear_133_4552" x1="381.424" y1="135.623" x2="354.728" y2="70.8877" gradientUnits="userSpaceOnUse">
<stop stop-color="#00A0E4"/>
<stop offset="1" stop-color="#55C0ED"/>
</linearGradient>
<linearGradient id="paint19_linear_133_4552" x1="372.088" y1="153.496" x2="263.222" y2="62.0423" gradientUnits="userSpaceOnUse">
<stop stop-color="#00A0E4"/>
<stop offset="1" stop-color="#55ACDC"/>
</linearGradient>
<linearGradient id="paint20_linear_133_4552" x1="47.252" y1="57.27" x2="-10.8746" y2="28.2026" gradientUnits="userSpaceOnUse">
<stop stop-color="#01A0E4"/>
<stop offset="1" stop-color="#46B9E6"/>
</linearGradient>
<linearGradient id="paint21_linear_133_4552" x1="48.5135" y1="117.073" x2="-29.7414" y2="66.4435" gradientUnits="userSpaceOnUse">
<stop stop-color="#76C0E3"/>
<stop offset="1" stop-color="#E9EAEA"/>
</linearGradient>
<linearGradient id="paint22_linear_133_4552" x1="22.9054" y1="22.2951" x2="-21.4578" y2="-2.77761" gradientUnits="userSpaceOnUse">
<stop stop-color="#00ADEF"/>
<stop offset="1" stop-color="#8BC5DD"/>
</linearGradient>
<linearGradient id="paint23_linear_133_4552" x1="15.8407" y1="109.924" x2="-26.1948" y2="99.9447" gradientUnits="userSpaceOnUse">
<stop stop-color="#F6F6F6"/>
<stop offset="1" stop-color="#DADBDC"/>
</linearGradient>
<linearGradient id="paint24_linear_133_4552" x1="215.788" y1="50.4105" x2="157.99" y2="-11.9775" gradientUnits="userSpaceOnUse">
<stop stop-color="#00ADEF"/>
<stop offset="1" stop-color="#07ADEC"/>
</linearGradient>
<linearGradient id="paint25_linear_133_4552" x1="205.822" y1="28.768" x2="145.486" y2="-65.5883" gradientUnits="userSpaceOnUse">
<stop stop-color="#00ADEF"/>
<stop offset="1" stop-color="#0099DD"/>
</linearGradient>
<linearGradient id="paint26_linear_133_4552" x1="161.67" y1="51.0868" x2="145.932" y2="-4.76458" gradientUnits="userSpaceOnUse">
<stop stop-color="#0AA0E0"/>
<stop offset="1" stop-color="#009BE0"/>
</linearGradient>
<linearGradient id="paint27_linear_133_4552" x1="148.298" y1="51.7631" x2="61.8206" y2="-53.2298" gradientUnits="userSpaceOnUse">
<stop stop-color="#0083CA"/>
<stop offset="1" stop-color="#009CE1"/>
</linearGradient>
<linearGradient id="paint28_linear_133_4552" x1="382.811" y1="140.84" x2="370.193" y2="102.931" gradientUnits="userSpaceOnUse">
<stop stop-color="#FEFEFE"/>
<stop offset="1" stop-color="#A9E0F6"/>
</linearGradient>
<linearGradient id="paint29_linear_133_4552" x1="378.774" y1="136.299" x2="360.773" y2="83.7223" gradientUnits="userSpaceOnUse">
<stop stop-color="#7FC9EC"/>
<stop offset="1" stop-color="#00A1E5"/>
</linearGradient>
<linearGradient id="paint30_linear_133_4552" x1="339.037" y1="217.647" x2="264.358" y2="65.7844" gradientUnits="userSpaceOnUse">
<stop stop-color="#89D7F6"/>
<stop offset="1" stop-color="#5BC6F1"/>
</linearGradient>
<linearGradient id="paint31_linear_133_4552" x1="311.032" y1="208.662" x2="203.572" y2="75.4377" gradientUnits="userSpaceOnUse">
<stop stop-color="#00ADEF"/>
<stop offset="1" stop-color="#55C5F1"/>
</linearGradient>
</defs>
</svg>
