<svg width="319" height="341" viewBox="0 0 319 341" fill="none" xmlns="http://www.w3.org/2000/svg">
<mask id="mask0_240_4136" style="mask-type:alpha" maskUnits="userSpaceOnUse" x="0" y="0" width="319" height="341">
<path d="M0 0H319V321C319 332.046 310.046 341 299 341H20C8.9543 341 0 332.046 0 321V0Z" fill="#CD072D"/>
</mask>
<g mask="url(#mask0_240_4136)">
<g opacity="0.14">
<path d="M311.593 47.711L252.303 94.6644L370 165.191L311.593 47.711Z" fill="url(#paint0_linear_240_4136)"/>
<path d="M252.303 94.6643L237.417 92.4422L236.534 34.8615L252.303 94.6643Z" fill="url(#paint1_linear_240_4136)"/>
<path d="M311.593 47.7109L252.303 94.6643L236.534 34.8615L311.593 47.7109Z" fill="url(#paint2_linear_240_4136)"/>
<path d="M166.269 127.319L152.392 159.104L130.694 135.628L166.269 127.319Z" fill="url(#paint3_linear_240_4136)"/>
<path d="M166.269 127.319L126.658 131.86L130.694 135.628L166.269 127.319Z" fill="url(#paint4_linear_240_4136)"/>
<path d="M237.417 92.4424L236.534 34.8617L201.843 36.4075L237.417 92.4424Z" fill="url(#paint5_linear_240_4136)"/>
<path d="M237.417 92.4424L166.269 127.319L201.843 36.4075L237.417 92.4424Z" fill="url(#paint6_linear_240_4136)"/>
<path d="M236.534 34.8595L197.932 31.8645L201.843 36.4053L236.534 34.8595Z" fill="url(#paint7_linear_240_4136)"/>
<path d="M-57.2688 29.5459L-88.9325 4.52341L32.8021 -25.7161L-57.2688 29.5459Z" fill="url(#paint8_linear_240_4136)"/>
<path d="M311.593 47.7104L228.587 -119.621L244.355 -145.417L311.593 47.7104Z" fill="url(#paint9_linear_240_4136)"/>
<path d="M311.593 47.7104L228.587 -119.621L214.71 -88.609L311.593 47.7104Z" fill="url(#paint10_linear_240_4136)"/>
<path d="M32.8021 -25.7163L-88.9324 4.5232L-143.303 -65.9069L32.8021 -25.7163Z" fill="url(#paint11_linear_240_4136)"/>
<path d="M48.5708 -26.4871L32.8021 -25.7142L33.6851 137.85L48.5708 -26.4871Z" fill="url(#paint12_linear_240_4136)"/>
<path d="M32.802 -25.7142L-57.2689 29.5479L33.6851 137.85L32.802 -25.7142Z" fill="url(#paint13_linear_240_4136)"/>
<path d="M-50.3307 109.059L-56.2598 100.751L33.6851 137.85L-50.3307 109.059Z" fill="url(#paint14_linear_240_4136)"/>
<path d="M-56.2598 100.751L-57.2689 29.5479L33.6851 137.85L-56.2598 100.751Z" fill="url(#paint15_linear_240_4136)"/>
<path d="M201.843 36.4053L197.932 31.8645L162.358 25.0051L201.843 36.4053Z" fill="url(#paint16_linear_240_4136)"/>
<path d="M201.843 36.4075L166.269 127.319L162.358 25.0073L201.843 36.4075Z" fill="url(#paint17_linear_240_4136)"/>
<path d="M166.269 127.319L126.658 131.86L162.358 25.0071L166.269 127.319Z" fill="url(#paint18_linear_240_4136)"/>
<path d="M126.657 131.86L33.6851 137.85L162.358 25.0071L126.657 131.86Z" fill="url(#paint19_linear_240_4136)"/>
<path d="M48.5708 -26.4871L33.6851 137.85L162.358 25.0071L48.5708 -26.4871Z" fill="url(#paint20_linear_240_4136)"/>
<path d="M236.534 34.8596L197.932 31.8646L200.834 2.30138L236.534 34.8596Z" fill="url(#paint21_linear_240_4136)"/>
<path d="M214.71 -88.6106L48.5708 -26.4891L200.834 2.30127L214.71 -88.6106Z" fill="url(#paint22_linear_240_4136)"/>
<path d="M197.932 31.8647L162.358 25.0053L200.834 2.30149L197.932 31.8647Z" fill="url(#paint23_linear_240_4136)"/>
<path d="M162.358 25.0051L48.5708 -26.489L200.834 2.30131L162.358 25.0051Z" fill="url(#paint24_linear_240_4136)"/>
<path d="M311.593 47.7104L236.534 34.8611L200.834 2.30283L311.593 47.7104Z" fill="url(#paint25_linear_240_4136)"/>
<path d="M311.593 47.7104L214.71 -88.609L200.834 2.30284L311.593 47.7104Z" fill="url(#paint26_linear_240_4136)"/>
<path d="M370 165.191L311.593 47.711L367.982 -244.637L370 165.191Z" fill="url(#paint27_linear_240_4136)"/>
<path d="M311.593 47.7105L244.355 -145.417L367.982 -244.637L311.593 47.7105Z" fill="url(#paint28_linear_240_4136)"/>
<path d="M252.303 94.6644L237.417 92.4423L202.852 134.855L252.303 94.6644Z" fill="url(#paint29_linear_240_4136)"/>
<path d="M237.417 92.4423L166.269 127.319L202.852 134.855L237.417 92.4423Z" fill="url(#paint30_linear_240_4136)"/>
<path d="M205.88 257.554L152.392 159.106L202.852 134.857L205.88 257.554Z" fill="url(#paint31_linear_240_4136)"/>
<path d="M166.268 127.319L152.392 159.104L202.852 134.855L166.268 127.319Z" fill="url(#paint32_linear_240_4136)"/>
<path d="M370 165.191L252.303 94.6644L202.852 134.855L370 165.191Z" fill="url(#paint33_linear_240_4136)"/>
<path d="M370 165.193L205.88 257.554L202.852 134.857L370 165.193Z" fill="url(#paint34_linear_240_4136)"/>
<path d="M33.6851 137.85L0.129215 143.937L-36.4542 123.455L33.6851 137.85Z" fill="url(#paint35_linear_240_4136)"/>
<path d="M33.6851 137.85L-50.3307 109.06L-36.4542 123.455L33.6851 137.85Z" fill="url(#paint36_linear_240_4136)"/>
<path d="M0.129266 143.937L-187.834 215.913L-36.4542 123.455L0.129266 143.937Z" fill="url(#paint37_linear_240_4136)"/>
<path d="M152.392 159.104L130.694 135.628L27.7561 156.786L152.392 159.104Z" fill="url(#paint38_linear_240_4136)"/>
<path d="M130.694 135.628L126.658 131.86L27.7561 156.786L130.694 135.628Z" fill="url(#paint39_linear_240_4136)"/>
<path d="M126.657 131.86L33.6851 137.85L27.7561 156.786L126.657 131.86Z" fill="url(#paint40_linear_240_4136)"/>
<path d="M33.6851 137.85L0.12921 143.936L27.756 156.786L33.6851 137.85Z" fill="url(#paint41_linear_240_4136)"/>
<path d="M-152.138 -352.064L-286.463 -577.74L-536.266 -420.726L-783.845 28.1124L-322.776 -400.214L-191.572 63.4706L-149.449 109.097L-90.4866 103.946L117.178 250.855L99.9856 -145.247L-66.0864 -263.771" stroke="#CC2F59" stroke-width="0.328385" stroke-miterlimit="10"/>
<path d="M-494.209 -411.184L-291.931 -578.685L-109.317 -346.937L-26.7452 158.962L-317.293 -399.266L-596.529 -6.51783L-651.522 22.3237L-705.336 -2.31842L-950.262 66.3704L-801.122 -300.985L-604.903 -356.894" stroke="#CC2F59" stroke-width="0.328385" stroke-miterlimit="10"/>
<path d="M-535.157 -92.8504L-471.623 110.934L-334.781 9.95253L-26.7451 158.961" stroke="#CC2F59" stroke-width="0.328385" stroke-miterlimit="10"/>
<rect x="125.752" y="258.324" width="15.195" height="15.195" rx="1.61207" transform="rotate(180 125.752 258.324)" fill="#CC2F59"/>
</g>
</g>
<defs>
<linearGradient id="paint0_linear_240_4136" x1="380.471" y1="159.781" x2="260.672" y2="39.6867" gradientUnits="userSpaceOnUse">
<stop stop-color="#FEFEFE"/>
<stop offset="1" stop-color="#A6CCE4"/>
</linearGradient>
<linearGradient id="paint1_linear_240_4136" x1="249.275" y1="110.315" x2="219.092" y2="102.333" gradientUnits="userSpaceOnUse">
<stop stop-color="#0072BB"/>
<stop offset="1" stop-color="#0086CC"/>
</linearGradient>
<linearGradient id="paint2_linear_240_4136" x1="309.575" y1="95.0508" x2="250.07" y2="20.3039" gradientUnits="userSpaceOnUse">
<stop stop-color="#7FD5F6"/>
<stop offset="1" stop-color="#0099DD"/>
</linearGradient>
<linearGradient id="paint3_linear_240_4136" x1="173.081" y1="152.245" x2="140.336" y2="120.178" gradientUnits="userSpaceOnUse">
<stop stop-color="#0071BA"/>
<stop offset="1" stop-color="#54A0D1"/>
</linearGradient>
<linearGradient id="paint4_linear_240_4136" x1="167.404" y1="135.435" x2="163.975" y2="119.153" gradientUnits="userSpaceOnUse">
<stop stop-color="#0072BB"/>
<stop offset="1" stop-color="#0071BB"/>
</linearGradient>
<linearGradient id="paint5_linear_240_4136" x1="245.743" y1="76.8879" x2="193.186" y2="44.3812" gradientUnits="userSpaceOnUse">
<stop stop-color="#008FD5"/>
<stop offset="1" stop-color="#00ADEE"/>
</linearGradient>
<linearGradient id="paint6_linear_240_4136" x1="230.983" y1="137.464" x2="140.931" y2="66.9129" gradientUnits="userSpaceOnUse">
<stop stop-color="#008DD2"/>
<stop offset="1" stop-color="#0097DB"/>
</linearGradient>
<linearGradient id="paint7_linear_240_4136" x1="232.245" y1="37.2748" x2="231.167" y2="28.127" gradientUnits="userSpaceOnUse">
<stop stop-color="#00ADEF"/>
<stop offset="1" stop-color="#00ABED"/>
</linearGradient>
<linearGradient id="paint8_linear_240_4136" x1="42.8941" y1="24.039" x2="0.385838" y2="-69.4825" gradientUnits="userSpaceOnUse">
<stop stop-color="#0072BB"/>
<stop offset="1" stop-color="#4FA9D8"/>
</linearGradient>
<linearGradient id="paint9_linear_240_4136" x1="315.378" y1="40.2713" x2="172.302" y2="-21.2689" gradientUnits="userSpaceOnUse">
<stop stop-color="#7FC8EB"/>
<stop offset="1" stop-color="#52A8D8"/>
</linearGradient>
<linearGradient id="paint10_linear_240_4136" x1="306.169" y1="52.1546" x2="167.376" y2="-39.6891" gradientUnits="userSpaceOnUse">
<stop stop-color="#7FC9EC"/>
<stop offset="1" stop-color="#007DC5"/>
</linearGradient>
<linearGradient id="paint11_linear_240_4136" x1="11.1044" y1="11.0928" x2="-28.4778" y2="-101.961" gradientUnits="userSpaceOnUse">
<stop stop-color="#B0D4E6"/>
<stop offset="1" stop-color="#268FC7"/>
</linearGradient>
<linearGradient id="paint12_linear_240_4136" x1="48.4447" y1="134.662" x2="16.4469" y2="131.581" gradientUnits="userSpaceOnUse">
<stop stop-color="#76AFD3"/>
<stop offset="1" stop-color="#A4C9E2"/>
</linearGradient>
<linearGradient id="paint13_linear_240_4136" x1="46.3" y1="113.89" x2="-95.5258" y2="35.0141" gradientUnits="userSpaceOnUse">
<stop stop-color="#77B3D7"/>
<stop offset="1" stop-color="#55A3D4"/>
</linearGradient>
<linearGradient id="paint14_linear_240_4136" x1="32.4236" y1="138.623" x2="5.72804" y2="73.8877" gradientUnits="userSpaceOnUse">
<stop stop-color="#00A0E4"/>
<stop offset="1" stop-color="#55C0ED"/>
</linearGradient>
<linearGradient id="paint15_linear_240_4136" x1="23.0885" y1="156.496" x2="-85.7779" y2="65.0423" gradientUnits="userSpaceOnUse">
<stop stop-color="#00A0E4"/>
<stop offset="1" stop-color="#55ACDC"/>
</linearGradient>
<linearGradient id="paint16_linear_240_4136" x1="202.726" y1="35.729" x2="197.887" y2="16.4752" gradientUnits="userSpaceOnUse">
<stop stop-color="#00A0E4"/>
<stop offset="1" stop-color="#2EAEE6"/>
</linearGradient>
<linearGradient id="paint17_linear_240_4136" x1="202.726" y1="125.677" x2="132.501" y2="98.5081" gradientUnits="userSpaceOnUse">
<stop stop-color="#00A0E4"/>
<stop offset="1" stop-color="#2D9CD6"/>
</linearGradient>
<linearGradient id="paint18_linear_240_4136" x1="167.404" y1="133.695" x2="96.4093" y2="107.398" gradientUnits="userSpaceOnUse">
<stop stop-color="#0083CA"/>
<stop offset="1" stop-color="#2D9CD6"/>
</linearGradient>
<linearGradient id="paint19_linear_240_4136" x1="155.924" y1="142.004" x2="57.6982" y2="14.1157" gradientUnits="userSpaceOnUse">
<stop stop-color="#0077BE"/>
<stop offset="1" stop-color="#82C3E4"/>
</linearGradient>
<linearGradient id="paint20_linear_240_4136" x1="155.924" y1="155.626" x2="-6.86002" y2="28.2903" gradientUnits="userSpaceOnUse">
<stop stop-color="#76C0E3"/>
<stop offset="1" stop-color="#82CBEC"/>
</linearGradient>
<linearGradient id="paint21_linear_240_4136" x1="227.325" y1="40.1733" x2="193.815" y2="5.4489" gradientUnits="userSpaceOnUse">
<stop stop-color="#09AEED"/>
<stop offset="1" stop-color="#0FA6E4"/>
</linearGradient>
<linearGradient id="paint22_linear_240_4136" x1="231.74" y1="-7.45654" x2="153.639" y2="-150.227" gradientUnits="userSpaceOnUse">
<stop stop-color="#7FB8DD"/>
<stop offset="1" stop-color="#ACD7EC"/>
</linearGradient>
<linearGradient id="paint23_linear_240_4136" x1="201.212" y1="29.6427" x2="176.6" y2="-7.08533" gradientUnits="userSpaceOnUse">
<stop stop-color="#009EE2"/>
<stop offset="1" stop-color="#36AAE0"/>
</linearGradient>
<linearGradient id="paint24_linear_240_4136" x1="212.692" y1="25.1984" x2="180.793" y2="-69.1285" gradientUnits="userSpaceOnUse">
<stop stop-color="#44BEEE"/>
<stop offset="1" stop-color="#57BCE6"/>
</linearGradient>
<linearGradient id="paint25_linear_240_4136" x1="296.96" y1="51.1885" x2="264.39" y2="-28.1963" gradientUnits="userSpaceOnUse">
<stop stop-color="#7FD5F6"/>
<stop offset="1" stop-color="#08A7E7"/>
</linearGradient>
<linearGradient id="paint26_linear_240_4136" x1="296.96" y1="67.2261" x2="160.786" y2="-43.4094" gradientUnits="userSpaceOnUse">
<stop stop-color="#8DCDEB"/>
<stop offset="1" stop-color="#128DCE"/>
</linearGradient>
<linearGradient id="paint27_linear_240_4136" x1="373.533" y1="133.889" x2="256.814" y2="117.268" gradientUnits="userSpaceOnUse">
<stop stop-color="#7AD0F0"/>
<stop offset="1" stop-color="#5CAED8"/>
</linearGradient>
<linearGradient id="paint28_linear_240_4136" x1="383.751" y1="10.9013" x2="169.719" y2="-79.6003" gradientUnits="userSpaceOnUse">
<stop stop-color="#7FD5F6"/>
<stop offset="1" stop-color="#59ACD6"/>
</linearGradient>
<linearGradient id="paint29_linear_240_4136" x1="250.284" y1="135.048" x2="207.507" y2="85.1765" gradientUnits="userSpaceOnUse">
<stop stop-color="#0072BB"/>
<stop offset="1" stop-color="#0072BB"/>
</linearGradient>
<linearGradient id="paint30_linear_240_4136" x1="240.066" y1="135.048" x2="202.007" y2="71.1543" gradientUnits="userSpaceOnUse">
<stop stop-color="#0071BA"/>
<stop offset="1" stop-color="#0071BA"/>
</linearGradient>
<linearGradient id="paint31_linear_240_4136" x1="216.098" y1="227.218" x2="132.065" y2="195.215" gradientUnits="userSpaceOnUse">
<stop stop-color="white"/>
<stop offset="1" stop-color="#A9CFE8"/>
</linearGradient>
<linearGradient id="paint32_linear_240_4136" x1="199.95" y1="160.36" x2="170.656" y2="113.913" gradientUnits="userSpaceOnUse">
<stop stop-color="#0072BB"/>
<stop offset="1" stop-color="#54A0D1"/>
</linearGradient>
<linearGradient id="paint33_linear_240_4136" x1="358.647" y1="172.437" x2="307.199" y2="50.3611" gradientUnits="userSpaceOnUse">
<stop stop-color="#81B5D8"/>
<stop offset="1" stop-color="#0573BB"/>
</linearGradient>
<linearGradient id="paint34_linear_240_4136" x1="358.647" y1="258.52" x2="234.242" y2="110.243" gradientUnits="userSpaceOnUse">
<stop stop-color="#E2E3E4"/>
<stop offset="1" stop-color="#9AC1DA"/>
</linearGradient>
<linearGradient id="paint35_linear_240_4136" x1="33.8112" y1="143.84" x2="21.1933" y2="105.931" gradientUnits="userSpaceOnUse">
<stop stop-color="#FEFEFE"/>
<stop offset="1" stop-color="#A9E0F6"/>
</linearGradient>
<linearGradient id="paint36_linear_240_4136" x1="29.7744" y1="139.299" x2="11.7731" y2="86.7223" gradientUnits="userSpaceOnUse">
<stop stop-color="#7FC9EC"/>
<stop offset="1" stop-color="#00A1E5"/>
</linearGradient>
<linearGradient id="paint37_linear_240_4136" x1="-9.96271" y1="220.647" x2="-84.6421" y2="68.7844" gradientUnits="userSpaceOnUse">
<stop stop-color="#89D7F6"/>
<stop offset="1" stop-color="#5BC6F1"/>
</linearGradient>
<linearGradient id="paint38_linear_240_4136" x1="148.103" y1="158.718" x2="139.383" y2="112.441" gradientUnits="userSpaceOnUse">
<stop stop-color="#FEFEFE"/>
<stop offset="1" stop-color="#AAD0E8"/>
</linearGradient>
<linearGradient id="paint39_linear_240_4136" x1="130.19" y1="156.979" x2="118.485" y2="108.812" gradientUnits="userSpaceOnUse">
<stop stop-color="#7FB8DD"/>
<stop offset="1" stop-color="#AACFE8"/>
</linearGradient>
<linearGradient id="paint40_linear_240_4136" x1="122.747" y1="156.979" x2="110.629" y2="109.03" gradientUnits="userSpaceOnUse">
<stop stop-color="#7FB8DD"/>
<stop offset="1" stop-color="white"/>
</linearGradient>
<linearGradient id="paint41_linear_240_4136" x1="39.8664" y1="153.018" x2="23.344" y2="123.677" gradientUnits="userSpaceOnUse">
<stop stop-color="#FEFEFE"/>
<stop offset="1" stop-color="#FEFEFE"/>
</linearGradient>
</defs>
</svg>
