<svg width="130" height="125" viewBox="0 0 130 125" fill="none" xmlns="http://www.w3.org/2000/svg">
<g clip-path="url(#clip0_240_3419)">
<path d="M1.43581 63.3017L15.1569 52.4266L15.157 52.4266L19.0794 49.3194L19.0795 49.3194L30.5419 40.2413C27.0881 45.3762 24.788 51.2164 23.821 57.3591C23.5086 59.3256 23.3343 61.3113 23.2992 63.3017H1.43581Z" fill="#F8F8F8" stroke="#CF2749"/>
<path d="M1.43591 64.3018H23.2861C23.3273 72.3161 25.6337 80.138 29.9142 86.8743L16.4913 76.2336L16.4908 76.2332L16.149 75.9629L16.145 75.9598L16.0982 75.9219L16.0982 75.9219L16.0947 75.9191L1.43591 64.3018Z" fill="#F8F8F8" stroke="#CF2749"/>
<path d="M116.382 53.6465L116.394 53.657L116.406 53.6667L128.569 63.3056H108.698C108.579 56.2867 106.729 49.4175 103.328 43.3024L111.44 49.7294L111.44 49.7294L116.374 53.6394L116.382 53.6465Z" fill="#F8F8F8" stroke="#CF2749"/>
<path d="M107.41 74.4963L107.41 74.4955C108.249 71.1615 108.683 67.7389 108.702 64.3018H128.564L109.895 79.0967L109.895 79.0969L103.785 83.9455C104.646 82.3135 105.399 80.6263 106.041 78.8947L106.041 78.8947C106.519 77.6036 106.936 76.2863 107.292 74.9429L107.292 74.9429L107.293 74.9362C107.311 74.8678 107.329 74.7989 107.349 74.7249L107.352 74.7142C107.371 74.6449 107.391 74.5709 107.41 74.4963Z" fill="#F8F8F8" stroke="#CF2749"/>
<path d="M82.7911 21.9893L82.7914 21.9896L86.3757 26.503C86.0068 26.3029 85.6336 26.1082 85.2557 25.9193C79.4359 22.9716 73.0174 21.4041 66.4982 21.3353V1.43552L72.1466 8.5602L72.1467 8.56024L82.7911 21.9893Z" fill="#F8F8F8" stroke="#CF2749"/>
<path d="M50.4923 20.361L50.4927 20.3604L65.4943 1.43565V21.3354C60.0768 21.3933 54.7186 22.486 49.7087 24.5563L49.7081 24.5565C48.3059 25.138 46.9358 25.7933 45.6036 26.5195L47.5425 24.0717L47.543 24.0711L50.4923 20.361Z" fill="#F8F8F8" stroke="#CF2749"/>
<path d="M65.6506 27.7286V37.3945C60.8428 37.5221 56.1593 38.9595 52.1062 41.554C47.982 44.1941 44.6729 47.9282 42.5484 52.3396C40.424 56.7509 39.5677 61.6658 40.0752 66.5355C40.5828 71.4053 42.4342 76.0381 45.4227 79.9167C47.8667 83.0955 51.0035 85.6751 54.5946 87.4596C58.0375 89.1704 61.8111 90.1071 65.6506 90.2064V123.769C65.0781 123.181 64.5276 122.604 63.9736 122.022C63.8999 121.945 63.8261 121.867 63.7522 121.79L63.7519 121.79C60.4365 118.318 57.4247 114.995 54.7163 111.823C52.7509 109.519 50.9505 107.29 49.27 105.146C46.5805 101.684 44.2224 98.4344 42.1949 95.3958L41.779 95.6733L42.1949 95.3958C41.0448 93.6723 39.9914 92.0179 39.0346 90.4327L39.0334 90.4307C38.7981 90.045 38.5717 89.6582 38.3456 89.2684L38.3439 89.2656C29.329 73.9587 28.946 65.3972 28.9309 64.946V64.937C28.934 63.5065 29.0183 62.0774 29.1835 60.6565L29.1835 60.6561C30.2299 51.5884 34.575 43.2219 41.3916 37.1495C48.0838 31.1881 56.6992 27.8463 65.6506 27.7286Z" fill="#F8F8F8" stroke="#CF2749"/>
<path d="M83.826 104.134L83.828 104.131C84.2816 103.55 84.7184 102.967 85.1559 102.382L85.1564 102.381C85.8682 101.431 86.5612 100.493 87.2146 99.5795L87.2168 99.5764C87.6382 98.9968 88.0368 98.4163 88.4398 97.8296L88.4419 97.8266C89.7841 95.9021 91.0093 94.0559 92.1177 92.288C92.2148 92.1312 92.3116 91.9753 92.408 91.82C92.7007 91.3485 92.9891 90.8839 93.2669 90.4264C96.436 85.1845 98.6059 80.7066 100.098 77.0217L100.098 77.0212C100.6 75.784 101.027 74.6347 101.387 73.5813C103.236 68.1588 103.364 65.1918 103.37 64.9478V64.938C103.351 61.9438 102.99 58.9615 102.294 56.049C102.074 55.1467 101.81 54.257 101.523 53.3746C101.353 52.8509 101.17 52.3324 100.976 51.8191C98.348 44.8721 93.7078 38.8661 87.6485 34.5684L87.6457 34.5664C87.1336 34.1978 86.6046 33.8424 86.0587 33.5003L86.0569 33.4992C83.3082 31.7606 80.3427 30.3909 77.2367 29.4254L77.2359 29.4252C75.5919 28.9113 73.9137 28.5141 72.2137 28.2364L72.2117 28.236L72.2117 28.236C70.3737 27.9281 68.5155 27.7589 66.6526 27.7298V37.3903C73.3189 37.4596 79.7166 40.0481 84.5567 44.6421C89.4677 49.3033 92.3996 55.6728 92.7465 62.434C92.7704 62.8853 92.7823 63.3404 92.7823 63.7993C92.7823 63.7995 92.7823 63.7996 92.7823 63.7998H92.2823C92.2856 67.2043 91.6173 70.5761 90.3157 73.7221C89.014 76.8681 87.1045 79.7266 84.6965 82.1339C82.2885 84.5411 79.4292 86.45 76.2824 87.7511C73.1525 89.0453 69.7991 89.713 66.4124 89.7165L83.826 104.134ZM83.826 104.134C79.2832 110.039 73.6761 116.557 66.7695 123.635L66.7695 123.635L66.7656 123.639C66.7272 123.68 66.6889 123.72 66.6506 123.76V90.2152L83.826 104.134Z" fill="#F8F8F8" stroke="#CF2749"/>
</g>
<defs>
<clipPath id="clip0_240_3419">
<rect width="130" height="125" fill="white"/>
</clipPath>
</defs>
</svg>
