<svg width="130" height="125" viewBox="0 0 130 125" fill="none" xmlns="http://www.w3.org/2000/svg">
<g clip-path="url(#clip0_133_4803)">
<path d="M24.3149 57.4368C25.4648 50.1326 28.522 43.261 33.1779 37.5159L18.769 48.9274L14.8464 52.0347L0 63.8017H23.7934C23.8061 61.67 23.9805 59.5422 24.3149 57.4368Z" fill="url(#paint0_linear_133_4803)"/>
<path d="M15.8349 76.352L16.1807 76.6254L31.6131 88.8592L32.2226 89.3435C32.1054 89.1892 31.996 89.0291 31.8827 88.8728C26.6107 81.6632 23.7743 72.9612 23.7855 64.0303C23.7855 63.9541 23.7855 63.8779 23.7855 63.8018H0L15.7841 76.3109L15.8349 76.352Z" fill="url(#paint1_linear_133_4803)"/>
<path d="M130 63.8017L116.716 53.2748L116.697 53.2572L111.751 49.3375L101.491 41.209C105.832 47.9497 108.161 55.7885 108.203 63.8056H130V63.8017Z" fill="url(#paint2_linear_133_4803)"/>
<path d="M106.925 74.3735C106.888 74.52 106.845 74.6665 106.808 74.8149C106.457 76.143 106.044 77.445 105.572 78.721C104.642 81.2307 103.474 83.6458 102.085 85.9335L110.205 79.4885L130 63.8018H108.203C108.203 63.8779 108.203 63.9521 108.203 64.0283C108.205 67.5162 107.776 70.991 106.925 74.3735Z" fill="url(#paint3_linear_133_4803)"/>
<path d="M83.183 21.6787L72.5385 8.24961L65.9983 0V21.833C72.611 21.8249 79.1322 23.378 85.031 26.3659C86.2031 26.9519 87.3303 27.5944 88.4301 28.2858L83.183 21.6787Z" fill="url(#paint4_linear_133_4803)"/>
<path d="M50.1008 20.0498L47.151 23.7606L44.6232 26.9519L43.5625 28.2916C43.8926 28.0827 44.2286 27.8835 44.5646 27.6842C46.2783 26.6717 48.061 25.7809 49.8996 25.0184C55.003 22.9094 60.4721 21.827 65.9943 21.833V0L50.1008 20.0498Z" fill="url(#paint5_linear_133_4803)"/>
<path d="M45.8188 79.6116C42.8869 75.8063 41.0705 71.2612 40.5725 66.4837C40.0746 61.7062 40.9147 56.8844 42.9989 52.5565C45.0832 48.2287 48.3296 44.5652 52.3758 41.9752C56.4219 39.3851 61.1085 37.9703 65.9123 37.8889H66.1506V27.2253C56.8979 27.2229 47.9673 30.6222 41.0591 36.7762C34.1508 42.9302 29.7473 51.4091 28.6868 60.5988C28.5195 62.0387 28.434 63.4869 28.4309 64.9365V64.954C28.4446 65.3954 28.8021 74.0493 37.9131 89.5193C38.1397 89.9099 38.3682 90.3005 38.6066 90.6911C39.5677 92.2835 40.6252 93.9442 41.779 95.6733C43.8145 98.7239 46.1802 101.984 48.876 105.454C50.5599 107.602 52.3649 109.837 54.336 112.147C57.0513 115.328 60.0694 118.657 63.3903 122.135C64.0252 122.801 64.6542 123.463 65.3126 124.139C65.5939 124.426 65.8654 124.711 66.1506 125V89.7146C62.2164 89.6869 58.3402 88.7625 54.8171 87.0118C51.2939 85.2611 48.2165 82.7302 45.8188 79.6116Z" fill="url(#paint6_linear_133_4803)"/>
<path d="M84.2223 104.439C84.6794 103.853 85.1189 103.267 85.5565 102.681C86.2695 101.73 86.9649 100.788 87.6213 99.8704C88.0472 99.2845 88.4496 98.6985 88.852 98.1126C90.1986 96.1817 91.4286 94.3283 92.5421 92.5524C92.9328 91.9215 93.3235 91.2966 93.6947 90.6853C96.8769 85.4218 99.0589 80.9201 100.561 77.2093C101.067 75.9633 101.497 74.8051 101.86 73.7427C103.739 68.2312 103.864 65.2099 103.87 64.954V64.9365C103.85 61.903 103.485 58.8817 102.78 55.931C102.556 55.0131 102.288 54.1108 101.999 53.2202C101.826 52.689 101.641 52.163 101.444 51.6422C98.7805 44.6021 94.0781 38.5157 87.9378 34.1606C87.4168 33.7856 86.879 33.4243 86.3242 33.0766C83.5384 31.3146 80.5329 29.9264 77.3851 28.9479C75.7186 28.4271 74.0175 28.0244 72.2943 27.7429C70.2647 27.4029 68.2105 27.2298 66.1526 27.2253V37.8889H66.3597C73.0031 37.8842 79.3945 40.4317 84.2125 45.0047C89.0305 49.5778 91.9069 55.8268 92.2471 62.46C92.2706 62.9027 92.2823 63.3493 92.2823 63.7998C92.2856 67.2043 91.6173 70.5761 90.3157 73.7221C89.014 76.8681 87.1045 79.7266 84.6965 82.1339C82.2885 84.5411 79.4292 86.45 76.2824 87.7511C73.1356 89.0523 69.763 89.7201 66.3577 89.7165H66.1506V124.994C66.4866 124.654 66.805 124.322 67.1274 123.984C74.0466 116.893 79.6667 110.36 84.2223 104.439Z" fill="url(#paint7_linear_133_4803)"/>
</g>
<defs>
<linearGradient id="paint0_linear_133_4803" x1="20.786" y1="80.9804" x2="46.4039" y2="17.653" gradientUnits="userSpaceOnUse">
<stop stop-color="white"/>
<stop offset="0.04" stop-color="#F2F2F2"/>
<stop offset="0.19" stop-color="#CACACA"/>
<stop offset="0.34" stop-color="#AAA9A9"/>
<stop offset="0.49" stop-color="#909090"/>
<stop offset="0.65" stop-color="#7E7D7D"/>
<stop offset="0.81" stop-color="#737373"/>
<stop offset="1" stop-color="#706F6F"/>
</linearGradient>
<linearGradient id="paint1_linear_133_4803" x1="32.4398" y1="62.7862" x2="16.6597" y2="107.215" gradientUnits="userSpaceOnUse">
<stop stop-color="#FAFAFA"/>
<stop offset="0.0001" stop-color="#EBEBEB"/>
<stop offset="0.296875" stop-color="#D2D2D2"/>
<stop offset="0.58" stop-color="#B0B0AF"/>
<stop offset="1" stop-color="#838382"/>
<stop offset="1" stop-color="#838382"/>
</linearGradient>
<linearGradient id="paint2_linear_133_4803" x1="130.192" y1="40.3105" x2="116.232" y2="79.6168" gradientUnits="userSpaceOnUse">
<stop stop-color="#FAFAFA"/>
<stop offset="0.0001" stop-color="#EBEBEB"/>
<stop offset="0.296875" stop-color="#D2D2D2"/>
<stop offset="0.58" stop-color="#B0B0AF"/>
<stop offset="1" stop-color="#838382"/>
<stop offset="1" stop-color="#838382"/>
</linearGradient>
<linearGradient id="paint3_linear_133_4803" x1="119.574" y1="100.397" x2="141.154" y2="47.0883" gradientUnits="userSpaceOnUse">
<stop stop-color="white"/>
<stop offset="0.04" stop-color="#F2F2F2"/>
<stop offset="0.19" stop-color="#CACACA"/>
<stop offset="0.34" stop-color="#AAA9A9"/>
<stop offset="0.49" stop-color="#909090"/>
<stop offset="0.65" stop-color="#7E7D7D"/>
<stop offset="0.81" stop-color="#737373"/>
<stop offset="1" stop-color="#706F6F"/>
</linearGradient>
<linearGradient id="paint4_linear_133_4803" x1="80.0518" y1="46.7714" x2="116.145" y2="-9.28731" gradientUnits="userSpaceOnUse">
<stop stop-color="white"/>
<stop offset="0.04" stop-color="#F2F2F2"/>
<stop offset="0.19" stop-color="#CACACA"/>
<stop offset="0.34" stop-color="#AAA9A9"/>
<stop offset="0.49" stop-color="#909090"/>
<stop offset="0.65" stop-color="#7E7D7D"/>
<stop offset="0.81" stop-color="#737373"/>
<stop offset="1" stop-color="#706F6F"/>
</linearGradient>
<linearGradient id="paint5_linear_133_4803" x1="66.1455" y1="-1.12492" x2="42.4071" y2="40.8798" gradientUnits="userSpaceOnUse">
<stop stop-color="#FAFAFA"/>
<stop offset="0.0001" stop-color="#EBEBEB"/>
<stop offset="0.296875" stop-color="#D2D2D2"/>
<stop offset="0.58" stop-color="#B0B0AF"/>
<stop offset="1" stop-color="#838382"/>
<stop offset="1" stop-color="#838382"/>
</linearGradient>
<linearGradient id="paint6_linear_133_4803" x1="66.4048" y1="23.3377" x2="-28.2968" y2="104.872" gradientUnits="userSpaceOnUse">
<stop stop-color="#FAFAFA"/>
<stop offset="0.0001" stop-color="#EBEBEB"/>
<stop offset="0.296875" stop-color="#D2D2D2"/>
<stop offset="0.58" stop-color="#B0B0AF"/>
<stop offset="1" stop-color="#838382"/>
<stop offset="1" stop-color="#838382"/>
</linearGradient>
<linearGradient id="paint7_linear_133_4803" x1="104.125" y1="23.3379" x2="9.42777" y2="104.873" gradientUnits="userSpaceOnUse">
<stop stop-color="#FAFAFA"/>
<stop offset="0.0001" stop-color="#EBEBEB"/>
<stop offset="0.296875" stop-color="#D2D2D2"/>
<stop offset="0.58" stop-color="#B0B0AF"/>
<stop offset="0.75" stop-color="#838382"/>
<stop offset="0.93" stop-color="#4E4E4C"/>
<stop offset="0.96" stop-color="#444442"/>
<stop offset="0.98" stop-color="#212120"/>
<stop offset="0.99" stop-color="#090909"/>
<stop offset="1"/>
</linearGradient>
<clipPath id="clip0_133_4803">
<rect width="130" height="125" fill="white"/>
</clipPath>
</defs>
</svg>
