<svg width="84" height="125" viewBox="0 0 84 125" fill="none" xmlns="http://www.w3.org/2000/svg">
<g clip-path="url(#clip0_240_3428)">
<path d="M82.6431 48.0333L35.5359 123.26V73.7179L35.624 73.6348C35.7838 73.4842 36.0183 73.2635 36.3172 72.983C36.9149 72.422 37.77 71.6221 38.7991 70.6663C40.8574 68.7546 43.6107 66.2206 46.3923 63.7296C49.1754 61.2372 51.9807 58.7936 54.1448 57.0599C55.2293 56.1911 56.1397 55.5112 56.8005 55.0928C57.1156 54.8932 57.351 54.7681 57.5095 54.7063C58.0181 55.2971 58.8154 55.5715 59.7036 55.6632C60.6932 55.7653 61.8995 55.6532 63.2187 55.4034C65.862 54.903 69.0813 53.8254 72.1821 52.6217C75.2883 51.4158 78.2987 50.0742 80.531 49.035C81.3506 48.6534 82.0659 48.3123 82.6431 48.0333Z" fill="#F8F8F8" stroke="#D42A4B"/>
<path d="M47.0886 47.2927L82.4388 47.3079L47.0886 72.5194V47.2927Z" fill="#F8F8F8" stroke="#D42A4B"/>
<path d="M46.0886 1.72256V72.9901H0.908977L46.0886 1.72256Z" fill="#F8F8F8" stroke="#D42A4B"/>
</g>
<defs>
<clipPath id="clip0_240_3428">
<rect width="84" height="125" fill="white"/>
</clipPath>
</defs>
</svg>
