<svg width="157" height="46" viewBox="0 0 157 46" fill="none" xmlns="http://www.w3.org/2000/svg">
<g clip-path="url(#clip0_133_4830)">
<path d="M54.0381 0H9.19502C6.75796 0.00738704 4.42282 1.01011 2.69987 2.78905C0.97692 4.56799 0.00625905 6.97851 0 9.49384L0 26.3652C0.00625905 28.8805 0.97692 31.291 2.69987 33.07C4.42282 34.8489 6.75796 35.8516 9.19502 35.859H31.6657L14.5297 18.1901V29.0657L7.90372 22.2409V7.21658H14.5297V18.1901L24.955 7.24107H47.6324C50.2693 7.24107 53.9975 9.33992 53.9975 13.8875C53.9975 18.435 50.5845 20.212 47.0156 20.212H45.3752C43.1248 20.212 42.4266 20.6983 42.4266 21.8211V23.2973H52.8214L58.5051 28.9643H36.2988V21.2684C36.2988 16.4621 40.7726 15.8989 43.118 15.8989H46.1988C47.9883 15.8989 48.0595 12.9325 46.2429 12.9325H28.6696L23.6095 18.0922L40.8709 35.859H54.0381C56.4755 35.8516 58.811 34.849 60.5345 33.0702C62.258 31.2913 63.2294 28.8808 63.2365 26.3652V9.49384C63.2294 6.97819 62.258 4.56768 60.5345 2.78884C58.811 1.00999 56.4755 0.00738274 54.0381 0Z" fill="#CD072D"/>
<path d="M73.7634 12.2748H72.3806V15.8673H70.3945V6.95068H72.3806V10.5572H73.8143L76.0851 6.95068H78.1932L75.3666 11.2568L78.2813 15.8673H76.0105L73.7634 12.2748Z" fill="#13367C"/>
<path d="M87.1273 6.95068V15.8673H85.1514V8.63327H82.1926L82.1282 10.4943C82.1109 11.5269 82.0122 12.5564 81.8333 13.5726C81.7323 14.2396 81.4622 14.8671 81.0504 15.3916C80.8543 15.6056 80.6154 15.7729 80.3502 15.8816C80.085 15.9904 79.8 16.0381 79.515 16.0213C79.1812 16.0117 78.8494 15.9648 78.5254 15.8813L78.6508 14.1323C78.7661 14.1685 78.8861 14.1862 79.0067 14.1848C79.4845 14.1848 79.8167 13.8909 80.0065 13.3102C80.24 12.4194 80.3608 11.5011 80.3657 10.5782L80.4878 6.96118L87.1273 6.95068Z" fill="#13367C"/>
<path d="M99.2508 7.39852C99.9315 7.78257 100.497 8.35259 100.884 9.04613C101.285 9.7637 101.489 10.5795 101.477 11.4073C101.49 12.2364 101.285 13.0535 100.884 13.7721C100.497 14.4656 99.9315 15.0356 99.2508 15.4197C98.5341 15.8234 97.7286 16.0294 96.9122 16.0178C96.1791 16.0275 95.4536 15.8648 94.7905 15.5421C94.1625 15.2345 93.6175 14.772 93.2037 14.1955C92.79 13.6189 92.5201 12.9461 92.418 12.2364H91.2725V15.8674H89.2864V6.95077H91.2725V10.4489H92.4316C92.5558 9.75603 92.8381 9.1037 93.2552 8.5459C93.6694 7.98953 94.2093 7.54635 94.8278 7.2551C95.4809 6.94418 96.193 6.78762 96.9122 6.79685C97.7286 6.78525 98.5341 6.99129 99.2508 7.39503M98.2069 13.9015C98.5967 13.6599 98.9135 13.3111 99.122 12.894C99.352 12.4336 99.4684 11.9218 99.4609 11.4038C99.4679 10.8871 99.3515 10.3765 99.122 9.91715C98.9135 9.50012 98.5967 9.15126 98.2069 8.9097C97.813 8.67582 97.3666 8.55273 96.9122 8.55273C96.4578 8.55273 96.0113 8.67582 95.6175 8.9097C95.2277 9.15126 94.9108 9.50012 94.7024 9.91715C94.4729 10.3765 94.3565 10.8871 94.3635 11.4038C94.3559 11.9218 94.4724 12.4336 94.7024 12.894C94.9108 13.3111 95.2277 13.6599 95.6175 13.9015C96.0113 14.1354 96.4578 14.2585 96.9122 14.2585C97.3666 14.2585 97.813 14.1354 98.2069 13.9015Z" fill="#13367C"/>
<path d="M109.944 6.95084V15.8675H107.968V12.6562C107.302 12.9198 106.596 13.0618 105.883 13.076C104.724 13.076 103.833 12.7892 103.216 12.219C102.599 11.6488 102.291 10.8197 102.291 9.74233V6.94385H104.267V9.50446C104.249 9.75613 104.282 10.0089 104.363 10.2467C104.445 10.4846 104.574 10.7023 104.741 10.8862C105.123 11.2209 105.617 11.3879 106.117 11.3515C106.754 11.3553 107.385 11.2206 107.968 10.9562V6.95084H109.944Z" fill="#13367C"/>
<path d="M118.776 14.2127V15.8673H112.089V6.95068H118.617V8.60878H114.075V10.5432H118.085V12.1489H114.075V14.2127H118.776Z" fill="#13367C"/>
<path d="M127.588 12.009C127.875 12.3941 128.024 12.8701 128.008 13.3557C128.023 13.7139 127.951 14.0702 127.799 14.3926C127.647 14.715 127.419 14.9933 127.137 15.2027C126.559 15.6458 125.73 15.8674 124.65 15.8674H120.393V6.9507H124.416C125.237 6.90234 126.053 7.11082 126.758 7.54887C127.028 7.73532 127.246 7.99031 127.393 8.28929C127.54 8.58827 127.609 8.92117 127.595 9.25595C127.603 9.66829 127.492 10.0738 127.276 10.4208C127.052 10.7662 126.74 11.0419 126.375 11.2184C126.849 11.3444 127.272 11.621 127.585 12.009M122.376 10.6447H124.24C124.589 10.6709 124.936 10.5747 125.226 10.3718C125.34 10.2745 125.431 10.1505 125.49 10.01C125.549 9.86951 125.574 9.71656 125.565 9.56378C125.573 9.41171 125.546 9.25981 125.488 9.12014C125.429 8.98048 125.339 8.8569 125.226 8.75922C124.938 8.55462 124.592 8.45604 124.243 8.47937H122.379L122.376 10.6447ZM125.978 13.1913C125.978 12.4544 125.509 12.0847 124.572 12.0824H122.376V14.3422H124.572C125.509 14.3422 125.978 13.9597 125.978 13.1948" fill="#13367C"/>
<path d="M131.282 15.4197C130.582 15.0413 129.996 14.4713 129.588 13.7721C129.177 13.0571 128.966 12.2386 128.978 11.4074C128.967 10.5774 129.178 9.76027 129.588 9.04617C129.996 8.34696 130.582 7.77697 131.282 7.39856C132.033 7.00527 132.863 6.80029 133.704 6.80029C134.546 6.80029 135.375 7.00527 136.126 7.39856C136.829 7.78676 137.418 8.36488 137.828 9.07123C138.238 9.77757 138.455 10.5856 138.455 11.4091C138.455 12.2326 138.238 13.0407 137.828 13.747C137.418 14.4534 136.829 15.0315 136.126 15.4197C135.375 15.813 134.546 16.018 133.704 16.018C132.863 16.018 132.033 15.813 131.282 15.4197ZM135.089 13.898C135.497 13.6617 135.833 13.3113 136.058 12.8871C136.29 12.4311 136.41 11.924 136.41 11.4091C136.41 10.8943 136.29 10.3872 136.058 9.93118C135.833 9.50694 135.497 9.15659 135.089 8.92023C134.665 8.68142 134.19 8.55626 133.707 8.55626C133.225 8.55626 132.75 8.68142 132.326 8.92023C131.918 9.15659 131.582 9.50694 131.357 9.93118C131.125 10.3872 131.004 10.8943 131.004 11.4091C131.004 11.924 131.125 12.4311 131.357 12.8871C131.582 13.3113 131.918 13.6617 132.326 13.898C132.75 14.1368 133.225 14.262 133.707 14.262C134.19 14.262 134.665 14.1368 135.089 13.898Z" fill="#13367C"/>
<path d="M139.976 6.95068H141.962V12.7575L146.076 6.95068H147.951V15.8673H145.978V10.071L141.864 15.8673H139.976V6.95068ZM141.569 4.42855H142.924C142.941 5.05121 143.28 5.35904 143.941 5.35904C144.211 5.37873 144.479 5.29533 144.694 5.12467C144.785 5.03482 144.856 4.92589 144.903 4.8052C144.95 4.68452 144.971 4.55489 144.965 4.42505H146.32C146.337 4.69742 146.293 4.97012 146.192 5.22232C146.091 5.47453 145.936 5.69957 145.738 5.88026C145.213 6.25071 144.582 6.42589 143.948 6.37699C142.366 6.37699 141.569 5.72751 141.555 4.42855" fill="#13367C"/>
<path d="M73.7634 25.7846H72.3806V29.3771H70.3945V20.4604H72.3806V24.067H73.8143L76.0851 20.4604H78.1932L75.3666 24.7666L78.2813 29.3771H76.0105L73.7634 25.7846Z" fill="#13367C"/>
<path d="M80.8777 28.9292C80.1771 28.5508 79.5908 27.9808 79.183 27.2816C78.7835 26.5624 78.5732 25.7477 78.5732 24.9187C78.5732 24.0896 78.7835 23.2749 79.183 22.5557C79.5908 21.8565 80.1771 21.2865 80.8777 20.9081C81.628 20.5148 82.4577 20.3098 83.2993 20.3098C84.1409 20.3098 84.9705 20.5148 85.7209 20.9081C86.4276 21.2911 87.0174 21.8689 87.4249 22.5772C87.8324 23.2856 88.0415 24.0967 88.029 24.9204C88.0404 25.7525 87.8268 26.5714 87.4121 27.2851C87.0015 27.982 86.416 28.5513 85.7175 28.9327C84.9672 29.326 84.1375 29.531 83.2959 29.531C82.4543 29.531 81.6246 29.326 80.8743 28.9327M84.6804 27.411C85.0883 27.1736 85.424 26.8235 85.6497 26.4001C85.8813 25.9441 86.0023 25.437 86.0023 24.9222C86.0023 24.4073 85.8813 23.9002 85.6497 23.4442C85.424 23.0208 85.0883 22.6707 84.6804 22.4333C84.2568 22.1944 83.7819 22.0693 83.2993 22.0693C82.8166 22.0693 82.3417 22.1944 81.9182 22.4333C81.5117 22.6682 81.1771 23.016 80.9522 23.4372C80.7206 23.8932 80.5997 24.4003 80.5997 24.9152C80.5997 25.43 80.7206 25.9371 80.9522 26.3931C81.177 26.8173 81.5129 27.1677 81.9216 27.4041C82.3451 27.6429 82.82 27.768 83.3027 27.768C83.7853 27.768 84.2602 27.6429 84.6838 27.4041" fill="#13367C"/>
<path d="M97.4307 29.3771L97.4171 24.039L94.8752 28.4326H93.9872L91.4453 24.1439V29.3771H89.571V20.4604H91.225L94.4583 26.0014L97.6408 20.4604H99.2948L99.305 29.3771H97.4307Z" fill="#13367C"/>
<path d="M109.327 20.4604V29.3771H107.337V22.143H103.44V29.3771H101.454V20.4604H109.327Z" fill="#13367C"/>
<path d="M113.17 28.9292C112.469 28.5519 111.882 27.9816 111.476 27.2816C111.076 26.5624 110.866 25.7477 110.866 24.9187C110.866 24.0896 111.076 23.2749 111.476 22.5557C111.882 21.8557 112.469 21.2855 113.17 20.9081C113.921 20.5148 114.75 20.3098 115.592 20.3098C116.433 20.3098 117.263 20.5148 118.013 20.9081C118.719 21.2922 119.308 21.8703 119.714 22.5785C120.121 23.2867 120.33 24.0972 120.318 24.9204C120.331 25.7527 120.117 26.5721 119.701 27.2851C119.292 27.9831 118.706 28.5527 118.007 28.9327C117.256 29.326 116.427 29.531 115.585 29.531C114.743 29.531 113.914 29.326 113.163 28.9327M116.969 27.411C117.381 27.1742 117.719 26.8226 117.946 26.3966C118.178 25.9402 118.299 25.4324 118.299 24.9169C118.299 24.4014 118.178 23.8936 117.946 23.4372C117.721 23.0139 117.387 22.6637 116.98 22.4263C116.555 22.1874 116.08 22.0623 115.597 22.0623C115.114 22.0623 114.638 22.1874 114.214 22.4263C113.806 22.664 113.469 23.014 113.241 23.4372C113.012 23.8939 112.892 24.4008 112.892 24.9152C112.892 25.4296 113.012 25.9364 113.241 26.3931C113.469 26.8181 113.807 27.1693 114.217 27.4075C114.642 27.6464 115.117 27.7715 115.6 27.7715C116.083 27.7715 116.559 27.6464 116.983 27.4075" fill="#13367C"/>
<path d="M129.784 20.4604V29.3771H127.785V25.7216H123.86V29.3771H121.864V20.4604H123.86V23.976H127.785V20.4604H129.784Z" fill="#13367C"/>
<path d="M138.63 27.719V29.3771H131.943V20.4604H138.471V22.1185H133.929V24.053H137.939V25.6586H133.929V27.719H138.63Z" fill="#13367C"/>
<path d="M148.168 20.4604V29.3771H146.171V25.7216H142.247V29.3771H140.247V20.4604H142.247V23.976H146.171V20.4604H148.168Z" fill="#13367C"/>
<path d="M156.929 22.143H154.166V29.3771H152.191V22.143H149.438V20.4604H156.929V22.143Z" fill="#13367C"/>
<path d="M3.86385 42.4389C4.13544 42.6001 4.35926 42.8347 4.5112 43.1175C4.66696 43.4183 4.74845 43.7541 4.74845 44.0952C4.74845 44.4363 4.66696 44.7721 4.5112 45.0729C4.36084 45.3624 4.13708 45.6042 3.86385 45.7725C3.58088 45.9379 3.26033 46.0224 2.9352 46.0174C2.65974 46.0215 2.38603 45.9716 2.12856 45.8705C1.89674 45.7761 1.68996 45.6263 1.52528 45.4332L1.8642 45.0834C2.00035 45.2297 2.16497 45.3446 2.34722 45.4206C2.52947 45.4966 2.72523 45.5319 2.92164 45.5242C3.14122 45.5269 3.35794 45.4727 3.55204 45.3668C3.7401 45.2638 3.89984 45.1134 4.01637 44.9295C4.13644 44.7354 4.21073 44.515 4.23328 44.2859H2.47088V43.8486H4.21295C4.18256 43.629 4.10371 43.4196 3.98248 43.2364C3.8635 43.0614 3.70538 42.9186 3.52154 42.8201C3.33113 42.7224 3.12075 42.6732 2.90809 42.6767C2.71176 42.6697 2.51618 42.7053 2.33402 42.7812C2.15187 42.8571 1.98719 42.9717 1.85064 43.1175L1.51172 42.7677C1.68092 42.5712 1.89374 42.4199 2.13195 42.3269C2.38772 42.2235 2.66053 42.1724 2.9352 42.1765C3.26062 42.1728 3.58114 42.2585 3.86385 42.4249" fill="#CD072D"/>
<path d="M12.2554 42.2327V45.9581H11.7403V44.2965H9.66943V45.9581H9.15088V42.2327H9.66943V43.8348H11.7403V42.2327H12.2554Z" fill="#CD072D"/>
<path d="M19.5696 45.4964V45.9581H16.9497V42.2327H19.495V42.6979H17.4649V43.8418H19.2747V44.293H17.4649V45.4964H19.5696Z" fill="#CD072D"/>
<path d="M26.4565 42.5789C26.5835 42.7007 26.6848 42.8482 26.754 43.0122C26.8233 43.1762 26.859 43.3532 26.859 43.5321C26.859 43.711 26.8233 43.888 26.754 44.052C26.6848 44.2161 26.5835 44.3636 26.4565 44.4854C26.1414 44.7337 25.7508 44.8577 25.355 44.8352H24.4602V45.9651H23.9451V42.2326H25.355C25.7508 42.2101 26.1414 42.3341 26.4565 42.5824M26.0972 44.153C26.1833 44.0764 26.2513 43.9804 26.2959 43.8725C26.3406 43.7646 26.3607 43.6476 26.3548 43.5304C26.3612 43.4136 26.3413 43.297 26.2966 43.1895C26.2519 43.0821 26.1837 42.9868 26.0972 42.9112C25.8787 42.7531 25.6145 42.6766 25.3482 42.6943H24.4602V44.3664H25.338C25.604 44.3852 25.8681 44.31 26.0871 44.153" fill="#CD072D"/>
<path d="M33.5061 42.6979H31.6488L31.6556 45.9581H31.1438V42.2327H33.5095L33.5061 42.6979Z" fill="#CD072D"/>
<path d="M37.6919 42.2327H38.2037V45.1081L40.3389 42.2327H40.8134V45.9581H40.305V43.0897L38.1664 45.9581H37.6919V42.2327Z" fill="#CD072D"/>
<path d="M48.1511 42.2327V45.9581H47.6461V44.8737H46.6497H46.5107L45.7888 45.9651H45.2431L46.0396 44.7828C45.7989 44.7081 45.5898 44.5515 45.4465 44.3385C45.3058 44.1139 45.2349 43.8503 45.2431 43.5829C45.233 43.3981 45.2631 43.2133 45.3311 43.042C45.3991 42.8707 45.5034 42.7173 45.6363 42.593C45.9377 42.3462 46.3163 42.2218 46.7005 42.2432L48.1511 42.2327ZM45.9955 44.2056C46.1884 44.3608 46.4291 44.4391 46.6734 44.426H47.6291V42.6979H46.7039C46.4487 42.6807 46.196 42.759 45.9921 42.9183C45.9075 43.0016 45.8415 43.103 45.7987 43.2154C45.756 43.3278 45.7376 43.4484 45.7447 43.5689C45.7372 43.6862 45.7541 43.8037 45.7945 43.9136C45.8348 44.0234 45.8976 44.123 45.9786 44.2056" fill="#CD072D"/>
<path d="M60.5996 44.3488C60.7296 44.5159 60.797 44.7258 60.7894 44.94C60.797 45.0844 60.7701 45.2286 60.711 45.3597C60.6519 45.4909 60.5624 45.605 60.4505 45.692C60.1549 45.8896 59.8053 45.9829 59.454 45.9579H57.8035V42.2324H59.3557C59.6818 42.2129 60.0055 42.2998 60.281 42.4808C60.3896 42.5589 60.4775 42.6639 60.5367 42.7861C60.5959 42.9083 60.6245 43.0439 60.6199 43.1804C60.6256 43.3645 60.5746 43.5458 60.4742 43.6981C60.369 43.8447 60.2239 43.9555 60.0573 44.0165C60.2712 44.0595 60.4661 44.1723 60.6131 44.3383M58.2949 43.873H59.3117C59.5147 43.8863 59.7166 43.8324 59.8879 43.7191C59.9543 43.6656 60.0072 43.5963 60.042 43.5171C60.0768 43.4379 60.0925 43.3512 60.0878 43.2644C60.0927 43.1772 60.0767 43.09 60.0413 43.0107C60.0058 42.9314 59.9519 42.8623 59.8845 42.8096C59.7153 42.694 59.5141 42.6387 59.3117 42.6522H58.2949V43.873ZM60.2539 44.898C60.2597 44.8079 60.2435 44.7178 60.2068 44.6359C60.1701 44.554 60.114 44.4829 60.0438 44.4292C59.8569 44.3143 59.6406 44.2606 59.4235 44.2753H58.2949V45.5381H59.4235C59.976 45.5381 60.2539 45.3247 60.2539 44.898Z" fill="#CD072D"/>
<path d="M67.8357 45.4964V45.9581H65.2158V42.2327H67.7645V42.6979H65.731V43.8418H67.5408V44.293H65.731V45.4964H67.8357Z" fill="#CD072D"/>
<path d="M74.726 42.5789C74.8521 42.7012 74.9526 42.8489 75.0213 43.0128C75.09 43.1768 75.1254 43.3535 75.1254 43.5321C75.1254 43.7107 75.09 43.8874 75.0213 44.0514C74.9526 44.2153 74.8521 44.363 74.726 44.4853C74.4096 44.7336 74.018 44.8576 73.6211 44.8352H72.7298V45.965H72.2146V42.2326H73.6211C74.018 42.2101 74.4096 42.3341 74.726 42.5824M74.3532 44.1565C74.4399 44.0804 74.5083 43.9845 74.553 43.8765C74.5977 43.7684 74.6175 43.6511 74.6108 43.5339C74.6177 43.4171 74.598 43.3002 74.5533 43.1927C74.5086 43.0851 74.44 42.9899 74.3532 42.9147C74.1362 42.756 73.8729 42.6794 73.6076 42.6978H72.7298V44.3699H73.6076C73.8725 44.3893 74.1358 44.314 74.3532 44.1565Z" fill="#CD072D"/>
<path d="M82.5179 42.2327V45.9581H81.9993V44.2965H79.9285V45.9581H79.4133V42.2327H79.9285V43.8348H81.9993V42.2327H82.5179Z" fill="#CD072D"/>
<path d="M89.7812 43.8313C89.8984 43.9416 89.9898 44.0779 90.0485 44.23C90.1072 44.3821 90.1317 44.546 90.1201 44.7093C90.1305 44.8831 90.1027 45.0571 90.0387 45.2183C89.9747 45.3794 89.8762 45.5235 89.7506 45.6398C89.4468 45.8713 89.0734 45.984 88.6966 45.9581H87.2053V42.2327H87.7171V43.5305H88.7983C89.1523 43.5066 89.503 43.6132 89.7879 43.8313M89.3744 45.3285C89.4564 45.2523 89.5206 45.158 89.5623 45.0526C89.6039 44.9472 89.622 44.8334 89.6151 44.7198C89.6151 44.2091 89.3033 43.9537 88.6864 43.9537H87.7273V45.5384H88.6864C88.9293 45.5529 89.1693 45.4786 89.3643 45.3285M90.6929 42.2327H91.2012V45.9581H90.6929V42.2327Z" fill="#CD072D"/>
<path d="M96.1053 42.2327L97.0475 43.5969L97.9897 42.2327H98.593L97.3729 44.0202L98.6913 45.9581H98.0846L97.0475 44.4749L96.0172 45.9581H95.4241L96.7391 44.0412L95.5122 42.2327H96.1053Z" fill="#CD072D"/>
<path d="M110.378 42.5789C110.504 42.7012 110.604 42.8489 110.673 43.0128C110.742 43.1768 110.777 43.3535 110.777 43.5321C110.777 43.7107 110.742 43.8874 110.673 44.0514C110.604 44.2153 110.504 44.363 110.378 44.4853C110.061 44.7336 109.67 44.8576 109.273 44.8352H108.381V45.965H107.866V42.2326H109.273C109.67 42.2101 110.061 42.3341 110.378 42.5824M110.005 44.1565C110.092 44.0804 110.16 43.9845 110.205 43.8765C110.249 43.7684 110.269 43.6511 110.262 43.5339C110.269 43.4171 110.25 43.3002 110.205 43.1927C110.16 43.0851 110.092 42.9899 110.005 42.9147C109.788 42.7565 109.524 42.68 109.259 42.6978H108.381V44.3699H109.259C109.524 44.3887 109.787 44.3134 110.005 44.1565Z" fill="#CD072D"/>
<path d="M117.685 45.4964V45.9581H115.065V42.2327H117.61V42.6979H115.58V43.8418H117.39V44.293H115.58V45.4964H117.685Z" fill="#CD072D"/>
<path d="M126.582 42.2327V45.9581H122.06V42.2327H122.572V45.4964H124.07V42.2327H124.575V45.4964H126.077V42.2327H126.582Z" fill="#CD072D"/>
<path d="M133.896 45.4964V45.9581H131.276V42.2327H133.821V42.6979H131.791V43.8418H133.601V44.293H131.791V45.4964H133.896Z" fill="#CD072D"/>
<path d="M141.376 42.2327V45.9581H140.86V44.2965H138.786V45.9581H138.271V42.2327H138.786V43.8348H140.86V42.2327H141.376Z" fill="#CD072D"/>
<path d="M146.07 42.2327H146.578V45.1081L148.713 42.2327H149.188V45.9581H148.683V43.0897L146.544 45.9581H146.07V42.2327Z" fill="#CD072D"/>
<path d="M153.872 42.2326H154.38V45.1256L156.515 42.2501H156.99V45.9756H156.485V43.1072L154.343 45.9756H153.872V42.2326ZM154.77 41.7849C154.693 41.7192 154.632 41.6361 154.591 41.542C154.551 41.448 154.532 41.3455 154.536 41.2427H154.902C154.9 41.304 154.912 41.3648 154.937 41.4206C154.962 41.4764 154.998 41.5256 155.044 41.5645C155.153 41.6475 155.286 41.6884 155.42 41.6799C155.555 41.6866 155.688 41.6459 155.797 41.5645C155.844 41.5263 155.881 41.4773 155.907 41.4214C155.932 41.3656 155.944 41.3043 155.942 41.2427H156.305C156.309 41.3453 156.289 41.4473 156.248 41.5408C156.207 41.6342 156.145 41.7166 156.068 41.7814C155.879 41.9196 155.651 41.9874 155.42 41.9738C155.189 41.9893 154.959 41.9226 154.77 41.7849Z" fill="#CD072D"/>
</g>
<defs>
<clipPath id="clip0_133_4830">
<rect width="157" height="46" fill="white"/>
</clipPath>
</defs>
</svg>
