<svg width="720" height="217" viewBox="0 0 720 217" fill="none" xmlns="http://www.w3.org/2000/svg">
<g opacity="0.14">
<g clip-path="url(#clip0_133_3603)">
<path d="M101.394 172.732L60.0665 116.671L128.36 145.921L101.394 172.732Z" fill="url(#paint0_linear_133_3603)"/>
<path d="M632.004 63.129L584.718 110.253L623.066 135.765L632.004 63.129Z" fill="url(#paint1_linear_133_3603)"/>
<path d="M137.374 75.2349L128.36 145.921L157.694 98.1469L137.374 75.2349Z" fill="url(#paint2_linear_133_3603)"/>
<path d="M258.3 65.0791L162.506 108.384L157.694 98.1471L258.3 65.0791Z" fill="url(#paint3_linear_133_3603)"/>
<path d="M396.644 202.632L362.497 194.994L397.255 224.325L396.644 202.632Z" fill="url(#paint4_linear_133_3603)"/>
<path d="M362.497 194.995L342.788 237.081L397.255 224.325L362.497 194.995Z" fill="url(#paint5_linear_133_3603)"/>
<path d="M128.36 145.921L101.394 172.732L151.735 154.208L128.36 145.921Z" fill="url(#paint6_linear_133_3603)"/>
<path d="M679.366 156.808L623.066 135.765L688.915 135.115L679.366 156.808Z" fill="url(#paint7_linear_133_3603)"/>
<path d="M632.004 63.129L623.066 135.765L688.915 135.115L632.004 63.129Z" fill="url(#paint8_linear_133_3603)"/>
<path d="M729.631 297.529L679.366 156.808L688.915 135.115L729.631 297.529Z" fill="url(#paint9_linear_133_3603)"/>
<path d="M493.66 32.5798L490.07 67.5977L467.916 63.129L493.66 32.5798Z" fill="url(#paint10_linear_133_3603)"/>
<path d="M258.3 65.079L162.506 108.384L190.007 133.246L258.3 65.079Z" fill="url(#paint11_linear_133_3603)"/>
<path d="M396.644 202.632L362.498 194.995L414.672 152.339L396.644 202.632Z" fill="url(#paint12_linear_133_3603)"/>
<path d="M151.735 154.208L101.394 172.732L94.8242 203.932L151.735 154.208Z" fill="url(#paint13_linear_133_3603)"/>
<path d="M133.784 293.711L84.0533 226.194L94.8244 203.932L133.784 293.711Z" fill="url(#paint14_linear_133_3603)"/>
<path d="M84.0532 226.194L71.4487 208.969L94.8242 203.932L84.0532 226.194Z" fill="url(#paint15_linear_133_3603)"/>
<path d="M101.394 172.733L60.0664 116.671L55.8649 180.37L101.394 172.733Z" fill="url(#paint16_linear_133_3603)"/>
<path d="M362.497 194.995L342.788 237.081L240.96 224.325L362.497 194.995Z" fill="url(#paint17_linear_133_3603)"/>
<path d="M362.497 194.994L258.3 65.0789L240.96 224.325L362.497 194.994Z" fill="url(#paint18_linear_133_3603)"/>
<path d="M258.3 65.0789L190.007 133.246L240.96 224.325L258.3 65.0789Z" fill="url(#paint19_linear_133_3603)"/>
<path d="M190.007 133.246L151.735 154.208L240.96 224.325L190.007 133.246Z" fill="url(#paint20_linear_133_3603)"/>
<path d="M679.366 156.808L623.066 135.765L670.963 182.888L679.366 156.808Z" fill="url(#paint21_linear_133_3603)"/>
<path d="M623.066 135.765L570.356 235.131L670.963 182.888L623.066 135.765Z" fill="url(#paint22_linear_133_3603)"/>
<path d="M729.631 297.529L679.366 156.808L670.963 182.888L729.631 297.529Z" fill="url(#paint23_linear_133_3603)"/>
<path d="M151.735 154.208L94.8241 203.932L204.445 275.917L151.735 154.208Z" fill="url(#paint24_linear_133_3603)"/>
<path d="M133.783 293.711L94.8241 203.932L204.445 275.917L133.783 293.711Z" fill="url(#paint25_linear_133_3603)"/>
<path d="M240.96 224.325L151.735 154.208L204.445 275.917L240.96 224.325Z" fill="url(#paint26_linear_133_3603)"/>
<path d="M60.0666 116.671L52.2748 93.7595L-27.3243 131.946L60.0666 116.671Z" fill="url(#paint27_linear_133_3603)"/>
<path d="M52.2747 93.7595L-18.3868 88.6409L-27.3244 131.946L52.2747 93.7595Z" fill="url(#paint28_linear_133_3603)"/>
<path d="M414.672 152.339L362.498 194.994L370.289 22.9924L414.672 152.339Z" fill="url(#paint29_linear_133_3603)"/>
<path d="M362.497 194.994L258.3 65.0789L370.289 22.9924L362.497 194.994Z" fill="url(#paint30_linear_133_3603)"/>
<path d="M623.066 135.765L584.718 110.253L560.196 154.208L623.066 135.765Z" fill="url(#paint31_linear_133_3603)"/>
<path d="M623.066 135.765L570.356 235.131L560.196 154.208L623.066 135.765Z" fill="url(#paint32_linear_133_3603)"/>
<path d="M584.718 110.253L520.626 103.266L560.196 154.208L584.718 110.253Z" fill="url(#paint33_linear_133_3603)"/>
<path d="M570.356 235.131L560.808 235.781L560.196 154.208L570.356 235.131Z" fill="url(#paint34_linear_133_3603)"/>
<path d="M560.808 235.781L518.869 142.752L560.196 154.208L560.808 235.781Z" fill="url(#paint35_linear_133_3603)"/>
<path d="M520.626 103.266L518.869 142.752L560.196 154.208L520.626 103.266Z" fill="url(#paint36_linear_133_3603)"/>
<path d="M560.808 235.781L518.869 142.752L454.166 201.982L560.808 235.781Z" fill="url(#paint37_linear_133_3603)"/>
<path d="M560.808 235.781L487.091 261.211L454.166 201.982L560.808 235.781Z" fill="url(#paint38_linear_133_3603)"/>
<path d="M487.091 261.211L458.979 256.174L454.166 201.982L487.091 261.211Z" fill="url(#paint39_linear_133_3603)"/>
<path d="M458.979 256.174L397.255 224.325L454.166 201.982L458.979 256.174Z" fill="url(#paint40_linear_133_3603)"/>
<path d="M414.672 152.339L396.644 202.632L454.166 201.982L414.672 152.339Z" fill="url(#paint41_linear_133_3603)"/>
<path d="M397.255 224.325L396.644 202.632L454.166 201.982L397.255 224.325Z" fill="url(#paint42_linear_133_3603)"/>
<path d="M584.718 110.253L520.626 103.265L521.848 73.3661L584.718 110.253Z" fill="url(#paint43_linear_133_3603)"/>
<path d="M520.626 103.265L490.07 67.5975L521.848 73.3661L520.626 103.265Z" fill="url(#paint44_linear_133_3603)"/>
<path d="M493.66 32.5797L490.07 67.5976L521.848 73.3662L493.66 32.5797Z" fill="url(#paint45_linear_133_3603)"/>
<path d="M670.963 182.888L570.356 235.131L662.56 259.343L670.963 182.888Z" fill="url(#paint46_linear_133_3603)"/>
<path d="M729.631 297.529L670.963 182.888L662.56 259.343L729.631 297.529Z" fill="url(#paint47_linear_133_3603)"/>
<path d="M520.626 103.265L518.869 142.752L452.944 126.177L520.626 103.265Z" fill="url(#paint48_linear_133_3603)"/>
<path d="M520.626 103.266L490.07 67.5977L452.944 126.177L520.626 103.266Z" fill="url(#paint49_linear_133_3603)"/>
<path d="M518.869 142.752L454.166 201.982L452.944 126.177L518.869 142.752Z" fill="url(#paint50_linear_133_3603)"/>
<path d="M490.07 67.5977L467.917 63.1291L452.944 126.177L490.07 67.5977Z" fill="url(#paint51_linear_133_3603)"/>
<path d="M454.166 201.982L414.672 152.339L452.944 126.177L454.166 201.982Z" fill="url(#paint52_linear_133_3603)"/>
<path d="M60.0666 116.672L55.8651 180.37L9.19041 191.826L60.0666 116.672Z" fill="url(#paint53_linear_133_3603)"/>
<path d="M60.0666 116.672L-27.3243 131.946L9.19041 191.826L60.0666 116.672Z" fill="url(#paint54_linear_133_3603)"/>
<path d="M-27.3243 131.946L-45.3525 169.483L9.19043 191.826L-27.3243 131.946Z" fill="url(#paint55_linear_133_3603)"/>
<path d="M-45.3525 169.483L-59.714 196.945L9.19043 191.826L-45.3525 169.483Z" fill="url(#paint56_linear_133_3603)"/>
<path d="M-59.714 196.944L-62.6932 272.749L9.19042 191.826L-59.714 196.944Z" fill="url(#paint57_linear_133_3603)"/>
<path d="M137.374 75.2349L128.36 145.921L98.4145 81.0035L137.374 75.2349Z" fill="url(#paint58_linear_133_3603)"/>
<path d="M128.36 145.921L60.0665 116.671L98.4147 81.0035L128.36 145.921Z" fill="url(#paint59_linear_133_3603)"/>
<path d="M60.0664 116.671L52.2746 93.7595L98.4145 81.0035L60.0664 116.671Z" fill="url(#paint60_linear_133_3603)"/>
<path d="M729.631 297.529L688.915 135.115L763.778 51.6729L729.631 297.529Z" fill="url(#paint61_linear_133_3603)"/>
<path d="M632.004 63.1289L584.718 110.253L605.114 38.917L632.004 63.1289Z" fill="url(#paint62_linear_133_3603)"/>
<path d="M584.718 110.253L521.848 73.3661L605.114 38.917L584.718 110.253Z" fill="url(#paint63_linear_133_3603)"/>
<path d="M521.848 73.3662L493.66 32.5797L605.114 38.9171L521.848 73.3662Z" fill="url(#paint64_linear_133_3603)"/>
<path d="M467.916 63.1291L452.944 126.177L433.77 120.49L467.916 63.1291Z" fill="url(#paint65_linear_133_3603)"/>
<path d="M467.916 63.1289L397.255 22.3424L433.77 120.49L467.916 63.1289Z" fill="url(#paint66_linear_133_3603)"/>
<path d="M452.944 126.177L414.672 152.339L433.77 120.49L452.944 126.177Z" fill="url(#paint67_linear_133_3603)"/>
<path d="M414.672 152.339L370.289 22.9926L433.77 120.49L414.672 152.339Z" fill="url(#paint68_linear_133_3603)"/>
<path d="M397.255 22.3424L370.289 22.9924L433.77 120.49L397.255 22.3424Z" fill="url(#paint69_linear_133_3603)"/>
<path d="M101.394 172.732L94.8242 203.932L78.0183 198.163L101.394 172.732Z" fill="url(#paint70_linear_133_3603)"/>
<path d="M101.394 172.732L55.8649 180.37L78.0183 198.163L101.394 172.732Z" fill="url(#paint71_linear_133_3603)"/>
<path d="M94.8242 203.932L71.4487 208.969L78.0183 198.163L94.8242 203.932Z" fill="url(#paint72_linear_133_3603)"/>
<path d="M162.507 108.384L157.694 98.1468L154.715 137.633L162.507 108.384Z" fill="url(#paint73_linear_133_3603)"/>
<path d="M157.694 98.1469L128.36 145.921L154.715 137.633L157.694 98.1469Z" fill="url(#paint74_linear_133_3603)"/>
<path d="M151.735 154.208L128.36 145.921L154.715 137.633L151.735 154.208Z" fill="url(#paint75_linear_133_3603)"/>
<path d="M190.007 133.246L162.506 108.384L154.715 137.633L190.007 133.246Z" fill="url(#paint76_linear_133_3603)"/>
<path d="M190.007 133.246L151.735 154.208L154.715 137.633L190.007 133.246Z" fill="url(#paint77_linear_133_3603)"/>
<path d="M84.0532 226.194L71.4487 208.969L64.268 215.388L84.0532 226.194Z" fill="url(#paint78_linear_133_3603)"/>
<path d="M157.694 98.147L137.374 75.235L175.111 -26L157.694 98.147Z" fill="url(#paint79_linear_133_3603)"/>
<path d="M258.3 65.079L157.694 98.147L175.111 -26L258.3 65.079Z" fill="url(#paint80_linear_133_3603)"/>
<path d="M84.0532 226.194L64.268 215.388L25.9199 210.269L84.0532 226.194Z" fill="url(#paint81_linear_133_3603)"/>
<path d="M84.0532 226.194L12.7807 426.876L25.9199 210.269L84.0532 226.194Z" fill="url(#paint82_linear_133_3603)"/>
<path d="M55.865 180.37L9.19026 191.826L25.9198 210.269L55.865 180.37Z" fill="url(#paint83_linear_133_3603)"/>
<path d="M12.7807 426.876L-62.6933 272.749L25.9199 210.269L12.7807 426.876Z" fill="url(#paint84_linear_133_3603)"/>
<path d="M9.19033 191.826L-62.6933 272.749L25.9199 210.269L9.19033 191.826Z" fill="url(#paint85_linear_133_3603)"/>
<path d="M78.0183 198.163L71.4487 208.969L67.2473 207.751L78.0183 198.163Z" fill="url(#paint86_linear_133_3603)"/>
<path d="M78.0183 198.163L55.865 180.37L67.2473 207.75L78.0183 198.163Z" fill="url(#paint87_linear_133_3603)"/>
<path d="M71.4487 208.969L64.268 215.388L67.2473 207.75L71.4487 208.969Z" fill="url(#paint88_linear_133_3603)"/>
<path d="M64.268 215.388L25.9199 210.269L67.2473 207.75L64.268 215.388Z" fill="url(#paint89_linear_133_3603)"/>
<path d="M55.8651 180.37L25.9199 210.269L67.2473 207.75L55.8651 180.37Z" fill="url(#paint90_linear_133_3603)"/>
</g>
<path d="M128.138 395.388L262.463 621.064L512.266 464.05L759.845 15.2116L298.776 443.538L167.572 -20.1466L125.45 -65.7726L66.4867 -60.6216L-141.178 -207.531L-123.986 188.571L42.0864 307.094" stroke="#405B92" stroke-width="0.328385" stroke-miterlimit="10"/>
<path d="M62.6781 120.077L35.7294 369.324L298.776 443.538L512.266 464.051" stroke="#405B92" stroke-width="0.328385" stroke-miterlimit="10"/>
<path d="M167.572 -20.1464L-19.1476 229.445L66.4864 -60.6214" stroke="#405B92" stroke-width="0.328385" stroke-miterlimit="10"/>
<path d="M125.449 -65.7727L-19.1479 229.445" stroke="#405B92" stroke-width="0.328385" stroke-miterlimit="10"/>
<path d="M196.409 81.7768L324.654 -88.8628L419.665 52.1899L759.845 15.2118" stroke="#405B92" stroke-width="0.328385" stroke-miterlimit="10"/>
<path d="M419.665 52.1899L223.916 178.938" stroke="#405B92" stroke-width="0.328385" stroke-miterlimit="10"/>
<path d="M470.209 454.508L267.931 622.009L85.3172 390.261L2.74505 -115.638L293.293 442.59L572.529 49.8418L627.522 21.0003L681.336 45.6424L926.262 -23.0464L777.122 344.309L580.903 400.218" stroke="#405B92" stroke-width="0.328385" stroke-miterlimit="10"/>
<path d="M624.274 217.137L566.004 460.971L293.293 442.59L85.3169 390.261" stroke="#405B92" stroke-width="0.328385" stroke-miterlimit="10"/>
<path d="M572.529 49.8419L664.646 347.625L681.336 45.6425" stroke="#405B92" stroke-width="0.328385" stroke-miterlimit="10"/>
<path d="M627.522 21.0007L664.646 347.625" stroke="#405B92" stroke-width="0.328385" stroke-miterlimit="10"/>
<path d="M511.156 136.174L447.623 -67.61L310.781 33.3714L2.745 -115.637" stroke="#405B92" stroke-width="0.328385" stroke-miterlimit="10"/>
<path d="M310.781 33.3718L452.635 218.467" stroke="#405B92" stroke-width="0.328385" stroke-miterlimit="10"/>
<rect x="302.721" y="24.7429" width="15.1948" height="15.1948" rx="1.61206" fill="#405B92"/>
<rect x="562.723" y="39.9377" width="18.5716" height="18.5716" rx="1.5481" fill="#405B92"/>
<rect x="411.618" y="46.6912" width="11.8183" height="11.8183" rx="0.985154" fill="#405B92"/>
<rect x="621.815" y="17.9895" width="8.44165" height="8.44165" rx="0.703681" fill="#405B92"/>
<rect x="673.309" y="36.5613" width="16.8833" height="16.8833" rx="1.79119" fill="#405B92"/>
</g>
<defs>
<linearGradient id="paint0_linear_133_3603" x1="129.429" y1="168.183" x2="71.8369" y2="106.803" gradientUnits="userSpaceOnUse">
<stop stop-color="#76B6D6"/>
<stop offset="1" stop-color="#DADBDC"/>
</linearGradient>
<linearGradient id="paint1_linear_133_3603" x1="637.351" y1="128.127" x2="569.569" y2="83.9633" gradientUnits="userSpaceOnUse">
<stop stop-color="#CED0D4"/>
<stop offset="1" stop-color="#5EABD1"/>
</linearGradient>
<linearGradient id="paint2_linear_133_3603" x1="154.638" y1="149.252" x2="103.549" y2="128.047" gradientUnits="userSpaceOnUse">
<stop stop-color="#8ACAE9"/>
<stop offset="1" stop-color="#50ACD8"/>
</linearGradient>
<linearGradient id="paint3_linear_133_3603" x1="256.238" y1="109.278" x2="224.133" y2="34.7014" gradientUnits="userSpaceOnUse">
<stop stop-color="#76AFD4"/>
<stop offset="1" stop-color="#0088CF"/>
</linearGradient>
<linearGradient id="paint4_linear_133_3603" x1="404.588" y1="219.125" x2="375.117" y2="184.187" gradientUnits="userSpaceOnUse">
<stop stop-color="#0072BB"/>
<stop offset="1" stop-color="#0085CC"/>
</linearGradient>
<linearGradient id="paint5_linear_133_3603" x1="386.102" y1="243.662" x2="350.979" y2="191.626" gradientUnits="userSpaceOnUse">
<stop stop-color="#0095DA"/>
<stop offset="1" stop-color="#0089CF"/>
</linearGradient>
<linearGradient id="paint6_linear_133_3603" x1="149.214" y1="175.007" x2="126.58" y2="132.445" gradientUnits="userSpaceOnUse">
<stop stop-color="#69B3D6"/>
<stop offset="1" stop-color="#099ADC"/>
</linearGradient>
<linearGradient id="paint7_linear_133_3603" x1="699.075" y1="152.502" x2="688.709" y2="116.464" gradientUnits="userSpaceOnUse">
<stop stop-color="#0071BA"/>
<stop offset="1" stop-color="#6CADD2"/>
</linearGradient>
<linearGradient id="paint8_linear_133_3603" x1="673.866" y1="155.914" x2="600.118" y2="89.0077" gradientUnits="userSpaceOnUse">
<stop stop-color="#E3E4E5"/>
<stop offset="1" stop-color="#BED9E6"/>
</linearGradient>
<linearGradient id="paint9_linear_133_3603" x1="731.923" y1="291.273" x2="638.24" y2="262.258" gradientUnits="userSpaceOnUse">
<stop stop-color="#7FC8EB"/>
<stop offset="1" stop-color="#52A8D8"/>
</linearGradient>
<linearGradient id="paint10_linear_133_3603" x1="494.806" y1="64.8352" x2="461.986" y2="43.7255" gradientUnits="userSpaceOnUse">
<stop stop-color="#FDFDFD"/>
<stop offset="1" stop-color="#AACEE6"/>
</linearGradient>
<linearGradient id="paint11_linear_133_3603" x1="264.259" y1="125.609" x2="198.56" y2="33.2415" gradientUnits="userSpaceOnUse">
<stop stop-color="#76AFD3"/>
<stop offset="1" stop-color="#0090D6"/>
</linearGradient>
<linearGradient id="paint12_linear_133_3603" x1="415.131" y1="201.982" x2="363.813" y2="148.846" gradientUnits="userSpaceOnUse">
<stop stop-color="#008FD5"/>
<stop offset="1" stop-color="#00A4E8"/>
</linearGradient>
<linearGradient id="paint13_linear_133_3603" x1="150.513" y1="205.719" x2="100.276" y2="148.191" gradientUnits="userSpaceOnUse">
<stop stop-color="#009ADF"/>
<stop offset="1" stop-color="#099EE0"/>
</linearGradient>
<linearGradient id="paint14_linear_133_3603" x1="131.416" y1="289.892" x2="58.8706" y2="254.76" gradientUnits="userSpaceOnUse">
<stop stop-color="#7FB8DD"/>
<stop offset="1" stop-color="#0099DD"/>
</linearGradient>
<linearGradient id="paint15_linear_133_3603" x1="97.4215" y1="222.294" x2="74.6967" y2="198.486" gradientUnits="userSpaceOnUse">
<stop stop-color="#00ADEF"/>
<stop offset="1" stop-color="#00ADEF"/>
</linearGradient>
<linearGradient id="paint16_linear_133_3603" x1="94.0603" y1="194.426" x2="32.5675" y2="150.485" gradientUnits="userSpaceOnUse">
<stop stop-color="#0DA4E4"/>
<stop offset="1" stop-color="#4FC2EE"/>
</linearGradient>
<linearGradient id="paint17_linear_133_3603" x1="370.9" y1="232.937" x2="344.4" y2="156.303" gradientUnits="userSpaceOnUse">
<stop stop-color="#0096D4"/>
<stop offset="1" stop-color="#009DDD"/>
</linearGradient>
<linearGradient id="paint18_linear_133_3603" x1="339.886" y1="253.899" x2="183.134" y2="134.226" gradientUnits="userSpaceOnUse">
<stop stop-color="#68BFE1"/>
<stop offset="1" stop-color="#94CEE5"/>
</linearGradient>
<linearGradient id="paint19_linear_133_3603" x1="271.821" y1="192.963" x2="163.989" y2="152.51" gradientUnits="userSpaceOnUse">
<stop stop-color="#76CDED"/>
<stop offset="1" stop-color="#00ADEE"/>
</linearGradient>
<linearGradient id="paint20_linear_133_3603" x1="247.3" y1="218.963" x2="154.372" y2="127.924" gradientUnits="userSpaceOnUse">
<stop stop-color="#00ADEF"/>
<stop offset="1" stop-color="#00A9EB"/>
</linearGradient>
<linearGradient id="paint21_linear_133_3603" x1="682.727" y1="178.907" x2="635.377" y2="122.356" gradientUnits="userSpaceOnUse">
<stop stop-color="#0070B9"/>
<stop offset="1" stop-color="#1A80BD"/>
</linearGradient>
<linearGradient id="paint22_linear_133_3603" x1="655.608" y1="248.131" x2="554.219" y2="145.469" gradientUnits="userSpaceOnUse">
<stop stop-color="#A0C9DC"/>
<stop offset="1" stop-color="#9FC5DE"/>
</linearGradient>
<linearGradient id="paint23_linear_133_3603" x1="726.346" y1="301.267" x2="627.857" y2="254.338" gradientUnits="userSpaceOnUse">
<stop stop-color="#7FC9EC"/>
<stop offset="1" stop-color="#007DC5"/>
</linearGradient>
<linearGradient id="paint24_linear_133_3603" x1="207.577" y1="278.274" x2="84.1038" y2="167.045" gradientUnits="userSpaceOnUse">
<stop stop-color="#0076BA"/>
<stop offset="1" stop-color="#55A8D4"/>
</linearGradient>
<linearGradient id="paint25_linear_133_3603" x1="193.597" y1="301.348" x2="103.736" y2="191.692" gradientUnits="userSpaceOnUse">
<stop stop-color="#7FC9EC"/>
<stop offset="1" stop-color="#55C0ED"/>
</linearGradient>
<linearGradient id="paint26_linear_133_3603" x1="235.918" y1="278.274" x2="128.004" y2="187.815" gradientUnits="userSpaceOnUse">
<stop stop-color="#0081C2"/>
<stop offset="1" stop-color="#55A7D3"/>
</linearGradient>
<linearGradient id="paint27_linear_133_3603" x1="55.5596" y1="133.084" x2="26.9359" y2="67.5966" gradientUnits="userSpaceOnUse">
<stop stop-color="#DFE0E1"/>
<stop offset="1" stop-color="#EAEBEC"/>
</linearGradient>
<linearGradient id="paint28_linear_133_3603" x1="48.6843" y1="133.652" x2="11.5851" y2="65.4285" gradientUnits="userSpaceOnUse">
<stop stop-color="#DEDFE0"/>
<stop offset="1" stop-color="#EDEEEE"/>
</linearGradient>
<linearGradient id="paint29_linear_133_3603" x1="401.839" y1="218.8" x2="316.617" y2="192.981" gradientUnits="userSpaceOnUse">
<stop stop-color="#00A0E4"/>
<stop offset="1" stop-color="#55C8F4"/>
</linearGradient>
<linearGradient id="paint30_linear_133_3603" x1="389.005" y1="152.989" x2="236.682" y2="66.197" gradientUnits="userSpaceOnUse">
<stop stop-color="#76CDEE"/>
<stop offset="1" stop-color="#F3F3F3"/>
</linearGradient>
<linearGradient id="paint31_linear_133_3603" x1="616.649" y1="162.414" x2="574.531" y2="102.154" gradientUnits="userSpaceOnUse">
<stop stop-color="#279AD0"/>
<stop offset="1" stop-color="#199DDC"/>
</linearGradient>
<linearGradient id="paint32_linear_133_3603" x1="624.67" y1="235.456" x2="533.033" y2="177.464" gradientUnits="userSpaceOnUse">
<stop stop-color="#90B9CD"/>
<stop offset="1" stop-color="#ADCFE0"/>
</linearGradient>
<linearGradient id="paint33_linear_133_3603" x1="590.142" y1="149.089" x2="539.479" y2="85.3791" gradientUnits="userSpaceOnUse">
<stop stop-color="#0094DA"/>
<stop offset="1" stop-color="#1991D1"/>
</linearGradient>
<linearGradient id="paint34_linear_133_3603" x1="568.294" y1="256.58" x2="547.835" y2="254.026" gradientUnits="userSpaceOnUse">
<stop stop-color="#EFEFEF"/>
<stop offset="1" stop-color="#B8DAEA"/>
</linearGradient>
<linearGradient id="paint35_linear_133_3603" x1="571.502" y1="211.732" x2="500.395" y2="179.677" gradientUnits="userSpaceOnUse">
<stop stop-color="#EDEDED"/>
<stop offset="1" stop-color="#68BFE6"/>
</linearGradient>
<linearGradient id="paint36_linear_133_3603" x1="554.085" y1="162.089" x2="503.208" y2="120.831" gradientUnits="userSpaceOnUse">
<stop stop-color="#0083CA"/>
<stop offset="1" stop-color="#19A2E0"/>
</linearGradient>
<linearGradient id="paint37_linear_133_3603" x1="561.266" y1="235.456" x2="467.246" y2="127.682" gradientUnits="userSpaceOnUse">
<stop stop-color="#76C0E3"/>
<stop offset="1" stop-color="#0084C7"/>
</linearGradient>
<linearGradient id="paint38_linear_133_3603" x1="547.668" y1="266.736" x2="505.696" y2="180.415" gradientUnits="userSpaceOnUse">
<stop stop-color="#B0D4E6"/>
<stop offset="1" stop-color="#268FC7"/>
</linearGradient>
<linearGradient id="paint39_linear_133_3603" x1="482.737" y1="274.292" x2="431.389" y2="245.741" gradientUnits="userSpaceOnUse">
<stop stop-color="#0099DD"/>
<stop offset="1" stop-color="#0087CA"/>
</linearGradient>
<linearGradient id="paint40_linear_133_3603" x1="469.979" y1="248.212" x2="415.197" y2="185.798" gradientUnits="userSpaceOnUse">
<stop stop-color="#0080C2"/>
<stop offset="1" stop-color="#005EA2"/>
</linearGradient>
<linearGradient id="paint41_linear_133_3603" x1="443.624" y1="208.4" x2="391.817" y2="156.608" gradientUnits="userSpaceOnUse">
<stop stop-color="#0074B8"/>
<stop offset="1" stop-color="#005EA2"/>
</linearGradient>
<linearGradient id="paint42_linear_133_3603" x1="450.958" y1="223.512" x2="438.736" y2="187.492" gradientUnits="userSpaceOnUse">
<stop stop-color="#0063A8"/>
<stop offset="1" stop-color="#005EA2"/>
</linearGradient>
<linearGradient id="paint43_linear_133_3603" x1="573.794" y1="116.184" x2="541.169" y2="59.5947" gradientUnits="userSpaceOnUse">
<stop stop-color="#0082CA"/>
<stop offset="1" stop-color="#0071BA"/>
</linearGradient>
<linearGradient id="paint44_linear_133_3603" x1="527.425" y1="97.9843" x2="491.272" y2="65.8139" gradientUnits="userSpaceOnUse">
<stop stop-color="#0072BB"/>
<stop offset="1" stop-color="#0373BB"/>
</linearGradient>
<linearGradient id="paint45_linear_133_3603" x1="515.279" y1="83.2785" x2="474.949" y2="51.8771" gradientUnits="userSpaceOnUse">
<stop stop-color="#B8D5E9"/>
<stop offset="1" stop-color="#2986C3"/>
</linearGradient>
<linearGradient id="paint46_linear_133_3603" x1="681.276" y1="251.137" x2="606.133" y2="152.227" gradientUnits="userSpaceOnUse">
<stop stop-color="#7FB8DD"/>
<stop offset="1" stop-color="#ACD7EC"/>
</linearGradient>
<linearGradient id="paint47_linear_133_3603" x1="720.77" y1="313.941" x2="618.783" y2="254.277" gradientUnits="userSpaceOnUse">
<stop stop-color="#8DCDEB"/>
<stop offset="1" stop-color="#128DCE"/>
</linearGradient>
<linearGradient id="paint48_linear_133_3603" x1="526.966" y1="138.608" x2="491.881" y2="78.4849" gradientUnits="userSpaceOnUse">
<stop stop-color="#0064A9"/>
<stop offset="1" stop-color="#0089CB"/>
</linearGradient>
<linearGradient id="paint49_linear_133_3603" x1="509.702" y1="129.834" x2="457.916" y2="70.0293" gradientUnits="userSpaceOnUse">
<stop stop-color="#0063A8"/>
<stop offset="1" stop-color="#0379BD"/>
</linearGradient>
<linearGradient id="paint50_linear_133_3603" x1="512.681" y1="205.069" x2="436.088" y2="138.501" gradientUnits="userSpaceOnUse">
<stop stop-color="#008AD0"/>
<stop offset="1" stop-color="#0078BC"/>
</linearGradient>
<linearGradient id="paint51_linear_133_3603" x1="488.084" y1="124.634" x2="431.814" y2="91.5007" gradientUnits="userSpaceOnUse">
<stop stop-color="#0967AA"/>
<stop offset="1" stop-color="#56A8D3"/>
</linearGradient>
<linearGradient id="paint52_linear_133_3603" x1="461.576" y1="185.732" x2="402.632" y2="158.837" gradientUnits="userSpaceOnUse">
<stop stop-color="#0076B8"/>
<stop offset="1" stop-color="#009ADE"/>
</linearGradient>
<linearGradient id="paint53_linear_133_3603" x1="60.9069" y1="192.476" x2="-10.3149" y2="144.239" gradientUnits="userSpaceOnUse">
<stop stop-color="#76CDEE"/>
<stop offset="1" stop-color="#00ADEF"/>
</linearGradient>
<linearGradient id="paint54_linear_133_3603" x1="66.7126" y1="182.889" x2="-9.11614" y2="94.6756" gradientUnits="userSpaceOnUse">
<stop stop-color="#F6F6F6"/>
<stop offset="1" stop-color="#AAE3F9"/>
</linearGradient>
<linearGradient id="paint55_linear_133_3603" x1="3.15556" y1="197.107" x2="-57.6735" y2="141.74" gradientUnits="userSpaceOnUse">
<stop stop-color="#FCFCFC"/>
<stop offset="1" stop-color="#A8E1F7"/>
</linearGradient>
<linearGradient id="paint56_linear_133_3603" x1="-7.23356" y1="200.682" x2="-28.4779" y2="153.94" gradientUnits="userSpaceOnUse">
<stop stop-color="#FCFCFC"/>
<stop offset="1" stop-color="#A6E0F6"/>
</linearGradient>
<linearGradient id="paint57_linear_133_3603" x1="5.29451" y1="271.449" x2="-67.5714" y2="197.468" gradientUnits="userSpaceOnUse">
<stop stop-color="#FCFCFC"/>
<stop offset="1" stop-color="#91DAF5"/>
</linearGradient>
<linearGradient id="paint58_linear_133_3603" x1="143.791" y1="131.215" x2="82.8251" y2="97.6485" gradientUnits="userSpaceOnUse">
<stop stop-color="#F6F6F6"/>
<stop offset="1" stop-color="#ECEDED"/>
</linearGradient>
<linearGradient id="paint59_linear_133_3603" x1="129.429" y1="149.089" x2="63.2124" y2="79.5065" gradientUnits="userSpaceOnUse">
<stop stop-color="#E3E3E5"/>
<stop offset="1" stop-color="#F6F5F6"/>
</linearGradient>
<linearGradient id="paint60_linear_133_3603" x1="98.3382" y1="113.909" x2="68.5063" y2="69.8328" gradientUnits="userSpaceOnUse">
<stop stop-color="#F1F1F1"/>
<stop offset="1" stop-color="#F6F7F6"/>
</linearGradient>
<linearGradient id="paint61_linear_133_3603" x1="773.327" y1="266.574" x2="633.507" y2="224.002" gradientUnits="userSpaceOnUse">
<stop stop-color="#7FD5F6"/>
<stop offset="1" stop-color="#59ACD6"/>
</linearGradient>
<linearGradient id="paint62_linear_133_3603" x1="625.282" y1="118.621" x2="563.406" y2="71.7241" gradientUnits="userSpaceOnUse">
<stop stop-color="#D1D2D4"/>
<stop offset="1" stop-color="#9ACCE4"/>
</linearGradient>
<linearGradient id="paint63_linear_133_3603" x1="615.656" y1="100.422" x2="543.716" y2="16.4769" gradientUnits="userSpaceOnUse">
<stop stop-color="#75C0E2"/>
<stop offset="1" stop-color="#A3C9E1"/>
</linearGradient>
<linearGradient id="paint64_linear_133_3603" x1="607.406" y1="72.8787" x2="580.555" y2="-0.492584" gradientUnits="userSpaceOnUse">
<stop stop-color="#75AED2"/>
<stop offset="1" stop-color="#F8F8F8"/>
</linearGradient>
<linearGradient id="paint65_linear_133_3603" x1="468.986" y1="124.634" x2="415.107" y2="95.4669" gradientUnits="userSpaceOnUse">
<stop stop-color="#7DC7EA"/>
<stop offset="1" stop-color="#0099DE"/>
</linearGradient>
<linearGradient id="paint66_linear_133_3603" x1="470.055" y1="116.265" x2="375.108" y2="47.8629" gradientUnits="userSpaceOnUse">
<stop stop-color="#7DD4F5"/>
<stop offset="1" stop-color="#55C0ED"/>
</linearGradient>
<linearGradient id="paint67_linear_133_3603" x1="453.326" y1="154.289" x2="421.376" y2="115.839" gradientUnits="userSpaceOnUse">
<stop stop-color="#009BE0"/>
<stop offset="1" stop-color="#0094DA"/>
</linearGradient>
<linearGradient id="paint68_linear_133_3603" x1="435.909" y1="158.595" x2="331.513" y2="107.342" gradientUnits="userSpaceOnUse">
<stop stop-color="#0083CA"/>
<stop offset="1" stop-color="#55ACDC"/>
</linearGradient>
<linearGradient id="paint69_linear_133_3603" x1="444.006" y1="116.265" x2="352.692" y2="57.1699" gradientUnits="userSpaceOnUse">
<stop stop-color="#86BBDE"/>
<stop offset="1" stop-color="#59AEDD"/>
</linearGradient>
<linearGradient id="paint70_linear_133_3603" x1="101.012" y1="203.363" x2="73.2353" y2="179.607" gradientUnits="userSpaceOnUse">
<stop stop-color="#0DA3E2"/>
<stop offset="1" stop-color="#00ACED"/>
</linearGradient>
<linearGradient id="paint71_linear_133_3603" x1="105.672" y1="196.619" x2="83.5087" y2="157.027" gradientUnits="userSpaceOnUse">
<stop stop-color="#0DA3E3"/>
<stop offset="1" stop-color="#00ACEE"/>
</linearGradient>
<linearGradient id="paint72_linear_133_3603" x1="91.463" y1="209.782" x2="82.2388" y2="192.372" gradientUnits="userSpaceOnUse">
<stop stop-color="#00ADEF"/>
<stop offset="1" stop-color="#00ADEF"/>
</linearGradient>
<linearGradient id="paint73_linear_133_3603" x1="161.666" y1="139.096" x2="146.372" y2="136.081" gradientUnits="userSpaceOnUse">
<stop stop-color="#0094DA"/>
<stop offset="1" stop-color="#0097DC"/>
</linearGradient>
<linearGradient id="paint74_linear_133_3603" x1="158.381" y1="145.921" x2="114.899" y2="119.21" gradientUnits="userSpaceOnUse">
<stop stop-color="#0094DA"/>
<stop offset="1" stop-color="#46ACDA"/>
</linearGradient>
<linearGradient id="paint75_linear_133_3603" x1="158.229" y1="151.283" x2="142.071" y2="128.788" gradientUnits="userSpaceOnUse">
<stop stop-color="#00A6E8"/>
<stop offset="1" stop-color="#46B4E0"/>
</linearGradient>
<linearGradient id="paint76_linear_133_3603" x1="185.194" y1="141.939" x2="155.072" y2="110.154" gradientUnits="userSpaceOnUse">
<stop stop-color="#00A1E4"/>
<stop offset="1" stop-color="#0097DC"/>
</linearGradient>
<linearGradient id="paint77_linear_133_3603" x1="189.625" y1="152.989" x2="170.149" y2="121.914" gradientUnits="userSpaceOnUse">
<stop stop-color="#00ADEF"/>
<stop offset="1" stop-color="#00A4E6"/>
</linearGradient>
<linearGradient id="paint78_linear_133_3603" x1="84.6643" y1="226.6" x2="67.283" y2="206.626" gradientUnits="userSpaceOnUse">
<stop stop-color="#00ADEF"/>
<stop offset="1" stop-color="#00ADEF"/>
</linearGradient>
<linearGradient id="paint79_linear_133_3603" x1="178.014" y1="94.8158" x2="107.517" y2="73.4015" gradientUnits="userSpaceOnUse">
<stop stop-color="#7BC5E8"/>
<stop offset="1" stop-color="#F8F8F8"/>
</linearGradient>
<linearGradient id="paint80_linear_133_3603" x1="243.404" y1="126.503" x2="119.419" y2="26.0706" gradientUnits="userSpaceOnUse">
<stop stop-color="#F3F3F2"/>
<stop offset="1" stop-color="#A7D8EF"/>
</linearGradient>
<linearGradient id="paint81_linear_133_3603" x1="92.4562" y1="225.625" x2="84.1702" y2="195.397" gradientUnits="userSpaceOnUse">
<stop stop-color="#00ADEF"/>
<stop offset="1" stop-color="#2EBAF0"/>
</linearGradient>
<linearGradient id="paint82_linear_133_3603" x1="85.3519" y1="434.27" x2="-45.8844" y2="391.083" gradientUnits="userSpaceOnUse">
<stop stop-color="#79D0F1"/>
<stop offset="1" stop-color="#D1EAF4"/>
</linearGradient>
<linearGradient id="paint83_linear_133_3603" x1="61.9762" y1="207.832" x2="34.2198" y2="164.522" gradientUnits="userSpaceOnUse">
<stop stop-color="#00ADEF"/>
<stop offset="1" stop-color="#2EBAF0"/>
</linearGradient>
<linearGradient id="paint84_linear_133_3603" x1="36.5382" y1="379.021" x2="-113.209" y2="308.979" gradientUnits="userSpaceOnUse">
<stop stop-color="#F3F3F3"/>
<stop offset="1" stop-color="#BAE3F2"/>
</linearGradient>
<linearGradient id="paint85_linear_133_3603" x1="25.2324" y1="271.449" x2="-57.9786" y2="191.672" gradientUnits="userSpaceOnUse">
<stop stop-color="#7BD1F2"/>
<stop offset="1" stop-color="#BCE5F4"/>
</linearGradient>
<linearGradient id="paint86_linear_133_3603" x1="78.4767" y1="208.401" x2="67.427" y2="197.4" gradientUnits="userSpaceOnUse">
<stop stop-color="#00ADEF"/>
<stop offset="1" stop-color="#00ADEF"/>
</linearGradient>
<linearGradient id="paint87_linear_133_3603" x1="78.4767" y1="209.538" x2="51.1435" y2="187.425" gradientUnits="userSpaceOnUse">
<stop stop-color="#00ADEF"/>
<stop offset="1" stop-color="#00ADEF"/>
</linearGradient>
<linearGradient id="paint88_linear_133_3603" x1="71.0668" y1="216.038" x2="63.2818" y2="208.718" gradientUnits="userSpaceOnUse">
<stop stop-color="#00ADEF"/>
<stop offset="1" stop-color="#00ADEF"/>
</linearGradient>
<linearGradient id="paint89_linear_133_3603" x1="75.7267" y1="214.088" x2="72.9367" y2="199.004" gradientUnits="userSpaceOnUse">
<stop stop-color="#00ADEF"/>
<stop offset="1" stop-color="#2EBAF0"/>
</linearGradient>
<linearGradient id="paint90_linear_133_3603" x1="65.1848" y1="211.65" x2="36.1564" y2="171.582" gradientUnits="userSpaceOnUse">
<stop stop-color="#00ADEF"/>
<stop offset="1" stop-color="#2EBAF0"/>
</linearGradient>
<clipPath id="clip0_133_3603">
<rect width="872" height="500" fill="white" transform="translate(765 474) rotate(180)"/>
</clipPath>
</defs>
</svg>
