<svg width="238" height="61" viewBox="0 0 238 61" fill="none" xmlns="http://www.w3.org/2000/svg">
<g clip-path="url(#clip0_133_5620)">
<path fill-rule="evenodd" clip-rule="evenodd" d="M232.339 6.26545C233.088 6.24549 233.834 6.37334 234.531 6.6412C235.227 6.90905 235.86 7.31128 236.39 7.82331C236.921 8.33533 237.337 8.94639 237.614 9.61913C237.892 10.2919 238.024 11.0122 238.004 11.736C238.004 13.1869 237.407 14.5784 236.344 15.6043C235.282 16.6302 233.841 17.2066 232.339 17.2066C230.836 17.2066 229.395 16.6302 228.333 15.6043C227.271 14.5784 226.674 13.1869 226.674 11.736C226.654 11.0123 226.786 10.2922 227.064 9.61967C227.341 8.94714 227.758 8.33627 228.288 7.82434C228.818 7.31241 229.451 6.91016 230.147 6.64214C230.844 6.37413 231.589 6.24595 232.339 6.26545ZM236.391 11.736C236.433 10.6317 236.027 9.55521 235.258 8.73686C234.884 8.35763 234.435 8.05568 233.937 7.84935C233.439 7.64303 232.902 7.53663 232.36 7.53663C231.818 7.53663 231.282 7.64303 230.784 7.84935C230.286 8.05568 229.836 8.35763 229.463 8.73686C228.684 9.54958 228.269 10.6261 228.307 11.7328C228.27 12.8393 228.685 13.9155 229.463 14.7287C229.836 15.1075 230.286 15.409 230.783 15.615C231.281 15.821 231.817 15.9273 232.359 15.9273C232.9 15.9273 233.436 15.821 233.934 15.615C234.432 15.409 234.881 15.1075 235.254 14.7287C236.031 13.9151 236.446 12.8389 236.407 11.7328M229.926 14.674H231.259V12.2477H231.856L233.258 14.674H234.771L233.258 12.164C233.557 12.1199 233.841 12.0098 234.088 11.8422C234.288 11.6739 234.443 11.4621 234.541 11.2242C234.639 10.9864 234.677 10.7294 234.651 10.4746C234.665 10.2345 234.618 9.99483 234.513 9.77694C234.407 9.55905 234.248 9.36976 234.048 9.22599C233.517 8.90984 232.898 8.76137 232.275 8.80122H229.926V14.674ZM231.259 11.234H232.295C232.571 11.2549 232.846 11.1883 233.078 11.0442C233.166 10.9763 233.235 10.8891 233.28 10.79C233.326 10.6909 233.346 10.5827 233.338 10.4746C233.344 10.3744 233.324 10.2745 233.278 10.1844C233.233 10.0942 233.164 10.0168 233.078 9.95969C232.84 9.83169 232.568 9.77354 232.295 9.79236H231.259V11.234Z" fill="#002756"/>
<path fill-rule="evenodd" clip-rule="evenodd" d="M69.1479 54.1264V6.50029H83.6566V18.3167C86.559 16.8815 89.3215 16.1285 91.794 16.1285C95.2662 16.1285 97.952 17.361 99.9347 19.6843C100.742 20.7125 101.298 21.904 101.561 23.1694C101.917 24.4566 102.057 26.3134 102.057 28.64V54.1264H87.3954V27.9546C87.3954 26.0238 86.7589 25.1517 85.486 25.1517C85.2075 25.1262 84.9272 25.1766 84.6769 25.2972C84.4265 25.4178 84.2162 25.6037 84.0698 25.8339C83.7899 26.3134 83.6466 27.1211 83.6466 28.2281V54.1264H69.1479ZM123.077 54.1264V52.3533C120.465 53.7746 117.511 54.505 114.513 54.4707C112.729 54.5181 110.966 54.0918 109.415 53.2382C107.898 52.4066 106.634 51.2048 105.749 49.7531C104.896 48.3179 104.473 46.1329 104.473 43.2593C104.473 40.2537 104.896 38.0687 105.806 36.7718C106.726 35.401 108.639 34.1717 111.541 32.9424L122.721 28.3632V26.7092C122.721 24.9329 122.084 24.0447 120.811 24.0447C119.962 24.0447 119.478 24.315 119.182 24.7945C118.972 25.274 118.832 26.3005 118.832 27.8033H104.677V23.7165C104.677 21.3255 105.456 19.5331 106.942 18.3167C108.425 17.155 110.608 16.5404 113.607 16.5404H128.116C130.095 16.5404 131.58 16.6777 132.571 16.9523C133.588 17.2191 134.516 17.737 135.263 18.4551C136.055 19.1872 136.638 20.1037 136.956 21.1163C137.239 22.1429 137.386 23.784 137.386 25.9691V54.1264H123.077ZM122.721 37.8627C121.021 38.6833 119.962 39.5039 119.538 40.1861C119.115 40.8683 118.899 42.0976 118.899 43.9447C118.899 45.5151 119.465 46.3389 120.741 46.3389C122.074 46.3389 122.721 45.5151 122.721 43.8771V37.8627ZM140.202 54.1264V6.50029H154.707V29.7985L157.823 16.5404H172.541L166.737 34.4484L173.401 54.1264H158.459L154.707 38.886V54.1264H140.202ZM206.654 39.3011V45.7886C206.694 47.1225 206.551 48.4557 206.227 49.7531C205.914 50.6561 205.352 51.4594 204.601 52.0765C203.748 52.867 202.7 53.4322 201.555 53.7177C199.974 54.0313 198.361 54.1685 196.747 54.1264H183.155C180.966 54.1264 179.339 53.9901 178.273 53.7177C177.214 53.3906 176.263 52.8015 175.514 52.0089C174.828 51.2954 174.342 50.4249 174.101 49.4796C173.831 48.0608 173.712 46.6193 173.744 45.1772V24.9457C173.744 21.9401 174.454 19.8195 175.8 18.5098C177.146 17.2001 179.336 16.5275 182.378 16.5275H197.453C200.786 16.5275 203.118 17.2097 204.601 18.5098C205.934 19.797 206.654 21.9949 206.654 25.1388V36.6881H188.253V43.9318C188.253 45.8465 188.886 46.7347 190.162 46.7347C191.439 46.7347 192.162 45.7693 192.162 43.7967V39.2915L206.654 39.3011ZM188.253 29.3254H192.145V26.3874C192.145 24.7462 191.505 23.9224 190.236 23.9224C188.903 23.9224 188.253 24.7462 188.253 26.4518V29.3254ZM209.409 6.49707H223.422V54.1232H209.409V6.49707Z" fill="#002756"/>
<path fill-rule="evenodd" clip-rule="evenodd" d="M43.9127 47.446L39.884 40.7236L67.5618 54.1716H47.9381L52.0235 61.0001L24.2891 47.446H43.9127Z" fill="#EB2E30"/>
<path fill-rule="evenodd" clip-rule="evenodd" d="M31.7565 27.0729L27.7278 20.3506L55.4055 33.7953H35.7819L39.8672 40.6238L12.1328 27.0729H31.7565Z" fill="#EB2E30"/>
<path fill-rule="evenodd" clip-rule="evenodd" d="M19.6237 6.72236L15.595 0L43.2727 13.4479H23.6491L27.7411 20.2765L0 6.72236H19.6237Z" fill="#EB2E30"/>
</g>
<defs>
<clipPath id="clip0_133_5620">
<rect width="238" height="61" fill="white"/>
</clipPath>
</defs>
</svg>
