<svg width="164" height="90" viewBox="0 0 164 90" fill="none" xmlns="http://www.w3.org/2000/svg">
<g clip-path="url(#clip0_133_5630)">
<path fill-rule="evenodd" clip-rule="evenodd" d="M84.3241 28.2332C103.81 -13.8485 80.9173 35.5864 97.4003 0C106.573 3.97532 116.925 1.17191 126.587 1.17191L110.973 21.8068L114.326 24.2426L96.9114 43.9736L102.119 45.6894C84.9527 71.1498 79.5282 78.0434 78.884 78.7481C77.9005 79.9813 76.7928 81.1131 75.5781 82.126L86.916 51.3957L78.5503 50.9132L91.0135 28.2102L84.3241 28.2332Z" fill="#E53A24"/>
<path d="M103.112 43.5984H97.6953V50.0937H103.112V43.5984Z" fill="#FEFEFE"/>
<path fill-rule="evenodd" clip-rule="evenodd" d="M149.869 13.1821C150.354 13.1695 150.837 13.2546 151.288 13.4322C151.739 13.6098 152.149 13.8762 152.493 14.2151C152.836 14.5541 153.106 14.9586 153.286 15.4038C153.466 15.8491 153.552 16.3259 153.539 16.8051C153.562 17.2944 153.484 17.7832 153.31 18.2419C153.136 18.7006 152.87 19.1197 152.527 19.4739C152.184 19.8281 151.772 20.1101 151.316 20.3027C150.86 20.4953 150.369 20.5946 149.872 20.5946C149.376 20.5946 148.885 20.4953 148.429 20.3027C147.973 20.1101 147.561 19.8281 147.218 19.4739C146.875 19.1197 146.609 18.7006 146.435 18.2419C146.261 17.7832 146.183 17.2944 146.206 16.8051C146.193 16.3266 146.279 15.8504 146.458 15.4057C146.638 14.9609 146.907 14.5568 147.25 14.218C147.592 13.8791 148.001 13.6125 148.451 13.4345C148.901 13.2564 149.384 13.1705 149.869 13.1821ZM152.771 16.8051C152.798 15.9945 152.502 15.2057 151.948 14.6068C151.68 14.3309 151.357 14.1114 151.001 13.9614C150.644 13.8115 150.26 13.7342 149.872 13.7342C149.485 13.7342 149.101 13.8115 148.744 13.9614C148.388 14.1114 148.065 14.3309 147.797 14.6068C147.242 15.2057 146.947 15.9945 146.974 16.8051C146.942 17.6165 147.238 18.4072 147.797 19.0034C148.065 19.2793 148.388 19.4989 148.744 19.6488C149.101 19.7988 149.485 19.8761 149.872 19.8761C150.26 19.8761 150.644 19.7988 151.001 19.6488C151.357 19.4989 151.68 19.2793 151.948 19.0034C152.507 18.4072 152.803 17.6165 152.771 16.8051ZM149.24 16.4375H149.907C150.087 16.4526 150.267 16.4096 150.42 16.3149C150.476 16.2686 150.521 16.2098 150.551 16.1433C150.58 16.0769 150.594 16.0045 150.59 15.9319C150.592 15.8662 150.578 15.801 150.548 15.7422C150.518 15.6834 150.474 15.6328 150.42 15.5949C150.263 15.5099 150.085 15.4725 149.907 15.4877H149.24V16.4375ZM148.371 18.7353V14.8289H149.923C150.326 14.804 150.727 14.903 151.071 15.1124C151.202 15.2072 151.306 15.3324 151.375 15.4767C151.444 15.6211 151.476 15.7801 151.467 15.9396C151.483 16.108 151.458 16.2776 151.395 16.4347C151.331 16.5918 151.231 16.7318 151.102 16.8434C150.942 16.9603 150.756 17.0389 150.559 17.0732L151.529 18.7353H150.551L149.644 17.1268H149.255V18.7353H148.386H148.371ZM106.24 44.5328H99.9771V38.6272C100.029 37.5505 99.9592 36.4714 99.7676 35.4102C99.7219 35.2186 99.6086 35.0493 99.4478 34.9328C99.2871 34.8163 99.0895 34.7601 98.8906 34.7745C98.6596 34.7598 98.4312 34.8298 98.2493 34.9712C98.0674 35.1126 97.9448 35.3153 97.9051 35.5404C97.7207 36.6489 97.6505 37.7729 97.6955 38.8953V54.6511C97.6506 55.7328 97.7209 56.8162 97.9051 57.8834C97.949 58.0942 98.0652 58.2835 98.2342 58.4195C98.4031 58.5554 98.6144 58.6297 98.8324 58.6297C99.0504 58.6297 99.2617 58.5554 99.4307 58.4195C99.5997 58.2835 99.7159 58.0942 99.7598 57.8834C99.9527 56.7115 100.026 55.5234 99.9771 54.337V50.0936H106.24V51.4111C106.32 53.9066 106.143 56.4037 105.712 58.8638C105.344 60.3427 104.533 61.6776 103.384 62.6936C102.171 63.7963 100.57 64.3897 98.9217 64.3481C97.2884 64.4135 95.6831 63.9151 94.3819 62.9387C93.1759 61.9475 92.3535 60.5758 92.0538 59.0553C91.5991 56.5925 91.4066 54.0896 91.4795 51.5872V41.7141C91.4795 39.263 91.5364 37.4298 91.6502 36.2145C91.7738 34.978 92.1374 33.7766 92.7211 32.6758C93.2781 31.5818 94.1257 30.6579 95.1734 30.0026C96.2581 29.3462 97.5099 29.0087 98.782 29.0298C100.443 28.977 102.068 29.5214 103.353 30.5617C104.515 31.5385 105.331 32.8561 105.681 34.3226C106.133 36.6307 106.323 38.9814 106.247 41.3311L106.24 44.5328ZM89.617 48.8528V54.4443C89.646 55.9539 89.5708 57.4638 89.3919 58.9634C89.2487 59.9064 88.9303 60.8153 88.4529 61.6443C88.0264 62.4201 87.3825 63.0583 86.5982 63.4826C85.7955 63.892 84.9019 64.0974 83.9985 64.08C83.0491 64.1075 82.1047 63.9352 81.228 63.5745C80.4937 63.254 79.8763 62.7194 79.4587 62.0426C79.0084 61.2789 78.7034 60.4404 78.5585 59.5685C78.3494 58.1254 78.2611 56.6677 78.2946 55.2102V49.343C78.2486 47.6728 78.4102 46.0033 78.7758 44.3719C79.0519 43.2593 79.6667 42.2569 80.5374 41.4996C81.4556 40.7506 82.622 40.3632 83.8122 40.4119C84.8104 40.3864 85.797 40.6272 86.6681 41.1089C87.4152 41.5392 88.0357 42.1543 88.4685 42.8936C88.8883 43.6077 89.1895 44.3834 89.3609 45.1915C89.556 46.402 89.6417 47.6273 89.617 48.8528ZM84.6736 47.1294C84.7046 46.389 84.6604 45.6474 84.5417 44.9158C84.5159 44.7833 84.4432 44.6643 84.3365 44.5801C84.2298 44.4959 84.0962 44.4519 83.9597 44.4562C83.8235 44.4535 83.6907 44.498 83.5844 44.5819C83.478 44.6659 83.4049 44.784 83.3777 44.9158C83.2421 45.6455 83.1926 46.3884 83.2302 47.1294V57.4468C83.1967 58.1522 83.2462 58.8591 83.3777 59.5532C83.4785 59.8826 83.6648 60.0511 83.9519 60.0511C84.0863 60.056 84.2181 60.0142 84.3245 59.933C84.4308 59.8518 84.505 59.7364 84.534 59.6068C84.6559 58.9709 84.7028 58.3232 84.6736 57.6766V47.1294ZM117.896 40.8255V45.6128H115.071V63.6664H110.143V45.6128H107.311V40.8255H117.896ZM130.064 48.8528V54.4443C130.091 55.9537 130.018 57.4633 129.847 58.9634C129.701 59.9069 129.38 60.8157 128.9 61.6443C128.476 62.4191 127.834 63.0571 127.053 63.4826C126.25 63.892 125.357 64.0974 124.453 64.08C123.501 64.1068 122.555 63.9345 121.675 63.5745C120.942 63.2556 120.326 62.7205 119.913 62.0426C119.461 61.2793 119.153 60.4409 119.006 59.5685C118.796 58.1254 118.708 56.6677 118.742 55.2102V49.343C118.694 47.6723 118.858 46.0023 119.231 44.3719C119.507 43.2593 120.122 42.2569 120.992 41.4996C121.904 40.7547 123.061 40.3675 124.244 40.4119C125.242 40.3864 126.229 40.6272 127.1 41.1089C127.859 41.5362 128.493 42.1513 128.939 42.8936C129.356 43.608 129.655 44.3838 129.823 45.1915C130.018 46.402 130.098 47.6276 130.064 48.8528ZM125.121 47.1294C125.152 46.389 125.108 45.6474 124.989 44.9158C124.965 44.784 124.893 44.6651 124.788 44.5808C124.683 44.4964 124.55 44.4522 124.415 44.4562C124.278 44.4519 124.144 44.4959 124.038 44.5801C123.931 44.6643 123.858 44.7833 123.832 44.9158C123.693 45.645 123.641 46.388 123.677 47.1294V57.4468C123.645 58.1525 123.697 58.8595 123.832 59.5532C123.926 59.8826 124.12 60.0511 124.399 60.0511C124.533 60.056 124.665 60.0142 124.772 59.933C124.878 59.8518 124.952 59.7364 124.981 59.6068C125.103 58.9709 125.15 58.3232 125.121 57.6766V47.1294ZM131.686 63.6664V40.8255H143.257V63.6664H138.344V45.6128H136.583V63.6664H131.686ZM74.5541 51.4111C75.2813 51.7181 75.8826 52.2577 76.2614 52.943C76.6947 53.9241 76.8888 54.9919 76.8279 56.0604C76.8616 57.1994 76.7784 58.3388 76.5796 59.4613C76.3929 60.2251 76.0725 60.9509 75.6328 61.606C75.1867 62.3224 74.5167 62.8762 73.7237 63.1838C72.8579 63.5145 71.9359 63.6783 71.0076 63.6664C69.0287 63.6664 67.6396 63.1226 66.8558 62.0349C66.072 60.9472 65.6685 58.9711 65.6685 56.0911V54.4213H70.3247V57.646C70.3247 58.7872 70.6118 59.3617 71.1861 59.3617C71.3371 59.3553 71.4829 59.3054 71.6056 59.2183C71.7283 59.1313 71.8225 59.0107 71.8768 58.8715C72.0907 58.031 72.1693 57.1625 72.1096 56.2979V54.8502C72.1389 54.6013 72.1117 54.3491 72.0298 54.1119C71.9479 53.8747 71.8134 53.6586 71.6362 53.4792C71.0304 53.1587 70.3409 53.0252 69.6573 53.0962V49.8409H70.0376C70.491 49.8598 70.9452 49.8419 71.3956 49.7872C71.5168 49.7523 71.6275 49.6886 71.7181 49.6019C71.8087 49.5151 71.8765 49.4078 71.9156 49.2894C72.0816 48.8359 72.1503 48.3534 72.1174 47.8723V47.3975C72.1722 46.7659 72.0956 46.1298 71.8923 45.5285C71.8329 45.4087 71.7399 45.3081 71.6244 45.2389C71.5088 45.1696 71.3756 45.1346 71.2404 45.1379C70.6351 45.1379 70.3325 45.6485 70.3325 46.6698V48.5234H65.6762V47.4894C65.6762 45.0792 66.0927 43.366 66.9257 42.3498C67.7638 41.3387 69.1606 40.8179 71.1163 40.8179C73.0719 40.8179 74.3834 41.3081 75.2836 42.2809C76.1838 43.2536 76.6417 44.7626 76.6417 46.8077C76.6944 47.8475 76.5442 48.8876 76.1993 49.8715C75.8756 50.5805 75.2858 51.1379 74.5541 51.4264V51.4111ZM46.4305 47.4894C46.4599 46.6351 46.4236 45.7799 46.3219 44.9311C46.3081 44.784 46.2359 44.6482 46.121 44.5535C46.0061 44.4588 45.8579 44.4128 45.7088 44.4255C45.5585 44.4201 45.4114 44.4693 45.2955 44.564C45.1796 44.6586 45.103 44.792 45.0802 44.9387C44.9503 45.7825 44.9036 46.6367 44.9405 47.4894V56.9336C44.9021 57.7968 44.9515 58.6615 45.088 59.5149C45.1073 59.6638 45.1827 59.8 45.2992 59.8965C45.4156 59.993 45.5646 60.0427 45.7166 60.0358C45.8584 60.045 45.9985 60.0013 46.1092 59.9133C46.2199 59.8254 46.293 59.6996 46.3141 59.5609C46.4201 58.7997 46.4591 58.0308 46.4305 57.263V47.4894ZM64.1707 48.8758V54.4672C64.1973 55.9767 64.1247 57.4862 63.9534 58.9864C63.8074 59.9298 63.4865 60.8386 63.0067 61.6672C62.5822 62.442 61.9411 63.0801 61.1597 63.5055C60.357 63.915 59.4634 64.1203 58.56 64.103C57.6065 64.1225 56.6596 63.9423 55.7818 63.5745C55.0484 63.2556 54.433 62.7205 54.0202 62.0426C53.5674 61.2793 53.2597 60.4409 53.1122 59.5685C52.9031 58.1254 52.8149 56.6677 52.8483 55.2102V49.343C52.8003 47.6723 52.9645 46.0023 53.3372 44.3719C53.6134 43.2593 54.2282 42.2569 55.0989 41.4996C56.0103 40.7547 57.1679 40.3675 58.3504 40.4119C59.3485 40.3872 60.3349 40.6279 61.2063 41.1089C61.9642 41.5384 62.5975 42.153 63.0455 42.8936C63.4629 43.608 63.7616 44.3838 63.9302 45.1915C64.1243 46.402 64.2049 47.6276 64.1707 48.8528V48.8758ZM59.2274 47.1524C59.2584 46.412 59.2142 45.6704 59.0954 44.9387C59.0685 44.807 58.9962 44.6885 58.8908 44.6033C58.7855 44.5182 58.6535 44.4717 58.5173 44.4717C58.3811 44.4717 58.2491 44.5182 58.1437 44.6033C58.0384 44.6885 57.9661 44.807 57.9391 44.9387C57.7994 45.668 57.7473 46.411 57.7839 47.1524V57.4468C57.7516 58.1525 57.8037 58.8595 57.9391 59.5532C58.0323 59.8826 58.2263 60.0511 58.5057 60.0511C58.64 60.056 58.7719 60.0142 58.8782 59.933C58.9846 59.8518 59.0587 59.7364 59.0877 59.6068C59.2097 58.9709 59.2566 58.3232 59.2274 57.6766V47.1524ZM39.9972 78.7711V40.8255H45.0104L44.925 42.84C45.2695 42.1359 45.7646 41.514 46.3762 41.017C46.8684 40.6249 47.482 40.4113 48.1145 40.4119C48.4894 40.4103 48.8604 40.4872 49.2029 40.6378C49.5454 40.7883 49.8516 41.009 50.1012 41.2851C50.6454 41.8329 51.0104 42.5294 51.1488 43.2843C51.3156 44.5539 51.3857 45.8341 51.3583 47.1141V56.7651C51.3961 58.2481 51.3078 59.7316 51.0945 61.2C50.9592 61.9915 50.5829 62.7235 50.0158 63.2987C49.5336 63.7667 48.8938 64.0433 48.2184 64.0758C47.5429 64.1083 46.8789 63.8944 46.3529 63.4749C45.7541 62.9836 45.2675 62.3728 44.925 61.6826V80.1421C57.0437 83.121 69.4921 84.5928 81.9808 84.5234C83.4708 84.5234 84.9452 84.5234 86.412 84.4698L89.066 86.3081L93.7688 89.5787C89.9197 89.8545 85.9903 89.9949 81.9808 90C67.7692 90.0839 53.6194 88.1492 39.9661 84.2553L39.9972 78.7711ZM52.4138 36.5055H34.0838V63.6664H27.7979V29.7268L56.0611 29.6732L52.4138 36.5055Z" fill="#233768"/>
<path fill-rule="evenodd" clip-rule="evenodd" d="M132.532 17.617C151.692 25.0238 164 36.5514 164 49.4885C164 71.8468 127.286 89.9693 81.9961 89.9693C67.7808 90.0652 53.6256 88.1407 39.9659 84.2553V78.6485C52.0876 82.2791 66.6228 84.3931 82.2445 84.3931C124.616 84.3931 158.956 68.8595 158.956 49.7029C158.956 38.4357 147.082 28.4246 128.69 22.1285C130.198 20.8284 131.494 19.3067 132.532 17.617ZM81.9961 9.0459H82.8498L78.7445 15.0663C38.0258 15.9012 5.54091 31.0978 5.54091 49.7259C5.54091 61.0851 17.6238 71.1727 36.2953 77.4995V83.1293C14.4033 75.868 0 63.5208 0 49.5191C0 27.1685 36.7143 9.0459 81.9961 9.0459Z" fill="#233768"/>
</g>
<defs>
<clipPath id="clip0_133_5630">
<rect width="164" height="90" fill="white"/>
</clipPath>
</defs>
</svg>
