<svg width="227" height="66" viewBox="0 0 227 66" fill="none" xmlns="http://www.w3.org/2000/svg">
<g clip-path="url(#clip0_133_5635)">
<path d="M78.1316 0H13.2947C9.77107 0.0105988 6.39478 1.44929 3.90363 4.00168C1.41249 6.55408 0.00904971 10.0126 0 13.6216L0 37.8283C0.00904971 41.4372 1.41249 44.8958 3.90363 47.4482C6.39478 50.0006 9.77107 51.4393 13.2947 51.4499H45.7842L21.0079 26.0989V41.703L11.4277 31.9109V10.3542H21.0079V26.0989L36.0814 10.3894H68.8698C72.6823 10.3894 78.0728 13.4008 78.0728 19.9255C78.0728 26.4502 73.1381 28.9998 67.978 28.9998H65.6062C62.3524 28.9998 61.3429 29.6975 61.3429 31.3086V33.4266H76.3723L84.5902 41.5574H52.483V30.5156C52.483 23.6195 58.9515 22.8114 62.3426 22.8114H66.797C69.3844 22.8114 69.4873 18.5553 66.8607 18.5553H41.4523L34.136 25.9583L59.0936 51.4499H78.1316C81.6557 51.4393 85.0325 50.0008 87.5244 47.4485C90.0163 44.8963 91.4208 41.4377 91.4312 37.8283V13.6216C91.4208 10.0122 90.0163 6.55363 87.5244 4.00138C85.0325 1.44912 81.6557 0.0105926 78.1316 0Z" fill="#CD072D"/>
<path d="M106.652 17.6116H104.652V22.7661H101.781V9.97266H104.652V15.1473H106.725L110.008 9.97266H113.057L108.97 16.1511L113.184 22.7661H109.901L106.652 17.6116Z" fill="#13367C"/>
<path d="M125.974 9.97266V22.7661H123.117V12.3868H118.839L118.746 15.0569C118.721 16.5386 118.578 18.0157 118.319 19.4736C118.173 20.4306 117.783 21.3311 117.187 22.0835C116.904 22.3906 116.558 22.6306 116.175 22.7866C115.792 22.9427 115.379 23.0111 114.968 22.987C114.485 22.9733 114.005 22.906 113.537 22.7862L113.718 20.2767C113.885 20.3287 114.058 20.3541 114.232 20.352C114.923 20.352 115.404 19.9304 115.678 19.0972C116.016 17.8191 116.19 16.5015 116.198 15.1774L116.374 9.98771L125.974 9.97266Z" fill="#13367C"/>
<path d="M143.503 10.6152C144.487 11.1662 145.304 11.984 145.865 12.9791C146.443 14.0087 146.739 15.1792 146.722 16.3669C146.74 17.5564 146.444 18.7289 145.865 19.7598C145.304 20.7549 144.487 21.5727 143.503 22.1237C142.466 22.703 141.302 22.9986 140.121 22.982C139.061 22.9959 138.012 22.7624 137.054 22.2994C136.146 21.8581 135.358 21.1945 134.759 20.3673C134.161 19.5401 133.771 18.5747 133.623 17.5564H131.967V22.7662H129.095V9.97272H131.967V14.9917H133.643C133.823 13.9977 134.231 13.0617 134.834 12.2614C135.433 11.4631 136.213 10.8273 137.108 10.4094C138.052 9.96327 139.081 9.73865 140.121 9.75189C141.302 9.73525 142.466 10.0309 143.503 10.6101M141.993 19.9455C142.557 19.5989 143.015 19.0984 143.316 18.5C143.649 17.8395 143.817 17.1051 143.806 16.3619C143.816 15.6205 143.648 14.8879 143.316 14.2288C143.015 13.6305 142.557 13.1299 141.993 12.7834C141.424 12.4478 140.778 12.2712 140.121 12.2712C139.464 12.2712 138.819 12.4478 138.249 12.7834C137.686 13.1299 137.228 13.6305 136.926 14.2288C136.594 14.8879 136.426 15.6205 136.436 16.3619C136.425 17.1051 136.594 17.8395 136.926 18.5C137.228 19.0984 137.686 19.5989 138.249 19.9455C138.819 20.2811 139.464 20.4577 140.121 20.4577C140.778 20.4577 141.424 20.2811 141.993 19.9455Z" fill="#13367C"/>
<path d="M158.963 9.97268V22.7661H156.106V18.1587C155.143 18.5368 154.124 18.7406 153.093 18.761C151.417 18.761 150.128 18.3494 149.236 17.5313C148.344 16.7132 147.898 15.5237 147.898 13.9779V9.96265H150.755V13.6366C150.729 13.9977 150.777 14.3603 150.895 14.7016C151.013 15.0428 151.199 15.3553 151.441 15.6191C151.994 16.0992 152.708 16.3388 153.431 16.2866C154.352 16.2921 155.263 16.0988 156.106 15.7195V9.97268H158.963Z" fill="#13367C"/>
<path d="M171.734 20.3921V22.7661H162.065V9.97266H171.503V12.3517H164.937V15.1272H170.734V17.4309H164.937V20.3921H171.734Z" fill="#13367C"/>
<path d="M184.475 17.2302C184.889 17.7829 185.104 18.4658 185.082 19.1625C185.103 19.6765 184.999 20.1877 184.779 20.6502C184.559 21.1128 184.231 21.5122 183.823 21.8126C182.986 22.4483 181.787 22.7662 180.226 22.7662H174.071V9.97272H179.888C181.075 9.90334 182.255 10.2025 183.274 10.831C183.664 11.0985 183.98 11.4643 184.192 11.8933C184.404 12.3223 184.505 12.7999 184.484 13.2802C184.496 13.8719 184.336 14.4538 184.024 14.9516C183.699 15.4472 183.248 15.8428 182.72 16.0959C183.405 16.2767 184.017 16.6735 184.47 17.2302M176.938 15.2728H179.633C180.138 15.3103 180.64 15.1724 181.059 14.8813C181.225 14.7417 181.355 14.5638 181.441 14.3622C181.526 14.1606 181.563 13.9411 181.549 13.7219C181.561 13.5037 181.522 13.2858 181.437 13.0854C181.352 12.885 181.223 12.7077 181.059 12.5676C180.643 12.274 180.142 12.1326 179.638 12.166H176.943L176.938 15.2728ZM182.147 18.9266C182.147 17.8693 181.469 17.339 180.113 17.3356H176.938V20.5779H180.113C181.469 20.5779 182.147 20.0291 182.147 18.9317" fill="#13367C"/>
<path d="M189.816 22.1238C188.803 21.5809 187.955 20.7631 187.366 19.7599C186.771 18.734 186.466 17.5597 186.484 16.367C186.468 15.1761 186.773 14.0038 187.366 12.9792C187.955 11.976 188.803 11.1582 189.816 10.6152C190.901 10.0509 192.1 9.75684 193.317 9.75684C194.534 9.75684 195.734 10.0509 196.819 10.6152C197.836 11.1722 198.687 12.0017 199.28 13.0151C199.873 14.0286 200.186 15.188 200.186 16.3695C200.186 17.5511 199.873 18.7105 199.28 19.7239C198.687 20.7374 197.836 21.5668 196.819 22.1238C195.734 22.6881 194.534 22.9822 193.317 22.9822C192.1 22.9822 190.901 22.6881 189.816 22.1238ZM195.319 19.9405C195.91 19.6014 196.396 19.0987 196.721 18.49C197.055 17.8358 197.23 17.1082 197.23 16.3695C197.23 15.6309 197.055 14.9032 196.721 14.249C196.396 13.6403 195.91 13.1376 195.319 12.7985C194.707 12.4558 194.02 12.2763 193.322 12.2763C192.624 12.2763 191.938 12.4558 191.325 12.7985C190.734 13.1376 190.249 13.6403 189.924 14.249C189.589 14.9032 189.414 15.6309 189.414 16.3695C189.414 17.1082 189.589 17.8358 189.924 18.49C190.249 19.0987 190.734 19.6014 191.325 19.9405C191.938 20.2832 192.624 20.4628 193.322 20.4628C194.02 20.4628 194.707 20.2832 195.319 19.9405Z" fill="#13367C"/>
<path d="M202.385 9.97285H205.257V18.3044L211.206 9.97285H213.916V22.7663H211.064V14.4498L205.115 22.7663H202.385V9.97285ZM204.689 6.35414H206.649C206.673 7.24752 207.163 7.6892 208.119 7.6892C208.51 7.71745 208.897 7.59778 209.207 7.35292C209.338 7.22401 209.441 7.06772 209.509 6.89456C209.577 6.7214 209.607 6.53541 209.599 6.34912H211.559C211.583 6.73991 211.52 7.13118 211.374 7.49304C211.228 7.8549 211.003 8.17778 210.716 8.43703C209.958 8.96855 209.045 9.21989 208.129 9.14973C205.842 9.14973 204.689 8.21787 204.669 6.35414" fill="#13367C"/>
<path d="M106.652 36.9951H104.652V42.1497H101.781V29.3562H104.652V34.5308H106.725L110.008 29.3562H113.057L108.97 35.5346L113.184 42.1497H109.901L106.652 36.9951Z" fill="#13367C"/>
<path d="M116.938 41.5071C115.925 40.9642 115.077 40.1464 114.487 39.1432C113.91 38.1112 113.606 36.9424 113.606 35.7528C113.606 34.5633 113.91 33.3944 114.487 32.3625C115.077 31.3593 115.925 30.5415 116.938 29.9985C118.023 29.4342 119.222 29.1401 120.439 29.1401C121.656 29.1401 122.855 29.4342 123.94 29.9985C124.962 30.548 125.815 31.3771 126.404 32.3934C126.993 33.4097 127.295 34.5735 127.277 35.7553C127.294 36.9492 126.985 38.1242 126.386 39.1482C125.792 40.148 124.945 40.9648 123.935 41.5121C122.85 42.0764 121.651 42.3705 120.434 42.3705C119.217 42.3705 118.018 42.0764 116.933 41.5121M122.436 39.3289C123.026 38.9882 123.511 38.4859 123.837 37.8784C124.172 37.2241 124.347 36.4965 124.347 35.7578C124.347 35.0192 124.172 34.2915 123.837 33.6373C123.511 33.0297 123.026 32.5274 122.436 32.1868C121.823 31.8442 121.137 31.6646 120.439 31.6646C119.741 31.6646 119.054 31.8442 118.442 32.1868C117.854 32.524 117.37 33.023 117.045 33.6273C116.711 34.2815 116.536 35.0091 116.536 35.7478C116.536 36.4865 116.711 37.2141 117.045 37.8683C117.37 38.477 117.856 38.9797 118.447 39.3188C119.059 39.6615 119.746 39.841 120.444 39.841C121.142 39.841 121.828 39.6615 122.441 39.3188" fill="#13367C"/>
<path d="M140.871 42.1497L140.851 34.4906L137.176 40.7945H135.892L132.217 34.6412V42.1497H129.507V29.3562H131.898L136.573 37.3063L141.175 29.3562H143.566L143.581 42.1497H140.871Z" fill="#13367C"/>
<path d="M158.071 29.3562V42.1497H155.195V31.7703H149.559V42.1497H146.688V29.3562H158.071Z" fill="#13367C"/>
<path d="M163.628 41.5071C162.614 40.9657 161.766 40.1475 161.178 39.1432C160.6 38.1112 160.296 36.9424 160.296 35.7528C160.296 34.5633 160.6 33.3944 161.178 32.3625C161.766 31.3581 162.614 30.54 163.628 29.9985C164.713 29.4342 165.913 29.1401 167.13 29.1401C168.346 29.1401 169.546 29.4342 170.631 29.9985C171.651 30.5496 172.502 31.3791 173.09 32.3952C173.679 33.4113 173.981 34.5742 173.963 35.7553C173.982 36.9495 173.673 38.1251 173.071 39.1482C172.48 40.1496 171.632 40.9669 170.621 41.5121C169.536 42.0764 168.337 42.3705 167.12 42.3705C165.903 42.3705 164.703 42.0764 163.618 41.5121M169.122 39.3289C169.716 38.989 170.205 38.4846 170.533 37.8733C170.869 37.2185 171.044 36.4899 171.044 35.7503C171.044 35.0107 170.869 34.2821 170.533 33.6273C170.208 33.0199 169.725 32.5175 169.136 32.1768C168.523 31.8341 167.836 31.6546 167.137 31.6546C166.438 31.6546 165.751 31.8341 165.138 32.1768C164.547 32.5179 164.06 33.02 163.731 33.6273C163.4 34.2825 163.226 35.0097 163.226 35.7478C163.226 36.4858 163.4 37.2131 163.731 37.8683C164.061 38.4781 164.549 38.9821 165.142 39.3238C165.756 39.6665 166.443 39.846 167.142 39.846C167.84 39.846 168.528 39.6665 169.141 39.3238" fill="#13367C"/>
<path d="M187.65 29.3562V42.1497H184.759V36.9048H179.084V42.1497H176.198V29.3562H179.084V34.4003H184.759V29.3562H187.65Z" fill="#13367C"/>
<path d="M200.44 39.7706V42.1497H190.771V29.3562H200.21V31.7352H193.643V34.5107H199.44V36.8144H193.643V39.7706H200.44Z" fill="#13367C"/>
<path d="M214.23 29.3562V42.1497H211.343V36.9048H205.669V42.1497H202.777V29.3562H205.669V34.4003H211.343V29.3562H214.23Z" fill="#13367C"/>
<path d="M226.897 31.7703H222.903V42.1497H220.046V31.7703H216.067V29.3562H226.897V31.7703Z" fill="#13367C"/>
<path d="M5.58641 60.8907C5.97908 61.122 6.30269 61.4586 6.52238 61.8644C6.74758 62.296 6.8654 62.7778 6.8654 63.2672C6.8654 63.7565 6.74758 64.2384 6.52238 64.67C6.30497 65.0853 5.98145 65.4322 5.58641 65.6738C5.17726 65.911 4.7138 66.0323 4.2437 66.0251C3.84543 66.031 3.44967 65.9595 3.07741 65.8143C2.74223 65.6789 2.44326 65.4639 2.20515 65.1869L2.69519 64.685C2.89205 64.895 3.13005 65.0598 3.39356 65.1688C3.65707 65.2778 3.94012 65.3285 4.2241 65.3174C4.54157 65.3213 4.85492 65.2436 5.13557 65.0916C5.40748 64.9439 5.63844 64.728 5.80692 64.4642C5.98052 64.1857 6.08794 63.8694 6.12055 63.5407H3.57235V62.9133H6.09114C6.04721 62.5983 5.9332 62.2978 5.75792 62.035C5.58589 61.7839 5.35728 61.579 5.09147 61.4377C4.81616 61.2974 4.51198 61.2269 4.2045 61.232C3.92063 61.2219 3.63786 61.273 3.37448 61.3819C3.11111 61.4908 2.87301 61.6552 2.67558 61.8644L2.18555 61.3625C2.43019 61.0805 2.73789 60.8635 3.08232 60.7301C3.45212 60.5817 3.84657 60.5084 4.2437 60.5142C4.71422 60.5089 5.17765 60.6319 5.58641 60.8706" fill="#CD072D"/>
<path d="M17.7197 60.5945V65.9397H16.9748V63.5557H13.9807V65.9397H13.231V60.5945H13.9807V62.8932H16.9748V60.5945H17.7197Z" fill="#CD072D"/>
<path d="M28.2948 65.2772V65.9397H24.5068V60.5945H28.187V61.262H25.2517V62.9032H27.8685V63.5507H25.2517V65.2772H28.2948Z" fill="#CD072D"/>
<path d="M38.2523 61.0914C38.4359 61.2662 38.5823 61.4778 38.6824 61.7132C38.7826 61.9485 38.8343 62.2024 38.8343 62.4591C38.8343 62.7158 38.7826 62.9698 38.6824 63.2051C38.5823 63.4404 38.4359 63.6521 38.2523 63.8268C37.7967 64.183 37.2319 64.361 36.6596 64.3287H35.3659V65.9498H34.6211V60.5946H36.6596C37.2319 60.5622 37.7967 60.7402 38.2523 61.0965M37.7328 63.35C37.8573 63.24 37.9556 63.1023 38.0201 62.9475C38.0847 62.7927 38.1138 62.6248 38.1053 62.4566C38.1145 62.2891 38.0857 62.1217 38.0211 61.9676C37.9565 61.8134 37.8578 61.6767 37.7328 61.5682C37.4169 61.3413 37.0349 61.2316 36.6498 61.2571H35.3659V63.6562H36.6351C37.0196 63.6831 37.4016 63.5751 37.7181 63.35" fill="#CD072D"/>
<path d="M48.4451 61.262H45.7597L45.7695 65.9397H45.0295V60.5945H48.45L48.4451 61.262Z" fill="#CD072D"/>
<path d="M54.4971 60.5945H55.237V64.7201L58.3243 60.5945H59.0103V65.9397H58.2753V61.8241L55.1831 65.9397H54.4971V60.5945Z" fill="#CD072D"/>
<path d="M69.6196 60.5945V65.9397H68.8895V64.3838H67.4488H67.2478L66.2041 65.9498H65.4151L66.5667 64.2533C66.2187 64.1463 65.9164 63.9216 65.7091 63.6159C65.5058 63.2936 65.4032 62.9154 65.4151 62.5318C65.4005 62.2666 65.444 62.0015 65.5423 61.7557C65.6407 61.51 65.7914 61.2898 65.9836 61.1114C66.4194 60.7574 66.9667 60.5788 67.5223 60.6095L69.6196 60.5945ZM66.503 63.4252C66.7819 63.6479 67.1299 63.7602 67.4831 63.7414H68.865V61.262H67.5272C67.1582 61.2373 66.7929 61.3496 66.4981 61.5782C66.3757 61.6978 66.2803 61.8432 66.2185 62.0045C66.1567 62.1657 66.13 62.3388 66.1404 62.5117C66.1294 62.6799 66.154 62.8486 66.2123 63.0062C66.2706 63.1638 66.3614 63.3067 66.4785 63.4252" fill="#CD072D"/>
<path d="M87.6187 63.6309C87.8067 63.8707 87.9041 64.1718 87.8932 64.4792C87.9042 64.6864 87.8653 64.8932 87.7798 65.0814C87.6943 65.2696 87.565 65.4334 87.4031 65.5582C86.9758 65.8417 86.4703 65.9756 85.9624 65.9397H83.5759V60.5944H85.8203C86.2917 60.5665 86.7597 60.6911 87.1581 60.9508C87.3151 61.0629 87.4422 61.2135 87.5278 61.3889C87.6134 61.5642 87.6547 61.7587 87.6481 61.9546C87.6564 62.2188 87.5826 62.4789 87.4374 62.6974C87.2853 62.9077 87.0755 63.0667 86.8347 63.1541C87.144 63.2159 87.4257 63.3777 87.6383 63.6159M84.2865 62.9484H85.7566C86.0502 62.9674 86.342 62.8901 86.5897 62.7275C86.6857 62.6507 86.7621 62.5513 86.8125 62.4377C86.8628 62.324 86.8856 62.1996 86.8788 62.075C86.8859 61.9499 86.8628 61.8249 86.8115 61.7111C86.7602 61.5973 86.6823 61.4982 86.5848 61.4226C86.3402 61.2567 86.0493 61.1773 85.7566 61.1967H84.2865V62.9484ZM87.1189 64.4189C87.1273 64.2897 87.1039 64.1604 87.0508 64.0429C86.9977 63.9254 86.9167 63.8234 86.8151 63.7464C86.5449 63.5815 86.2322 63.5045 85.9183 63.5255H84.2865V65.3374H85.9183C86.7171 65.3374 87.1189 65.0312 87.1189 64.4189Z" fill="#CD072D"/>
<path d="M98.081 65.2772V65.9397H94.293V60.5945H97.9781V61.262H95.0378V62.9032H97.6546V63.5507H95.0378V65.2772H98.081Z" fill="#CD072D"/>
<path d="M108.044 61.0914C108.226 61.2669 108.371 61.4788 108.47 61.7141C108.57 61.9493 108.621 62.2028 108.621 62.4591C108.621 62.7154 108.57 62.9689 108.47 63.2041C108.371 63.4394 108.226 63.6513 108.044 63.8268C107.586 64.183 107.02 64.3609 106.446 64.3287H105.157V65.9498H104.412V60.5945H106.446C107.02 60.5623 107.586 60.7402 108.044 61.0964M107.504 63.355C107.63 63.2458 107.729 63.1082 107.793 62.9532C107.858 62.7982 107.887 62.6299 107.877 62.4616C107.887 62.294 107.858 62.1264 107.794 61.9721C107.729 61.8178 107.63 61.6812 107.504 61.5732C107.191 61.3456 106.81 61.2357 106.426 61.2621H105.157V63.6611H106.426C106.809 63.689 107.19 63.5809 107.504 63.355Z" fill="#CD072D"/>
<path d="M119.309 60.5945V65.9397H118.56V63.5557H115.565V65.9397H114.821V60.5945H115.565V62.8932H118.56V60.5945H119.309Z" fill="#CD072D"/>
<path d="M129.811 62.8882C129.98 63.0464 130.113 63.2421 130.198 63.4603C130.282 63.6785 130.318 63.9137 130.301 64.1479C130.316 64.3973 130.276 64.647 130.183 64.8782C130.091 65.1094 129.948 65.3161 129.767 65.483C129.328 65.8151 128.788 65.9769 128.243 65.9397H126.087V60.5945H126.827V62.4565H128.39C128.902 62.4224 129.409 62.5753 129.821 62.8882M129.223 65.0363C129.341 64.927 129.434 64.7917 129.494 64.6404C129.555 64.4892 129.581 64.326 129.571 64.163C129.571 63.4302 129.12 63.0638 128.228 63.0638H126.841V65.3374H128.228C128.579 65.3583 128.926 65.2517 129.208 65.0363M131.129 60.5945H131.864V65.9397H131.129V60.5945Z" fill="#CD072D"/>
<path d="M138.955 60.5945L140.317 62.5519L141.68 60.5945H142.552L140.788 63.1592L142.694 65.9397H141.817L140.317 63.8117L138.828 65.9397H137.97L139.871 63.1893L138.097 60.5945H138.955Z" fill="#CD072D"/>
<path d="M159.59 61.0914C159.773 61.2669 159.918 61.4788 160.017 61.7141C160.117 61.9493 160.168 62.2028 160.168 62.4591C160.168 62.7154 160.117 62.9689 160.017 63.2041C159.918 63.4394 159.773 63.6513 159.59 63.8268C159.133 64.183 158.567 64.3609 157.993 64.3287H156.704V65.9498H155.959V60.5945H157.993C158.567 60.5623 159.133 60.7402 159.59 61.0964M159.051 63.355C159.177 63.2458 159.276 63.1082 159.34 62.9532C159.405 62.7982 159.433 62.6299 159.424 62.4616C159.434 62.294 159.405 62.1264 159.341 61.9721C159.276 61.8178 159.177 61.6812 159.051 61.5732C158.737 61.3463 158.357 61.2365 157.973 61.2621H156.704V63.6611H157.973C158.356 63.6882 158.737 63.5801 159.051 63.355Z" fill="#CD072D"/>
<path d="M170.156 65.2772V65.9397H166.368V60.5945H170.048V61.262H167.113V62.9032H169.729V63.5507H167.113V65.2772H170.156Z" fill="#CD072D"/>
<path d="M183.019 60.5945V65.9397H176.482V60.5945H177.222V65.2772H179.388V60.5945H180.118V65.2772H182.289V60.5945H183.019Z" fill="#CD072D"/>
<path d="M193.594 65.2772V65.9397H189.806V60.5945H193.486V61.262H190.551V62.9032H193.168V63.5507H190.551V65.2772H193.594Z" fill="#CD072D"/>
<path d="M204.409 60.5945V65.9397H203.665V63.5557H200.666V65.9397H199.921V60.5945H200.666V62.8932H203.665V60.5945H204.409Z" fill="#CD072D"/>
<path d="M211.196 60.5945H211.931V64.7201L215.019 60.5945H215.705V65.9397H214.974V61.8241L211.882 65.9397H211.196V60.5945Z" fill="#CD072D"/>
<path d="M222.477 60.5945H223.212V64.7452L226.299 60.6195H226.985V65.9648H226.255V61.8492L223.158 65.9648H222.477V60.5945ZM223.776 59.952C223.665 59.8578 223.576 59.7386 223.518 59.6036C223.459 59.4687 223.432 59.3217 223.438 59.1741H223.967C223.964 59.262 223.982 59.3493 224.017 59.4294C224.053 59.5094 224.106 59.58 224.173 59.6358C224.329 59.7549 224.522 59.8136 224.717 59.8014C224.911 59.8111 225.103 59.7527 225.26 59.6358C225.328 59.581 225.383 59.5107 225.419 59.4306C225.456 59.3504 225.474 59.2625 225.471 59.1741H225.996C226.001 59.3213 225.972 59.4677 225.913 59.6018C225.853 59.7359 225.764 59.8541 225.652 59.947C225.38 60.1453 225.05 60.2426 224.717 60.223C224.382 60.2452 224.05 60.1496 223.776 59.952Z" fill="#CD072D"/>
</g>
<defs>
<clipPath id="clip0_133_5635">
<rect width="227" height="66" fill="white"/>
</clipPath>
</defs>
</svg>
