<svg width="65" height="80" viewBox="0 0 65 80" fill="none" xmlns="http://www.w3.org/2000/svg">
<g clip-path="url(#clip0_133_5626)">
<path d="M65 55.5529C65.0008 51.1404 63.7987 46.8102 61.5216 43.0233C59.2445 39.2363 55.9777 36.1345 52.0688 34.0478H31.8466L37.5326 42.3716L4.90653 28.4377L0 79.9999H42.3245C48.4981 79.5341 54.267 76.766 58.4759 72.2497C62.6849 67.7334 65.0233 61.8023 65.0229 55.6441" fill="#14133B"/>
<path d="M20.3599 24.3558L14.7197 16.1231L48.6068 30.5359C51.2428 28.2899 53.1464 25.3138 54.0748 21.9873C55.0033 18.6608 54.9145 15.1346 53.8199 11.8584C52.7252 8.58226 50.6743 5.70466 47.9287 3.59264C45.1831 1.48061 41.8672 0.229894 38.404 0L7.6121 0L5.31934 24.333L20.3599 24.3558Z" fill="#14133B"/>
<path fill-rule="evenodd" clip-rule="evenodd" d="M24.1428 26.3397L20.2221 20.6384L47.0934 32.0409H28.0405L32.007 37.8334L5.08984 26.3397H24.1428Z" fill="#E62A32"/>
</g>
<defs>
<clipPath id="clip0_133_5626">
<rect width="65" height="80" fill="white"/>
</clipPath>
</defs>
</svg>
