<svg width="29" height="29" viewBox="0 0 29 29" fill="none" xmlns="http://www.w3.org/2000/svg">
<g clip-path="url(#clip0_222_1923)">
<path d="M11.069 26.1034C10.6805 25.8076 10.628 25.21 10.945 24.8326L12.1295 23.4233C12.4421 23.0515 13.019 22.9995 13.3923 23.3123C13.7679 23.625 13.8339 24.2062 13.5169 24.5835L12.3324 25.9927C12.0386 26.3069 11.4985 26.4303 11.069 26.1034Z" fill="white"/>
<path d="M7.92061 23.4506C7.53202 23.1548 7.47953 22.5572 7.79655 22.1798L8.98111 20.7705C9.29367 20.3986 9.87058 20.3466 10.2439 20.6594C10.6195 20.9722 10.6855 21.5534 10.3684 21.9306L9.18393 23.3399C8.8902 23.6541 8.3501 23.7774 7.92061 23.4506Z" fill="white"/>
<path d="M4.70967 20.8592C4.32108 20.5635 4.26859 19.9659 4.58562 19.5885L5.77017 18.1792C6.08273 17.8073 6.65964 17.7553 7.03293 18.0681C7.40857 18.3809 7.47457 18.9621 7.15748 19.3393L5.97293 20.7486C5.67927 21.0627 5.13916 21.1861 4.70967 20.8592Z" fill="white"/>
<path d="M1.62374 18.1444C1.23514 17.8486 1.18266 17.251 1.49968 16.8737L2.68423 15.4643C2.9968 15.0925 3.57371 15.0405 3.94699 15.3533C4.32264 15.666 4.38863 16.2472 4.07155 16.6245L2.88705 18.0337C2.59333 18.3479 2.05323 18.4713 1.62374 18.1444Z" fill="white"/>
<path d="M18.488 1.25596C17.0775 1.98419 16.1015 3.40279 15.6871 5.37018C15.67 5.45179 15.6435 5.53129 15.6083 5.60615L12.9913 11.2055C12.7309 11.7628 12.905 12.4277 13.4034 12.7854C14.0298 13.2243 14.9528 13.0144 15.3022 12.3245L17.504 7.976C17.8115 7.36848 18.6409 7.19466 19.1666 7.63078L27.082 14.2946C33.0228 4.59832 23.7294 -1.98689 18.488 1.25596Z" fill="white"/>
<path d="M27.612 17.3088C27.612 17.3088 26.2809 15.717 26.2841 15.7118L18.8147 9.51675L16.9683 13.1633C16.1098 14.8588 13.8756 15.4196 12.3162 14.3272C11.0543 13.4433 10.6115 11.7893 11.2635 10.3944L13.8236 4.90822C13.8099 4.88306 13.3658 2.58943 11.5299 1.39074C8.02397 -0.898247 3.41445 0.744553 1.40834 4.24084C-0.498068 7.56325 -0.460516 11.7809 1.46931 15.0781L1.82996 14.649C2.57461 13.7631 3.92431 13.6293 4.79718 14.3894C5.64302 15.1259 5.74582 16.4064 5.02119 17.2685C5.7545 16.3961 7.05735 16.2823 7.93127 17.0144C8.80518 17.7465 8.91914 19.0472 8.18589 19.9196C8.9192 19.0472 10.2221 18.9334 11.096 19.6655C11.9699 20.3976 12.0838 21.6983 11.3506 22.5708C12.0838 21.6983 13.3868 21.5845 14.2607 22.3166C15.1346 23.0487 15.2485 24.3494 14.5153 25.2218L13.3452 26.6141C13.5806 26.7734 13.8194 26.9331 14.0619 27.0931L15.3033 28.1648C16.1233 28.8726 17.3518 28.8271 18.1169 28.0606C18.8927 27.2836 18.9231 26.0362 18.1862 25.2224L18.295 25.3175C19.0082 26.1661 20.2741 26.2803 21.1281 25.573C21.989 24.8601 22.1045 23.5839 21.3855 22.7285L21.3914 22.7354C22.0131 23.4751 23.083 23.6822 23.9157 23.1916C25.0045 22.55 25.2147 21.1285 24.44 20.2068L24.3215 20.0658C25.084 20.973 26.4388 21.0913 27.3475 20.3301C28.256 19.5686 28.3745 18.2161 27.612 17.3088Z" fill="white"/>
</g>
<defs>
<clipPath id="clip0_222_1923">
<rect width="29" height="29" fill="white"/>
</clipPath>
</defs>
</svg>
