<svg width="32" height="32" viewBox="0 0 32 32" fill="none" xmlns="http://www.w3.org/2000/svg">
<g clip-path="url(#clip0_222_1936)">
<path d="M11.0483 24.6951C10.4362 24.6951 9.86619 24.4206 9.48463 23.942L8.14513 22.2624L6.96663 21.6948L3.88969 27.8835C3.73544 28.1938 3.75282 28.562 3.93569 28.8563C4.11813 29.1501 4.43944 29.3287 4.78513 29.3287H4.78738L7.64151 29.3223L9.35907 31.6017C9.54901 31.8538 9.84544 31.9999 10.1576 31.9999C10.1882 31.9999 10.2189 31.9985 10.2498 31.9956C10.5949 31.9637 10.8989 31.7554 11.0531 31.4451L14.1749 25.1662L13.1966 24.6951H11.0483Z" fill="white"/>
<path d="M28.1095 27.8835L25.0325 21.6948L23.854 22.2624L22.5145 23.9421C22.133 24.4206 21.563 24.6951 20.9508 24.6951H18.8025L17.8242 25.1662L20.946 31.4451C21.1003 31.7554 21.4043 31.9637 21.7493 31.9956C21.7802 31.9985 21.8109 31.9999 21.8415 31.9999C22.1536 31.9999 22.4501 31.8538 22.64 31.6017L24.3576 29.3223L27.2117 29.3287H27.214C27.5597 29.3287 27.881 29.1501 28.0634 28.8563C28.2463 28.562 28.2637 28.1938 28.1095 27.8835Z" fill="white"/>
<path d="M20.9534 23.6952C21.2577 23.6952 21.5455 23.5567 21.7352 23.3188L23.217 21.4606L25.3583 20.4294C25.6325 20.2974 25.8316 20.0477 25.8994 19.751L26.4282 17.4339L27.91 15.5758C28.0998 15.3379 28.1709 15.0265 28.1031 14.7298L27.5743 12.4128L28.1031 10.0957C28.1708 9.799 28.0998 9.48769 27.91 9.24969L26.4282 7.39162L25.8994 5.07456C25.8317 4.77787 25.6325 4.52819 25.3583 4.39612L23.217 3.36494L21.7352 1.50681C21.5455 1.26888 21.2577 1.13031 20.9534 1.13031H18.5768L16.4355 0.099C16.1612 -0.033 15.8419 -0.033 15.5677 0.099L13.4264 1.13019H11.0498C10.7455 1.13019 10.4577 1.26875 10.268 1.50669L8.78616 3.36481L6.64491 4.396C6.37073 4.52806 6.1716 4.77775 6.10385 5.07444L5.57498 7.3915L4.09316 9.24956C3.90341 9.4875 3.83235 9.79887 3.9001 10.0956L4.42891 12.4127L3.9001 14.7297C3.83241 15.0264 3.90341 15.3377 4.09316 15.5757L5.57498 17.4338L6.10385 19.7509C6.17154 20.0476 6.37073 20.2972 6.64491 20.4293L8.78616 21.4605L10.268 23.3186C10.4577 23.5566 10.7455 23.6951 11.0498 23.6951H13.4264L15.5677 24.7263C15.7048 24.7923 15.8532 24.8253 16.0015 24.8253C16.1499 24.8253 16.2984 24.7923 16.4354 24.7263L18.5767 23.6951H20.9533L20.9534 23.6952ZM16.0016 21.1628C11.1769 21.1628 7.2516 17.2375 7.2516 12.4128C7.2516 7.588 11.1769 3.66275 16.0016 3.66275C20.8264 3.66275 24.7516 7.588 24.7516 12.4128C24.7516 17.2375 20.8264 21.1628 16.0016 21.1628Z" fill="white"/>
<path d="M16 4.6626C11.7266 4.6626 8.25 8.13922 8.25 12.4126C8.25 16.686 11.7266 20.1626 16 20.1626C20.2734 20.1626 23.75 16.686 23.75 12.4126C23.75 8.13922 20.2734 4.6626 16 4.6626ZM16.2071 14.707C16.0129 14.9011 15.7569 14.9999 15.4998 14.9999C15.2797 14.9999 15.0588 14.9276 14.8753 14.7808L12.3753 12.7808L13.6247 11.2191L15.4257 12.66L18.2929 9.79285L19.7071 11.207L16.2071 14.707V14.707Z" fill="white"/>
</g>
<defs>
<clipPath id="clip0_222_1936">
<rect width="32" height="32" fill="white"/>
</clipPath>
</defs>
</svg>
