<svg width="32" height="32" viewBox="0 0 32 32" fill="none" xmlns="http://www.w3.org/2000/svg">
<g clip-path="url(#clip0_222_1947)">
<path d="M5.6875 9.4375H11.3125V13.1875H5.6875V9.4375Z" fill="white"/>
<path d="M13.1875 3.75H18.8125V13.1875H13.1875V3.75Z" fill="white"/>
<path d="M20.6875 0H26.3125V13.1875H20.6875V0Z" fill="white"/>
<path d="M16 22.5625C11.6683 22.5625 8.13056 19.2697 7.65725 15.0625H0V18.7026L3.25219 19.1018C3.57081 20.4229 4.08625 21.6708 4.79025 22.8244L2.82006 25.3586L6.6415 29.18L9.17569 27.2098C10.3293 27.9139 11.5771 28.4293 12.8982 28.7479L13.2974 32H18.7026L19.1018 28.7478C20.4229 28.4292 21.6708 27.9137 22.8244 27.2097L25.3586 29.1799L29.18 25.3585L27.2098 22.8243C27.9139 21.6707 28.4293 20.4229 28.7479 19.1017L32 18.7026V15.0625H24.3428C23.8694 19.2697 20.3317 22.5625 16 22.5625Z" fill="white"/>
<path d="M15.999 20.6875C19.2962 20.6875 22.0069 18.2344 22.4668 15.0625H9.53125C9.99106 18.2344 12.7018 20.6875 15.999 20.6875Z" fill="white"/>
</g>
<defs>
<clipPath id="clip0_222_1947">
<rect width="32" height="32" fill="white"/>
</clipPath>
</defs>
</svg>
