<svg width="280" height="251" viewBox="0 0 280 251" fill="none" xmlns="http://www.w3.org/2000/svg">
<g opacity="0.14">
<path d="M171.716 202.568L121.632 195.801L172.612 221.788L171.716 202.568Z" fill="url(#paint0_linear_78_674)"/>
<path d="M121.632 195.801L92.7238 233.09L172.612 221.788L121.632 195.801Z" fill="url(#paint1_linear_78_674)"/>
<path d="M118.158 286.071L92.7238 233.09L172.612 221.788L118.158 286.071Z" fill="url(#paint2_linear_78_674)"/>
<path d="M314.015 51.9019L308.748 82.9277L276.255 78.9685L314.015 51.9019Z" fill="url(#paint3_linear_78_674)"/>
<path d="M171.716 202.568L121.632 195.801L198.159 158.009L171.716 202.568Z" fill="url(#paint4_linear_78_674)"/>
<path d="M92.7246 233.09L67.1782 265.196L31.2116 253.39L92.7246 233.09Z" fill="url(#paint5_linear_78_674)"/>
<path d="M121.632 195.801L92.7241 233.09L-56.6326 221.788L121.632 195.801Z" fill="url(#paint6_linear_78_674)"/>
<path d="M121.632 195.801L-31.1983 80.6961L-56.6326 221.788L121.632 195.801Z" fill="url(#paint7_linear_78_674)"/>
<path d="M92.7246 233.09L31.2116 253.39L-56.6321 221.788L92.7246 233.09Z" fill="url(#paint8_linear_78_674)"/>
<path d="M31.2109 253.39L-56.6328 221.788L-34.6719 251.662L31.2109 253.39Z" fill="url(#paint9_linear_78_674)"/>
<path d="M304.378 254.47L208.691 292.334L263.145 250.006L304.378 254.47Z" fill="url(#paint10_linear_78_674)"/>
<path d="M198.159 158.009L121.632 195.801L133.061 43.4075L198.159 158.009Z" fill="url(#paint11_linear_78_674)"/>
<path d="M121.632 195.801L-31.1983 80.6961L133.061 43.4075L121.632 195.801Z" fill="url(#paint12_linear_78_674)"/>
<path d="M412.502 231.938L350.989 149.514L256.086 201.992L412.502 231.938Z" fill="url(#paint13_linear_78_674)"/>
<path d="M412.502 231.938L304.378 254.47L256.086 201.992L412.502 231.938Z" fill="url(#paint14_linear_78_674)"/>
<path d="M304.378 254.47L263.145 250.007L256.086 201.992L304.378 254.47Z" fill="url(#paint15_linear_78_674)"/>
<path d="M263.146 250.007L172.613 221.788L256.087 201.992L263.146 250.007Z" fill="url(#paint16_linear_78_674)"/>
<path d="M198.159 158.009L171.717 202.568L256.087 201.992L198.159 158.009Z" fill="url(#paint17_linear_78_674)"/>
<path d="M172.613 221.788L171.717 202.568L256.087 201.992L172.613 221.788Z" fill="url(#paint18_linear_78_674)"/>
<path d="M118.158 286.071L92.7239 233.09L86.5614 270.882L118.158 286.071Z" fill="url(#paint19_linear_78_674)"/>
<path d="M92.7246 233.09L67.1782 265.195L86.5621 270.882L92.7246 233.09Z" fill="url(#paint20_linear_78_674)"/>
<path d="M353.566 114.529L350.989 149.514L254.294 134.829L353.566 114.529Z" fill="url(#paint21_linear_78_674)"/>
<path d="M353.566 114.53L308.748 82.9279L254.294 134.83L353.566 114.53Z" fill="url(#paint22_linear_78_674)"/>
<path d="M350.989 149.515L256.087 201.992L254.294 134.83L350.989 149.515Z" fill="url(#paint23_linear_78_674)"/>
<path d="M308.748 82.9279L276.255 78.9687L254.294 134.83L308.748 82.9279Z" fill="url(#paint24_linear_78_674)"/>
<path d="M256.087 201.992L198.159 158.009L254.294 134.83L256.087 201.992Z" fill="url(#paint25_linear_78_674)"/>
<path d="M263.146 250.006L208.691 292.334L211.268 270.306L263.146 250.006Z" fill="url(#paint26_linear_78_674)"/>
<path d="M263.146 250.007L172.613 221.788L211.268 270.307L263.146 250.007Z" fill="url(#paint27_linear_78_674)"/>
<path d="M172.613 221.788L118.159 286.071L211.269 270.306L172.613 221.788Z" fill="url(#paint28_linear_78_674)"/>
<path d="M276.255 78.9687L254.294 134.83L226.171 129.791L276.255 78.9687Z" fill="url(#paint29_linear_78_674)"/>
<path d="M276.255 78.9686L172.613 42.8318L226.171 129.791L276.255 78.9686Z" fill="url(#paint30_linear_78_674)"/>
<path d="M254.294 134.829L198.159 158.009L226.17 129.79L254.294 134.829Z" fill="url(#paint31_linear_78_674)"/>
<path d="M198.16 158.009L133.061 43.4076L226.171 129.79L198.16 158.009Z" fill="url(#paint32_linear_78_674)"/>
<path d="M172.613 42.8318L133.061 43.4077L226.171 129.791L172.613 42.8318Z" fill="url(#paint33_linear_78_674)"/>
</g>
<defs>
<linearGradient id="paint0_linear_78_674" x1="183.369" y1="217.181" x2="161.937" y2="175.12" gradientUnits="userSpaceOnUse">
<stop stop-color="#0072BB"/>
<stop offset="1" stop-color="#0085CC"/>
</linearGradient>
<linearGradient id="paint1_linear_78_674" x1="156.254" y1="238.921" x2="132.792" y2="181.378" gradientUnits="userSpaceOnUse">
<stop stop-color="#0095DA"/>
<stop offset="1" stop-color="#0089CF"/>
</linearGradient>
<linearGradient id="paint2_linear_78_674" x1="176.646" y1="283.696" x2="112.512" y2="204.012" gradientUnits="userSpaceOnUse">
<stop stop-color="#00A0E4"/>
<stop offset="1" stop-color="#0099DD"/>
</linearGradient>
<linearGradient id="paint3_linear_78_674" x1="315.695" y1="80.4802" x2="283.802" y2="46.5203" gradientUnits="userSpaceOnUse">
<stop stop-color="#FDFDFD"/>
<stop offset="1" stop-color="#AACEE6"/>
</linearGradient>
<linearGradient id="paint4_linear_78_674" x1="198.831" y1="201.992" x2="159.228" y2="134.107" gradientUnits="userSpaceOnUse">
<stop stop-color="#008FD5"/>
<stop offset="1" stop-color="#00A4E8"/>
</linearGradient>
<linearGradient id="paint5_linear_78_674" x1="98.7751" y1="264.044" x2="71.8097" y2="212.5" gradientUnits="userSpaceOnUse">
<stop stop-color="#04ADEE"/>
<stop offset="1" stop-color="#96CEE4"/>
</linearGradient>
<linearGradient id="paint6_linear_78_674" x1="133.957" y1="229.419" x2="118.742" y2="156.58" gradientUnits="userSpaceOnUse">
<stop stop-color="#0096D4"/>
<stop offset="1" stop-color="#009DDD"/>
</linearGradient>
<linearGradient id="paint7_linear_78_674" x1="88.4664" y1="247.991" x2="-51.6455" y2="70.9069" gradientUnits="userSpaceOnUse">
<stop stop-color="#68BFE1"/>
<stop offset="1" stop-color="#94CEE5"/>
</linearGradient>
<linearGradient id="paint8_linear_78_674" x1="108.411" y1="252.094" x2="95.3458" y2="190.36" gradientUnits="userSpaceOnUse">
<stop stop-color="#009FE3"/>
<stop offset="1" stop-color="#4EB9E6"/>
</linearGradient>
<linearGradient id="paint9_linear_78_674" x1="10.5946" y1="260.156" x2="-5.71459" y2="208.35" gradientUnits="userSpaceOnUse">
<stop stop-color="#75C0E2"/>
<stop offset="1" stop-color="#009CE1"/>
</linearGradient>
<linearGradient id="paint10_linear_78_674" x1="296.759" y1="290.894" x2="268.808" y2="227.666" gradientUnits="userSpaceOnUse">
<stop stop-color="#00A5E7"/>
<stop offset="1" stop-color="#07ADEC"/>
</linearGradient>
<linearGradient id="paint11_linear_78_674" x1="179.336" y1="216.893" x2="70.2927" y2="162.204" gradientUnits="userSpaceOnUse">
<stop stop-color="#00A0E4"/>
<stop offset="1" stop-color="#55C8F4"/>
</linearGradient>
<linearGradient id="paint12_linear_78_674" x1="160.512" y1="158.585" x2="3.90148" y2="10.8595" gradientUnits="userSpaceOnUse">
<stop stop-color="#76CDEE"/>
<stop offset="1" stop-color="#F3F3F3"/>
</linearGradient>
<linearGradient id="paint13_linear_78_674" x1="413.174" y1="231.65" x2="343.819" y2="100.039" gradientUnits="userSpaceOnUse">
<stop stop-color="#76C0E3"/>
<stop offset="1" stop-color="#0084C7"/>
</linearGradient>
<linearGradient id="paint14_linear_78_674" x1="393.23" y1="259.365" x2="367.662" y2="172.312" gradientUnits="userSpaceOnUse">
<stop stop-color="#B0D4E6"/>
<stop offset="1" stop-color="#268FC7"/>
</linearGradient>
<linearGradient id="paint15_linear_78_674" x1="297.991" y1="266.059" x2="244.617" y2="216.928" gradientUnits="userSpaceOnUse">
<stop stop-color="#0099DD"/>
<stop offset="1" stop-color="#0087CA"/>
</linearGradient>
<linearGradient id="paint16_linear_78_674" x1="279.28" y1="242.952" x2="238.763" y2="166.533" gradientUnits="userSpaceOnUse">
<stop stop-color="#0080C2"/>
<stop offset="1" stop-color="#005EA2"/>
</linearGradient>
<linearGradient id="paint17_linear_78_674" x1="240.625" y1="207.679" x2="199.99" y2="140.429" gradientUnits="userSpaceOnUse">
<stop stop-color="#0074B8"/>
<stop offset="1" stop-color="#005EA2"/>
</linearGradient>
<linearGradient id="paint18_linear_78_674" x1="251.381" y1="221.068" x2="244.381" y2="186.915" gradientUnits="userSpaceOnUse">
<stop stop-color="#0063A8"/>
<stop offset="1" stop-color="#005EA2"/>
</linearGradient>
<linearGradient id="paint19_linear_78_674" x1="115.357" y1="296.005" x2="67.7394" y2="267.62" gradientUnits="userSpaceOnUse">
<stop stop-color="#01A0E4"/>
<stop offset="1" stop-color="#46B9E6"/>
</linearGradient>
<linearGradient id="paint20_linear_78_674" x1="93.733" y1="269.947" x2="57.9742" y2="245.856" gradientUnits="userSpaceOnUse">
<stop stop-color="#00ADEF"/>
<stop offset="1" stop-color="#8BC5DD"/>
</linearGradient>
<linearGradient id="paint21_linear_78_674" x1="362.866" y1="145.843" x2="340.476" y2="82.3257" gradientUnits="userSpaceOnUse">
<stop stop-color="#0064A9"/>
<stop offset="1" stop-color="#0089CB"/>
</linearGradient>
<linearGradient id="paint22_linear_78_674" x1="337.544" y1="138.069" x2="299.465" y2="65.2696" gradientUnits="userSpaceOnUse">
<stop stop-color="#0063A8"/>
<stop offset="1" stop-color="#0379BD"/>
</linearGradient>
<linearGradient id="paint23_linear_78_674" x1="341.914" y1="204.728" x2="277.681" y2="112.311" gradientUnits="userSpaceOnUse">
<stop stop-color="#008AD0"/>
<stop offset="1" stop-color="#0078BC"/>
</linearGradient>
<linearGradient id="paint24_linear_78_674" x1="305.835" y1="133.462" x2="248.841" y2="77.9054" gradientUnits="userSpaceOnUse">
<stop stop-color="#0967AA"/>
<stop offset="1" stop-color="#56A8D3"/>
</linearGradient>
<linearGradient id="paint25_linear_78_674" x1="266.955" y1="187.595" x2="200.448" y2="137.358" gradientUnits="userSpaceOnUse">
<stop stop-color="#0076B8"/>
<stop offset="1" stop-color="#009ADE"/>
</linearGradient>
<linearGradient id="paint26_linear_78_674" x1="265.05" y1="290.894" x2="223.196" y2="237.04" gradientUnits="userSpaceOnUse">
<stop stop-color="#00ADEF"/>
<stop offset="1" stop-color="#07ADEC"/>
</linearGradient>
<linearGradient id="paint27_linear_78_674" x1="256.199" y1="274.77" x2="214.937" y2="197.851" gradientUnits="userSpaceOnUse">
<stop stop-color="#00ADEF"/>
<stop offset="1" stop-color="#0099DD"/>
</linearGradient>
<linearGradient id="paint28_linear_78_674" x1="205.106" y1="291.902" x2="143.699" y2="203.03" gradientUnits="userSpaceOnUse">
<stop stop-color="#0083CA"/>
<stop offset="1" stop-color="#009CE1"/>
</linearGradient>
<linearGradient id="paint29_linear_78_674" x1="277.824" y1="133.462" x2="221.152" y2="82.6746" gradientUnits="userSpaceOnUse">
<stop stop-color="#7DC7EA"/>
<stop offset="1" stop-color="#0099DE"/>
</linearGradient>
<linearGradient id="paint30_linear_78_674" x1="279.392" y1="126.047" x2="192.064" y2="21.8967" gradientUnits="userSpaceOnUse">
<stop stop-color="#7DD4F5"/>
<stop offset="1" stop-color="#55C0ED"/>
</linearGradient>
<linearGradient id="paint31_linear_78_674" x1="254.854" y1="159.736" x2="231.766" y2="113.737" gradientUnits="userSpaceOnUse">
<stop stop-color="#009BE0"/>
<stop offset="1" stop-color="#0094DA"/>
</linearGradient>
<linearGradient id="paint32_linear_78_674" x1="229.308" y1="163.552" x2="114.872" y2="70.5433" gradientUnits="userSpaceOnUse">
<stop stop-color="#0083CA"/>
<stop offset="1" stop-color="#55ACDC"/>
</linearGradient>
<linearGradient id="paint33_linear_78_674" x1="241.185" y1="126.047" x2="152.709" y2="31.2579" gradientUnits="userSpaceOnUse">
<stop stop-color="#86BBDE"/>
<stop offset="1" stop-color="#59AEDD"/>
</linearGradient>
</defs>
</svg>
