<svg width="50" height="50" viewBox="0 0 50 50" fill="none" xmlns="http://www.w3.org/2000/svg">
<rect width="50" height="50" rx="7" fill="#CD072D"/>
<path d="M20.4618 15.1953H29.1324C30.1261 15.1953 30.8065 14.1923 30.438 13.2693L29.4856 10.8841C29.2725 10.3497 28.7557 10 28.18 10H21.413C20.8385 10 20.3205 10.3508 20.1074 10.8841L19.1562 13.2693C18.7877 14.1923 19.4682 15.1953 20.4618 15.1953Z" fill="white"/>
<path d="M41.3036 28.5647C40.3735 27.6464 38.8784 27.6464 37.9484 28.5647L36.9453 29.5748L40.3029 32.9206L41.3036 31.9199C42.2336 30.9899 42.2336 29.4947 41.3036 28.5647Z" fill="white"/>
<path d="M35.6973 30.8247L29.9522 36.5698C29.8227 36.6876 29.7403 36.8524 29.7168 37.029L29.2694 39.619C29.1752 40.1958 29.6697 40.6903 30.2465 40.5961L32.8483 40.1605C33.0131 40.1252 33.178 40.0428 33.2957 39.9251L39.0526 34.1682L35.6973 30.8247Z" fill="white"/>
<path d="M33.709 12.6011H32.0714L32.0773 12.6164C32.4682 13.5923 32.3481 14.6978 31.7583 15.569C31.1684 16.4414 30.1866 16.9629 29.1329 16.9629H20.4611C19.4074 16.9629 18.4256 16.4425 17.8358 15.569C17.2448 14.6966 17.1259 13.5923 17.5156 12.6152L17.5214 12.6011H15.885C13.7306 12.6011 12 14.3434 12 16.4861V36.7235C12 38.8662 13.7306 40.6085 15.885 40.6085H27.6472C27.5071 40.2035 27.4565 39.7691 27.5271 39.3347L27.9768 36.7294C28.0451 36.2032 28.3289 35.6581 28.7656 35.2625L34.9899 29.0359L36.6911 27.3206C36.963 27.0522 37.2703 26.8426 37.5917 26.6613V16.4861C37.594 14.3434 35.8517 12.6011 33.709 12.6011ZM19.2532 32.1804H18.1807C17.5956 32.1804 17.1212 31.7059 17.1212 31.1208C17.1212 30.5357 17.5956 30.0613 18.1807 30.0613H19.2544C19.8395 30.0613 20.3139 30.5357 20.3139 31.1208C20.3139 31.7059 19.8383 32.1804 19.2532 32.1804ZM19.2532 25.7513H18.1807C17.5956 25.7513 17.1212 25.2768 17.1212 24.6917C17.1212 24.1066 17.5956 23.6322 18.1807 23.6322H19.2544C19.8395 23.6322 20.3139 24.1066 20.3139 24.6917C20.3139 25.2768 19.8383 25.7513 19.2532 25.7513ZM28.7421 32.1792H23.5032C22.9181 32.1792 22.4436 31.7048 22.4436 31.1197C22.4436 30.5346 22.9181 30.0601 23.5032 30.0601H28.7421C29.3272 30.0601 29.8016 30.5346 29.8016 31.1197C29.8016 31.7048 29.3284 32.1792 28.7421 32.1792ZM31.4133 25.7513H23.5008C22.9157 25.7513 22.4413 25.2768 22.4413 24.6917C22.4413 24.1066 22.9157 23.6322 23.5008 23.6322H31.4133C31.9984 23.6322 32.4729 24.1066 32.4729 24.6917C32.4729 25.2768 31.9984 25.7513 31.4133 25.7513Z" fill="white"/>
</svg>
