<svg width="32" height="32" viewBox="0 0 32 32" fill="none" xmlns="http://www.w3.org/2000/svg">
<path d="M23.0286 30.1252H21.9578V21.021C21.9578 19.3967 20.6363 18.0752 19.0119 18.0752C17.3876 18.0752 16.0661 19.3967 16.0661 21.021V22.0919H4.95356C4.43581 22.0919 4.01606 22.5116 4.01606 23.0294C4.01606 23.5471 4.43581 23.9669 4.95356 23.9669H16.0661V26.1086H4.95356C4.43581 26.1086 4.01606 26.5283 4.01606 27.0461V30.1252H2.94531C2.42756 30.1252 2.00781 30.5449 2.00781 31.0627C2.00781 31.5804 2.42756 32.0002 2.94531 32.0002H23.0286C23.5464 32.0002 23.9661 31.5804 23.9661 31.0627C23.9661 30.5449 23.5464 30.1252 23.0286 30.1252Z" fill="white"/>
<path d="M13.9229 0.9375C13.9229 0.41975 13.5032 0 12.9854 0H8.96875C8.451 0 8.03125 0.41975 8.03125 0.9375V2.14169H13.9229V0.9375Z" fill="white"/>
<path d="M8.96875 19.9498H12.9854C13.5032 19.9498 13.9229 19.53 13.9229 19.0123V17.8081H8.03125V19.0123C8.03125 19.53 8.451 19.9498 8.96875 19.9498Z" fill="white"/>
<path d="M7.96875 15.9333H13.9937C14.5115 15.9333 14.9312 15.5135 14.9312 14.9958V12.9208C13.3069 12.9208 11.9854 11.5992 11.9854 9.97491C11.9854 8.3506 13.3069 7.0291 14.9312 7.0291V4.9541C14.9312 4.43635 14.5115 4.0166 13.9937 4.0166H7.96875C7.451 4.0166 7.03125 4.43635 7.03125 4.9541V14.9958C7.03125 15.5135 7.451 15.9333 7.96875 15.9333Z" fill="white"/>
<path d="M21.5234 7.0293H16.8047V7.7048C17.4583 8.24555 17.8755 9.06248 17.8755 9.97511C17.8755 10.8877 17.4583 11.7047 16.8047 12.2455V12.921H21.5234C22.9444 12.921 24.1004 14.077 24.1004 15.498C24.1004 16.5132 23.5038 17.4134 22.6221 17.8299C23.3752 18.6807 23.8337 19.798 23.8337 21.021V23.6482C27.3876 22.6442 29.9921 19.3805 29.9921 15.4981C29.9921 10.8284 26.1931 7.0293 21.5234 7.0293Z" fill="white"/>
<path d="M13.8594 9.97511C13.8594 10.5655 14.3398 11.046 14.9302 11.046C15.5206 11.046 16.001 10.5655 16.001 9.97511C16.001 9.38467 15.5206 8.9043 14.9302 8.9043C14.3398 8.9043 13.8594 9.38461 13.8594 9.97511Z" fill="white"/>
</svg>
