<svg width="32" height="32" viewBox="0 0 32 32" fill="none" xmlns="http://www.w3.org/2000/svg">
<g clip-path="url(#clip0_222_2771)">
<path d="M6.96509 25.7549C6.18653 25.7549 3.03906 25.7529 2.26026 25.7529C1.65674 25.7529 1.08862 25.9888 0.661135 26.417C0.233888 26.8447 -0.000730715 27.4119 1.70967e-06 28.0144L0.00317553 30.1755C0.00366382 30.5261 0.199709 30.8472 0.51172 31.0076C1.77368 31.6567 3.19556 31.9998 4.62305 31.9998C6.05078 31.9998 7.47241 31.6567 8.73462 31.0076C9.04639 30.8472 9.24268 30.5261 9.24317 30.1755L9.2461 28.0164C9.24707 27.4204 9.01221 26.8569 8.58521 26.4292C8.15723 26.0007 7.56665 25.7549 6.96509 25.7549Z" fill="white"/>
<path d="M4.62036 24.9351C6.47461 24.9351 7.98291 23.4265 7.98291 21.5725C7.98291 19.7185 6.47437 18.21 4.62036 18.21C2.76636 18.21 1.25781 19.7185 1.25781 21.5725C1.25781 23.4265 2.76611 24.9351 4.62036 24.9351Z" fill="white"/>
<path d="M18.3091 25.7549C17.5305 25.7549 14.3828 25.7529 13.604 25.7529C13.0005 25.7529 12.4326 25.9888 12.0049 26.417C11.5776 26.8447 11.343 27.4119 11.3438 28.0144L11.3469 30.1755C11.3474 30.5261 11.5435 30.8472 11.8555 31.0076C13.1177 31.6567 14.5393 31.9998 15.9668 31.9998C17.3945 31.9998 18.8162 31.6567 20.0784 31.0076C20.3901 30.8472 20.5864 30.5261 20.5869 30.1755L20.5901 28.0164C20.5908 27.4204 20.3562 26.8569 19.929 26.4292C19.501 26.0007 18.9106 25.7549 18.3091 25.7549Z" fill="white"/>
<path d="M12.6016 21.5725C12.6016 23.4268 14.1101 24.9351 15.9641 24.9351C17.8184 24.9351 19.3267 23.4265 19.3267 21.5725C19.3267 19.7185 17.8184 18.21 15.9641 18.21C14.1101 18.21 12.6016 19.7183 12.6016 21.5725Z" fill="white"/>
<path d="M31.3272 26.4292C30.8992 26.0007 30.3086 25.7549 29.7073 25.7549C28.9287 25.7549 25.7813 25.7529 25.0022 25.7529C24.3987 25.7529 23.8306 25.9888 23.4031 26.417C22.9761 26.8447 22.7412 27.4119 22.7422 28.0144L22.7451 30.1755C22.7456 30.5261 22.9419 30.8472 23.2537 31.0076C24.5159 31.6567 25.9375 31.9998 27.3652 31.9998C28.7927 31.9998 30.2146 31.6567 31.4766 31.0076C31.7886 30.8472 31.9849 30.5261 31.9854 30.1755L31.9883 28.0161C31.989 27.4204 31.7542 26.8569 31.3272 26.4292Z" fill="white"/>
<path d="M24 21.5725C24 23.4268 25.5085 24.9351 27.3625 24.9351C29.2168 24.9351 30.7253 23.4265 30.7253 21.5725C30.7253 19.7185 29.2168 18.21 27.3625 18.21C25.5085 18.21 24 19.7183 24 21.5725Z" fill="white"/>
<path d="M4.81201 3.13354H5.18701V15.7546C5.18701 16.2722 5.60669 16.6919 6.12427 16.6919H25.8684C26.386 16.6919 26.8057 16.2722 26.8057 15.7546V3.13354H27.1804C27.6982 3.13354 28.1177 2.71387 28.1177 2.19629C28.1177 1.67871 27.6982 1.25903 27.1804 1.25903H16.9336V0.937256C16.9336 0.419678 16.5139 0 15.9963 0C15.4788 0 15.0591 0.419678 15.0591 0.937256V1.25903H4.81201C4.29443 1.25903 3.875 1.67871 3.875 2.19629C3.875 2.71387 4.29443 3.13354 4.81201 3.13354ZM8.76465 9.23975C9.12573 8.8689 9.71899 8.86133 10.0898 9.22266L11.7466 10.8376L16.813 5.89893C17.177 5.54395 17.7573 5.54395 18.1213 5.89893L20.5388 8.25537L21.9026 6.92603C22.2732 6.5647 22.8665 6.57227 23.2278 6.94287C23.5891 7.31372 23.5815 7.90698 23.2109 8.26831L21.1929 10.2354C20.8289 10.5901 20.2485 10.5901 19.8845 10.2354L17.467 7.87891L12.4009 12.8176C12.2188 12.9949 11.9827 13.0837 11.7466 13.0837C11.5103 13.0837 11.2742 12.9949 11.0923 12.8176L8.78149 10.5649C8.41089 10.2039 8.40332 9.61035 8.76465 9.23975Z" fill="white"/>
</g>
<defs>
<clipPath id="clip0_222_2771">
<rect width="32" height="32" fill="white"/>
</clipPath>
</defs>
</svg>
