<svg width="32" height="32" viewBox="0 0 32 32" fill="none" xmlns="http://www.w3.org/2000/svg">
<g clip-path="url(#clip0_222_2781)">
<path d="M22.625 0H9.375C4.1975 0 0 4.1975 0 9.375V22.625C0 27.8025 4.1975 32 9.375 32H22.625C27.8025 32 32 27.8025 32 22.625V9.375C32 4.1975 27.8025 0 22.625 0ZM28.875 22.625C28.875 26.0713 26.0713 28.875 22.625 28.875H9.375C5.92875 28.875 3.125 26.0713 3.125 22.625V9.375C3.125 5.92875 5.92875 3.125 9.375 3.125H22.625C26.0713 3.125 28.875 5.92875 28.875 9.375V22.625ZM14.9175 25.6731V17.6056H9.53813L17.0819 6.3275V14.395H22.4613L14.9175 25.6731Z" fill="white"/>
</g>
<defs>
<clipPath id="clip0_222_2781">
<rect width="32" height="32" fill="white"/>
</clipPath>
</defs>
</svg>
