<svg width="174" height="97" viewBox="0 0 174 97" fill="none" xmlns="http://www.w3.org/2000/svg">
<path d="M148.69 0H25.3008C18.595 0.0199822 12.1697 2.73239 7.42889 7.54449C2.68807 12.3566 0.0172222 18.8771 0 25.6812L0 71.3188C0.0172222 78.1229 2.68807 84.6434 7.42889 89.4555C12.1697 94.2676 18.595 96.98 25.3008 97H87.1306L39.9795 49.205V78.6238L21.7477 60.1625V19.5211H39.9795V49.205L68.6656 19.5874H131.064C138.32 19.5874 148.578 25.2649 148.578 37.5661C148.578 49.8673 139.187 54.6743 129.367 54.6743H124.853C118.661 54.6743 116.74 55.9896 116.74 59.027V63.0202H145.342L160.981 78.3494H99.8789V57.5319C99.8789 44.5305 112.189 43.007 118.642 43.007H127.119C132.043 43.007 132.239 34.9828 127.241 34.9828H78.8866L64.9632 48.94L112.459 97H148.69C155.396 96.98 161.823 94.2679 166.565 89.4561C171.307 84.6443 173.98 78.1237 174 71.3188V25.6812C173.98 18.8763 171.307 12.3557 166.565 7.54391C161.823 2.73207 155.396 0.0199706 148.69 0Z" fill="#CD072D"/>
</svg>
