<svg width="758" height="644" viewBox="0 0 758 644" fill="none" xmlns="http://www.w3.org/2000/svg">
<path d="M277.586 191.698L227.666 269.279L271.912 241.766L277.586 191.698Z" fill="url(#paint0_linear_239_4138)"/>
<path d="M199.678 384.288L261.437 336.563L238.632 303.002L199.678 384.288Z" fill="url(#paint1_linear_239_4138)"/>
<path d="M398.05 483.716L460.846 426.892L445.188 396.11L398.05 483.716Z" fill="url(#paint2_linear_239_4138)"/>
<path d="M460.846 426.892L472.522 346.478L445.188 396.11L460.846 426.892Z" fill="url(#paint3_linear_239_4138)"/>
<path d="M277.586 191.698L346.22 198.453L313.758 85.8956L277.586 191.698Z" fill="url(#paint4_linear_239_4138)"/>
<path d="M346.22 198.453L424.238 154.378L313.758 85.8956L346.22 198.453Z" fill="url(#paint5_linear_239_4138)"/>
<path d="M261.437 336.563L199.678 384.288L312.285 367.236L261.437 336.563Z" fill="url(#paint6_linear_239_4138)"/>
<path d="M324.397 393.55L312.285 367.236L199.678 384.288L324.397 393.55Z" fill="url(#paint7_linear_239_4138)"/>
<path d="M545.629 253.861L517.696 269.442L472.522 346.478L545.629 253.861Z" fill="url(#paint8_linear_239_4138)"/>
<path d="M277.586 191.698L263.019 195.511L346.22 198.453L277.586 191.698Z" fill="url(#paint9_linear_239_4138)"/>
<path d="M517.696 269.442L545.629 253.861L520.314 204.828L517.696 269.442Z" fill="url(#paint10_linear_239_4138)"/>
<path d="M495.109 289.6L550.376 359.499L517.696 269.442L495.109 289.6Z" fill="url(#paint11_linear_239_4138)"/>
<path d="M445.188 396.11L377.154 492.76L398.05 483.716L445.188 396.11Z" fill="url(#paint12_linear_239_4138)"/>
<path d="M503.838 371.485L445.188 396.11L550.376 359.499L503.838 371.485Z" fill="url(#paint13_linear_239_4138)"/>
<path d="M503.838 371.485L550.376 359.499L495.109 289.6L503.838 371.485Z" fill="url(#paint14_linear_239_4138)"/>
<path d="M200.714 450.374L312.285 367.236L193.894 415.56L200.714 450.374Z" fill="url(#paint15_linear_239_4138)"/>
<path d="M195.804 361.842L195.04 333.566L147.575 250.537L195.804 361.842Z" fill="url(#paint16_linear_239_4138)"/>
<path d="M266.129 211.801L147.575 250.537L195.04 333.566L266.129 211.801Z" fill="url(#paint17_linear_239_4138)"/>
<path d="M147.575 250.537L266.129 211.801L263.019 195.511L147.575 250.537Z" fill="url(#paint18_linear_239_4138)"/>
<path d="M347.693 205.427L263.019 195.511L266.129 211.801L347.693 205.427Z" fill="url(#paint19_linear_239_4138)"/>
<path d="M263.019 195.511L347.693 205.427L394.558 142.828L263.019 195.511Z" fill="url(#paint20_linear_239_4138)"/>
<path d="M483.488 146.805L424.238 154.378L346.22 198.453L483.488 146.805Z" fill="url(#paint21_linear_239_4138)"/>
<path d="M520.314 204.828L483.488 146.805L517.696 269.442L520.314 204.828Z" fill="url(#paint22_linear_239_4138)"/>
<path d="M495.109 289.6L517.696 269.442L483.488 146.805L495.109 289.6Z" fill="url(#paint23_linear_239_4138)"/>
<path d="M282.824 499.025L294.172 525.503L377.154 492.76L282.824 499.025Z" fill="url(#paint24_linear_239_4138)"/>
<path d="M480.269 484.261L534.608 509.703L503.838 371.485L480.269 484.261Z" fill="url(#paint25_linear_239_4138)"/>
<path d="M480.269 484.261L377.154 492.76L534.609 509.703L480.269 484.261Z" fill="url(#paint26_linear_239_4138)"/>
<path d="M483.488 146.805L458.446 265.138L533.681 304.419L483.488 146.805Z" fill="url(#paint27_linear_239_4138)"/>
<path d="M347.693 205.427L406.888 177.805L394.558 142.828L347.693 205.427Z" fill="url(#paint28_linear_239_4138)"/>
<path d="M458.446 265.138L483.488 146.805L406.888 177.805L458.446 265.138Z" fill="url(#paint29_linear_239_4138)"/>
<path d="M394.558 142.828L406.888 177.805L483.488 146.805L394.558 142.828Z" fill="url(#paint30_linear_239_4138)"/>
<path d="M425.056 343.7L480.269 484.261L645.034 403.683L425.056 343.7Z" fill="url(#paint31_linear_239_4138)"/>
<path d="M377.154 492.76L480.269 484.261L373.335 469.17L377.154 492.76Z" fill="url(#paint32_linear_239_4138)"/>
<path d="M377.154 492.76L373.335 469.17L282.824 499.025L377.154 492.76Z" fill="url(#paint33_linear_239_4138)"/>
<path d="M425.056 343.7L373.335 469.169L480.269 484.261L425.056 343.7Z" fill="url(#paint34_linear_239_4138)"/>
<path d="M193.894 415.56L237.704 364.076L195.04 333.566L193.894 415.56Z" fill="url(#paint35_linear_239_4138)"/>
<path d="M237.704 364.076L318.777 337.271L256.963 255.332L237.704 364.076Z" fill="url(#paint36_linear_239_4138)"/>
<path d="M318.777 337.271L340.928 290.363L256.963 255.332L318.777 337.271Z" fill="url(#paint37_linear_239_4138)"/>
<path d="M458.446 265.138L406.888 177.805L383.865 237.952L458.446 265.138Z" fill="url(#paint38_linear_239_4138)"/>
<path d="M237.704 364.076L278.296 465.192L318.777 337.271L237.704 364.076Z" fill="url(#paint39_linear_239_4138)"/>
<path d="M318.777 337.271L278.296 465.192L373.335 469.17L318.777 337.271Z" fill="url(#paint40_linear_239_4138)"/>
<path d="M278.296 465.192L282.824 499.025L373.335 469.17L278.296 465.192Z" fill="url(#paint41_linear_239_4138)"/>
<path d="M237.704 364.076L193.894 415.56L278.295 465.192L237.704 364.076Z" fill="url(#paint42_linear_239_4138)"/>
<path d="M282.824 499.025L278.295 465.192L193.894 415.56L282.824 499.025Z" fill="url(#paint43_linear_239_4138)"/>
<path d="M340.928 290.363L383.865 237.952L301.374 151.491L340.928 290.363Z" fill="url(#paint44_linear_239_4138)"/>
<path d="M301.373 151.491L256.963 255.332L340.928 290.363L301.373 151.491Z" fill="url(#paint45_linear_239_4138)"/>
<path d="M383.865 237.952L406.888 177.805L301.374 151.491L383.865 237.952Z" fill="url(#paint46_linear_239_4138)"/>
<path d="M266.129 211.801L256.963 255.332L301.373 151.491L266.129 211.801Z" fill="url(#paint47_linear_239_4138)"/>
<path d="M256.963 255.332L122.642 193.877L237.704 364.076L256.963 255.332Z" fill="url(#paint48_linear_239_4138)"/>
<path d="M266.129 211.801L122.642 193.877L256.963 255.332L266.129 211.801Z" fill="url(#paint49_linear_239_4138)"/>
<path fill-rule="evenodd" clip-rule="evenodd" d="M122.642 193.877L195.04 333.566L237.704 364.076L122.642 193.877Z" fill="url(#paint50_linear_239_4138)"/>
<path d="M516.604 342.392L645.034 403.683L533.681 304.419L516.604 342.392Z" fill="url(#paint51_linear_239_4138)"/>
<path d="M516.604 342.392L533.681 304.419L458.446 265.138L516.604 342.392Z" fill="url(#paint52_linear_239_4138)"/>
<path d="M458.446 265.138L383.865 237.952L516.604 342.392L458.446 265.138Z" fill="url(#paint53_linear_239_4138)"/>
<path d="M425.056 343.7L645.034 403.683L516.604 342.392L425.056 343.7Z" fill="url(#paint54_linear_239_4138)"/>
<path d="M373.335 469.17L385.12 368.053L318.777 337.271L373.335 469.17Z" fill="url(#paint55_linear_239_4138)"/>
<path d="M318.777 337.271L385.12 368.053L340.928 290.363L318.777 337.271Z" fill="url(#paint56_linear_239_4138)"/>
<path d="M373.335 469.17L425.056 343.7L385.12 368.053L373.335 469.17Z" fill="url(#paint57_linear_239_4138)"/>
<path d="M383.865 237.952L340.928 290.363L385.12 368.053L383.865 237.952Z" fill="url(#paint58_linear_239_4138)"/>
<path d="M516.604 342.392L383.865 237.952L385.12 368.053L516.604 342.392Z" fill="url(#paint59_linear_239_4138)"/>
<g style="mix-blend-mode:multiply" opacity="0.53">
<path d="M68.1385 170.287L67.702 170.559L206.934 376.062L68.1385 170.287Z" fill="#202975"/>
<path d="M699.101 424.005V423.678L476.013 363.095L699.101 424.168V424.005Z" fill="#202975"/>
<path d="M500.073 521.09V521.471L699.046 423.95L500.073 521.09Z" fill="#202975"/>
<path d="M544.047 349.693C544.047 349.693 544.047 349.693 544.047 350.02H543.72L383.483 223.678L544.047 349.693ZM544.047 349.693V350.074L383.483 223.678L544.047 349.693Z" fill="#202975"/>
<path d="M503.62 113.681H504.111L564.506 304.365L503.62 113.681ZM503.62 113.681H504.111L564.506 304.365L503.62 113.681Z" fill="#202975"/>
<path d="M565.652 551.817V552.308L375.518 531.55L565.652 551.817ZM565.652 551.817C565.652 551.817 565.652 551.817 565.652 552.09L375.518 531.55L565.652 551.817Z" fill="#202975"/>
<path d="M67.702 170.559H68.1385L155.431 339.45L67.702 170.559ZM67.702 170.559H68.1385L155.431 339.45L67.702 170.559Z" fill="#202975"/>
<path d="M698.882 424.114L699.21 423.732L564.506 304.256L698.882 424.114Z" fill="#202975"/>
<path d="M230.285 244.49V244.926L67.9203 170.45L230.285 244.49ZM230.285 244.49V244.817C230.285 244.817 230.285 244.817 229.957 244.817L67.9203 170.45L230.285 244.49Z" fill="#202975"/>
<path d="M241.251 191.861V192.352L67.9749 170.559L241.251 191.861ZM241.251 191.861C241.251 191.861 241.251 191.861 241.251 192.134L67.9749 170.341L241.251 191.861Z" fill="#202975"/>
<path d="M543.829 350.074V349.638L699.046 423.95L543.829 350.074ZM543.829 350.074C543.829 350.074 543.829 350.074 543.829 349.747L699.046 423.95L543.829 350.074Z" fill="#202975"/>
<path d="M499.746 521.471H500.182L440.605 370.014L499.746 521.471Z" fill="#202975"/>
<path d="M256.2 498.317H255.763L304.865 343.863L256.2 498.317ZM256.2 498.317C256.2 498.317 256.2 498.317 255.927 498.317V497.99L305.029 343.536L256.2 498.317Z" fill="#202975"/>
<path d="M385.065 381.074V380.638L543.883 349.856L385.065 381.074ZM385.065 381.074V380.638L543.883 349.856L385.065 381.074Z" fill="#202975"/>
<path d="M383.265 223.678H383.756L385.011 380.856L383.265 223.678Z" fill="#202975"/>
<path d="M261.601 538.96L261.273 539.341L154.013 438.333L261.601 538.96ZM261.601 538.96C261.601 538.96 261.601 539.232 261.601 539.287C261.601 539.341 261.601 539.287 261.273 539.287L154.013 438.333L261.601 538.96Z" fill="#202975"/>
<path d="M473.722 256.585C473.722 256.585 473.722 256.585 473.722 256.312L504.165 113.354L473.722 256.585Z" fill="#202975"/>
<path d="M383.647 223.515L383.319 223.842L283.86 119.238L383.647 223.515ZM383.647 223.515L383.319 223.842L283.86 119.238L383.647 223.515Z" fill="#202975"/>
<path d="M97.7634 238.987H98.2544L154.94 370.232L97.7634 238.987ZM97.7634 238.987H98.2544L154.94 370.232L97.7634 238.987Z" fill="#202975"/>
<path d="M424.456 373.12H424.129L370.826 503.057L424.565 373.12H424.456Z" fill="#202975"/>
<path d="M283.915 119.129H283.642L230.23 244.435L284.079 119.129H283.915Z" fill="#202975"/>
<path d="M207.152 376.116H206.661L230.23 244.817L207.152 376.116ZM207.152 376.116C207.152 376.116 207.152 376.116 206.879 376.116C206.855 376.065 206.842 376.009 206.842 375.953C206.842 375.896 206.855 375.84 206.879 375.789L230.448 244.49L207.152 376.116Z" fill="#202975"/>
<path d="M298.918 39.9137H298.591L256.036 165.002L299.028 39.9137H298.918Z" fill="#202975"/>
<path d="M298.7 39.8592V40.1861L410.544 109.377L298.7 39.7502V39.8592Z" fill="#202975"/>
<path d="M207.152 376.171H206.716L256.254 498.426L207.152 376.171Z" fill="#202975"/>
<path d="M283.806 119.456V119.02L411.362 151L283.806 119.456ZM283.806 119.456C283.806 119.456 283.806 119.456 283.806 119.184H284.133L411.362 151L283.806 119.456Z" fill="#202975"/>
<path d="M500.019 521.035V521.471L370.826 503.057L500.019 521.035Z" fill="#202975"/>
<path d="M305.083 343.591H304.701L230.23 244.708L305.083 343.591ZM305.083 343.591V343.918C305.083 343.918 305.083 343.918 304.756 343.918L230.23 244.708L305.083 343.591Z" fill="#202975"/>
<path d="M371.044 503.057H370.607L385.011 380.91L371.044 503.057Z" fill="#202975"/>
<path d="M411.144 151.001H411.526L473.722 256.53L411.144 151.001ZM411.144 151.001C411.144 151.001 411.144 150.728 411.144 150.674C411.144 150.619 411.417 150.674 411.471 150.674L473.722 256.53L411.144 151.001Z" fill="#202975"/>
<path d="M153.903 438.551V438.115L255.763 498.045L153.903 438.551ZM153.903 438.551C153.903 438.551 153.903 438.551 153.903 438.224C153.903 437.897 153.903 438.224 154.231 438.224L256.09 498.153L153.903 438.551Z" fill="#202975"/>
<path d="M155.158 339.123H155.595L98.0363 238.878L155.158 339.123Z" fill="#202975"/>
<path d="M370.771 502.839V503.275L261.437 539.123L370.771 502.839ZM370.771 502.839V503.166L261.437 539.123L370.771 502.839Z" fill="#202975"/>
<path d="M255.981 498.48V497.99L370.553 503.057L255.981 498.48Z" fill="#202975"/>
<path d="M261.492 539.396V538.905L375.518 531.55L261.492 539.396ZM261.492 539.396V538.905L375.518 531.55L261.492 539.396Z" fill="#202975"/>
<path d="M230.121 244.926V244.49L331.871 287.203L230.121 244.926ZM230.121 244.926C230.097 244.875 230.084 244.819 230.084 244.762C230.084 244.706 230.097 244.65 230.121 244.599H230.448L331.871 287.203L230.121 244.926Z" fill="#202975"/>
<path d="M375.518 531.332V531.768L275.131 571.158L375.518 531.332Z" fill="#202975"/>
<path d="M396.468 108.996V108.505L503.892 113.572L396.468 108.996Z" fill="#202975"/>
<path d="M304.592 343.972V343.482L206.388 376.062L304.592 343.972Z" fill="#202975"/>
<path d="M564.615 304.147V303.82L473.722 256.53L564.615 304.256V304.147Z" fill="#202975"/>
<path d="M503.783 113.354V113.844L411.362 151L503.783 113.354ZM503.783 113.354C503.834 113.33 503.89 113.317 503.947 113.317C504.004 113.317 504.059 113.33 504.111 113.354C504.111 113.354 504.111 113.626 504.111 113.681L411.362 151L503.783 113.354Z" fill="#202975"/>
<path d="M155.158 339.232H155.595L154.013 438.333L155.158 339.232ZM155.158 339.232H155.595L154.013 438.333L155.158 339.232Z" fill="#202975"/>
<path d="M473.722 256.639V256.312L383.483 223.678L473.722 256.803V256.639Z" fill="#202975"/>
<path d="M324.342 129.208H324.833L298.809 39.9681L324.342 129.208Z" fill="#202975"/>
<path d="M385.12 380.638V381.074L304.865 343.7L385.12 380.638ZM385.12 380.638V381.074L304.865 343.7L385.12 380.638Z" fill="#202975"/>
<path d="M241.032 191.97L241.469 192.243L283.86 119.238L241.032 191.97Z" fill="#202975"/>
<path d="M503.674 113.735L504.056 113.463L548.412 183.689L503.674 113.735ZM503.674 113.735C503.674 113.735 503.674 113.463 503.674 113.409H504.001L548.412 183.689L503.674 113.735Z" fill="#202975"/>
<path d="M331.871 287.203L331.489 286.876L383.538 223.678L331.871 287.203ZM331.871 287.203C331.871 287.203 331.871 287.203 331.544 287.203C331.217 287.203 331.544 287.203 331.544 286.876L383.592 223.678L331.871 287.203Z" fill="#202975"/>
<path d="M499.855 521.471V521.036L565.324 552.09L499.855 521.471ZM499.855 521.471H500.182L565.652 552.526L499.855 521.471Z" fill="#202975"/>
<path d="M548.193 183.689H548.63L578.909 243.073L548.193 183.689ZM548.193 183.689H548.63L578.909 243.073L548.193 183.689Z" fill="#202975"/>
<path d="M396.359 108.996V108.56L337.327 132.531L396.359 108.996Z" fill="#202975"/>
<path d="M207.043 375.898L206.77 376.279L155.377 339.232L207.043 375.898ZM207.043 375.898V376.225C207.043 376.225 207.043 376.225 206.716 376.225L155.322 339.178L207.043 375.898Z" fill="#202975"/>
<path d="M331.435 287.203H331.871L304.592 343.754L331.435 287.203ZM331.435 287.203H331.871L304.592 343.754L331.435 287.203Z" fill="#202975"/>
<path d="M548.139 183.689H548.63L545.847 245.471L548.139 183.689ZM548.139 183.689V183.961L545.356 245.743L548.139 183.689Z" fill="#202975"/>
<path d="M565.87 552.035H565.434L552.994 495.375L565.87 552.035Z" fill="#202975"/>
<path d="M230.448 244.762C230.448 244.762 230.448 244.762 230.175 244.762C229.903 244.762 230.175 244.762 230.175 244.49L241.469 191.916L230.448 244.762ZM230.448 244.762H229.957L241.251 192.188L230.448 244.762Z" fill="#202975"/>
<path d="M564.288 303.929H564.724L543.883 349.856L564.288 303.929ZM564.288 303.929H564.724L543.883 349.856L564.288 303.929Z" fill="#202975"/>
<path d="M411.58 151H411.089L396.468 108.669L411.58 151ZM411.58 151V151.327C411.58 151.327 411.58 151.327 411.253 151.327L396.631 108.996L411.58 151Z" fill="#202975"/>
<path d="M162.742 480.338H162.251L154.013 438.333L162.742 480.338ZM162.742 480.338C162.742 480.338 162.742 480.338 162.469 480.338L154.013 438.333L162.742 480.338Z" fill="#202975"/>
<path d="M255.763 498.262H256.2L261.655 539.178L255.763 498.262Z" fill="#202975"/>
<path d="M396.25 108.614H396.631L372.135 140.976L396.25 108.614ZM396.25 108.614C396.305 108.574 396.372 108.553 396.441 108.553C396.509 108.553 396.576 108.574 396.631 108.614V108.941L372.135 141.303L396.25 108.614Z" fill="#202975"/>
<path d="M554.959 273.637L554.577 273.31L578.909 242.91L554.959 273.637ZM554.959 273.637C554.959 273.637 554.959 273.637 554.631 273.637C554.591 273.582 554.57 273.515 554.57 273.447C554.57 273.378 554.591 273.311 554.631 273.256L578.964 242.855L554.959 273.637Z" fill="#202975"/>
<path d="M205.679 187.448V187.884L237.759 172.411L205.679 187.448Z" fill="#202975"/>
<path d="M274.913 571.049H275.349L261.437 538.905L274.913 571.049Z" fill="#202975"/>
<path d="M550.103 258.764V259.145L578.964 242.91L550.103 258.764Z" fill="#202975"/>
<path d="M370.607 503.057H371.044L375.518 531.55L370.607 503.057ZM370.607 503.057C370.607 503.057 370.607 503.057 370.607 502.784L375.518 531.55L370.607 503.057Z" fill="#202975"/>
<path d="M182.492 464.975L182.765 465.356L162.251 480.393L182.492 464.975ZM182.492 464.975C182.492 464.975 182.765 464.975 182.819 464.975V465.302L162.305 480.338L182.492 464.975Z" fill="#202975"/>
<path d="M257.291 164.675V164.239L237.377 172.412L257.291 164.675Z" fill="#202975"/>
<path d="M237.268 172.466H237.759L241.251 192.134L237.268 172.466ZM237.268 172.466H237.759L241.251 192.134L237.268 172.466Z" fill="#202975"/>
<path d="M251.78 173.883V174.373L237.595 172.412L251.78 173.883ZM251.78 173.883C251.78 173.883 251.78 173.883 251.78 174.155L237.595 172.194L251.78 173.883Z" fill="#202975"/>
<path d="M102.728 237.135V237.625L98.0908 238.878L102.728 237.135ZM102.728 237.135V237.462L98.0908 238.715L102.728 237.135Z" fill="#202975"/>
<path d="M98.0908 238.66V239.096L102.455 236.808L98.0908 238.66Z" fill="#202975"/>
</g>
<rect x="694.216" y="419.291" width="9.24638" height="9.24399" rx="2" fill="#004082"/>
<rect opacity="0.8" x="548.123" y="490.47" width="9.24638" height="9.24399" rx="2" fill="#004082"/>
<rect opacity="0.8" x="561.068" y="547.783" width="9.24638" height="9.24399" rx="2" fill="#004082"/>
<rect x="494.494" y="517.278" width="9.24638" height="9.24399" rx="2" fill="#004082"/>
<rect opacity="0.9" x="365.97" y="497.866" width="9.24638" height="9.24399" rx="2" fill="#004082"/>
<rect opacity="0.6" x="370.593" y="527.446" width="9.24638" height="9.24399" rx="2" fill="#004082"/>
<rect x="255.938" y="534.841" width="9.24638" height="9.24399" rx="2" fill="#004082"/>
<rect x="270.732" y="566.271" width="9.24638" height="9.24399" rx="2" fill="#004082"/>
<rect opacity="0.8" x="250.39" y="493.244" width="9.24638" height="9.24399" rx="2" fill="#004082"/>
<rect opacity="0.8" x="148.68" y="434.082" width="9.24638" height="9.24399" rx="2" fill="#004082"/>
<rect opacity="0.5" x="157.926" y="475.68" width="9.24638" height="9.24399" rx="2" fill="#004082"/>
<rect opacity="0.5" x="178.268" y="460.89" width="7.3971" height="7.39519" rx="2" fill="#004082"/>
<rect opacity="0.8" x="150.529" y="365.677" width="8.32174" height="8.31959" rx="2" fill="#004082"/>
<rect opacity="0.8" x="237.445" y="188.192" width="8.32174" height="8.31959" rx="2" fill="#004082"/>
<rect opacity="0.8" x="93.2015" y="234.412" width="8.32174" height="8.31959" rx="2" fill="#004082"/>
<rect opacity="0.8" x="201.384" y="182.646" width="8.32174" height="8.31959" rx="2" fill="#004082"/>
<rect x="102.448" y="232.563" width="8.32174" height="8.31959" rx="2" fill="#004082"/>
<rect x="62.6884" y="166.006" width="8.32174" height="8.31959" rx="2" fill="#004082"/>
<rect x="150.529" y="336.096" width="8.32174" height="8.31959" rx="2" fill="#004082"/>
<rect x="203.233" y="372.147" width="8.32174" height="8.31959" rx="2" fill="#004082"/>
<rect x="226.349" y="240.883" width="8.32174" height="8.31959" rx="2" fill="#004082"/>
<rect x="300.32" y="340.718" width="8.32174" height="8.31959" rx="2" fill="#004082"/>
<rect x="328.06" y="282.481" width="8.32174" height="8.31959" rx="2" fill="#004082"/>
<rect x="378.915" y="219.622" width="8.32174" height="8.31959" rx="2" fill="#004082"/>
<rect x="469.529" y="252.9" width="8.32174" height="8.31959" rx="2" fill="#004082"/>
<rect x="380.764" y="376.769" width="8.32174" height="8.31959" rx="2" fill="#004082"/>
<rect opacity="0.7" x="420.523" y="369.374" width="8.32174" height="8.31959" rx="2" fill="#004082"/>
<rect opacity="0.6" x="437.167" y="366.601" width="8.32174" height="8.31959" rx="2" fill="#004082"/>
<rect opacity="0.6" x="472.303" y="358.281" width="8.32174" height="8.31959" rx="2" fill="#004082"/>
<rect opacity="0.6" x="538.877" y="345.34" width="8.32174" height="8.31959" rx="2" fill="#004082"/>
<rect opacity="0.9" x="560.144" y="299.12" width="8.32174" height="8.31959" rx="2" fill="#004082"/>
<rect opacity="0.9" x="469.529" y="251.975" width="8.32174" height="8.31959" rx="2" fill="#004082"/>
<rect opacity="0.9" x="406.654" y="145.67" width="8.32174" height="8.31959" rx="2" fill="#004082"/>
<rect x="500.042" y="109.618" width="8.32174" height="8.31959" rx="2" fill="#004082"/>
<rect x="545.349" y="179.872" width="8.32174" height="8.31959" rx="2" fill="#004082"/>
<rect x="391.859" y="104.072" width="8.32174" height="8.31959" rx="2" fill="#004082"/>
<rect x="333.607" y="128.106" width="8.32174" height="8.31959" rx="2" fill="#004082"/>
<rect x="280.903" y="115.164" width="8.32174" height="8.31959" rx="2" fill="#004082"/>
<rect x="232.822" y="167.855" width="8.32174" height="8.31959" rx="2" fill="#004082"/>
<rect opacity="0.3" x="254.089" y="159.536" width="8.32174" height="8.31959" rx="2" fill="#004082"/>
<rect x="294.773" y="36.5906" width="8.32174" height="8.31959" rx="2" fill="#004082"/>
<rect opacity="0.5" x="575.862" y="239.034" width="8.32174" height="8.31959" rx="2" fill="#004082"/>
<rect opacity="0.5" x="408.503" y="104.072" width="8.32174" height="8.31959" rx="2" fill="#004082"/>
<rect opacity="0.5" x="366.894" y="137.35" width="8.32174" height="8.31959" rx="2" fill="#004082"/>
<rect opacity="0.5" x="319.738" y="125.333" width="8.32174" height="8.31959" rx="2" fill="#004082"/>
<rect opacity="0.5" x="249.465" y="171.553" width="8.32174" height="8.31959" rx="2" fill="#004082"/>
<rect opacity="0.5" x="546.274" y="255.673" width="8.32174" height="8.31959" rx="2" fill="#004082"/>
<rect opacity="0.5" x="550.897" y="269.539" width="8.32174" height="8.31959" rx="2" fill="#004082" fill-opacity="0.4"/>
<rect opacity="0.5" x="247.616" y="171.553" width="8.32174" height="8.31959" rx="2" fill="#004082" fill-opacity="0.4"/>
<rect opacity="0.5" x="540.726" y="239.958" width="8.32174" height="8.31959" rx="2" fill="#004082" fill-opacity="0.4"/>
<defs>
<linearGradient id="paint0_linear_239_4138" x1="257.102" y1="261.624" x2="242.845" y2="198.026" gradientUnits="userSpaceOnUse">
<stop stop-color="white"/>
<stop offset="1"/>
</linearGradient>
<linearGradient id="paint1_linear_239_4138" x1="231.692" y1="376.68" x2="216.118" y2="307.209" gradientUnits="userSpaceOnUse">
<stop stop-color="white"/>
<stop offset="1"/>
</linearGradient>
<linearGradient id="paint2_linear_239_4138" x1="432.587" y1="475.888" x2="416.044" y2="402.091" gradientUnits="userSpaceOnUse">
<stop stop-color="white"/>
<stop offset="1"/>
</linearGradient>
<linearGradient id="paint3_linear_239_4138" x1="469.404" y1="424.564" x2="452.705" y2="350.073" gradientUnits="userSpaceOnUse">
<stop stop-color="white"/>
<stop offset="1"/>
</linearGradient>
<linearGradient id="paint4_linear_239_4138" x1="344.501" y1="87.7193" x2="309.355" y2="187.527" gradientUnits="userSpaceOnUse">
<stop stop-color="#D7D7D7"/>
<stop offset="1" stop-color="#B5B1B2"/>
</linearGradient>
<linearGradient id="paint5_linear_239_4138" x1="392.284" y1="118.669" x2="181.706" y2="137.606" gradientUnits="userSpaceOnUse">
<stop stop-color="#F2F2F4"/>
<stop offset="0.9999" stop-color="#838382"/>
<stop offset="1" stop-color="#F3F3F5"/>
</linearGradient>
<linearGradient id="paint6_linear_239_4138" x1="254.474" y1="379.593" x2="245.473" y2="339.437" gradientUnits="userSpaceOnUse">
<stop stop-color="white"/>
<stop offset="1"/>
</linearGradient>
<linearGradient id="paint7_linear_239_4138" x1="263.645" y1="406.644" x2="255.72" y2="371.294" gradientUnits="userSpaceOnUse">
<stop stop-color="white"/>
<stop offset="1"/>
</linearGradient>
<linearGradient id="paint8_linear_239_4138" x1="509.075" y1="253.861" x2="509.075" y2="346.478" gradientUnits="userSpaceOnUse">
<stop stop-color="#FE7590"/>
<stop offset="1" stop-color="#B72440"/>
</linearGradient>
<linearGradient id="paint9_linear_239_4138" x1="304.436" y1="206.372" x2="299.708" y2="185.279" gradientUnits="userSpaceOnUse">
<stop stop-color="white"/>
<stop offset="1"/>
</linearGradient>
<linearGradient id="paint10_linear_239_4138" x1="531.662" y1="204.828" x2="531.662" y2="269.442" gradientUnits="userSpaceOnUse">
<stop stop-color="#FE7590"/>
<stop offset="1" stop-color="#B72440"/>
</linearGradient>
<linearGradient id="paint11_linear_239_4138" x1="530.235" y1="363.145" x2="509.371" y2="270.071" gradientUnits="userSpaceOnUse">
<stop stop-color="white"/>
<stop offset="1"/>
</linearGradient>
<linearGradient id="paint12_linear_239_4138" x1="418.339" y1="483.457" x2="400.862" y2="405.495" gradientUnits="userSpaceOnUse">
<stop stop-color="white"/>
<stop offset="1"/>
</linearGradient>
<linearGradient id="paint13_linear_239_4138" x1="497.857" y1="383.751" x2="495.008" y2="371.042" gradientUnits="userSpaceOnUse">
<stop stop-color="white"/>
<stop offset="1"/>
</linearGradient>
<linearGradient id="paint14_linear_239_4138" x1="526.039" y1="365.712" x2="508.071" y2="285.561" gradientUnits="userSpaceOnUse">
<stop stop-color="white"/>
<stop offset="1"/>
</linearGradient>
<linearGradient id="paint15_linear_239_4138" x1="308.333" y1="391.437" x2="211.09" y2="409.129" gradientUnits="userSpaceOnUse">
<stop stop-color="#CCCACB"/>
<stop offset="1" stop-color="#AEAEAF"/>
</linearGradient>
<linearGradient id="paint16_linear_239_4138" x1="195.998" y1="446.903" x2="181.47" y2="262.815" gradientUnits="userSpaceOnUse">
<stop stop-color="white"/>
<stop offset="1" stop-color="#737373"/>
</linearGradient>
<linearGradient id="paint17_linear_239_4138" x1="245.987" y1="308.364" x2="193.868" y2="211.606" gradientUnits="userSpaceOnUse">
<stop stop-color="#C9CED5"/>
<stop offset="1" stop-color="#CCD0D7"/>
</linearGradient>
<linearGradient id="paint18_linear_239_4138" x1="263.16" y1="196.403" x2="257.748" y2="250.707" gradientUnits="userSpaceOnUse">
<stop stop-color="#D7D7D7"/>
<stop offset="1" stop-color="#B5B1B2"/>
</linearGradient>
<linearGradient id="paint19_linear_239_4138" x1="319.945" y1="226.11" x2="320.983" y2="198.079" gradientUnits="userSpaceOnUse">
<stop stop-color="white"/>
<stop offset="1" stop-color="#737373"/>
</linearGradient>
<linearGradient id="paint20_linear_239_4138" x1="203.233" y1="216.386" x2="401.906" y2="62.9416" gradientUnits="userSpaceOnUse">
<stop stop-color="white"/>
<stop offset="1" stop-color="#737373"/>
</linearGradient>
<linearGradient id="paint21_linear_239_4138" x1="415.059" y1="181.573" x2="409.325" y2="155.995" gradientUnits="userSpaceOnUse">
<stop stop-color="white"/>
<stop offset="1"/>
</linearGradient>
<linearGradient id="paint22_linear_239_4138" x1="455.038" y1="216.59" x2="204.038" y2="360.59" gradientUnits="userSpaceOnUse">
<stop stop-color="#FE7590"/>
<stop offset="1" stop-color="#B72440"/>
</linearGradient>
<linearGradient id="paint23_linear_239_4138" x1="506.579" y1="285.895" x2="475.408" y2="146.845" gradientUnits="userSpaceOnUse">
<stop stop-color="white"/>
<stop offset="1"/>
</linearGradient>
<linearGradient id="paint24_linear_239_4138" x1="349.871" y1="502.293" x2="180.426" y2="547.019" gradientUnits="userSpaceOnUse">
<stop stop-color="#F2F2F4"/>
<stop offset="0.9999" stop-color="#838382"/>
<stop offset="1" stop-color="#F3F3F5"/>
</linearGradient>
<linearGradient id="paint25_linear_239_4138" x1="508.662" y1="509.757" x2="480.977" y2="357.03" gradientUnits="userSpaceOnUse">
<stop stop-color="#EBEBED"/>
<stop offset="1" stop-color="#F5F6F8"/>
</linearGradient>
<linearGradient id="paint26_linear_239_4138" x1="529.352" y1="491.667" x2="447.14" y2="556.671" gradientUnits="userSpaceOnUse">
<stop stop-color="#CCCACB"/>
<stop offset="1" stop-color="#AEAEAF"/>
</linearGradient>
<linearGradient id="paint27_linear_239_4138" x1="496.063" y1="146.805" x2="496.063" y2="304.419" gradientUnits="userSpaceOnUse">
<stop stop-color="#FE7590"/>
<stop offset="1" stop-color="#B72440"/>
</linearGradient>
<linearGradient id="paint28_linear_239_4138" x1="382.376" y1="98.4904" x2="276.741" y2="233.412" gradientUnits="userSpaceOnUse">
<stop stop-color="white"/>
<stop offset="0.09" stop-color="#F5F5F5"/>
<stop offset="0.259797" stop-color="#DBDBDB"/>
<stop offset="0.45" stop-color="#B1B1B0"/>
<stop offset="0.69" stop-color="#767675"/>
<stop offset="0.95" stop-color="#2C2C2A"/>
<stop offset="1" stop-color="#1D1D1B"/>
</linearGradient>
<linearGradient id="paint29_linear_239_4138" x1="445.188" y1="146.805" x2="445.188" y2="265.138" gradientUnits="userSpaceOnUse">
<stop stop-color="#FF7E97"/>
<stop offset="1" stop-color="#851D31"/>
</linearGradient>
<linearGradient id="paint30_linear_239_4138" x1="439.023" y1="142.828" x2="439.023" y2="177.805" gradientUnits="userSpaceOnUse">
<stop stop-color="#FE7590"/>
<stop offset="1" stop-color="#B72440"/>
</linearGradient>
<linearGradient id="paint31_linear_239_4138" x1="581.41" y1="384.626" x2="167.25" y2="444.011" gradientUnits="userSpaceOnUse">
<stop stop-color="#F2F2F4"/>
<stop offset="0.9999" stop-color="#838382"/>
<stop offset="1" stop-color="#F3F3F5"/>
</linearGradient>
<linearGradient id="paint32_linear_239_4138" x1="449.341" y1="476.038" x2="274.1" y2="548.818" gradientUnits="userSpaceOnUse">
<stop stop-color="#F2F2F4"/>
<stop offset="0.9999" stop-color="#838382"/>
<stop offset="1" stop-color="#F3F3F5"/>
</linearGradient>
<linearGradient id="paint33_linear_239_4138" x1="374.005" y1="477.86" x2="305.176" y2="505.645" gradientUnits="userSpaceOnUse">
<stop stop-color="#CCCACB"/>
<stop offset="1" stop-color="#AEAEAF"/>
</linearGradient>
<linearGradient id="paint34_linear_239_4138" x1="410.814" y1="330.549" x2="437.153" y2="532.994" gradientUnits="userSpaceOnUse">
<stop stop-color="#BFBEBD"/>
<stop offset="1" stop-color="#CAC8C9"/>
</linearGradient>
<linearGradient id="paint35_linear_239_4138" x1="236.607" y1="334.895" x2="208.332" y2="405.254" gradientUnits="userSpaceOnUse">
<stop stop-color="#D7D7D7"/>
<stop offset="1" stop-color="#B5B1B2"/>
</linearGradient>
<linearGradient id="paint36_linear_239_4138" x1="295.54" y1="250.988" x2="269.825" y2="366.144" gradientUnits="userSpaceOnUse">
<stop stop-color="#CFCBD0"/>
<stop offset="1" stop-color="#D2D0D1"/>
</linearGradient>
<linearGradient id="paint37_linear_239_4138" x1="265.885" y1="249.729" x2="353.853" y2="340.698" gradientUnits="userSpaceOnUse">
<stop stop-color="#D3D1D2"/>
<stop offset="1" stop-color="#B0B0B0"/>
</linearGradient>
<linearGradient id="paint38_linear_239_4138" x1="410.005" y1="169.634" x2="424.633" y2="295.851" gradientUnits="userSpaceOnUse">
<stop stop-color="#BFBEBD"/>
<stop offset="1" stop-color="#CAC8C9"/>
</linearGradient>
<linearGradient id="paint39_linear_239_4138" x1="287.806" y1="459.16" x2="197.3" y2="293.993" gradientUnits="userSpaceOnUse">
<stop stop-color="#CDCCCA"/>
<stop offset="1" stop-color="#B0AEAF"/>
</linearGradient>
<linearGradient id="paint40_linear_239_4138" x1="276.997" y1="399.837" x2="375.86" y2="407.194" gradientUnits="userSpaceOnUse">
<stop stop-color="#DDDDDD"/>
<stop offset="1" stop-color="#E0E0E0"/>
</linearGradient>
<linearGradient id="paint41_linear_239_4138" x1="279.969" y1="482.509" x2="358.272" y2="485.827" gradientUnits="userSpaceOnUse">
<stop stop-color="#CECECE"/>
<stop offset="1" stop-color="#D1CFD0"/>
</linearGradient>
<linearGradient id="paint42_linear_239_4138" x1="278.635" y1="542.467" x2="229.301" y2="297.888" gradientUnits="userSpaceOnUse">
<stop stop-color="white"/>
<stop offset="1" stop-color="#737373"/>
</linearGradient>
<linearGradient id="paint43_linear_239_4138" x1="283.182" y1="562.81" x2="250.791" y2="357.831" gradientUnits="userSpaceOnUse">
<stop stop-color="white"/>
<stop offset="1" stop-color="#737373"/>
</linearGradient>
<linearGradient id="paint44_linear_239_4138" x1="282.591" y1="158.664" x2="356.635" y2="258.897" gradientUnits="userSpaceOnUse">
<stop stop-color="#F2F2F4"/>
<stop offset="1" stop-color="#EAEAEC"/>
</linearGradient>
<linearGradient id="paint45_linear_239_4138" x1="338.825" y1="153.741" x2="295.176" y2="276.651" gradientUnits="userSpaceOnUse">
<stop stop-color="#D7D7D7"/>
<stop offset="1" stop-color="#B5B1B2"/>
</linearGradient>
<linearGradient id="paint46_linear_239_4138" x1="376.371" y1="176.665" x2="176.132" y2="199.054" gradientUnits="userSpaceOnUse">
<stop stop-color="#F2F2F4"/>
<stop offset="0.9999" stop-color="#838382"/>
<stop offset="1" stop-color="#F3F3F5"/>
</linearGradient>
<linearGradient id="paint47_linear_239_4138" x1="286.82" y1="346.547" x2="353.807" y2="197.774" gradientUnits="userSpaceOnUse">
<stop stop-color="white"/>
<stop offset="1" stop-color="#737373"/>
</linearGradient>
<linearGradient id="paint48_linear_239_4138" x1="169.926" y1="195.361" x2="261.246" y2="350.721" gradientUnits="userSpaceOnUse">
<stop stop-color="#D7D7D7"/>
<stop offset="1" stop-color="#ADAEA9"/>
</linearGradient>
<linearGradient id="paint49_linear_239_4138" x1="135.995" y1="179.581" x2="257.305" y2="232.417" gradientUnits="userSpaceOnUse">
<stop stop-color="#F5F5F5"/>
<stop offset="1" stop-color="#EBEBEB"/>
</linearGradient>
<linearGradient id="paint50_linear_239_4138" x1="199.997" y1="513.58" x2="277.267" y2="242.31" gradientUnits="userSpaceOnUse">
<stop stop-color="white"/>
<stop offset="1" stop-color="#737373"/>
</linearGradient>
<linearGradient id="paint51_linear_239_4138" x1="583.71" y1="403.722" x2="577.489" y2="290.776" gradientUnits="userSpaceOnUse">
<stop stop-color="#EBEBED"/>
<stop offset="1" stop-color="#F5F6F8"/>
</linearGradient>
<linearGradient id="paint52_linear_239_4138" x1="457.418" y1="301.784" x2="535.325" y2="309.619" gradientUnits="userSpaceOnUse">
<stop stop-color="#DDDDDD"/>
<stop offset="1" stop-color="#E0E0E0"/>
</linearGradient>
<linearGradient id="paint53_linear_239_4138" x1="512.173" y1="268.354" x2="402.429" y2="286.175" gradientUnits="userSpaceOnUse">
<stop stop-color="#CCCACB"/>
<stop offset="1" stop-color="#AEAEAF"/>
</linearGradient>
<linearGradient id="paint54_linear_239_4138" x1="722.88" y1="526.984" x2="480.511" y2="636.709" gradientUnits="userSpaceOnUse">
<stop stop-color="white"/>
<stop offset="0.12" stop-color="#FAFAFA"/>
<stop offset="0.26" stop-color="#EBEBEB"/>
<stop offset="0.41" stop-color="#D2D2D2"/>
<stop offset="0.58" stop-color="#B0B0AF"/>
<stop offset="0.75" stop-color="#838382"/>
<stop offset="0.93" stop-color="#4E4E4C"/>
<stop offset="0.96" stop-color="#444442"/>
<stop offset="0.98" stop-color="#212120"/>
<stop offset="0.99" stop-color="#090909"/>
<stop offset="1"/>
</linearGradient>
<linearGradient id="paint55_linear_239_4138" x1="385.387" y1="569.968" x2="285.448" y2="271.407" gradientUnits="userSpaceOnUse">
<stop stop-color="white"/>
<stop offset="1" stop-color="#737373"/>
</linearGradient>
<linearGradient id="paint56_linear_239_4138" x1="357.648" y1="235.336" x2="223.965" y2="389.525" gradientUnits="userSpaceOnUse">
<stop stop-color="white"/>
<stop offset="0.09" stop-color="#F5F5F5"/>
<stop offset="0.259797" stop-color="#DBDBDB"/>
<stop offset="0.45" stop-color="#B1B1B0"/>
<stop offset="0.69" stop-color="#767675"/>
<stop offset="0.95" stop-color="#2C2C2A"/>
<stop offset="1" stop-color="#1D1D1B"/>
</linearGradient>
<linearGradient id="paint57_linear_239_4138" x1="372.547" y1="344.062" x2="445.981" y2="503.984" gradientUnits="userSpaceOnUse">
<stop stop-color="white"/>
<stop offset="0.0833333" stop-color="#DEDEDD"/>
<stop offset="0.166667" stop-color="#D3D1D2"/>
<stop offset="0.25" stop-color="#C5C3C4"/>
<stop offset="0.333333" stop-color="#C0BEBF"/>
<stop offset="0.416667" stop-color="#BCBABB"/>
<stop offset="0.5" stop-color="#B6B4B5"/>
<stop offset="0.583333" stop-color="#B5B3B4"/>
<stop offset="0.666667" stop-color="#ACACAA"/>
<stop offset="0.75" stop-color="#B0ACAB"/>
<stop offset="0.833333" stop-color="#AEAAAB"/>
<stop offset="0.916667" stop-color="#090909"/>
<stop offset="1" stop-color="#A7A1A0"/>
</linearGradient>
<linearGradient id="paint58_linear_239_4138" x1="340.254" y1="238.328" x2="425.632" y2="391.54" gradientUnits="userSpaceOnUse">
<stop stop-color="white"/>
<stop offset="0.0833333" stop-color="#DEDEDD"/>
<stop offset="0.166667" stop-color="#D3D1D2"/>
<stop offset="0.25" stop-color="#C5C3C4"/>
<stop offset="0.333333" stop-color="#C0BEBF"/>
<stop offset="0.416667" stop-color="#BCBABB"/>
<stop offset="0.5" stop-color="#B6B4B5"/>
<stop offset="0.583333" stop-color="#B5B3B4"/>
<stop offset="0.666667" stop-color="#ACACAA"/>
<stop offset="0.75" stop-color="#B0ACAB"/>
<stop offset="0.833333" stop-color="#AEAAAB"/>
<stop offset="0.916667" stop-color="#090909"/>
<stop offset="1" stop-color="#A7A1A0"/>
</linearGradient>
<linearGradient id="paint59_linear_239_4138" x1="435.317" y1="256.597" x2="220.202" y2="272.896" gradientUnits="userSpaceOnUse">
<stop stop-color="#F2F2F4"/>
<stop offset="0.9999" stop-color="#838382"/>
<stop offset="1" stop-color="#F3F3F5"/>
</linearGradient>
</defs>
</svg>
