<svg width="187" height="36" viewBox="0 0 187 36" fill="none" xmlns="http://www.w3.org/2000/svg">
<path d="M87.4535 30.3752H91.1487L96.2996 11.1377V30.3752H100.443V4.9502H94.732L89.5811 23.6252L84.4302 4.9502H78.6074V30.3752H82.1907V11.1377L87.4535 30.3752ZM117.799 17.7752C117.799 13.2752 115.56 11.5877 110.969 11.5877C108.057 11.5877 105.818 12.4877 104.474 13.2752V16.8752C105.594 15.9752 108.169 15.0752 110.409 15.0752C112.536 15.0752 113.432 15.8627 113.432 17.7752V18.7877H112.76C106.154 18.7877 103.13 21.0377 103.13 24.7502C103.13 28.4627 105.37 30.6002 108.729 30.6002C111.304 30.6002 112.424 29.8127 113.208 28.9127H113.432C113.432 29.3627 113.656 30.0377 113.768 30.3752H118.023C117.911 28.9127 117.799 27.3377 117.799 25.8752V17.7752ZM113.432 25.9877C112.872 26.7752 111.864 27.4502 110.297 27.4502C108.505 27.4502 107.609 26.3252 107.609 24.7502C107.609 22.6127 109.065 21.8252 112.872 21.8252H113.544V25.9877H113.432ZM125.301 11.9252H121.27V35.6627H125.637V28.2377C126.757 29.9252 128.325 30.7127 130.228 30.7127C134.483 30.7127 137.395 27.3377 137.395 21.1502C137.395 14.9627 134.595 11.5877 130.452 11.5877C128.437 11.5877 126.757 12.4877 125.525 14.2877L125.301 11.9252ZM128.997 27.3377C126.757 27.3377 125.525 25.4252 125.525 21.2627C125.525 16.9877 126.757 15.0752 129.221 15.0752C131.572 15.0752 132.804 16.9877 132.804 21.1502C132.804 25.4252 131.572 27.3377 128.997 27.3377ZM150.944 30.3752H155.871L148.928 20.4752L155.087 11.9252H150.72L144.561 20.4752V11.9252H140.194V30.3752H144.561V21.3752L150.944 30.3752ZM170.428 29.1377V25.5377C169.084 26.4377 166.845 27.2252 164.717 27.2252C161.582 27.2252 160.35 25.7627 160.126 22.6127H170.54V20.2502C170.54 13.8377 167.74 11.4752 163.373 11.4752C158.11 11.4752 155.535 15.5252 155.535 21.1502C155.535 27.5627 158.67 30.7127 164.157 30.7127C167.18 30.7127 169.196 30.0377 170.428 29.1377ZM163.373 15.0752C165.501 15.0752 166.173 16.8752 166.173 19.1252V19.4627H160.126C160.238 16.5377 161.358 15.0752 163.373 15.0752ZM186.104 15.4127V11.9252H171.548V15.4127H176.698V30.3752H181.066V15.4127H186.104Z" fill="black"/>
<path d="M52.741 34.875C62.035 34.875 69.5374 27.3375 69.5374 18C69.5374 8.6625 62.035 1.125 52.741 1.125C43.447 1.125 35.9446 8.6625 35.9446 18C35.8326 27.3375 43.447 34.875 52.741 34.875Z" fill="#FED42B"/>
<path d="M16.7964 34.875C26.0728 34.875 33.5928 27.3198 33.5928 18C33.5928 8.68019 26.0728 1.125 16.7964 1.125C7.52001 1.125 0 8.68019 0 18C0 27.3198 7.52001 34.875 16.7964 34.875Z" fill="#FC3F1D"/>
<path d="M19.2608 10.575H17.5811C14.6698 10.575 13.2141 12.0375 13.2141 14.2875C13.2141 16.7625 14.2219 18 16.3494 19.4625L18.0291 20.7L13.2141 28.2375H9.29492L13.8859 21.375C11.1985 19.4625 9.74283 17.6625 9.74283 14.5125C9.74283 10.575 12.4303 7.875 17.5811 7.875H22.732V28.125H19.3728V10.575H19.2608Z" fill="white"/>
<mask id="mask0_223_17615" style="mask-type:luminance" maskUnits="userSpaceOnUse" x="35" y="1" width="35" height="34">
<path d="M52.741 34.875C62.035 34.875 69.5374 27.3375 69.5374 18C69.5374 8.6625 62.035 1.125 52.741 1.125C43.447 1.125 35.9446 8.6625 35.9446 18C35.8326 27.3375 43.447 34.875 52.741 34.875Z" fill="white"/>
</mask>
<g mask="url(#mask0_223_17615)">
<path d="M44.4547 10.3498L29.6738 29.8123L33.593 34.3123L44.5666 19.6873L43.4469 27.6748L49.6056 29.8123L57.108 17.7748C56.772 20.0248 56.2122 25.1998 61.1391 26.7748C68.8654 29.1373 75.584 15.1873 78.7193 8.0998L74.2403 5.7373C70.769 13.0498 65.3942 21.1498 63.2666 20.5873C61.1391 20.0248 63.0427 13.1623 64.2744 8.77481V8.6623L57.4439 6.2998L49.2696 19.6873L50.3894 12.3748L44.4547 10.3498Z" fill="black"/>
</g>
</svg>
