<svg width="24" height="24" viewBox="0 0 24 24" fill="none" xmlns="http://www.w3.org/2000/svg">
<g clip-path="url(#clip0_223_17333)">
<path d="M5.34375 5.99219V19.156H18.6574V5.99219H5.34375ZM8.37765 7.38224H15.6235V8.73224H8.37765V7.38224ZM16.299 17.5077H7.7022V11.1825H16.299V17.5077Z" fill="white"/>
<path d="M3.38672 20.5059H20.6109V23.52H3.38672V20.5059Z" fill="white"/>
<path d="M14.9476 13.3896V16.1576H9.05078V13.3896L11.9992 16.0865L14.9476 13.3896Z" fill="white"/>
<path d="M13.8862 12.5322L12.0007 14.2566L10.1152 12.5322H13.8862Z" fill="white"/>
<path d="M15.9123 0.956665C14.6329 0.64099 13.3178 0.481015 12.0001 0.47998C10.6825 0.481015 9.36741 0.64099 8.08797 0.956665C6.12651 1.44055 4.18602 2.02461 2.23828 2.56078L3.38803 4.64203H20.6122L21.762 2.56078C19.8142 2.02461 17.8738 1.44055 15.9123 0.956665Z" fill="white"/>
</g>
<defs>
<clipPath id="clip0_223_17333">
<rect width="23.04" height="23.04" fill="white" transform="translate(0.480469 0.47998)"/>
</clipPath>
</defs>
</svg>
