<svg width="24" height="24" viewBox="0 0 24 24" fill="none" xmlns="http://www.w3.org/2000/svg">
<g clip-path="url(#clip0_223_17321)">
<path d="M12.0013 0.47998C7.23781 0.47998 3.36133 4.38334 3.36133 9.18238C3.36133 16.0013 11.1892 23.0419 11.5223 23.3376C11.6596 23.4595 11.8304 23.52 12.0013 23.52C12.1722 23.52 12.3431 23.4595 12.4804 23.3385C12.8135 23.0419 20.6413 16.0013 20.6413 9.18238C20.6413 4.38334 16.7648 0.47998 12.0013 0.47998ZM12.0013 13.92C9.35461 13.92 7.20133 11.7667 7.20133 9.11998C7.20133 6.47326 9.35461 4.31998 12.0013 4.31998C14.648 4.31998 16.8013 6.47326 16.8013 9.11998C16.8013 11.7667 14.648 13.92 12.0013 13.92Z" fill="white"/>
</g>
<defs>
<clipPath id="clip0_223_17321">
<rect width="23.04" height="23.04" fill="white" transform="translate(0.480469 0.47998)"/>
</clipPath>
</defs>
</svg>
