<svg width="152" height="33" viewBox="0 0 152 33" fill="none" xmlns="http://www.w3.org/2000/svg">
<path fill-rule="evenodd" clip-rule="evenodd" d="M18.3619 0.0900815C14.947 -0.264189 11.5045 0.431905 8.50763 2.08268C5.51072 3.73346 3.10652 6.25789 1.62548 9.30898C0.144446 12.3601 -0.340721 15.788 0.236669 19.1217C0.81406 22.4554 2.42566 25.5311 4.84996 27.9261C7.27426 30.3211 10.3922 31.9178 13.7753 32.4968C17.1584 33.0757 20.6406 32.6085 23.7431 31.1593C26.8456 29.7102 29.4163 27.3502 31.1017 24.4037C32.7871 21.4573 33.5045 18.0691 33.1554 14.7048C32.7712 10.9652 31.0903 7.47013 28.3958 4.8082C25.7013 2.14627 22.1578 0.480047 18.3619 0.0900815ZM17.8233 25.0318C15.9867 25.2745 14.119 24.9443 12.4828 24.0876C10.8466 23.2308 9.52407 21.8907 8.70113 20.2555C7.87819 18.6203 7.5962 16.7722 7.89479 14.971C8.19338 13.1698 9.05754 11.5061 10.3658 10.2136C11.6741 8.92104 13.3607 8.06476 15.1886 7.76506C17.0166 7.46535 18.8939 7.73729 20.5568 8.54265C22.2197 9.34802 23.5846 10.6463 24.4596 12.2551C25.3346 13.8639 25.6757 15.7022 25.4351 17.5118C25.1825 19.4152 24.2999 21.1835 22.9239 22.5429C21.5479 23.9024 19.7552 24.7772 17.8233 25.0318ZM42.0452 0.737666C41.4687 0.739025 40.8998 0.866938 40.3798 1.1121C39.8599 1.35726 39.402 1.71349 39.0394 2.15489C38.6769 2.59628 38.4188 3.11173 38.284 3.66373C38.1491 4.21572 38.1409 4.79038 38.26 5.34587C38.6247 7.14551 40.3315 8.37515 42.1908 8.37515H52.9807L36.1892 30.2601C36.065 30.4217 35.9889 30.6141 35.9696 30.8159C35.9502 31.0176 35.9883 31.2207 36.0795 31.4023C36.1708 31.5839 36.3116 31.7369 36.4862 31.8441C36.6608 31.9514 36.8622 32.0086 37.068 32.0094H63.4071C65.2651 32.0094 66.9732 30.78 67.3379 28.9801C67.457 28.4247 67.4488 27.8501 67.3141 27.2982C67.1794 26.7463 66.9215 26.2308 66.5591 25.7894C66.1967 25.348 65.739 24.9916 65.2192 24.7463C64.6994 24.501 64.1307 24.3729 63.5543 24.3713H50.4076L67.1863 2.5033C67.3117 2.34017 67.3884 2.14584 67.408 1.94214C67.4275 1.73843 67.389 1.5334 67.2968 1.35004C67.2046 1.16668 67.0623 1.01226 66.8859 0.904093C66.7096 0.795926 66.5061 0.738295 66.2984 0.737666H42.0452ZM147.295 0.825763C146.423 1.02998 145.647 1.52117 145.097 2.21813C144.547 2.91509 144.255 3.77607 144.269 4.65872V17.3749L123.348 0.977845C123.184 0.84958 122.986 0.769536 122.778 0.74692C122.57 0.724305 122.359 0.760037 122.171 0.850006C121.982 0.939974 121.823 1.08052 121.712 1.25549C121.601 1.43045 121.543 1.63272 121.543 1.83902V28.0951C121.529 28.9778 121.821 29.8388 122.371 30.5358C122.921 31.2327 123.697 31.7239 124.569 31.9281C125.135 32.0508 125.722 32.0467 126.286 31.9162C126.851 31.7857 127.378 31.532 127.83 31.174C128.282 30.8159 128.646 30.3625 128.896 29.8473C129.146 29.3321 129.275 28.7681 129.274 28.1971V15.3709L150.196 31.7683C150.36 31.8965 150.558 31.9764 150.766 31.999C150.974 32.0216 151.184 31.9859 151.373 31.896C151.561 31.806 151.72 31.6656 151.831 31.4907C151.942 31.3158 152.001 31.1136 152 30.9074V4.55548C152.001 3.98459 151.871 3.42085 151.621 2.90582C151.371 2.39078 151.007 1.93759 150.555 1.57965C150.104 1.22171 149.576 0.968154 149.012 0.837677C148.448 0.7072 147.861 0.703129 147.295 0.825763ZM92.8205 7.64411C101.67 7.64411 108.282 12.2498 108.282 16.3697C108.282 20.4895 101.67 25.0952 92.8205 25.0952C83.9712 25.0952 77.3591 20.4895 77.3591 16.3697C77.3591 12.2498 83.9712 7.64411 92.8205 7.64411ZM92.8205 0.006931C80.0115 0.006931 69.6281 7.33283 69.6281 16.3697C69.6281 25.4065 80.0115 32.7324 92.8205 32.7324C105.629 32.7324 116.013 25.4065 116.013 16.3697C116.013 7.33283 105.629 0.006931 92.8205 0.006931Z" fill="#0069FF"/>
</svg>
